<?xml version="1.0" encoding="utf-8"?>
<!-- Generator: Adobe Illustrator 25.4.1, SVG Export Plug-In . SVG Version: 6.00 Build 0)  -->
<svg version="1.1" id="Capa_1" xmlns="http://www.w3.org/2000/svg" xmlns:xlink="http://www.w3.org/1999/xlink" x="0px" y="0px"
	 viewBox="0 0 155.9 155.9" style="enable-background:new 0 0 155.9 155.9;" xml:space="preserve">
<style type="text/css">
	.st0{fill:#e30613;}
</style>
<path class="st0" d="M78,0C34.9,0,0,34.9,0,78s34.9,78,78,78s78-34.9,78-78S121,0,78,0z M149.3,74.5H139c-0.3-5.8-1.4-11.4-3.2-16.7
	l9.4-3.9C147.5,60.4,149,67.3,149.3,74.5z M142.5,47.6l-9.4,3.8c-2.5-5.1-5.7-9.8-9.5-14.1l7.3-7.3
	C135.6,35.2,139.5,41.2,142.5,47.6z M108.6,13.6c6.5,3,12.3,7,17.5,11.7l-7.3,7.3c-4.2-3.8-8.9-7-14.1-9.5L108.6,13.6z M81.7,6.9
	c7.2,0.3,14.1,1.7,20.6,4l-3.9,9.5c-5.3-1.8-10.9-2.9-16.7-3.2V6.9z M74.9,6.9v10.2c-5.8,0.3-11.4,1.4-16.7,3.3l-3.9-9.5
	C60.7,8.6,67.7,7.2,74.9,6.9z M48,13.6l3.9,9.5c-5.2,2.5-9.9,5.7-14.1,9.5l-7.3-7.3C35.7,20.6,41.6,16.6,48,13.6z M25.7,30l7.3,7.3
	c-3.8,4.2-7,8.9-9.5,14.1L14,47.6C17.1,41.2,21,35.3,25.7,30z M11.5,53.9l9.4,3.9c-1.9,5.3-3,10.9-3.3,16.7H7.3
	C7.6,67.3,9.1,60.4,11.5,53.9z M7.3,81.3h10.2c0.3,5.8,1.4,11.4,3.3,16.7l-9.4,3.9C9.1,95.4,7.6,88.5,7.3,81.3z M14.1,108.1l9.4-3.8
	c2.5,5.2,5.7,9.9,9.5,14.1l-7.3,7.3C21,120.5,17.1,114.6,14.1,108.1z M47.9,142.3c-6.4-3.1-12.3-7.1-17.5-11.7l7.3-7.3
	c4.2,3.8,8.9,7,14.1,9.5L47.9,142.3z M74.9,148.9c-0.1,0-0.2,0-0.3,0c-7.1-0.3-13.9-1.8-20.3-4.2l3.9-9.4c5.3,1.9,10.9,3,16.7,3.3
	V148.9z M81.7,148.9v-10.2c5.8-0.3,11.4-1.4,16.7-3.3l3.9,9.5C95.9,147.2,88.9,148.6,81.7,148.9z M98.6,105c-3.8,0-6.8-3.1-6.8-6.8
	c0-0.6,0.1-1.1,0.2-1.7L82.6,87c-1.3,0.7-2.7,1.1-4.3,1.1c-1.5,0-3-0.5-4.3-1.1l-9.4,9.5c0.1,0.6,0.2,1.1,0.2,1.7
	c0,3.8-3.1,6.8-6.8,6.8c-3.8,0-6.8-3-6.8-6.8s3.1-6.8,6.8-6.8c0.6,0,1.1,0.1,1.7,0.2l9.5-9.4c-0.7-1.3-1.1-2.7-1.1-4.3
	c0-1.5,0.5-3,1.1-4.3l-9.5-9.4c-0.6,0.1-1.1,0.2-1.7,0.2c-3.8,0-6.8-3.1-6.8-6.8c0-3.8,3.1-6.8,6.8-6.8c3.8,0,6.8,3.1,6.8,6.8
	c0,0.6-0.1,1.1-0.2,1.7l9.4,9.5c1.3-0.7,2.7-1.1,4.3-1.1c1.5,0,3,0.5,4.3,1.1l9.4-9.5c-0.1-0.6-0.2-1.1-0.2-1.7c0-3.8,3-6.8,6.8-6.8
	c3.8,0,6.8,3.1,6.8,6.8c0,3.8-3.1,6.8-6.8,6.8c-0.6,0-1.1-0.1-1.7-0.2l-9.5,9.4c0.7,1.3,1.1,2.7,1.1,4.3c0,1.5-0.5,3-1.1,4.3
	l9.5,9.4c0.6-0.1,1.1-0.2,1.7-0.2c3.8,0,6.8,3,6.8,6.8S102.4,105,98.6,105z M108.7,142.3l-3.9-9.5c5.2-2.5,9.9-5.7,14.1-9.5l7.3,7.3
	C121,135.3,115.1,139.3,108.7,142.3z M130.9,125.7l-7.3-7.3c3.8-4.2,7-8.9,9.5-14.1l9.4,3.8C139.5,114.6,135.6,120.5,130.9,125.7z
	 M145.2,101.9l-9.5-3.9c1.9-5.3,3-10.9,3.3-16.7h10.3C149,88.5,147.5,95.4,145.2,101.9z"/>
</svg>
