<svg viewBox="0 0 18 15" fill="none" xmlns="http://www.w3.org/2000/svg"><path d="M17.727 7.406c0 .477-.174.914-.465 1.212-2.697 2.741-5.49 4.131-8.323 4.131h-.194a9.746 9.746 0 0 1-2.192-.317l1.087-1.113c.426.16.892.239 1.377.239 2.23 0 4.054-1.867 4.054-4.152 0-.496-.097-.973-.232-1.39l1.92-1.966c.854.596 1.707 1.31 2.541 2.165.253.278.427.715.427 1.191zm-8.73 2.761c1.494 0 2.697-1.231 2.697-2.76 0-.08 0-.18-.02-.259l-2.929 3.02h.253zm6.713-8.819L2.81 14.557a.538.538 0 0 1-.292.08.552.552 0 0 1-.407-.18.585.585 0 0 1 0-.834l2.114-2.165a14.294 14.294 0 0 1-3.53-2.88c-.563-.615-.563-1.728 0-2.343 1.358-1.53 4.229-4.072 8.05-4.172 1.3-.04 2.6.239 3.88.795L14.798.633a.553.553 0 0 1 .815 0 .617.617 0 0 1 .097.715zM8.047 7.545c0-.04-.02-.099-.02-.139a.394.394 0 0 0-.387-.397.394.394 0 0 0-.388.397c0 .279.058.537.174.755l.621-.615zm3.375-3.456a3.991 3.991 0 0 0-2.424-.834c-2.231 0-4.055 1.867-4.055 4.151 0 .934.31 1.788.815 2.483l.97-.993a2.778 2.778 0 0 1-.427-1.49c0-1.529 1.203-2.76 2.697-2.76.543 0 1.028.158 1.455.437l.97-.994z" fill="gray"/></svg>
