<svg width="157" height="133" viewBox="0 0 157 133" fill="none" xmlns="http://www.w3.org/2000/svg">
<rect opacity="0.2" x="22.8555" y="36.1" width="108.56" height="81.7" fill="#A5A5A5"/>
<path d="M133.319 27.493C133.142 27.5208 132.962 27.5208 132.785 27.493C132.545 27.4231 132.321 27.3068 132.126 27.1506C131.931 26.9944 131.769 26.8014 131.649 26.5826C131.528 26.3638 131.453 26.1236 131.425 25.8755C131.398 25.6275 131.42 25.3765 131.49 25.137L134.576 14.668C134.717 14.1843 135.045 13.7764 135.488 13.5341C135.931 13.2918 136.452 13.2349 136.937 13.376C137.422 13.5171 137.831 13.8446 138.074 14.2864C138.317 14.7283 138.374 15.2483 138.232 15.732L135.223 26.125C135.104 26.5324 134.852 26.8885 134.507 27.1364C134.162 27.3844 133.744 27.5099 133.319 27.493Z" fill="#1BBFF2"/>
<path d="M137.168 31.2725C136.869 31.095 136.625 30.8393 136.461 30.533C136.219 30.0985 136.157 29.5865 136.289 29.107C136.42 28.6274 136.735 28.2185 137.166 27.968L146.803 22.838C147.023 22.7133 147.266 22.633 147.517 22.6017C147.768 22.5705 148.023 22.5889 148.267 22.656C148.511 22.723 148.739 22.8374 148.939 22.9925C149.139 23.1476 149.306 23.3404 149.431 23.56C149.556 23.7796 149.637 24.0216 149.668 24.2722C149.699 24.5228 149.681 24.7771 149.614 25.0205C149.546 25.264 149.432 25.4919 149.276 25.6912C149.121 25.8905 148.928 26.0573 148.707 26.182L139.051 31.312C138.776 31.4601 138.469 31.5384 138.156 31.54C137.808 31.5425 137.467 31.45 137.168 31.2725Z" fill="#1BBFF2"/>
<path d="M136.984 38.3975C136.907 38.159 136.878 37.9077 136.899 37.658C136.938 37.157 137.174 36.6919 137.556 36.3643C137.938 36.0367 138.435 35.8733 138.937 35.91L149.85 36.746C150.355 36.7662 150.832 36.9857 151.175 37.3562C151.518 37.7268 151.699 38.2181 151.679 38.722C151.658 39.2259 151.438 39.7012 151.067 40.0433C150.695 40.3853 150.203 40.5662 149.698 40.546H149.565L138.651 39.71C138.401 39.6908 138.157 39.6224 137.933 39.5088C137.709 39.3951 137.51 39.2384 137.347 39.0477C137.185 38.857 137.061 38.636 136.984 38.3975Z" fill="#1BBFF2"/>
<rect x="17.2363" y="30.5" width="104.56" height="58.7" stroke="#A5A5A5" stroke-width="4"/>
<path d="M91.3231 59.85C91.3231 71.8577 81.5643 81.6 69.516 81.6C57.4678 81.6 47.709 71.8577 47.709 59.85C47.709 47.8423 57.4678 38.1 69.516 38.1C81.5643 38.1 91.3231 47.8423 91.3231 59.85Z" stroke="#A5A5A5" stroke-width="4"/>
<path d="M43.8054 38H24.7598V81.7H43.8054" stroke="#A5A5A5" stroke-width="4" stroke-linecap="round"/>
<path d="M95.2278 38H114.273V81.7H95.2278" stroke="#A5A5A5" stroke-width="4" stroke-linecap="round"/>
<path d="M17.1406 89.3V98.8H121.892V89.3" stroke="#A5A5A5" stroke-width="4"/>
<path d="M17.1406 98.8V108.3H121.892V98.8" stroke="#A5A5A5" stroke-width="4"/>
<path d="M17.1403 30.4C16.5055 30.4 12.3789 30.4 9.52205 30.4C6.66517 30.4 5.71289 32.3 5.71289 34.2C5.71289 36.1 6.66517 38 9.52205 38C12.5694 38 15.8706 38 17.1403 38" stroke="#A5A5A5" stroke-width="4"/>
<path d="M121.893 30.4C122.528 30.4 126.654 30.4 129.511 30.4C132.368 30.4 133.32 32.3 133.32 34.2C133.32 36.1 132.368 38 129.511 38C126.464 38 123.163 38 121.893 38" stroke="#A5A5A5" stroke-width="4"/>
<path d="M59.041 62.7C59.874 64.6 63.1352 68.4 69.5161 68.4C75.897 68.4 79.1582 64.6 79.9912 62.7" stroke="#FF7F38" stroke-width="4" stroke-linecap="round"/>
<path d="M59.1142 53.9414C59.2612 54.6785 59.624 55.3556 60.1567 55.887C60.8711 56.5996 61.8399 57 62.8501 57C63.8604 57 64.8292 56.5996 65.5436 55.887C66.0763 55.3556 66.4391 54.6785 66.5861 53.9414C66.7331 53.2042 66.6576 52.4402 66.3693 51.7458C66.081 51.0514 65.5928 50.458 64.9664 50.0404C64.34 49.6229 63.6035 49.4 62.8501 49.4C62.0968 49.4 61.3603 49.6229 60.7339 50.0404C60.1075 50.458 59.6193 51.0514 59.331 51.7458C59.0427 52.4402 58.9672 53.2042 59.1142 53.9414Z" fill="#FF7F38"/>
<path d="M72.4462 53.9414C72.5932 54.6785 72.956 55.3556 73.4887 55.887C74.2031 56.5996 75.1719 57 76.1822 57C77.1924 57 78.1613 56.5996 78.8756 55.887C79.4083 55.3556 79.7711 54.6785 79.9181 53.9414C80.0651 53.2042 79.9897 52.4402 79.7014 51.7458C79.4131 51.0514 78.9248 50.458 78.2984 50.0404C77.672 49.6229 76.9355 49.4 76.1822 49.4C75.4288 49.4 74.6923 49.6229 74.0659 50.0404C73.4395 50.458 72.9513 51.0514 72.663 51.7458C72.3747 52.4402 72.2993 53.2042 72.4462 53.9414Z" fill="#FF7F38"/>
</svg>
