<?xml version="1.0" encoding="utf-8"?>
<!-- Generator: Adobe Illustrator 23.0.3, SVG Export Plug-In . SVG Version: 6.00 Build 0)  -->
<svg version="1.1" id="Capa_1" xmlns="http://www.w3.org/2000/svg" xmlns:xlink="http://www.w3.org/1999/xlink" x="0px" y="0px"
	 viewBox="0 0 100 89.6" style="enable-background:new 0 0 100 89.6;" xml:space="preserve">
<style type="text/css">
	.st0{fill:url(#SVGID_1_);}
	.st1{fill:url(#SVGID_2_);}
	.st2{fill:url(#SVGID_3_);}
</style>
<g>
	<g>
		<linearGradient id="SVGID_1_" gradientUnits="userSpaceOnUse" x1="13.3097" y1="77.0212" x2="20.5837" y2="89.9463">
			<stop  offset="0" style="stop-color:#CC8911"/>
			<stop  offset="0.2448" style="stop-color:#F5A200"/>
			<stop  offset="0.3936" style="stop-color:#F7AB00"/>
			<stop  offset="0.6344" style="stop-color:#FDC300"/>
			<stop  offset="0.6617" style="stop-color:#FEC600"/>
		</linearGradient>
		<polygon class="st0" points="4.9,80.9 19.7,69.4 19.7,89.6 		"/>
		<linearGradient id="SVGID_2_" gradientUnits="userSpaceOnUse" x1="95.5295" y1="14.0536" x2="82.0626" y2="34.378">
			<stop  offset="0" style="stop-color:#FFAB00"/>
			<stop  offset="0.2448" style="stop-color:#F5A200"/>
			<stop  offset="0.3936" style="stop-color:#F7AB00"/>
			<stop  offset="0.6344" style="stop-color:#FDC300"/>
			<stop  offset="0.6617" style="stop-color:#FEC600"/>
		</linearGradient>
		<polygon class="st1" points="78,23.9 95.5,10.2 100,23.9 		"/>
		<linearGradient id="SVGID_3_" gradientUnits="userSpaceOnUse" x1="0" y1="40.4286" x2="95.4672" y2="40.4286">
			<stop  offset="0" style="stop-color:#F5A200"/>
			<stop  offset="1" style="stop-color:#FEC600"/>
		</linearGradient>
		<polygon class="st2" points="51.2,44.9 4.9,80.8 0,43.2 53.2,0 95.5,10.1 		"/>
	</g>
	<g>
		<path d="M28.4,49.7c0.9-0.2,2.2-0.6,3.2-1.4c1.1-0.9,1.3-1.8,0.8-2.5c-0.5-0.7-1.3-0.6-3-0.1c-2.2,0.8-4.2,0.7-5.4-0.9
			c-1.4-1.8-1-4.4,1.5-6.3c1.2-0.9,2.3-1.4,3.1-1.6l1,2.4c-0.6,0.1-1.6,0.4-2.6,1.2c-1,0.8-1.2,1.7-0.7,2.2c0.5,0.7,1.4,0.5,3.1,0
			c2.4-0.8,4.1-0.5,5.2,1c1.4,1.8,1.2,4.4-1.7,6.6c-1.2,0.9-2.7,1.6-3.5,1.7L28.4,49.7z"/>
		<path d="M38.1,47.2l-5.5-14.1l1.6-1.2l5.5,14.1L38.1,47.2z"/>
		<path d="M45.8,20.8c-0.4,0.3-0.8,0.6-1.3,1.1c-2.8,2.6-3,5.2-2,7.2l0.1-0.1c0.1-1.3,0.8-2.5,2.2-3.6c2.4-1.9,5.8-1.8,8.2,1.2
			c2.2,2.9,1.9,7-1.3,9.4c-3.9,3-8,1.6-10.7-1.9c-2.1-2.7-2.9-5.8-2.5-8.4c0.4-2.4,1.7-4.6,3.9-6.5c0.6-0.5,1-0.8,1.3-1.1L45.8,20.8
			z M49.6,29.5c-1-1.3-2.7-1.9-4.1-0.8c-0.9,0.7-1.2,1.9-1,2.9c0,0.2,0.2,0.5,0.5,1c1.3,1.5,3.1,2.3,4.6,1.1
			C50.8,32.6,50.7,31,49.6,29.5z"/>
	</g>
</g>
</svg>
