<?xml version="1.0" encoding="utf-8"?>
<!-- Generator: Adobe Illustrator 25.4.1, SVG Export Plug-In . SVG Version: 6.00 Build 0)  -->
<svg version="1.1" id="Capa_1" xmlns="http://www.w3.org/2000/svg" xmlns:xlink="http://www.w3.org/1999/xlink" x="0px" y="0px"
	 viewBox="0 0 199.5 155.9" style="enable-background:new 0 0 199.5 155.9;" xml:space="preserve">
<style type="text/css">
	.st0{fill:#e30613;}
</style>
<g>
		<path class="st0" d="M0.8,86.2l21.1,60.6c1.9,5.4,7,9,12.7,9c1.5,0,3-0.2,4.4-0.7L99.7,134c3.4-1.2,6.1-3.6,7.7-6.9
			c1.6-3.2,1.8-6.9,0.6-10.3L86.8,56.3c-1.9-5.4-7-9-12.7-9c-1.5,0-3,0.3-4.4,0.8L9.1,69.1c-3.4,1.2-6.1,3.6-7.7,6.9
			C-0.2,79.2-0.4,82.8,0.8,86.2L0.8,86.2z M79.5,107.5c4.1-1.4,8.7,0.7,10.1,4.9c1.4,4.1-0.7,8.7-4.9,10.1
			c-4.1,1.4-8.7-0.7-10.1-4.9C73.2,113.5,75.4,108.9,79.5,107.5z M65.2,66.3c4.1-1.4,8.7,0.7,10.1,4.9c1.4,4.1-0.7,8.7-4.9,10.1
			c-4.1,1.4-8.7-0.7-10.1-4.9S61,67.8,65.2,66.3z M38.3,121.8c4.1-1.4,8.7,0.7,10.1,4.9s-0.7,8.7-4.9,10.1
			c-4.1,1.4-8.7-0.7-10.1-4.9C32,127.8,34.2,123.3,38.3,121.8z M24,80.7c4.1-1.4,8.7,0.7,10.1,4.9c1.4,4.1-0.7,8.7-4.9,10.1
			s-8.7-0.7-10.1-4.9C17.7,86.6,19.9,82.1,24,80.7L24,80.7z M121.8,91.1H186c7.4,0,13.5-6,13.5-13.5V13.5C199.5,6,193.5,0,186,0
			h-64.2c-7.4,0-13.5,6-13.5,13.5v64.2C108.4,85.1,114.4,91.1,121.8,91.1L121.8,91.1z M175.7,15.8c4.4,0,7.9,3.5,7.9,7.9
			s-3.5,7.9-7.9,7.9s-7.9-3.5-7.9-7.9S171.4,15.8,175.7,15.8z M175.7,59.4c4.4,0,7.9,3.5,7.9,7.9c0,4.4-3.5,7.9-7.9,7.9
			s-7.9-3.5-7.9-7.9S171.4,59.4,175.7,59.4L175.7,59.4z M153.9,36.3c4.4,0,7.9,3.5,7.9,7.9s-3.5,7.9-7.9,7.9s-7.9-3.5-7.9-7.9
			S149.6,36.3,153.9,36.3L153.9,36.3z M132.1,15.8c4.4,0,7.9,3.5,7.9,7.9s-3.5,7.9-7.9,7.9s-7.9-3.5-7.9-7.9S127.8,15.8,132.1,15.8
			L132.1,15.8z M132.1,59.4c4.4,0,7.9,3.5,7.9,7.9c0,4.4-3.5,7.9-7.9,7.9s-7.9-3.5-7.9-7.9S127.8,59.4,132.1,59.4L132.1,59.4z"/>
</g>
</svg>
