<?xml version="1.0" encoding="utf-8"?>
<!-- Generator: Adobe Illustrator 25.4.1, SVG Export Plug-In . SVG Version: 6.00 Build 0)  -->
<svg version="1.1" id="Capa_1" xmlns="http://www.w3.org/2000/svg" xmlns:xlink="http://www.w3.org/1999/xlink" x="0px" y="0px"
	 viewBox="0 0 5.47 5.5" style="enable-background:new 0 0 5.47 5.5;" xml:space="preserve">
<style type="text/css">
	.st0{fill:#979797;}
</style>
<g>
	<path class="st0" d="M3.3,0H0.37C0.16,0,0,0.16,0,0.37v4.77C0,5.34,0.16,5.5,0.37,5.5H3.3c0.2,0,0.37-0.16,0.37-0.37V0.37
	C3.67,0.16,3.5,0,3.3,0z M2.25,3.3c-0.08,0-0.16-0.01-0.23-0.04v0.41H2.2c0.1,0,0.18,0.08,0.18,0.18S2.3,4.03,2.2,4.03H1.47
	c-0.1,0-0.18-0.08-0.18-0.18s0.08-0.18,0.18-0.18h0.18V3.26C1.58,3.29,1.5,3.3,1.42,3.3c-0.39,0-0.69-0.29-0.69-0.65
	c0-0.48,0.77-1,1-1.15c0.06-0.04,0.13-0.04,0.19,0c0.17,0.1,1,0.64,1,1.15C2.93,3.01,2.63,3.3,2.25,3.3L2.25,3.3z M4.54,0.58
	L4.03,0.45V3.9L4.8,1.03C4.85,0.84,4.74,0.63,4.54,0.58L4.54,0.58z M5.28,1.64L5.05,1.51L4.42,3.86l0.99-1.72
	C5.52,1.97,5.46,1.74,5.28,1.64L5.28,1.64z"/>
</g>
</svg>
