<svg width="103" height="15" viewBox="0 0 103 15" fill="none" xmlns="http://www.w3.org/2000/svg">
<path d="M23.1417 9.14844H21.4542L24.5266 0.421165H26.4783L29.555 9.14844H27.8675L25.5366 2.21094H25.4684L23.1417 9.14844ZM23.1971 5.72656H27.7994V6.99645H23.1971V5.72656ZM32.179 5.31321V9.14844H30.6364V2.60298H32.1108V3.7152H32.1875C32.3381 3.34872 32.5781 3.05753 32.9077 2.84162C33.2401 2.62571 33.6506 2.51776 34.1392 2.51776C34.5909 2.51776 34.9844 2.61435 35.3196 2.80753C35.6577 3.00071 35.919 3.28054 36.1037 3.64702C36.2912 4.01349 36.3835 4.4581 36.3807 4.98082V9.14844H34.8381V5.21946C34.8381 4.78196 34.7244 4.43963 34.4972 4.19247C34.2727 3.94531 33.9616 3.82173 33.5639 3.82173C33.294 3.82173 33.054 3.88139 32.8438 4.00071C32.6364 4.11719 32.473 4.28622 32.3537 4.50781C32.2372 4.7294 32.179 4.99787 32.179 5.31321ZM32.2514 1.80611L31.3182 1.7848C31.3182 1.27912 31.4489 0.882812 31.7102 0.595881C31.9716 0.308949 32.294 0.165483 32.6776 0.165483C32.8622 0.165483 33.0227 0.196733 33.1591 0.259233C33.2955 0.318892 33.4205 0.388494 33.5341 0.46804C33.6506 0.547585 33.7642 0.618608 33.875 0.681108C33.9858 0.740767 34.108 0.770596 34.2415 0.770596C34.4034 0.770596 34.5312 0.709517 34.625 0.587358C34.7216 0.465199 34.7713 0.308949 34.7741 0.118608L35.6903 0.15696C35.6875 0.665483 35.5554 1.06037 35.294 1.34162C35.0327 1.62003 34.7116 1.76065 34.331 1.76349C34.1264 1.76634 33.9545 1.73651 33.8153 1.67401C33.6761 1.61151 33.554 1.54048 33.4489 1.46094C33.3466 1.38139 33.2429 1.31179 33.1378 1.25213C33.0327 1.18963 32.9091 1.15838 32.767 1.15838C32.6165 1.15838 32.4929 1.21804 32.3963 1.33736C32.2997 1.45668 32.2514 1.61293 32.2514 1.80611ZM39.8324 9.28054C39.4176 9.28054 39.044 9.20668 38.7116 9.05895C38.3821 8.90838 38.1207 8.68679 37.9276 8.39418C37.7372 8.10156 37.642 7.74077 37.642 7.31179C37.642 6.94247 37.7102 6.63707 37.8466 6.3956C37.983 6.15412 38.169 5.96094 38.4048 5.81605C38.6406 5.67116 38.9063 5.56179 39.2017 5.48793C39.5 5.41122 39.8082 5.35582 40.1264 5.32173C40.5099 5.28196 40.821 5.24645 41.0597 5.2152C41.2983 5.18111 41.4716 5.12997 41.5795 5.06179C41.6903 4.99077 41.7457 4.88139 41.7457 4.73366V4.7081C41.7457 4.38707 41.6506 4.13849 41.4602 3.96236C41.2699 3.78622 40.9957 3.69815 40.6378 3.69815C40.2599 3.69815 39.9602 3.78054 39.7386 3.94531C39.5199 4.11009 39.3722 4.30469 39.2955 4.52912L37.8551 4.32457C37.9688 3.92685 38.1563 3.59446 38.4176 3.32741C38.679 3.05753 38.9986 2.85582 39.3764 2.7223C39.7543 2.58594 40.1719 2.51776 40.6293 2.51776C40.9446 2.51776 41.2585 2.55469 41.571 2.62855C41.8835 2.70241 42.169 2.82457 42.4276 2.99503C42.6861 3.16264 42.8935 3.39134 43.0497 3.68111C43.2088 3.97088 43.2884 4.3331 43.2884 4.76776V9.14844H41.8054V8.24929H41.7543C41.6605 8.43111 41.5284 8.60156 41.358 8.76065C41.1903 8.9169 40.9787 9.04332 40.723 9.13991C40.4702 9.23366 40.1733 9.28054 39.8324 9.28054ZM40.233 8.14702C40.5426 8.14702 40.8111 8.08594 41.0384 7.96378C41.2656 7.83878 41.4403 7.67401 41.5625 7.46946C41.6875 7.26491 41.75 7.0419 41.75 6.80043V6.02912C41.7017 6.06889 41.6193 6.10582 41.5028 6.13991C41.3892 6.17401 41.2614 6.20384 41.1193 6.2294C40.9773 6.25497 40.8366 6.2777 40.6974 6.29759C40.5582 6.31747 40.4375 6.33452 40.3352 6.34872C40.1051 6.37997 39.8991 6.43111 39.7173 6.50213C39.5355 6.57315 39.392 6.67259 39.2869 6.80043C39.1818 6.92543 39.1293 7.08736 39.1293 7.28622C39.1293 7.57031 39.233 7.7848 39.4403 7.92969C39.6477 8.07457 39.9119 8.14702 40.233 8.14702ZM47.2685 9.26349C46.7543 9.26349 46.294 9.13139 45.8878 8.86719C45.4815 8.60298 45.1605 8.21946 44.9247 7.71662C44.6889 7.21378 44.571 6.60298 44.571 5.88423C44.571 5.15696 44.6903 4.54332 44.929 4.04332C45.1705 3.54048 45.4957 3.16122 45.9048 2.90554C46.3139 2.64702 46.7699 2.51776 47.2727 2.51776C47.6563 2.51776 47.9716 2.5831 48.2188 2.71378C48.4659 2.84162 48.6619 2.99645 48.8068 3.17827C48.9517 3.35724 49.0639 3.52628 49.1435 3.68537H49.2074V0.421165H50.7543V9.14844H49.2372V8.11719H49.1435C49.0639 8.27628 48.9489 8.44531 48.7983 8.62429C48.6477 8.80043 48.4489 8.95099 48.2017 9.07599C47.9545 9.20099 47.6435 9.26349 47.2685 9.26349ZM47.6989 7.99787C48.0256 7.99787 48.304 7.9098 48.5341 7.73366C48.7642 7.55469 48.9389 7.30611 49.0582 6.98793C49.1776 6.66974 49.2372 6.29901 49.2372 5.87571C49.2372 5.45241 49.1776 5.08452 49.0582 4.77202C48.9418 4.45952 48.7685 4.21662 48.5384 4.04332C48.3111 3.87003 48.0313 3.78338 47.6989 3.78338C47.3551 3.78338 47.0682 3.87287 46.8381 4.05185C46.608 4.23082 46.4347 4.47798 46.3182 4.79332C46.2017 5.10866 46.1435 5.46946 46.1435 5.87571C46.1435 6.2848 46.2017 6.64986 46.3182 6.97088C46.4375 7.28906 46.6122 7.54048 46.8423 7.72514C47.0753 7.90696 47.3608 7.99787 47.6989 7.99787ZM52.3981 9.14844V2.60298H53.9407V9.14844H52.3981ZM53.1737 1.67401C52.9293 1.67401 52.7191 1.59304 52.543 1.43111C52.3668 1.26633 52.2788 1.06889 52.2788 0.838778C52.2788 0.605824 52.3668 0.40838 52.543 0.246448C52.7191 0.0816758 52.9293 -0.000710487 53.1737 -0.000710487C53.4208 -0.000710487 53.631 0.0816758 53.8043 0.246448C53.9805 0.40838 54.0685 0.605824 54.0685 0.838778C54.0685 1.06889 53.9805 1.26633 53.8043 1.43111C53.631 1.59304 53.4208 1.67401 53.1737 1.67401ZM55.527 9.14844V2.60298H57.0227V3.69389H57.0909C57.2102 3.31605 57.4148 3.02486 57.7045 2.82031C57.9972 2.61293 58.331 2.50923 58.706 2.50923C58.7912 2.50923 58.8864 2.51349 58.9915 2.52202C59.0994 2.5277 59.1889 2.53764 59.2599 2.55185V3.97088C59.1946 3.94815 59.0909 3.92827 58.9489 3.91122C58.8097 3.89134 58.6747 3.88139 58.544 3.88139C58.2628 3.88139 58.0099 3.94247 57.7855 4.06463C57.5639 4.18395 57.3892 4.35014 57.2614 4.56321C57.1335 4.77628 57.0696 5.02202 57.0696 5.30043V9.14844H55.527ZM62.946 1.74645V0.421165H69.9091V1.74645H67.2116V9.14844H65.6435V1.74645H62.946ZM72.1761 9.28054C71.7614 9.28054 71.3878 9.20668 71.0554 9.05895C70.7259 8.90838 70.4645 8.68679 70.2713 8.39418C70.081 8.10156 69.9858 7.74077 69.9858 7.31179C69.9858 6.94247 70.054 6.63707 70.1903 6.3956C70.3267 6.15412 70.5128 5.96094 70.7486 5.81605C70.9844 5.67116 71.25 5.56179 71.5455 5.48793C71.8438 5.41122 72.152 5.35582 72.4702 5.32173C72.8537 5.28196 73.1648 5.24645 73.4034 5.2152C73.642 5.18111 73.8153 5.12997 73.9233 5.06179C74.0341 4.99077 74.0895 4.88139 74.0895 4.73366V4.7081C74.0895 4.38707 73.9943 4.13849 73.804 3.96236C73.6136 3.78622 73.3395 3.69815 72.9815 3.69815C72.6037 3.69815 72.304 3.78054 72.0824 3.94531C71.8636 4.11009 71.7159 4.30469 71.6392 4.52912L70.1989 4.32457C70.3125 3.92685 70.5 3.59446 70.7614 3.32741C71.0227 3.05753 71.3423 2.85582 71.7202 2.7223C72.098 2.58594 72.5156 2.51776 72.973 2.51776C73.2884 2.51776 73.6023 2.55469 73.9148 2.62855C74.2273 2.70241 74.5128 2.82457 74.7713 2.99503C75.0298 3.16264 75.2372 3.39134 75.3935 3.68111C75.5526 3.97088 75.6321 4.3331 75.6321 4.76776V9.14844H74.1491V8.24929H74.098C74.0043 8.43111 73.8722 8.60156 73.7017 8.76065C73.5341 8.9169 73.3224 9.04332 73.0668 9.13991C72.8139 9.23366 72.517 9.28054 72.1761 9.28054ZM72.5767 8.14702C72.8864 8.14702 73.1548 8.08594 73.3821 7.96378C73.6094 7.83878 73.7841 7.67401 73.9062 7.46946C74.0312 7.26491 74.0938 7.0419 74.0938 6.80043V6.02912C74.0455 6.06889 73.9631 6.10582 73.8466 6.13991C73.733 6.17401 73.6051 6.20384 73.4631 6.2294C73.321 6.25497 73.1804 6.2777 73.0412 6.29759C72.902 6.31747 72.7813 6.33452 72.679 6.34872C72.4489 6.37997 72.2429 6.43111 72.0611 6.50213C71.8793 6.57315 71.7358 6.67259 71.6307 6.80043C71.5256 6.92543 71.473 7.08736 71.473 7.28622C71.473 7.57031 71.5767 7.7848 71.7841 7.92969C71.9915 8.07457 72.2557 8.14702 72.5767 8.14702ZM77.1832 9.14844V2.60298H78.679V3.69389H78.7472C78.8665 3.31605 79.071 3.02486 79.3608 2.82031C79.6534 2.61293 79.9872 2.50923 80.3622 2.50923C80.4474 2.50923 80.5426 2.51349 80.6477 2.52202C80.7557 2.5277 80.8452 2.53764 80.9162 2.55185V3.97088C80.8509 3.94815 80.7472 3.92827 80.6051 3.91122C80.4659 3.89134 80.331 3.88139 80.2003 3.88139C79.919 3.88139 79.6662 3.94247 79.4418 4.06463C79.2202 4.18395 79.0455 4.35014 78.9176 4.56321C78.7898 4.77628 78.7259 5.02202 78.7259 5.30043V9.14844H77.1832ZM81.9411 2.60298H83.4837V9.52344C83.4837 9.99503 83.3942 10.3842 83.2152 10.6911C83.0362 10.9979 82.7777 11.2266 82.4396 11.3771C82.1016 11.5277 81.6911 11.603 81.2081 11.603C81.1513 11.603 81.0987 11.6016 81.0504 11.5987C81.0021 11.5987 80.9496 11.5973 80.8928 11.5945V10.3374C80.9354 10.3402 80.9737 10.3416 81.0078 10.3416C81.0419 10.3445 81.0774 10.3459 81.1143 10.3459C81.4098 10.3459 81.6214 10.2734 81.7493 10.1286C81.8771 9.98651 81.9411 9.7777 81.9411 9.50213V2.60298ZM82.7081 1.67401C82.4609 1.67401 82.2493 1.59304 82.0732 1.43111C81.8999 1.26633 81.8132 1.06889 81.8132 0.838778C81.8132 0.605824 81.8999 0.40838 82.0732 0.246448C82.2493 0.0816758 82.4609 -0.000710487 82.7081 -0.000710487C82.9524 -0.000710487 83.1612 0.0816758 83.3345 0.246448C83.5107 0.40838 83.5987 0.605824 83.5987 0.838778C83.5987 1.06889 83.5107 1.26633 83.3345 1.43111C83.1612 1.59304 82.9524 1.67401 82.7081 1.67401ZM87.9677 9.27628C87.3114 9.27628 86.7447 9.13991 86.2674 8.86719C85.793 8.59162 85.4279 8.20241 85.1722 7.69957C84.9165 7.19389 84.7887 6.59872 84.7887 5.91406C84.7887 5.24077 84.9165 4.64986 85.1722 4.14134C85.4308 3.62997 85.7915 3.23224 86.2546 2.94815C86.7177 2.66122 87.2617 2.51776 87.8867 2.51776C88.2901 2.51776 88.6708 2.5831 89.0288 2.71378C89.3896 2.84162 89.7077 3.04048 89.9833 3.31037C90.2617 3.58026 90.4805 3.92401 90.6396 4.34162C90.7987 4.75639 90.8782 5.25071 90.8782 5.82457V6.29759H85.5131V5.25781H89.3995C89.3967 4.96236 89.3327 4.69957 89.2077 4.46946C89.0827 4.23651 88.908 4.05327 88.6836 3.91974C88.462 3.78622 88.2035 3.71946 87.908 3.71946C87.5927 3.71946 87.3157 3.79616 87.0771 3.94957C86.8384 4.10014 86.6523 4.29901 86.5188 4.54616C86.3881 4.79048 86.3214 5.05895 86.3185 5.35156V6.25923C86.3185 6.63991 86.3881 6.96662 86.5273 7.23935C86.6665 7.50923 86.8612 7.71662 87.1112 7.86151C87.3612 8.00355 87.6538 8.07457 87.989 8.07457C88.2134 8.07457 88.4165 8.04332 88.5984 7.98082C88.7802 7.91548 88.9379 7.82031 89.0714 7.69531C89.2049 7.57031 89.3058 7.41548 89.3739 7.23082L90.8143 7.39276C90.7234 7.77344 90.5501 8.10582 90.2944 8.38991C90.0415 8.67116 89.7177 8.88991 89.3228 9.04616C88.9279 9.19957 88.4762 9.27628 87.9677 9.27628ZM95.4517 2.60298V3.79616H91.6889V2.60298H95.4517ZM92.6179 1.0348H94.1605V7.17969C94.1605 7.38707 94.1918 7.54616 94.2543 7.65696C94.3196 7.76491 94.4048 7.83878 94.5099 7.87855C94.6151 7.91832 94.7315 7.93821 94.8594 7.93821C94.956 7.93821 95.044 7.93111 95.1236 7.9169C95.206 7.9027 95.2685 7.88991 95.3111 7.87855L95.571 9.08452C95.4886 9.11293 95.3707 9.14418 95.2173 9.17827C95.0668 9.21236 94.8821 9.23224 94.6634 9.23793C94.277 9.24929 93.929 9.19105 93.6193 9.06321C93.3097 8.93253 93.0639 8.73082 92.8821 8.4581C92.7031 8.18537 92.6151 7.84446 92.6179 7.43537V1.0348ZM98.6254 9.28054C98.2106 9.28054 97.837 9.20668 97.5046 9.05895C97.1751 8.90838 96.9137 8.68679 96.7205 8.39418C96.5302 8.10156 96.435 7.74077 96.435 7.31179C96.435 6.94247 96.5032 6.63707 96.6396 6.3956C96.7759 6.15412 96.962 5.96094 97.1978 5.81605C97.4336 5.67116 97.6992 5.56179 97.9947 5.48793C98.293 5.41122 98.6012 5.35582 98.9194 5.32173C99.3029 5.28196 99.614 5.24645 99.8526 5.2152C100.091 5.18111 100.265 5.12997 100.373 5.06179C100.483 4.99077 100.539 4.88139 100.539 4.73366V4.7081C100.539 4.38707 100.444 4.13849 100.253 3.96236C100.063 3.78622 99.7887 3.69815 99.4308 3.69815C99.0529 3.69815 98.7532 3.78054 98.5316 3.94531C98.3129 4.11009 98.1651 4.30469 98.0884 4.52912L96.6481 4.32457C96.7617 3.92685 96.9492 3.59446 97.2106 3.32741C97.4719 3.05753 97.7915 2.85582 98.1694 2.7223C98.5472 2.58594 98.9648 2.51776 99.4222 2.51776C99.7376 2.51776 100.051 2.55469 100.364 2.62855C100.676 2.70241 100.962 2.82457 101.221 2.99503C101.479 3.16264 101.686 3.39134 101.843 3.68111C102.002 3.97088 102.081 4.3331 102.081 4.76776V9.14844H100.598V8.24929H100.547C100.453 8.43111 100.321 8.60156 100.151 8.76065C99.9833 8.9169 99.7717 9.04332 99.516 9.13991C99.2631 9.23366 98.9663 9.28054 98.6254 9.28054ZM99.0259 8.14702C99.3356 8.14702 99.604 8.08594 99.8313 7.96378C100.059 7.83878 100.233 7.67401 100.355 7.46946C100.48 7.26491 100.543 7.0419 100.543 6.80043V6.02912C100.495 6.06889 100.412 6.10582 100.296 6.13991C100.182 6.17401 100.054 6.20384 99.9123 6.2294C99.7702 6.25497 99.6296 6.2777 99.4904 6.29759C99.3512 6.31747 99.2305 6.33452 99.1282 6.34872C98.8981 6.37997 98.6921 6.43111 98.5103 6.50213C98.3285 6.57315 98.185 6.67259 98.0799 6.80043C97.9748 6.92543 97.9222 7.08736 97.9222 7.28622C97.9222 7.57031 98.0259 7.7848 98.2333 7.92969C98.4407 8.07457 98.7049 8.14702 99.0259 8.14702Z" fill="#4C2FBE"/>
<path d="M1.18182 10.0306C0.856818 10.0306 0.578598 9.90952 0.347159 9.66733C0.11572 9.42514 0 9.13399 0 8.79388V1.37346C0 1.03335 0.11572 0.742205 0.347159 0.500011C0.578598 0.257816 0.856818 0.136719 1.18182 0.136719H10.6364C10.9614 0.136719 11.2396 0.257816 11.471 0.500011C11.7025 0.742205 11.8182 1.03335 11.8182 1.37346V4.4653C11.8182 4.64051 11.7616 4.78737 11.6483 4.90589C11.535 5.02441 11.3947 5.08367 11.2273 5.08367H1.18182V8.79388H6.5C6.66742 8.79388 6.80777 8.85314 6.92102 8.97167C7.03428 9.09019 7.09091 9.23705 7.09091 9.41225C7.09091 9.58746 7.03428 9.73432 6.92102 9.85284C6.80777 9.97136 6.66742 10.0306 6.5 10.0306H1.18182ZM1.18182 2.61019H10.6364V1.37346H1.18182V2.61019ZM10.0455 9.41225H8.86364C8.69621 9.41225 8.55587 9.35299 8.44261 9.23447C8.32936 9.11595 8.27273 8.96909 8.27273 8.79388C8.27273 8.61868 8.32936 8.47182 8.44261 8.3533C8.55587 8.23478 8.69621 8.17552 8.86364 8.17552H10.0455V6.93878C10.0455 6.76357 10.1021 6.61671 10.2153 6.49819C10.3286 6.37967 10.4689 6.32041 10.6364 6.32041C10.8038 6.32041 10.9441 6.37967 11.0574 6.49819C11.1706 6.61671 11.2273 6.76357 11.2273 6.93878V8.17552H12.4091C12.5765 8.17552 12.7169 8.23478 12.8301 8.3533C12.9434 8.47182 13 8.61868 13 8.79388C13 8.96909 12.9434 9.11595 12.8301 9.23447C12.7169 9.35299 12.5765 9.41225 12.4091 9.41225H11.2273V10.649C11.2273 10.8242 11.1706 10.9711 11.0574 11.0896C10.9441 11.2081 10.8038 11.2674 10.6364 11.2674C10.4689 11.2674 10.3286 11.2081 10.2153 11.0896C10.1021 10.9711 10.0455 10.8242 10.0455 10.649V9.41225Z" fill="#4C2FBE"/>
</svg>
