<svg width="25" height="25" viewBox="0 0 25 25" fill="none" xmlns="http://www.w3.org/2000/svg">
<path d="M20.729 14.3831C21.2042 14.0136 21.9529 13.8744 22.428 14.3207C22.7688 14.6423 22.8455 15.0503 22.7784 15.5014C22.7112 15.9285 22.0201 16.3893 21.6841 16.6532C19.3612 18.5058 16.8847 20.1808 14.5666 22.043C13.9091 22.4173 13.3428 22.2925 12.6612 22.0958C10.3767 21.443 8.15943 20.5312 5.86532 19.912C5.00143 19.8208 4.03675 19.9792 3.18726 19.8976C2.77931 19.8592 2.33297 19.5809 2.26098 19.1537C2.16499 18.5778 2.19379 16.5717 2.25618 15.9477C2.40016 14.4839 4.93424 15.1942 5.93251 15.0071C6.51804 14.8967 7.53071 14.0664 8.15943 13.836C8.47139 13.7208 8.79774 13.7016 9.1193 13.6728C9.1577 12.065 10.0888 10.3133 11.1686 9.14701C11.303 9.00303 12.0517 8.36471 12.0613 8.30712C12.0853 8.15833 11.567 7.73599 11.9365 7.03048C12.0469 6.81931 12.2869 6.70412 12.3109 6.66573C12.4165 6.48815 11.7542 4.70758 11.7014 4.31883C11.5766 3.41654 11.9365 2.88861 12.8244 2.71583C12.9732 2.68703 13.2612 2.73023 13.3428 2.68703C13.3716 2.66784 13.6067 2.26469 13.7747 2.12551C14.4178 1.58797 15.4977 1.56878 16.1168 2.1543C16.2368 2.26469 16.4192 2.61984 16.5008 2.66784C16.6255 2.74463 16.8271 2.67744 16.9759 2.70623C19.1068 3.11418 17.7198 5.24991 17.4894 6.58414C18.0558 7.06407 18.2573 7.70239 17.7294 8.31191C18.9004 9.243 19.8699 10.5196 20.3835 11.9355C20.465 12.1658 20.7386 12.9961 20.7386 13.1833V14.3687L20.729 14.3831ZM13.1604 4.92355C13.0788 4.5396 13.2228 3.89648 13.1604 3.47893C12.7956 3.42614 12.4741 3.59892 12.3925 3.96367L13.0884 6.45455L16.7455 6.48335C16.7647 5.89302 17.571 4.19884 17.3598 3.7333C17.2687 3.53173 16.8895 3.45494 16.6879 3.47413V4.85156C16.6879 5.17792 16.1072 5.33629 15.9488 5.00994C15.8384 4.77477 15.9488 3.79569 15.9152 3.44054C15.7856 2.1495 14.0627 2.1495 13.9283 3.37335C13.8851 3.7621 14.0243 4.76997 13.8563 5.03393C13.6787 5.3123 13.218 5.20191 13.1556 4.91395L13.1604 4.92355ZM12.7428 7.26565C12.4645 7.35684 12.5605 7.84157 12.7428 7.84157H17.1055C17.3071 7.84157 17.3071 7.26565 17.1055 7.26565H12.7428ZM15.2769 11.1148V13.0057C16.1552 13.2937 16.6687 13.9608 16.6879 14.8967C17.3886 14.9015 18.0222 15.343 18.1277 16.0533C18.3917 15.7942 19.8123 15.1078 19.9035 14.8727C20.2875 13.884 19.7547 12.2762 19.2844 11.3691C18.8669 10.5676 17.5278 8.70066 16.5919 8.60948C15.4833 8.50389 14.1923 8.69107 13.0644 8.61428C11.279 9.65094 10.0024 11.7531 9.82001 13.8072L14.5666 14.5799C14.533 14.3831 14.629 13.884 14.5378 13.7448C14.4994 13.6824 14.2019 13.6248 14.0819 13.5576C12.8052 12.8425 12.8724 11.1628 14.1203 10.4524C14.2354 10.3852 14.4226 10.3805 14.4994 10.3181C14.6098 10.2269 14.5954 9.91011 14.9074 9.91971C15.2577 9.92931 15.2145 10.2125 15.3393 10.3181C15.4305 10.3948 15.7713 10.4812 15.9488 10.6108C16.3328 10.894 17.0383 12.1178 16.4672 12.353C15.6945 12.6746 16.0352 11.1819 15.2721 11.1244L15.2769 11.1148ZM14.5714 11.1148C13.7123 11.3499 13.7171 12.6746 14.5714 12.9097V11.1148ZM15.92 14.7671C15.9008 14.3879 15.6849 13.932 15.2769 13.8696C15.2673 14.5799 15.1281 14.7191 15.92 14.7671ZM21.9289 15.5206C22.2168 15.1702 21.9913 14.7527 21.5497 14.7815C19.366 16.0437 17.3311 17.5843 15.1425 18.837C14.5954 19.1489 14.3506 19.4129 13.7171 19.0577C13.2372 18.789 12.0949 17.6467 11.7014 17.5459C11.3078 17.4451 9.9064 17.7283 9.77202 17.2916C9.65683 16.9172 9.916 16.7876 10.2376 16.754C12.3541 16.5621 14.7586 16.9076 16.9087 16.754C17.3454 16.6724 17.547 16.1349 17.2063 15.823C17.0191 15.655 15.7137 15.4774 15.3633 15.4198C13.4627 15.0982 11.1494 14.6279 9.26808 14.4551C8.10663 14.3495 7.26674 15.4006 6.23007 15.6982C5.36138 15.9477 4.26232 15.6886 3.37444 15.7942C3.09127 15.8278 2.99049 15.9285 2.95689 16.2117C2.8993 16.7108 2.8897 18.3618 2.96169 18.837C2.99529 19.0481 3.10567 19.1585 3.31685 19.1921C4.20953 19.3313 5.36618 19.0625 6.28767 19.2353C8.41379 19.8736 10.5063 20.6607 12.6325 21.2943C13.1892 21.4574 13.7219 21.7454 14.245 21.3374L21.9289 15.5206ZM15.7281 17.5267H13.0356C13.1508 17.6851 14.1827 18.4866 14.2738 18.477L15.7281 17.5267Z" fill="black"/>
</svg>
