<?xml version="1.0" encoding="UTF-8"?>
<svg width="26" height="26" viewBox="0 0 26 26" fill="none" xmlns="http://www.w3.org/2000/svg" aria-hidden="true">
  <path d="M10.3 5.2c0-1.1.9-2 2-2h1.4c1.1 0 2 .9 2 2v0.4c0 .7-.4 1.3-1 1.7l-.9.5h-1.6l-.9-.5c-.6-.4-1-.9-1-1.7V5.2z" fill="currentColor"/>
  <path d="M5 10.5c2.7-1.2 6-1.9 8-1.9s5.3.7 8 1.9c1.5.7 2.5 2.2 2.5 3.9 0 4.2-4.7 7.6-10.5 7.6S2.5 18.6 2.5 14.4c0-1.7 1-3.2 2.5-3.9z" stroke="currentColor" stroke-width="2" fill="none" stroke-linecap="round" stroke-linejoin="round"/>
  <path d="M9 15.9c1.2.7 2.7 1.1 4 1.1s2.8-.4 4-1.1" stroke="currentColor" stroke-width="2" stroke-linecap="round"/>
</svg>
