<svg width="20" height="21" viewBox="0 0 20 21" fill="none" xmlns="http://www.w3.org/2000/svg">
<circle cx="10" cy="10" r="8" fill="white"/>
<path d="M10 15.1781C10.2833 15.1781 10.5208 15.0812 10.7125 14.8872C10.9042 14.6933 11 14.453 11 14.1663V10.1188C11 9.83207 10.9042 9.59175 10.7125 9.3978C10.5208 9.20386 10.2833 9.10689 10 9.10689C9.71667 9.10689 9.47917 9.20386 9.2875 9.3978C9.09583 9.59175 9 9.83207 9 10.1188V14.1663C9 14.453 9.09583 14.6933 9.2875 14.8872C9.47917 15.0812 9.71667 15.1781 10 15.1781ZM10 7.08314C10.2833 7.08314 10.5208 6.98616 10.7125 6.79222C10.9042 6.59828 11 6.35796 11 6.07126C11 5.78456 10.9042 5.54424 10.7125 5.3503C10.5208 5.15635 10.2833 5.05938 10 5.05938C9.71667 5.05938 9.47917 5.15635 9.2875 5.3503C9.09583 5.54424 9 5.78456 9 6.07126C9 6.35796 9.09583 6.59828 9.2875 6.79222C9.47917 6.98616 9.71667 7.08314 10 7.08314ZM10 20.2375C8.61667 20.2375 7.31667 19.9719 6.1 19.4407C4.88333 18.9094 3.825 18.1885 2.925 17.2778C2.025 16.3671 1.3125 15.2962 0.7875 14.0651C0.2625 12.834 0 11.5185 0 10.1188C0 8.719 0.2625 7.40356 0.7875 6.17245C1.3125 4.94133 2.025 3.87043 2.925 2.95974C3.825 2.04905 4.88333 1.32809 6.1 0.796853C7.31667 0.265618 8.61667 0 10 0C11.3833 0 12.6833 0.265618 13.9 0.796853C15.1167 1.32809 16.175 2.04905 17.075 2.95974C17.975 3.87043 18.6875 4.94133 19.2125 6.17245C19.7375 7.40356 20 8.719 20 10.1188C20 11.5185 19.7375 12.834 19.2125 14.0651C18.6875 15.2962 17.975 16.3671 17.075 17.2778C16.175 18.1885 15.1167 18.9094 13.9 19.4407C12.6833 19.9719 11.3833 20.2375 10 20.2375ZM10 18.2138C12.2333 18.2138 14.125 17.4296 15.675 15.8612C17.225 14.2928 18 12.3786 18 10.1188C18 7.85891 17.225 5.94477 15.675 4.37637C14.125 2.80796 12.2333 2.02375 10 2.02375C7.76667 2.02375 5.875 2.80796 4.325 4.37637C2.775 5.94477 2 7.85891 2 10.1188C2 12.3786 2.775 14.2928 4.325 15.8612C5.875 17.4296 7.76667 18.2138 10 18.2138Z" fill="#717171"/>
</svg>
