<svg xmlns="http://www.w3.org/2000/svg" xmlns:xlink="http://www.w3.org/1999/xlink" viewBox="0 0 303.14 226.36"><defs><style>.cls-1{fill:none;}.cls-2{fill:#fff;}.cls-3{clip-path:url(#clip-path);}.cls-4{fill:url(#radial-gradient);}.cls-5{fill:#c3c5c8;}.cls-6{fill:#8c8e8f;}.cls-7{clip-path:url(#clip-path-2);}.cls-8{fill:url(#radial-gradient-2);}.cls-9{clip-path:url(#clip-path-3);}.cls-10{fill:url(#radial-gradient-3);}.cls-11{clip-path:url(#clip-path-4);}.cls-12{fill:url(#radial-gradient-4);}.cls-13{clip-path:url(#clip-path-5);}.cls-14{fill:url(#radial-gradient-5);}.cls-15{clip-path:url(#clip-path-6);}.cls-16{fill:url(#radial-gradient-6);}.cls-17{clip-path:url(#clip-path-7);}.cls-18{fill:url(#radial-gradient-7);}.cls-19{clip-path:url(#clip-path-8);}.cls-20{fill:url(#radial-gradient-8);}.cls-21{clip-path:url(#clip-path-9);}.cls-22{fill:url(#radial-gradient-9);}.cls-23{fill:#222221;}.cls-24{clip-path:url(#clip-path-10);}.cls-25{fill:url(#radial-gradient-10);}.cls-26{clip-path:url(#clip-path-11);}.cls-27{fill:url(#radial-gradient-11);}.cls-28{clip-path:url(#clip-path-12);}.cls-29{fill:url(#radial-gradient-12);}.cls-30{clip-path:url(#clip-path-13);}.cls-31{fill:url(#radial-gradient-13);}.cls-32{clip-path:url(#clip-path-14);}.cls-33{fill:url(#radial-gradient-14);}.cls-34{clip-path:url(#clip-path-15);}.cls-35{fill:url(#radial-gradient-15);}.cls-36{clip-path:url(#clip-path-16);}.cls-37{fill:url(#radial-gradient-16);}.cls-38{clip-path:url(#clip-path-17);}.cls-39{fill:url(#radial-gradient-17);}.cls-40{clip-path:url(#clip-path-18);}.cls-41{fill:url(#radial-gradient-18);}.cls-42{clip-path:url(#clip-path-19);}.cls-43{fill:url(#radial-gradient-19);}.cls-44{clip-path:url(#clip-path-20);}.cls-45{fill:url(#radial-gradient-20);}.cls-46{clip-path:url(#clip-path-21);}.cls-47{fill:url(#radial-gradient-21);}.cls-48{clip-path:url(#clip-path-22);}.cls-49{fill:url(#radial-gradient-22);}.cls-50{clip-path:url(#clip-path-23);}.cls-51{fill:url(#radial-gradient-23);}.cls-52{clip-path:url(#clip-path-24);}.cls-53{fill:url(#radial-gradient-24);}.cls-54{clip-path:url(#clip-path-25);}.cls-55{fill:url(#radial-gradient-25);}.cls-56{fill:#bebfc2;}.cls-57{fill:#c6c8cb;}.cls-58{fill:#f6f6f8;}.cls-59{fill:#e3e4e7;}.cls-60{fill:#eaebed;}.cls-61{fill:#e8e9eb;}.cls-62{fill:#f1f1f3;}.cls-63{fill:#afb1b5;}.cls-64{fill:#ced0d2;}.cls-65{fill:#b7b9bb;}.cls-66{fill:#da8a1c;stroke:#da8a1c;stroke-width:1.03px;}.cls-67{fill:#252525;}</style><clipPath id="clip-path"><path class="cls-1" d="M51,137.36c-7,30.79-4.26,27.93-4.26,27.93,5.67,9.43,12.62,12,12.62,12l14.43-5.65c-9.68-35.36,4.64-53.83,4.64-53.83L84,87.62c-26.88,22.48-33,49.74-33,49.74"/></clipPath><radialGradient id="radial-gradient" cx="-1969.15" cy="707.43" r="0.88" gradientTransform="matrix(60.58, 0, 0, 60.58, 119335.36, -42734.66)" gradientUnits="userSpaceOnUse"><stop offset="0" stop-color="#9b9da0"/><stop offset="0.67" stop-color="#d2d4d6"/><stop offset="0.82" stop-color="#e2e3e4"/><stop offset="1" stop-color="#fafafb"/></radialGradient><clipPath id="clip-path-2"><path class="cls-1" d="M122,77.39s-10.67,16.19-5.49,23.72a132.25,132.25,0,0,1,32,27.53l36.32-5.06s11.78-26.91,13.77-35.23c0,0-20.27-19.4-27.83-17.17a63.31,63.31,0,0,0-23.12-4.84c-8.87,0-18.55,2.49-25.66,11"/></clipPath><radialGradient id="radial-gradient-2" cx="-1970.99" cy="706.28" r="0.88" gradientTransform="matrix(65.86, 0, 0, 65.86, 129955.94, -46369.81)" gradientUnits="userSpaceOnUse"><stop offset="0" stop-color="#fafafb"/><stop offset="0.26" stop-color="#f0f0f2"/><stop offset="0.55" stop-color="#ecedef"/><stop offset="0.69" stop-color="#e6e7e9"/><stop offset="0.87" stop-color="#d5d6da"/><stop offset="1" stop-color="#c6c7cb"/></radialGradient><clipPath id="clip-path-3"><path class="cls-1" d="M79.2,115.82c-13.89,20.42-8.65,47.5-8.65,47.5-.45,6.71,27.13,21.62,27.13,21.62,18.61-15.31,44.24-21.28,44.24-21.28l9.74-29.61c-6.78-14.53-35.72-33.69-40-37a2,2,0,0,0-1.24-.34c-6.89,0-31.17,19.14-31.17,19.14"/></clipPath><radialGradient id="radial-gradient-3" cx="-1975.98" cy="703.35" r="0.88" gradientTransform="translate(177939.51 -63111.45) scale(90)" gradientUnits="userSpaceOnUse"><stop offset="0" stop-color="#fafafb"/><stop offset="0.07" stop-color="#fafafb"/><stop offset="0.16" stop-color="#f4f5f6"/><stop offset="0.38" stop-color="#eaebed"/><stop offset="0.67" stop-color="#e7e8ea"/><stop offset="0.78" stop-color="#d9dadd"/><stop offset="1" stop-color="#b4b6b9"/><stop offset="1" stop-color="#b4b6b9"/></radialGradient><clipPath id="clip-path-4"><path class="cls-1" d="M184.45,124.82l12.15,33.35c7.3,0,40.69,11.13,40.69,11.13,7-5.25,11.85-22.55,11.85-22.55-.13-26.33-21.57-46.3-21.57-46.3s-3.86-7.13-4.73-8.3-21.08-7.68-21.08-7.68c-3.45,5-17.31,40.35-17.31,40.35"/></clipPath><radialGradient id="radial-gradient-4" cx="-1971.54" cy="705.95" r="0.88" gradientTransform="matrix(67.77, 0, 0, 67.77, 133802.1, -47718.13)" gradientUnits="userSpaceOnUse"><stop offset="0" stop-color="#fafafb"/><stop offset="0.21" stop-color="#fafafb"/><stop offset="0.52" stop-color="#ecedef"/><stop offset="0.79" stop-color="#e7e8ea"/><stop offset="0.87" stop-color="#d9dadc"/><stop offset="1" stop-color="#b9babd"/></radialGradient><clipPath id="clip-path-5"><path class="cls-1" d="M248.47,151.35l6,1.9c.61-15-7-30.72-7-30.72-7.8-18.32-19.62-26.8-19.62-26.8L222.68,95c33.18,32.14,25.79,56.36,25.79,56.36"/></clipPath><radialGradient id="radial-gradient-5" cx="-1964.57" cy="710.03" r="0.88" gradientTransform="translate(96007 -34476.89) scale(48.74)" gradientUnits="userSpaceOnUse"><stop offset="0" stop-color="#8a8b8d"/><stop offset="0.67" stop-color="#d4d5d8"/><stop offset="0.83" stop-color="#e4e4e6"/><stop offset="1" stop-color="#fafafb"/></radialGradient><clipPath id="clip-path-6"><path class="cls-1" d="M57,175.84l-10.2-10.59s4.44,7.16,10.2,10.59"/></clipPath><radialGradient id="radial-gradient-6" cx="-1901.67" cy="746.05" r="0.88" gradientTransform="translate(27268.85 -10501.08) scale(14.31)" gradientUnits="userSpaceOnUse"><stop offset="0" stop-color="#666768"/><stop offset="0.67" stop-color="#a6a8ab"/><stop offset="0.76" stop-color="#b6b8ba"/><stop offset="0.91" stop-color="#e0e1e2"/><stop offset="1" stop-color="#fafafb"/></radialGradient><clipPath id="clip-path-7"><path class="cls-1" d="M51.09,137.32c-7,30.79-4.26,27.93-4.26,27.93,5.68,9.42,12.61,12,12.61,12l14.43-5.65c-9.68-35.36,4.65-53.84,4.65-53.84l6.6-22c-25.84,10.12-34,41.63-34,41.63"/></clipPath><radialGradient id="radial-gradient-7" cx="-1964.75" cy="709.91" r="0.88" gradientTransform="matrix(50.01, 0, 0, 50.01, 98324.53, -35344.93)" xlink:href="#radial-gradient"/><clipPath id="clip-path-8"><path class="cls-1" d="M98.36,76.86,109,80.74l8.46-4.51,3.87.29s13.23-17.65,48.31-6.08l5.92-4.89s-9.16-3.65-24.07-3.65c-13.72,0-32.32,3.09-53.14,15"/></clipPath><radialGradient id="radial-gradient-8" cx="-1961.75" cy="711.91" r="0.88" gradientTransform="matrix(44.13, 0, 0, 44.13, 86732.37, -31353.65)" gradientUnits="userSpaceOnUse"><stop offset="0" stop-color="#949698"/><stop offset="0.67" stop-color="#e7e8ea"/><stop offset="0.94" stop-color="#f6f6f8"/><stop offset="1" stop-color="#fafafb"/></radialGradient><clipPath id="clip-path-9"><path class="cls-1" d="M239.72,177.45a27.84,27.84,0,0,0-4.24-8.16s-1.68-.7-4.36-1.73a20.47,20.47,0,0,1,8.6,9.89m-66,8.37a4.11,4.11,0,0,0,2.26-.93s22.47-18.82,24.9-22.4l.09-.06a5.28,5.28,0,0,0,1.75-2.53Zm29-25.92,24.79,6.6c-7.78-2.11-16.53-6.61-24.2-6.61h-.59m.19-.63h0Z"/></clipPath><radialGradient id="radial-gradient-9" cx="-1961.93" cy="711.49" r="0.88" gradientTransform="matrix(44.76, 0, 0, 44.76, 88012.48, -31695.3)" gradientUnits="userSpaceOnUse"><stop offset="0" stop-color="#fafafb"/><stop offset="0.21" stop-color="#fafafb"/><stop offset="0.52" stop-color="#ecedef"/><stop offset="0.79" stop-color="#e7e8ea"/><stop offset="0.89" stop-color="#dadcde"/><stop offset="1" stop-color="#c7c9cb"/></radialGradient><clipPath id="clip-path-10"><path class="cls-1" d="M70.79,163.66c-.31.23.58,1.48,1.43,3.05s2.21,2.45,2.51,2.22-.23-1.91-1.42-3-2.08-2.26-2.44-2.26a.19.19,0,0,0-.08,0"/></clipPath><radialGradient id="radial-gradient-10" cx="-463.48" cy="997.65" r="0.88" gradientTransform="matrix(0.83, 0, 0, 2.4, 453.65, -2228.64)" gradientUnits="userSpaceOnUse"><stop offset="0" stop-color="#fff"/><stop offset="1" stop-color="#222221"/></radialGradient><clipPath id="clip-path-11"><path class="cls-1" d="M95.41,187.72,97,188a1.14,1.14,0,0,0,.47-1.53l-1.55-.29Z"/></clipPath><radialGradient id="radial-gradient-11" cx="-950.31" cy="1156.77" r="0.88" gradientTransform="translate(378.18 -1704.93) rotate(-30.94) scale(1.28)" xlink:href="#radial-gradient-10"/><clipPath id="clip-path-12"><path class="cls-1" d="M108,73.87l-13.86,7S77.59,92.65,74.22,105.2c0,0,0,3.6,2,5.36a9.31,9.31,0,0,0,7.88-3.16s12-9.62,19.71-9.29c6.38.27,5.64-16.64,11.69-21.12,3.78-2.79,0-3.32-3.47-3.32-2.08,0-4,.2-4,.2"/></clipPath><radialGradient id="radial-gradient-12" cx="-1950.16" cy="718.57" r="0.88" gradientTransform="translate(61522.7 -22534.36) scale(31.5)" gradientUnits="userSpaceOnUse"><stop offset="0" stop-color="#636363"/><stop offset="0.27" stop-color="#606060"/><stop offset="0.5" stop-color="#555"/><stop offset="0.72" stop-color="#434343"/><stop offset="0.94" stop-color="#2b2b2a"/><stop offset="1" stop-color="#222221"/></radialGradient><clipPath id="clip-path-13"><path class="cls-1" d="M196.35,91.78a1.3,1.3,0,1,0,1.79.29,1.36,1.36,0,0,0-1.06-.54,1.22,1.22,0,0,0-.73.25"/></clipPath><radialGradient id="radial-gradient-13" cx="-1136.78" cy="1193.63" r="0.88" gradientTransform="translate(480.15 -2288.29) rotate(-36.82) scale(1.45)" xlink:href="#radial-gradient-10"/><clipPath id="clip-path-14"><path class="cls-1" d="M177.54,173.55a9.44,9.44,0,0,0,1.63-1.53c2.28-1-1.93,2.33-1.93,2.33a7.84,7.84,0,0,1-.93.84c-4,3-9.34-.27-9.34-.27a12.4,12.4,0,0,0,4.2.76,10.6,10.6,0,0,0,6.37-2.13m-22-35.7a7.53,7.53,0,0,0-.8.54c-4.56,3.41-14.91,16.73-7.73,29.23,0,0,21.1,13.59,26.83,10.25a66.58,66.58,0,0,0,12.75-7.51q1.71-1.28,3.43-2.77s13.13-12.62-6.36-29.49c-3.16-3-5.5-7.45-12.91-8,0,0-10.79,5.2-15.21,7.72"/></clipPath><radialGradient id="radial-gradient-14" cx="-1964.48" cy="708.75" r="0.88" gradientTransform="matrix(49.1, 0, 0, 53.24, 96620.76, -37545.7)" xlink:href="#radial-gradient-12"/><clipPath id="clip-path-15"><path class="cls-1" d="M179.17,172a9.44,9.44,0,0,1-1.63,1.53A10.89,10.89,0,0,1,167,174.92s5.33,3.28,9.34.27a7.84,7.84,0,0,0,.93-.84s3.19-2.51,2.51-2.51a1.83,1.83,0,0,0-.58.18"/></clipPath><radialGradient id="radial-gradient-15" cx="-1964.39" cy="708.84" r="0.88" gradientTransform="matrix(48.96, 0, 0, 53.08, 96345.83, -37432.43)" gradientUnits="userSpaceOnUse"><stop offset="0" stop-color="#717171"/><stop offset="0.26" stop-color="#6e6e6e"/><stop offset="0.49" stop-color="#636363"/><stop offset="0.7" stop-color="#525251"/><stop offset="0.91" stop-color="#393938"/><stop offset="1" stop-color="#2c2c2a"/></radialGradient><clipPath id="clip-path-16"><path class="cls-1" d="M69.69,162.69a1.27,1.27,0,0,0,1.52,2,1.24,1.24,0,0,0,.22-1.74,1.27,1.27,0,0,0-1-.52,1.22,1.22,0,0,0-.72.24"/></clipPath><radialGradient id="radial-gradient-16" cx="-1096.25" cy="1211.88" r="0.88" gradientTransform="matrix(1.41, 0, 0, 1.41, 1616.76, -1545.77)" xlink:href="#radial-gradient-10"/><clipPath id="clip-path-17"><path class="cls-1" d="M244,185.58s.68-7.61-6.57-16Z"/></clipPath><radialGradient id="radial-gradient-17" cx="-1856.57" cy="657.46" r="0.88" gradientTransform="matrix(0, 10.55, -6.72, 0, 4671.69, 19766.11)" xlink:href="#radial-gradient-10"/><clipPath id="clip-path-18"><path class="cls-1" d="M200.66,92.41s15.27-1.86,26.88,6.93c0,0-1.13-3-11.35-5.89A33.65,33.65,0,0,0,206.08,92a34.93,34.93,0,0,0-5.42.42"/></clipPath><radialGradient id="radial-gradient-18" cx="-1960.01" cy="808.56" r="0.88" gradientTransform="matrix(24.08, 0, 0, 10.97, 47405.64, -8784.91)" xlink:href="#radial-gradient-10"/><clipPath id="clip-path-19"><path class="cls-1" d="M115.82,81.56s-3.83,8.59-3.36,17.13c0,0,.28-15.42,11-25.72,0,0-3.37,0-7.6,8.59"/></clipPath><radialGradient id="radial-gradient-19" cx="-2024.27" cy="785.49" r="0.88" gradientTransform="matrix(0, -30.91, 10.92, 0, -8459.48, -62473.52)" xlink:href="#radial-gradient-10"/><clipPath id="clip-path-20"><path class="cls-1" d="M143.8,124.4s1.64-.44,4.32-1a35.19,35.19,0,0,0-4.32,1m4.32-1c9.36-1.69,22.19-1.28,22.19-1.28a86.64,86.64,0,0,1,16.77,1.11c-4.31-2-9.89-2.67-15.59-2.67a115.89,115.89,0,0,0-23.37,2.84"/></clipPath><radialGradient id="radial-gradient-20" cx="-1975.88" cy="775.04" r="0.88" gradientTransform="matrix(36.99, 0, 0, 16.85, 73251.23, -12950.15)" xlink:href="#radial-gradient-10"/><clipPath id="clip-path-21"><path class="cls-1" d="M200.6,91.56c-.74.26-1.38.44-1.34.82l1.47.58c.94.23,1.56.33,1.35-.82-.11-.67-.29-.87-.56-.87a4,4,0,0,0-.92.29"/></clipPath><radialGradient id="radial-gradient-21" cx="-1258.18" cy="652.7" r="0.88" gradientTransform="matrix(1.96, 0, 0, 0.92, 2669.13, -504.04)" xlink:href="#radial-gradient-10"/><clipPath id="clip-path-22"><path class="cls-1" d="M181,122.21c0,.57.85,1.07,1.95,1.11s2-.39,2-.95-.85-1.06-1.95-1.1h-.14c-1,0-1.88.41-1.89.94"/></clipPath><radialGradient id="radial-gradient-22" cx="-1333.5" cy="518.54" r="0.88" gradientTransform="matrix(0, 2.16, -1.24, 0, 826.22, 3008.45)" xlink:href="#radial-gradient-10"/><clipPath id="clip-path-23"><path class="cls-1" d="M111.33,97.19a1.4,1.4,0,1,0,2.15.11,1.26,1.26,0,0,0-1-.49,1.93,1.93,0,0,0-1.11.38"/></clipPath><radialGradient id="radial-gradient-23" cx="-1268.78" cy="1117.52" r="0.88" gradientTransform="translate(2311.05 -1840.69) rotate(-0.04) scale(1.73)" xlink:href="#radial-gradient-10"/><clipPath id="clip-path-24"><path class="cls-1" d="M78.35,118.13c-9.06,11.45-7.88,30-7.88,30,4-45.76,41.69-48.06,43.69-48.15-21.49.87-35.81,18.13-35.81,18.13M114.16,100h0"/></clipPath><radialGradient id="radial-gradient-24" cx="-1965.21" cy="709.81" r="0.88" gradientTransform="translate(99733.63 -35884.83) scale(50.7)" gradientUnits="userSpaceOnUse"><stop offset="0" stop-color="#fff"/><stop offset="0.97" stop-color="#c0c2c4"/><stop offset="1" stop-color="#eaebed"/></radialGradient><clipPath id="clip-path-25"><path class="cls-1" d="M115.23,97c1.46,3.34,1.06.8,1.06.8,2.33-24.76,18.8-28.77,21-29.2-21,3.82-22,28.4-22,28.4m22-28.4.23,0-.23,0"/></clipPath><radialGradient id="radial-gradient-25" cx="-1921.75" cy="735.37" r="0.88" gradientTransform="translate(35245.09 -13349.85) rotate(-0.01) scale(18.26)" gradientUnits="userSpaceOnUse"><stop offset="0" stop-color="#fafafb"/><stop offset="0.21" stop-color="#fafafb"/><stop offset="0.52" stop-color="#ecedef"/><stop offset="0.79" stop-color="#e7e8ea"/><stop offset="0.93" stop-color="#f6f7f7"/><stop offset="1" stop-color="#fff"/></radialGradient></defs><title>Logo 1</title><g id="Capa_2" data-name="Capa 2"><g id="Capa_1-2" data-name="Capa 1"><path class="cls-2" d="M300.07,164.77c-3.08-13.68-6.26-22.54-10.31-28.75-5-7.6-11.77-11.61-19.69-11.61-.61,0-1.23,0-1.85.07-4.94.36-10.2.71-16,1.08a95.42,95.42,0,0,0-11.58-20.81c-4.13-5.65-6.56-8-8-9l-.55-.51-.22-.19-.92-.67-.16-.17,0-.17-.42-.54c-.78-1-19.36-24.44-54.7-31.71l-1.15-.23-.61.41h-.14a73.77,73.77,0,0,0-12.68-2.4,70.32,70.32,0,0,0-10.35-.74,97.94,97.94,0,0,0-29.37,4.8h-.28c-3,0-10.31,3.79-12,4.7-1.48.64-2.86,1.28-4.21,1.93A62.65,62.65,0,0,0,81.39,86.19l-.75.65-.42.07-.6.54a108.42,108.42,0,0,0-19.09,22.06,95.62,95.62,0,0,0-9.44,16.17c-13.28-.81-26.11-1.75-38.17-2.79l-2.42-.21L2.6,157.77l3.52,0,4.42,0L0,207.12l3.91-.51A1118.86,1118.86,0,0,1,150,196.93a1150.71,1150.71,0,0,1,132.45,7.78,30.13,30.13,0,0,0,3.82.24h0c8.35,0,14-4,15.95-11.31C303.92,187.53,303.26,178.89,300.07,164.77Z"/><g class="cls-3"><rect class="cls-4" x="21.13" y="84.58" width="85.75" height="95.74" transform="translate(-66.61 64.78) rotate(-36.82)"/></g><path class="cls-5" d="M54.54,173.75l.78.72c2.89,2,7.51,4.85-.2.65l-1-.85c-7.52,3.64-15.49-29.78,8.72-63.2A105.8,105.8,0,0,1,81.49,89.51c5.17-.88-1.27,14.55-1.07,19.5-2.5,14.55-9,22.14-7.61,22.73-1.77-.38-2.31,25.42-.38,41.85-15.45,18.61-8.61,10,.07-.69,1,3.35-4.85-43.87.3-43.41-1.45-.65,5.8-8,7.29-22.4-.33-3.46,6.42-23.25.78-16.06a104.91,104.91,0,0,0-18.06,21.3c-23.17,33.19-15.6,65.06-8.27,61.42"/><path class="cls-6" d="M95.34,91.42C139.29,58.51,200.56,66,232.11,108.2"/><g class="cls-7"><rect class="cls-8" x="101.37" y="46.41" width="107.19" height="102.18" transform="translate(-27.51 112.33) rotate(-36.82)"/></g><path class="cls-5" d="M187.57,118.09l-.44,1c-1.56,3.39-3.92,8.21-.67,0l.49-1.23c.14-.53,4.44-9.88,9.59-24,2-14.24-23.56-23.09-40.9-26.35-20.5-5-39.19,10.59-40,26.15,1.59,13.7,17.33,15.64,14.82,17,1.85-3.32,15.33,26.18,36,15.39,30.32-4.07,18.24-2.24-.53.46,1.5-1.88-11.41,5.4-20.56-.83a133.29,133.29,0,0,0-17.12-15.86c3.31-2.2-14.86-1.32-13-18.1,1.27-15.79,21.34-30.15,41.47-24.71,16.65,3.93,43,11.75,40.24,27.4-5.11,14-9.35,23.23-9.5,23.77"/><path class="cls-5" d="M171.93,182c-3.37-2.14-8.48-4.46-12.9-6.82-9.5-3.36-18.51-14.05-29.33-7.07A85.59,85.59,0,0,0,102,184.24"/><path class="cls-5" d="M102.89,182.65a88.47,88.47,0,0,1,27.73-15.57c10.81-6.87,20.32,5.23,29.4,7.88"/><g class="cls-9"><rect class="cls-10" x="47.48" y="79.61" width="122.01" height="122.4" transform="translate(-62.75 93.11) rotate(-36.82)"/></g><path class="cls-5" d="M70.15,156.61l.06,1.24c.31,4.17.94,10.29-.62.31l-.12-1.5a71.12,71.12,0,0,1,3.66-29.06c1.86-8.95,9.35-16.13,18.64-21.43,7.78-6.23,20.47-14.38,28.86-3,17.33,12.25,40,30.36,25.83,47.8-1.6,19.56-20.61,15.22-18.21,17.44a139.22,139.22,0,0,0-15.58,7,106.76,106.76,0,0,0-13.44,8.72c-5.18,1.07-9.85-4.55-14.18-6.54C69.68,168.38,70,161.3,70.6,163.32c-.46,2.31,6.06,8.72,15.22,14.28-.9-3.79,10,14.66,20.62.81a127.92,127.92,0,0,1,23.94-11.51c3.76,11.35,42.34-40.29-11.15-63.95-8.54-11.52-19.6-.92-27.71,4.22-9.33,5.25-16.08,12.22-17.88,21a70.42,70.42,0,0,0-3.49,28.43"/><g class="cls-11"><rect class="cls-12" x="165.48" y="73.54" width="102.62" height="106.68" transform="translate(-32.79 155.25) rotate(-36.82)"/></g><path class="cls-5" d="M231.4,105.11l-.69-.87c-2.47-2.84-6.14-6.95.32-.6l.89,1a81.57,81.57,0,0,1,13.63,22.53c6.72,9.71,4.36,47.33-18,39.32-9.63-2.92-19.28-6.12-28.51-7.7-7-5.25-7.29-16.13-10.71-22.4-8.77-14.18,2.62-23.89.6-23.69,0,0,2.46-6.06,5.93-14.18,1.79-4,3.66-8.66,6.11-13.1,4.15-1.59,9.41,2.31,13.59,3.16,15.62,4.74,12.08,15.23,13,11.87-1.15-1-3.11-10.24-13.68-11.72,2.32,4.06-13.53-12.56-16,4.33-4.69,10.79-9.11,22-9.11,22,.67.22-7.42,8.83.89,22.89,3.59,5.43,3.16,18.62,11.06,20.4,9.14,1.93,18.64,4.89,28.15,7.85,20.28,6.08,22.87-29.38,16-39.07a80.58,80.58,0,0,0-13.38-22"/><g class="cls-13"><rect class="cls-14" x="208.53" y="90.87" width="61.48" height="66.52" transform="translate(-26.66 168.15) rotate(-36.82)"/></g><path class="cls-5" d="M230.33,98.39l-.46-.49c-1.63-1.56-4.12-3.89.32-.57l.61.56c.8-.22,18.95,18.73,23,43.78.9,5.51,2.33,15.63-5.66,9.41,1.33-5.55.25-11-.44-15.41a62.8,62.8,0,0,0-5.37-14.17c.26-.07-7.46-14.11-15.65-21.84-10.1-9.06,6.11-1.82,1.06-3.88-1.55-.06-7.75-2.15-.55,3.9-.11-1.53,17.78,21.82,16.34,22.76,0,0,3.09,5.3,5,14.24,1.07,4,.8,10.78.7,14.57,8.2,5.15,3.27-5,3.72-10.12-4.15-24.44-21.92-43-22.68-42.74"/><g class="cls-15"><rect class="cls-16" x="44.68" y="163.25" width="14.51" height="14.59" transform="translate(-91.85 65.14) rotate(-36.82)"/></g><path class="cls-5" d="M49,168.84l-.41-.56c-1.36-1.92-3-4.78.42-.5l.51.63"/><path class="cls-5" d="M46.48,176.9c.1-18.82-.81-11.2.43.29"/><g class="cls-17"><rect class="cls-18" x="23.72" y="91.52" width="81.74" height="89.88" transform="translate(-68.9 65.93) rotate(-36.82)"/></g><path class="cls-5" d="M54.83,173.93l.75.66c.59-8.7,7.08,4.57-.2.62l-1-.75c-7,3.51-16-27.08,6.75-59,5.29-7.42,11.83-14.41,19.78-18,9.15-4-1.52,12.49-.9,16.34C74,126.19,72,135,72.21,135.06c-2.65-.44-1.13,14-1.77,29-18,21.74-9.61,23.15,1.45,9.57,3.35,3.65-5-41.15,0-40.76-.71-.13,2.92-8.73,8-20.91L83,101.55l1.71-5.71c-.25,1-3.19,1.93-4.69,2.93-7.5,3.8-14,10.46-18.86,18C39.43,148.34,48,177.45,54.83,173.93"/><g class="cls-19"><rect class="cls-20" x="99.5" y="37.91" width="74.92" height="63.78" transform="translate(-14.51 96.01) rotate(-36.82)"/></g><path class="cls-5" d="M121.87,76.43l-.94.38c-2.67-.3-6.51-.83-.11-.65l.52-.16c.17-.22,5.51-6.37,16.4-8.74,10.14-5.91,27,7.22,37.24-1.66-26-8.39-55.73,2.18-54.8,2.11.08.22-4.61.85-10.13,3.85-5.84,3-16.08,5.69-4.34,7.8,19.48-5.87,12.25-1.12-.52.21-16.73,1.59,14.76-14.67,16.29-13-1.46.49,29.9-11.36,53.32,0-11.62,7.73-27-4.2-37.14,1.36-10.56,2.35-15.65,8.27-15.79,8.44"/><g class="cls-21"><rect class="cls-22" x="172.32" y="142.13" width="68.77" height="60.83" transform="translate(-62.17 158.3) rotate(-36.82)"/></g><path class="cls-5" d="M174.82,175c6.8-4.45,14.68-9.72,23.19-15.29,10.14-1.92,20.68,3.52,30.86,6.67"/><path class="cls-5" d="M227.48,166.5c-10-2.71-21.66-9.41-30.5-5.34-8.61,5.66-16.69,11-23.55,15.56"/><path class="cls-23" d="M142.54,124.81s-7.47,28.82-7.52,37.39a3.29,3.29,0,0,0,2,3.63s31.75,18.62,35.68,19.82c0,0,1.26.73,3.26-.76,0,0,22.47-18.82,24.9-22.4,0,0,2.81-1.78,2.1-6.36,0,0-.52-16.69-16.13-35.74,0,0-18.19-5.53-42.07,1.41a5.11,5.11,0,0,0-2.21,3"/><path class="cls-23" d="M170.78,71.18s18.39,6.75,25.66,24.21c0,0,2.51-2.57,8.26-1.74,0,0,17.79,1.38,22.87,6.8,0,0,1.63.83.56-5.2,0,0-18.33-23.54-53.07-30.68,0,0-4.11,2.72-5.63,5.24a1.64,1.64,0,0,0,1.35,1.37"/><path class="cls-23" d="M237.15,171.23s-2.14-1.48-1.59-2.57a46.49,46.49,0,0,0,13.1-23.14s.16-2.52,1.81-1.71c0,0,3.72,2.7,4.43,4.56"/><path class="cls-23" d="M99.82,185.5s1.2-1.57-1.8-2.4a69.64,69.64,0,0,1-26.7-22.41s-19.9,5.68-16.63,14.17"/><path class="cls-23" d="M78.31,118.43s16-18.35,35.93-18.44c0,0,1.55-.12.57-2.27,0,0-.4-12.92,10.55-24.22,0,0-.1-2.6-12.25-2.57,0,0-19.69,2.35-35.74,24.47,0,0-5.39,6.31-5.75,9.68a6.27,6.27,0,0,0,0,2.72,19.12,19.12,0,0,0,3.62,7.59s1.65,2.49,3.11,3"/><g class="cls-24"><rect class="cls-25" x="69.28" y="162.83" width="6.95" height="7.14" transform="translate(-85.17 76.73) rotate(-36.8)"/></g><g class="cls-26"><polygon class="cls-27" points="96.03 189.04 98.53 187.54 97.11 185.19 94.61 186.69 96.03 189.04"/></g><g class="cls-28"><rect class="cls-29" x="67.46" y="63.93" width="58.54" height="57.04" transform="translate(-36.11 76.41) rotate(-36.82)"/></g><g class="cls-30"><polygon class="cls-31" points="196.74 95.64 199.88 93.29 197.54 90.17 194.4 92.52 196.74 95.64"/></g><g class="cls-32"><rect class="cls-33" x="130.81" y="116.25" width="81.3" height="78.83" transform="translate(-59.09 133.81) rotate(-36.82)"/></g><g class="cls-34"><rect class="cls-35" x="166.41" y="168.44" width="14.58" height="13.15" transform="translate(-70.24 139.03) rotate(-36.82)"/></g><g class="cls-36"><rect class="cls-37" x="68.54" y="161.88" width="3.83" height="3.8" transform="translate(-84.08 74.86) rotate(-36.81)"/></g><g class="cls-38"><rect class="cls-39" x="232.89" y="173.49" width="16.4" height="8.15" transform="translate(49.84 407.95) rotate(-86.67)"/></g><g class="cls-40"><rect class="cls-41" x="204.69" y="80.87" width="18.82" height="28.15" transform="translate(41.41 253.16) rotate(-66.41)"/></g><g class="cls-42"><rect class="cls-43" x="103.96" y="73.6" width="27.48" height="24.46" transform="translate(-21.23 129.62) rotate(-53.59)"/></g><g class="cls-44"><rect class="cls-45" x="158.19" y="101.03" width="14.51" height="42.88" transform="translate(5.65 252.22) rotate(-75.59)"/></g><g class="cls-46"><rect class="cls-47" x="199.14" y="91.14" width="3.24" height="2.28" transform="translate(-7.26 17.79) rotate(-4.98)"/></g><g class="cls-48"><rect class="cls-49" x="181.87" y="120.27" width="2.24" height="4.1" transform="translate(54.21 300.81) rotate(-87.95)"/></g><g class="cls-50"><rect class="cls-51" x="109.79" y="96.05" width="4.73" height="4.65" transform="translate(-36.58 86.75) rotate(-36.79)"/></g><g class="cls-52"><rect class="cls-53" x="59.34" y="91.33" width="64.84" height="65.49" transform="translate(-56.05 79.75) rotate(-36.82)"/></g><path class="cls-2" d="M101.06,181.74a133,133,0,0,1,34.49-17.07s-.94-1-.49-3.58a242.87,242.87,0,0,1,6.87-33.31s-7.21,10.74-10,31.22c0,0-.5,4.93-3.74,5.64,0,0-24.75,12.14-27.11,17.1"/><g class="cls-54"><rect class="cls-55" x="107.92" y="65.06" width="36.89" height="38.8" transform="translate(-25.41 92.57) rotate(-36.82)"/></g><path class="cls-56" d="M142,67.71c42.46-1.95,49,33.21,53.61,25.73,0,0-13.44-29.52-53.61-25.73"/><path class="cls-2" d="M144.94,121.8s21.08-6.56,40.12-1.91c0,0-.14-10.92-40.12,1.91"/><path class="cls-57" d="M73,135s-5.17,13.15-1.35,25.93a64.08,64.08,0,0,0,17.1,16.69S68.65,163.82,73,135"/><path class="cls-2" d="M178.17,117.7c10-4.6,13-12.83,18.33-22.3-2.1,5.29-10.09,24.83-10.09,24.83Z"/><polygon class="cls-2" points="144.41 119.64 144.32 120.45 143.5 120.33 143.61 119.51 144.41 119.64"/><path class="cls-2" d="M134.07,139.85a20.29,20.29,0,0,1-.8,4.89,20.86,20.86,0,0,1-1.39,4.75c-.18,0,.18-2.23.78-4.89s1.24-4.79,1.41-4.75"/><path class="cls-2" d="M155.51,184.58c-.11.13-1.92-1.14-4-2.84s-3.77-3.18-3.67-3.32,1.92,1.13,4,2.84,3.77,3.18,3.66,3.32"/><path class="cls-58" d="M127.07,72s11.51-11,41.35-2.38l1.17.06a17.46,17.46,0,0,1,5.24-4.9l-.53,0s-4.07,2-5,3.45c0,0-17.6-4.77-32.68-1.34,0,0-6.23,1.53-10.35,4.61,0,0-7.12-3.24-17.54.47,0,0,6.14-2.92,16.72.77Z"/><path class="cls-59" d="M116.08,103.05c1,.63,14,7.77,23.83,19.63,0,0-11.86-11.89-23.83-19.63"/><path class="cls-60" d="M54.62,170.15s1.3,2.25,14.17-12.48c0,0-.94-22.15,5.79-33.21,0,0-8.09,15.58-3.13,36.29,0,0-13.38-.73-16.83,9.4"/><path class="cls-61" d="M49.06,167.23s-8.19-30.29,21.19-60.77c0,0-15.81,18.69-18,32.24,0,0-6.24,7.66-3.23,28.53"/><path class="cls-2" d="M70.7,106.41s1.29,7.57,6.16,12c0,0-4.87,7.63-5.08,9.1,0,0,2-8.72-1.61-15.89,0,0,.18-4.53.53-5.23"/><path class="cls-61" d="M52.65,176.39s-5.1-7.12-6.23-1.94c0,0-.76-4.68.38-7.57,0,0,3.83,5.55,7.2,7.9"/><path class="cls-2" d="M166.78,190.18S149,174.92,137.86,167.85c0,0,27.21,14.84,32.5,19.2"/><path class="cls-56" d="M100.09,185.18s11.29-11.63,24.39-14.92c0,0-13.44,5.14-21,15.22"/><path class="cls-2" d="M184.16,181.72s7.07-5.75,10.87-8.59c0,0,2,.81,1,2"/><path class="cls-2" d="M188.12,120.84a60.49,60.49,0,0,1,16.24,36.77s2.82-22.19-16.24-36.77"/><path class="cls-62" d="M206.21,158.84s19.26,3.81,28.45,8.77c0,0,9.94-7.43,13.23-23.12,0,0-7,18-13.59,20.21,0,0-25.83-7.1-28.09-5.86"/><path class="cls-63" d="M228.45,102.08s17.64,18.7,19.53,40.07c0,0-6.77-23.64-19.53-40.07"/><path class="cls-64" d="M191.08,111.82l6.35-15.24s9.12-1.81,14.45-.79c-7.95.94-14-.45-20.8,16"/><path class="cls-59" d="M229.62,101.2s14.5,15.12,20.68,41a6.59,6.59,0,0,1,3.14,3.58A14.87,14.87,0,0,0,251,139s-9.53-29.78-21.42-37.75"/><path class="cls-65" d="M229.11,97.49s14.94,12.05,20.32,30.8a81.59,81.59,0,0,0-19.52-29.13Z"/><path class="cls-23" d="M12.68,125.67Q9.4,140.31,6.09,155l7.91-.07q-5.23,24.48-10.45,49c95.29-12.44,184.62-12.76,279.29-1.91,8.94,1.11,14.83-1.84,16.74-9,1.52-5.63.78-14.18-2.23-27.53s-6.11-22-9.93-27.83c-4.86-7.46-11.34-10.87-19-10.29A1636.31,1636.31,0,0,1,12.68,125.67Z"/><path class="cls-66" d="M90.8,137.3q-7.29,25.81-15.5,52.42,6-.34,11.87-.62c.67-3,1.34-6.07,2-9.1l8.73-.28q.19,4.46.41,8.91,5.92-.23,11.83-.4-3.64-25.08-6.48-50.64Q97.23,137.47,90.8,137.3Zm.59,32.54q2.49-11,4.86-21.88h.12q.47,10.91,1,21.75Zm139.66-21.23,7.82-.08q3,21.19,6,42.41,5.61.39,11.23.86-3.42-21.69-6.82-43.38l7.81-.1-2.13-12.55q-12.67.54-25.42,1ZM14.46,148l7.79.1-9.51,46.82q5.69-.63,11.35-1.19,4.26-22.75,8.51-45.5l7.81.09q1.11-6.33,2.21-12.67Q30,135,17.38,134.34,15.93,141.15,14.46,148ZM50,168.81c4.3-.14,8.58-.28,12.87-.4l1.5-11.06-12.6.11L53.2,148l13.22.16q.78-5.76,1.55-11.5-11.56-.41-23.06-.91Q40,164.18,35.15,192.64q13.1-1.19,26.1-2l1.53-11.49q-7.26.35-14.53.76Zm219.74-34.9c-10.22.61-12.34,9-8.75,30.26s8.95,29.83,20.61,31.12,13.77-7.08,8.76-30.18S279.91,133.27,269.7,133.91Zm9.84,51c-3.42-.29-4.57-4.57-7.54-20.38s-3.43-20.08-.29-20.16,4.34,4.26,7.55,20.39S283,185.16,279.54,184.87ZM213.05,150c-.23-2.33.55-4.6,2.77-4.63,2,0,3.23,2.53,3.57,5.61,0,.42.09.84.13,1.26l9.8,0c-1.46-11.47-5.85-16.34-14.69-16.06-8.56.27-12.32,6-11.47,16.34,1.48,18.13,17.92,13.4,19.07,23.79.31,2.87-.75,5-3,4.93s-3.77-1.75-4.22-6.18c0-.42-.07-.83-.11-1.24l-10.51-.27.15,1.79c.86,10.61,6.32,14.61,15.59,15.11,9.88.56,14.6-4.15,13.12-15.58C230.72,155.23,214.08,160.27,213.05,150Zm-26,17.41q6.41.06,12.82.16-.41-5.21-.8-10.43l-12.61,0c-.16-2.87-.33-5.73-.49-8.6l13.27-.08c-.28-3.62-.57-7.24-.85-10.87q-11.62.24-23.27.36,1,25,2,50,12.88.26,25.79.74l-.87-10.87q-7.23-.19-14.44-.33Zm-26,6.42c.08,4.8-1.14,6-3.2,6s-3.31-1.26-3.33-6.05q-.12-17.9-.23-35.77c-3.41,0-6.83,0-10.24,0q-.18,16.26-.35,32.52c-.18,13.91,4.92,18,14.24,18.07s14.34-4,13.85-18L170.71,138l-10.24.06Q160.76,155.94,161.05,173.84ZM129.89,138q-7.68-.06-15.35-.18-1.49,25.2-3,50.41,5.55-.16,11.1-.27l.81-19,3.76,0c8.76-.07,13.65-5.36,13.78-15.51C141.12,144.64,137.69,138,129.89,138Zm-4,21.52h-2q.26-6.09.52-12.18h2c2.63,0,4,2,3.83,6.09S128.54,159.47,125.86,159.48Z"/><path class="cls-67" d="M54.13,73.57,32.07,90,4.36,53l8.52-6.37L34.23,75.14,47.75,65Z"/><path class="cls-67" d="M84,58.83l-4-4.34-13.23,6,.61,5.89L57.08,71.11l-4.89-48.6,9.17-4.19,32.8,35.85ZM65.63,49.34l6.82-3.12-8-8.68Z"/><path class="cls-67" d="M129.8,20a19.08,19.08,0,0,1-.16,7.61,19.42,19.42,0,0,1-3,6.75,19.83,19.83,0,0,1-5.27,5.18,18.64,18.64,0,0,1-7,2.87l1.28,7.26-10.49,1.85L97.15,6l10.48-1.84a18.51,18.51,0,0,1,7.61.32A20.42,20.42,0,0,1,122,7.55a19.48,19.48,0,0,1,5.09,5.34A18.93,18.93,0,0,1,129.8,20ZM112.52,31.92a8.56,8.56,0,0,0,3.12-1.35A9.17,9.17,0,0,0,118,28.23a8.79,8.79,0,0,0,1.36-6.43,8.55,8.55,0,0,0-1.23-3.19,8.72,8.72,0,0,0-2.25-2.39,8.9,8.9,0,0,0-3-1.41,8.43,8.43,0,0,0-3.4-.21Z"/><path class="cls-67" d="M160.17,0a22.48,22.48,0,0,1,8.93,2.16,23.73,23.73,0,0,1,7.16,5.22,23.26,23.26,0,0,1,4.7,7.52A22.48,22.48,0,0,1,182.44,24a22.52,22.52,0,0,1-2.16,8.94A23.16,23.16,0,0,1,175,40.08a23.77,23.77,0,0,1-7.54,4.66,23,23,0,0,1-18-.68,23.13,23.13,0,0,1-11.8-12.74,22.42,22.42,0,0,1-1.48-9.07,22.48,22.48,0,0,1,2.16-8.93,23.41,23.41,0,0,1,5.21-7.15,23.59,23.59,0,0,1,7.52-4.67A22.36,22.36,0,0,1,160.17,0Zm-1.3,35.57a12.28,12.28,0,0,0,4.88-.79,12.52,12.52,0,0,0,6.89-6.4,12.54,12.54,0,0,0,.37-9.69,12.74,12.74,0,0,0-2.53-4.07,12.61,12.61,0,0,0-3.86-2.82,12.56,12.56,0,0,0-9.7-.37A12.55,12.55,0,0,0,148,17.84a12.56,12.56,0,0,0-.37,9.7,12.64,12.64,0,0,0,6.39,6.89A12.2,12.2,0,0,0,158.87,35.59Z"/><path class="cls-67" d="M209.32,54.86l-26.74-6.51,11-45,10.34,2.52-8.44,34.64,16.41,4Z"/><path class="cls-67" d="M239.7,68.09,214.57,56.85l18.91-42.27,9.72,4.35L228.64,51.47l15.41,6.9Z"/><path class="cls-67" d="M267.1,87l1.85-5.6-11.73-8.62-4.84,3.4-9.09-6.68,40.08-27.93,8.12,6-15.36,46.1Zm-.63-20.63,6,4.44,3.7-11.2Z"/></g></g></svg>