<svg xmlns="http://www.w3.org/2000/svg" viewBox="0 0 37.71 35.1"><defs><style>.cls-1{fill:#fff;}</style></defs><title>Recurso 16</title><g id="Capa_2" data-name="Capa 2"><g id="Capa_2-2" data-name="Capa 2"><path class="cls-1" d="M0,10.63l1.5.61,1.2.48.49-1.19A17,17,0,0,1,19,0,17.3,17.3,0,0,1,34.73,10.51a2,2,0,0,1-1.46,2.74l-.24,0a2,2,0,0,1-2.22-1.18,12.84,12.84,0,0,0-23.67,0L6.62,13.3l2.91,1.16L2.86,17.31Z"/><path class="cls-1" d="M18.76,35.1A17.3,17.3,0,0,1,3,24.59a2,2,0,0,1,1.46-2.74l.24,0A2,2,0,0,1,6.91,23a12.84,12.84,0,0,0,23.67,0l.52-1.22-2.91-1.16,6.67-2.85,2.85,6.67L35,23.38l-.49,1.19A17,17,0,0,1,18.76,35.1Z"/></g></g></svg>