<svg width="6" height="13" viewBox="0 0 6 13" fill="none" xmlns="http://www.w3.org/2000/svg">
<path d="M1.56459 6.06719L5.78469 1.36076C5.92823 1.20068 5.99761 1.01392 5.99283 0.800473C5.98804 0.58703 5.91388 0.400267 5.77034 0.240184C5.6268 0.080102 5.45933 6.00937e-05 5.26794 6.00598e-05C5.07656 6.0026e-05 4.90909 0.0801019 4.76555 0.240184L0.344499 5.15472C0.229666 5.28278 0.143542 5.42686 0.0861255 5.58694C0.0287092 5.74702 1.07745e-06 5.9071 1.04979e-06 6.06719C1.02213e-06 6.22727 0.0287091 6.38735 0.0861254 6.54743C0.143542 6.70752 0.229666 6.85159 0.344499 6.97966L4.76555 11.9102C4.90909 12.0703 5.07895 12.1477 5.27512 12.1423C5.47129 12.137 5.64115 12.0543 5.78469 11.8942C5.92823 11.7341 6 11.5473 6 11.3339C6 11.1205 5.92823 10.9337 5.78469 10.7736L1.56459 6.06719Z" fill="white"/>
</svg>
