<svg viewBox="0 0 16 16" fill="none" xmlns="http://www.w3.org/2000/svg"><path d="M14.736 1.557h-.71v2.159c0 .697-.563 1.25-1.237 1.25h-.382c-.673 0-1.185-.553-1.185-1.25V1.557h-1.76v2.159c-.002.33-.134.646-.369.88a1.268 1.268 0 0 1-.884.37h-.382c-.675 0-1.2-.553-1.2-1.25V1.557h-1.46v2.159c0 .697-.553 1.25-1.227 1.25H3.56c-.674 0-1.197-.553-1.197-1.25V1.557H1.296c-.504 0-.932.465-.932.987v12.174a.916.916 0 0 0 .576.85.933.933 0 0 0 .356.069h13.44c.504 0 .9-.398.9-.92V2.545c0-.522-.396-.987-.9-.987zm-.382 12.109a.667.667 0 0 1-.672.666H2.317a.675.675 0 0 1-.67-.667V6.848a.667.667 0 0 1 .67-.667h11.365a.675.675 0 0 1 .672.667v6.817z" fill="#7F7F7F"/><path d="M7.932 4.42h.362c.087 0 .174-.02.254-.056a.665.665 0 0 0 .215-.157.723.723 0 0 0 .143-.234.765.765 0 0 0 .048-.274V1.096c0-.404-.3-.732-.66-.732h-.362c-.36 0-.648.328-.648.732v2.603c0 .404.288.722.648.722zM12.483 4.42h.362c.36 0 .644-.317.644-.721V1.096c0-.404-.284-.732-.644-.732h-.362c-.36 0-.665.328-.665.732v2.603c0 .19.07.373.194.509a.646.646 0 0 0 .47.213zM3.654 4.42h.363c.359 0 .642-.317.642-.721V1.096c0-.404-.283-.732-.642-.732h-.363c-.36 0-.665.328-.665.732v2.603c0 .19.07.373.194.509a.647.647 0 0 0 .471.213zM12.892 7.284H3.346a.358.358 0 0 0-.357.358v.716c0 .198.16.358.357.358h9.546c.198 0 .358-.16.358-.358v-.716a.358.358 0 0 0-.358-.358zM12.892 9.432H3.346a.358.358 0 0 0-.357.358v.716c0 .198.16.358.357.358h9.546c.198 0 .358-.16.358-.358V9.79a.358.358 0 0 0-.358-.358zM12.892 11.818H3.346a.358.358 0 0 0-.357.358v.716c0 .198.16.358.357.358h9.546c.198 0 .358-.16.358-.358v-.716a.358.358 0 0 0-.358-.358z" fill="#7F7F7F"/></svg>
