<?xml version="1.0" encoding="utf-8"?>
<!-- Generator: Adobe Illustrator 16.0.0, SVG Export Plug-In . SVG Version: 6.00 Build 0)  -->
<!DOCTYPE svg PUBLIC "-//W3C//DTD SVG 1.1//EN" "http://www.w3.org/Graphics/SVG/1.1/DTD/svg11.dtd">
<svg version="1.1" id="Capa_1" xmlns="http://www.w3.org/2000/svg" xmlns:xlink="http://www.w3.org/1999/xlink" x="0px" y="0px"
	 width="598.1px" height="598.1px" viewBox="0 0 598.1 598.1" enable-background="new 0 0 598.1 598.1" xml:space="preserve">
<g>
	<circle fill="#E98631" cx="299.1" cy="299.1" r="299.1"/>
	<path fill="#FFFFFF" d="M382.3,136.1c-29.8,0-54-24.2-54-54s24.2-54,54-54c29.8,0,54,24.2,54,54S412.1,136.1,382.3,136.1z
		 M382.3,42.1c-22.1,0-40,17.9-40,40s17.9,40,40,40c22.1,0,40-17.9,40-40S404.4,42.1,382.3,42.1z"/>
	<path fill="#FFFFFF" d="M141.6,533c-26.1,0-47.3-21.2-47.3-47.3c0-26.1,21.2-47.3,47.3-47.3c26.1,0,47.3,21.2,47.3,47.3
		C188.9,511.8,167.7,533,141.6,533z M141.6,452.5c-18.3,0-33.3,14.9-33.3,33.3s14.9,33.3,33.3,33.3c18.3,0,33.3-14.9,33.3-33.3
		S160,452.5,141.6,452.5z"/>
	<path fill="#FFFFFF" d="M271,541.5c-1.8,0-3.7-0.1-5.7-0.3c-17.5-2-24.7-11.3-27.8-18.7c-5.7-13.9-2.1-34.5,10.5-61.2
		c9.1-19.3,21.4-38.1,29.1-47.8c16.4-33.3,9.2-56.1,2.8-67.3c-10.4,19.5-24.1,42.3-43.4,54.6c-6.1,3.9-13,5.9-20.1,5.9
		c-10.6,0-19.9-4.7-24.9-12.5c-5-7.8-5.2-17.7-0.5-27.9c6.5-14.3,18.7-27.9,28.5-38.1c0.5-0.5,1.1-1,1.7-1.3
		c9.9-5.3,25.5-39.9,33.5-62.7c0.1-0.4,0.3-0.7,0.5-1.1c13-23.6,14.6-32.9,14.6-35.9c-1.7,0.3-3.8,1.2-5,1.9c-1.2,0.7-2.7,1-4.1,0.9
		c-8.3,1.5-46.5,30.4-77.6,56.5c-0.8,0.7-1.8,1.2-2.9,1.5c-3.4,0.8-6.7,1.2-9.7,1.2c-9.2,0-16.6-3.6-21-10.1
		c-4.9-7.2-5.3-16.9-1.1-27.2c4.7-11.5,16.4-20.1,25.9-27.1c2.2-1.6,4.2-3.1,6.1-4.6c8.1-6.4,15.2-11.1,22.2-15.6
		c10.8-7.1,20.1-13.2,30.6-24.1c3.3-3.4,7-7.7,10.9-12.2c17-19.7,38.3-44.3,64.9-44.3c7.7,0,15.3,2.1,22.7,6.3
		c21.1,12,28,15.4,46.5,15.4c4,0,8.9-0.2,15.2-0.5c2.3-0.1,4.3-0.2,6.3-0.3c0.5,0,1.1,0,1.6,0c27.8,0,43.2,19.8,58.1,38.9
		c6.1,7.8,11.8,15.1,18.3,21.2c12.6,11.7,25.2,23.4,37.8,35.1c8.4,7.8,16.8,15.5,25.1,23.3c0.9,0.9,1.6,2,2,3.2
		c4.1,14.2,3.4,25.1-2.2,32.5c-4.6,6.2-12.3,9.4-22.3,9.4c-7.1,0-13.2-1.7-13.4-1.8c-1.2-0.4-2.3-1-3.2-2l-77.3-83.2
		c0,0-0.1-0.1-0.1-0.1c-3.2-3.6-8-7.9-12.5-7.9c-6.4,0-14,9-21.4,25.4c-7.4,16.5-13.6,37.8-18.5,54.9c-4.2,14.5-7.5,25.9-10.6,31.7
		c-4.2,7.6-7.8,22-6.3,29.8c8.6,46.5-9.3,74.9-28.2,105c-10,15.9-20.4,32.3-27.1,52.3l-0.8,2.5C294.1,528.9,289.8,541.5,271,541.5z
		 M278.9,326.2c1.8,0,3.5,0.7,4.8,1.9c0.4,0.4,9.2,8.9,14.1,24.7c4.4,14.3,6.6,37.6-8.5,67.7c-0.2,0.5-0.5,0.9-0.8,1.3
		c-14.6,17.8-47.3,72.4-38,95.4c1.5,3.7,4.8,8.7,16.4,10c1.5,0.2,2.9,0.3,4.1,0.3c8.1,0,9.6-2.5,14.3-16.5c0.3-0.8,0.6-1.7,0.9-2.6
		c7.3-21.6,18.1-38.7,28.5-55.3c18.2-28.9,33.9-53.8,26.3-95c-2.2-11.6,2.3-29,7.8-39.1c2.4-4.4,5.8-16.3,9.4-28.8
		c11.6-40.3,26-90.5,53.4-90.5c7.7,0,15.5,4.2,22.9,12.5l75.8,81.6c1.8,0.4,4.7,0.8,7.8,0.8c3.7,0,8.7-0.7,11.1-3.9
		c2.5-3.3,2.7-9.8,0.4-18.3c-7.9-7.3-15.8-14.6-23.7-22c-12.6-11.7-25.2-23.4-37.8-35.1c-7.3-6.8-13.7-14.9-19.8-22.8
		c-13.7-17.5-26.7-34.1-48.3-33.5c-1.8,0.1-3.7,0.1-5.9,0.3c-6.6,0.4-11.6,0.5-16,0.5c-21.9,0-30.8-4.4-53.4-17.3
		c-5.3-3-10.5-4.5-15.8-4.5c-20.3,0-39.1,21.9-54.3,39.4c-4,4.6-7.8,9-11.4,12.7c-11.6,12.1-22,18.9-33,26.1
		c-6.7,4.4-13.6,8.9-21.2,14.9c-2,1.6-4.1,3.2-6.4,4.8c-8.5,6.2-18,13.3-21.2,21.1c-2.3,5.8-2.5,10.9-0.3,14.2
		c2.2,3.2,6.3,3.9,9.4,3.9c1.5,0,3.2-0.2,4.9-0.5c4.4-3.7,19.3-16,35.1-28.2c36.2-27.9,45.3-30.3,49.2-30.5
		c2.4-1.2,6.8-2.9,11.1-2.9c4.8,0,8.7,2.1,11,5.9c3.5,5.9,4.5,16.5-14,50.3c-3.9,11-21.3,58.3-38.8,69.3c-9,9.3-19.7,21.4-25.2,33.5
		c-1.8,4.1-3.4,9.9-0.4,14.5c2.4,3.7,7.4,6,13.2,6c4.4,0,8.7-1.3,12.6-3.7c19.5-12.4,33.4-39.4,43.6-59.1c1-2,2.9-3.3,5.1-3.7
		C278.1,326.2,278.5,326.2,278.9,326.2z"/>
</g>
</svg>
