<svg xmlns="http://www.w3.org/2000/svg" viewBox="0 0 24.24 24.24"><defs><style>.cls-1{fill:#e98631;}.cls-2{fill:#fff;}</style></defs><title>Recurso 10</title><g id="Capa_2" data-name="Capa 2"><g id="Capa_2-2" data-name="Capa 2"><rect class="cls-1" width="24.24" height="24.24" rx="12.12" ry="12.12"/><path class="cls-2" d="M16,19.45a.35.35,0,0,1-.25-.1l-.71-.71-.7.7a.36.36,0,0,1-.49,0l-.7-.7-.65.65a.36.36,0,0,1-.49,0l-.65-.65-.65.65a.36.36,0,0,1-.49,0l-.65-.65-.65.65a.36.36,0,0,1-.49,0l-.77-.77a.51.51,0,0,1-.15-.37V6.07a.51.51,0,0,1,.15-.37l.76-.76a.36.36,0,0,1,.49,0l.65.65.65-.65a.36.36,0,0,1,.49,0l.65.65L12,4.94a.36.36,0,0,1,.49,0l.65.65.7-.7a.36.36,0,0,1,.49,0l.7.7.71-.71A.34.34,0,0,1,16,4.79a.35.35,0,0,1,.24.09l.82.82a.51.51,0,0,1,.15.37v12.1a.51.51,0,0,1-.15.37l-.82.82A.35.35,0,0,1,16,19.45Zm-1-1.41a.35.35,0,0,1,.24.1l.46.46a.36.36,0,0,0,.5,0l.44-.44V6.07l-.44-.44a.36.36,0,0,0-.5,0l-.46.46a.36.36,0,0,1-.49,0l-.45-.45a.36.36,0,0,0-.25-.1.35.35,0,0,0-.25.1l-.45.45a.36.36,0,0,1-.49,0l-.4-.4a.36.36,0,0,0-.5,0l-.4.4a.36.36,0,0,1-.49,0l-.4-.4a.36.36,0,0,0-.5,0l-.4.4a.36.36,0,0,1-.49,0l-.4-.4a.36.36,0,0,0-.5,0l-.38.38V18.16l.38.38a.36.36,0,0,0,.5,0l.4-.4a.36.36,0,0,1,.49,0l.4.4a.36.36,0,0,0,.5,0l.4-.4a.36.36,0,0,1,.49,0l.4.4a.36.36,0,0,0,.5,0l.4-.4a.36.36,0,0,1,.49,0l.45.45a.36.36,0,0,0,.5,0l.45-.45A.34.34,0,0,1,15.07,18Z"/><path class="cls-2" d="M9.68,8.62a.26.26,0,1,1,0-.53h2.7a.26.26,0,0,1,0,.53Z"/><path class="cls-2" d="M9.68,11.16a.26.26,0,1,1,0-.53h5.24a.26.26,0,1,1,0,.53Z"/><path class="cls-2" d="M9.68,13.7a.26.26,0,1,1,0-.53H13.4a.26.26,0,1,1,0,.53Z"/><path class="cls-2" d="M9.68,16.24a.26.26,0,1,1,0-.53h5.24a.26.26,0,1,1,0,.53Z"/></g></g></svg>