<?xml version="1.0" encoding="utf-8"?>
<!-- Generator: Adobe Illustrator 25.3.1, SVG Export Plug-In . SVG Version: 6.00 Build 0)  -->
<svg version="1.1" xmlns="http://www.w3.org/2000/svg" xmlns:xlink="http://www.w3.org/1999/xlink" x="0px" y="0px"
	 viewBox="0 0 100 17.6" style="enable-background:new 0 0 100 17.6;" xml:space="preserve">
<style type="text/css">
	.st0{display:none;}
	.st1{display:inline;}
	.st2{fill:#808080;}
	
		.st3{display:inline;fill:#FFFFFF;stroke:#808080;stroke-width:0.5;stroke-linecap:round;stroke-linejoin:round;stroke-miterlimit:10;}
	.st4{display:inline;fill:none;stroke:#808080;stroke-width:0.5;stroke-linecap:round;stroke-linejoin:round;stroke-miterlimit:10;}
	.st5{display:inline;fill:#006634;}
	.st6{fill:#07663A;}
	.st7{display:inline;fill:#8DD7FF;}
	
		.st8{display:inline;fill:#8DD7FF;stroke:#07663A;stroke-width:0.5;stroke-linecap:round;stroke-linejoin:round;stroke-miterlimit:10;}
	.st9{display:inline;fill:#07663A;}
	.st10{display:inline;fill:none;}
	
		.st11{display:inline;fill:none;stroke:#07663A;stroke-width:0.5;stroke-linecap:round;stroke-linejoin:round;stroke-miterlimit:10;}
	.st12{fill:none;}
	.st13{fill:none;stroke:#07663A;stroke-width:0.5;stroke-linecap:round;stroke-linejoin:round;stroke-miterlimit:10;}
</style>
<g id="Boceto_1" class="st0">
	<g id="Capa_2_1_">
		<g id="Capa_1-2" class="st1">
			<path class="st2" d="M22.4,2.4V0.9l-0.2-0.1c-1.3-0.5-2.7-0.7-4.1-0.7c-2.3-0.1-4.6,0.7-6.3,2.2c-1.8-1.5-4-2.3-6.3-2.2
				c-1.4,0-2.8,0.2-4.1,0.7L1.1,0.9v1.4C0.4,2.4,0,2.6,0,3v14h10.3c0.9,0.7,2.1,0.7,2.9,0h10.1V3C23.3,2.7,23,2.5,22.4,2.4z
				 M11.7,15.9c-2.1-0.9-4.4-1.4-6.8-1.5c-1.1,0-2.1,0.2-3.1,0.5V1.4C3,1,4.2,0.8,5.4,0.8c2.1-0.1,4.2,0.7,5.8,2v8.1l0.4-0.4
				L11.7,15.9z M21.7,15c-1-0.4-2.1-0.6-3.2-0.6c-2.3,0.1-4.5,0.6-6.6,1.5v-5.4l0.4,0.4V2.8c1.6-1.3,3.7-2.1,5.8-2
				c1.2,0,2.5,0.2,3.6,0.6V15z"/>
			<path class="st2" d="M3.1,3.2l0.1,0.5c2.2-0.5,4.6-0.2,6.7,0.8L10.2,4C8,2.9,5.5,2.6,3.1,3.2z"/>
			<path class="st2" d="M3.1,4.7l0.1,0.5C5.5,4.7,7.9,5,9.9,6l0.3-0.5C8,4.4,5.5,4.1,3.1,4.7z"/>
			<path class="st2" d="M3.1,6.1l0.1,0.5c2.2-0.5,4.6-0.2,6.7,0.8L10.2,7C8,5.9,5.5,5.6,3.1,6.1z"/>
			<path class="st2" d="M3.1,7.7l0.1,0.5C5.5,7.7,7.9,8,9.9,9l0.3-0.5C8,7.4,5.5,7.1,3.1,7.7z"/>
			<path class="st2" d="M3.1,9.2l0.1,0.5c2.2-0.5,4.6-0.2,6.7,0.8l0.3-0.5C8,8.9,5.5,8.6,3.1,9.2z"/>
			<path class="st2" d="M3.1,10.7l0.1,0.5C5.5,10.7,7.9,11,9.9,12l0.3-0.5C8,10.4,5.5,10.1,3.1,10.7z"/>
			<path class="st2" d="M3.1,12.2l0.1,0.5c2.2-0.5,4.6-0.2,6.7,0.8l0.3-0.5C8,11.9,5.5,11.6,3.1,12.2z"/>
			<path class="st2" d="M13.8,4.5c2.1-1,4.4-1.3,6.7-0.8l0.1-0.5c-2.4-0.6-4.9-0.3-7.1,0.9L13.8,4.5z"/>
			<path class="st2" d="M13.5,5.6l0.3,0.5c2.1-1,4.4-1.3,6.7-0.8l0.1-0.5C18.2,4.2,15.7,4.5,13.5,5.6z"/>
			<path class="st2" d="M13.5,7l0.3,0.5c2.1-1,4.4-1.3,6.7-0.8l0.1-0.5C18.2,5.6,15.7,5.9,13.5,7z"/>
			<path class="st2" d="M13.5,8.6l0.3,0.5c2.1-1,4.4-1.3,6.7-0.8l0.1-0.5C18.2,7.2,15.7,7.5,13.5,8.6z"/>
			<path class="st2" d="M13.5,10.1l0.3,0.5c2.1-1,4.4-1.3,6.7-0.8l0.1-0.5C18.2,8.7,15.7,9,13.5,10.1z"/>
			<path class="st2" d="M13.5,11.6l0.3,0.5c2.1-1,4.4-1.3,6.7-0.8l0.1-0.5C18.2,10.2,15.7,10.5,13.5,11.6z"/>
			<path class="st2" d="M13.5,13.1l0.3,0.5c2.1-1,4.4-1.3,6.7-0.8l0.1-0.5C18.2,11.7,15.7,12,13.5,13.1z"/>
			<path class="st2" d="M28.2,0.1c0.2,0,0.5-0.1,0.7-0.1c0.2,0,0.5,0,0.7,0.1V6h2.5c0,0.1,0,0.2,0,0.3c0,0.1,0,0.2,0,0.3
				c0,0.1,0,0.2,0,0.3c0,0.1,0,0.2,0,0.3h-3.9L28.2,0.1z"/>
			<path class="st2" d="M32.8,0.1c0.2,0,0.5-0.1,0.7-0.1c0.2,0,0.5,0,0.7,0.1v7.1c-0.2,0-0.5,0.1-0.7,0.1c-0.2,0-0.5,0-0.7-0.1V0.1z
				"/>
			<path class="st2" d="M35.4,0.1c0.2,0,0.5,0,0.7-0.1c0.3,0,0.6,0,1,0c0.3,0,0.7,0,1,0.1c0.3,0,0.6,0.2,0.8,0.3
				c0.2,0.1,0.4,0.3,0.6,0.6c0.1,0.3,0.2,0.6,0.2,0.9c0,0.2,0,0.4-0.1,0.6c-0.1,0.2-0.1,0.3-0.2,0.5c-0.1,0.1-0.2,0.2-0.4,0.3
				c-0.1,0.1-0.3,0.1-0.4,0.2c0.2,0,0.3,0.1,0.5,0.1c0.2,0.1,0.4,0.2,0.5,0.3c0.2,0.2,0.3,0.3,0.4,0.5c0.1,0.3,0.2,0.5,0.2,0.8
				c0,0.4,0,0.7-0.2,1c-0.2,0.3-0.4,0.5-0.7,0.7c-0.3,0.2-0.6,0.3-1,0.3c-0.4,0.1-0.8,0.1-1.1,0.1h-0.9c-0.3,0-0.6,0-1-0.1L35.4,0.1
				z M37.2,3c0.2,0,0.3,0,0.5,0c0.1,0,0.3-0.1,0.4-0.2c0.1-0.1,0.2-0.2,0.2-0.3c0.1-0.2,0.1-0.3,0.1-0.5c0-0.2,0-0.3-0.1-0.5
				c-0.1-0.1-0.2-0.2-0.3-0.3c-0.1-0.1-0.2-0.1-0.4-0.1c-0.1,0-0.3,0-0.4,0c-0.2,0-0.3,0-0.5,0V3H37.2z M36.8,6.2h0.3h0.3
				c0.1,0,0.3,0,0.4,0c0.2,0,0.3-0.1,0.4-0.2c0.1-0.1,0.2-0.2,0.3-0.3c0.1-0.2,0.1-0.3,0.1-0.5c0-0.2,0-0.3-0.1-0.5
				c-0.1-0.1-0.2-0.2-0.3-0.3c-0.1-0.1-0.3-0.1-0.4-0.2c-0.2,0-0.4,0-0.6,0h-0.6L36.8,6.2z"/>
			<path class="st2" d="M41.1,0.1L41.9,0c0.3,0,0.5,0,0.8,0c0.4,0,0.7,0,1.1,0.1c0.4,0.1,0.7,0.2,1,0.3c0.3,0.2,0.5,0.4,0.7,0.7
				c0.2,0.3,0.3,0.7,0.3,1.1c0,0.2,0,0.5-0.1,0.7c-0.1,0.2-0.1,0.4-0.2,0.5c-0.1,0.1-0.2,0.3-0.3,0.4C45,3.9,44.9,4,44.8,4.1
				l-0.2,0.1l1.7,3h-0.4h-0.5c-0.2,0-0.5,0-0.7-0.1l-1.9-3.2l0.2-0.1l0.3-0.2c0.1-0.1,0.3-0.2,0.4-0.3C43.9,3.2,44,3.1,44.1,3
				c0.1-0.2,0.1-0.4,0.1-0.5c0-0.3-0.1-0.7-0.4-0.9c-0.3-0.2-0.6-0.3-0.9-0.3c-0.1,0-0.3,0-0.4,0v6h-0.4h-0.7h-0.4L41.1,0.1z"/>
			<path class="st2" d="M49.6,7.4c-0.5,0-1-0.1-1.4-0.3c-0.4-0.2-0.7-0.4-1-0.8C47,6,46.8,5.6,46.7,5.2c-0.1-0.5-0.2-1-0.2-1.5
				c0-0.5,0.1-1,0.2-1.5c0.1-0.4,0.3-0.8,0.6-1.2c0.3-0.3,0.6-0.6,1-0.8c0.9-0.4,1.9-0.4,2.8,0c0.4,0.2,0.7,0.4,1,0.8
				c0.3,0.4,0.5,0.8,0.6,1.2c0.1,0.5,0.2,1,0.2,1.5c0,0.5-0.1,1-0.2,1.5C52.5,5.6,52.3,6,52,6.3c-0.3,0.3-0.6,0.6-1,0.8
				C50.6,7.3,50.1,7.4,49.6,7.4z M49.6,6.2c1,0,1.5-0.8,1.5-2.5c0-0.6-0.1-1.3-0.4-1.9c-0.2-0.4-0.7-0.6-1.2-0.6
				c-1,0-1.6,0.8-1.6,2.5C48.1,5.3,48.6,6.2,49.6,6.2L49.6,6.2z"/>
			<path class="st2" d="M55.5,0.1L56.4,0c0.3,0,0.6,0,1,0c1-0.1,2.1,0.3,2.8,0.9c0.7,0.8,1.1,1.8,1,2.8c0.1,1-0.3,2-1,2.8
				c-0.8,0.6-1.9,1-3,0.9c-0.3,0-0.6,0-0.9,0l-0.8-0.1L55.5,0.1z M57,6.1h0.2h0.3c0.3,0,0.6,0,0.8-0.1c0.3-0.1,0.5-0.2,0.7-0.4
				c0.2-0.2,0.4-0.5,0.5-0.8c0.1-0.4,0.2-0.8,0.2-1.2c0-0.4,0-0.8-0.2-1.2c-0.1-0.3-0.3-0.5-0.5-0.8c-0.2-0.2-0.4-0.3-0.7-0.4
				c-0.3-0.1-0.5-0.1-0.8-0.1h-0.3H57L57,6.1z"/>
			<path class="st2" d="M62.2,0.1h4c0,0.2,0.1,0.4,0.1,0.6c0,0.2,0,0.4-0.1,0.6h-2.6v1.5h2.1c0,0.2,0.1,0.4,0.1,0.6
				c0,0.2,0,0.4-0.1,0.6h-2V6h2.7c0,0.2,0.1,0.4,0.1,0.6c0,0.2,0,0.4-0.1,0.6h-4.1V0.1z"/>
			<path class="st2" d="M28.3,10l0.8-0.1c0.3,0,0.5,0,0.9,0c0.4,0,0.7,0,1.1,0.1c0.4,0.1,0.7,0.2,1,0.4c0.3,0.2,0.5,0.4,0.7,0.7
				c0.2,0.3,0.3,0.7,0.3,1.1c0,0.2,0,0.5-0.1,0.7c-0.1,0.2-0.1,0.4-0.2,0.5c-0.1,0.1-0.2,0.3-0.3,0.4c-0.1,0.1-0.2,0.2-0.3,0.3
				l-0.2,0.1l1.7,3h-0.4h-0.5c-0.2,0-0.5,0-0.7-0.1L30,13.9l0.2-0.1l0.3-0.2c0.1-0.1,0.3-0.2,0.4-0.3c0.1-0.1,0.2-0.2,0.3-0.4
				c0.1-0.2,0.1-0.4,0.1-0.6c0-0.3-0.1-0.7-0.4-0.9c-0.3-0.2-0.6-0.3-0.9-0.3c-0.1,0-0.3,0-0.4,0v6h-0.4h-0.7h-0.4L28.3,10z"/>
			<path class="st2" d="M34,10h4c0,0.2,0.1,0.4,0.1,0.6c0,0.2,0,0.4-0.1,0.6h-2.6v1.6h2.1c0,0.2,0.1,0.4,0.1,0.6
				c0,0.2,0,0.4-0.1,0.6h-2.1v2h2.7c0,0.2,0.1,0.4,0.1,0.6c0,0.2,0,0.4-0.1,0.6H34V10z"/>
			<path class="st2" d="M43.7,15.8c0.1,0.2,0.2,0.4,0.2,0.6c0.1,0.2,0.1,0.4,0.1,0.6c-0.3,0.1-0.6,0.2-0.9,0.2
				c-0.3,0-0.6,0.1-0.9,0.1c-0.5,0-1-0.1-1.5-0.3c-0.4-0.2-0.8-0.4-1.1-0.8c-0.3-0.3-0.5-0.7-0.6-1.1c-0.2-0.5-0.2-1-0.2-1.5
				c0-0.5,0.1-1,0.2-1.5c0.1-0.4,0.4-0.8,0.6-1.1c0.3-0.3,0.7-0.6,1.1-0.8c0.5-0.2,0.9-0.3,1.4-0.3c0.3,0,0.6,0,0.9,0.1
				c0.3,0,0.6,0.1,0.9,0.2c0,0.2-0.1,0.4-0.1,0.6c-0.1,0.2-0.1,0.4-0.2,0.6c-0.2-0.1-0.4-0.1-0.6-0.2c-0.2,0-0.4,0-0.6,0
				c-0.6,0-1.1,0.2-1.5,0.6c-0.4,0.5-0.6,1.2-0.5,1.8c0,1.6,0.7,2.4,2,2.4c0.2,0,0.4-0.1,0.6-0.1C43.2,16,43.4,15.9,43.7,15.8z"/>
			<path class="st2" d="M44.8,10c0.2,0,0.5-0.1,0.7-0.1c0.2,0,0.5,0,0.7,0.1v5.9h2.5c0,0.1,0,0.2,0,0.3c0,0.1,0,0.2,0,0.3
				c0,0.1,0,0.2,0,0.3c0,0.1,0,0.2,0,0.3h-3.9L44.8,10z"/>
			<path class="st2" d="M51,10h0.4h0.4h0.4h0.4l2.2,7.1c-0.3,0-0.5,0.1-0.8,0.1c-0.2,0-0.5,0-0.7-0.1l-0.4-1.4h-2.4l-0.4,1.4
				c-0.2,0-0.5,0.1-0.7,0.1c-0.2,0-0.5,0-0.7-0.1L51,10z M52.6,14.5l-0.8-3l-0.9,3H52.6z"/>
			<path class="st2" d="M55.6,10c0.3,0,0.5-0.1,0.8-0.1c0.3,0,0.5,0,0.8,0.1l1.6,4.1l1.7-4.1c0.2,0,0.5-0.1,0.7-0.1
				c0.2,0,0.5,0,0.7,0.1l0.3,7.1c-0.2,0-0.5,0.1-0.7,0.1c-0.2,0-0.4,0-0.7-0.1l-0.2-4.8l-1.5,3.4h-0.3h-0.6H58l-1.3-3.4l-0.1,4.9
				c-0.2,0-0.4,0.1-0.6,0.1c-0.2,0-0.4,0-0.7-0.1L55.6,10z"/>
			<path class="st2" d="M64.8,10h0.4h0.4H66h0.4l2.2,7.1c-0.3,0-0.5,0.1-0.8,0.1c-0.2,0-0.5,0-0.7-0.1l-0.4-1.4h-2.3L64,17.2
				c-0.2,0-0.5,0.1-0.7,0.1c-0.2,0-0.5,0-0.7-0.1L64.8,10z M66.4,14.5l-0.8-3l-0.9,3H66.4z"/>
			<path class="st2" d="M73.7,15.8c0.1,0.2,0.2,0.4,0.2,0.6c0.1,0.2,0.1,0.4,0.1,0.6c-0.3,0.1-0.6,0.2-0.9,0.2
				c-0.3,0-0.6,0.1-0.9,0.1c-0.5,0-1-0.1-1.5-0.3c-0.4-0.2-0.8-0.4-1.1-0.8c-0.3-0.3-0.5-0.7-0.6-1.1c-0.2-0.5-0.2-1-0.2-1.5
				c0-0.5,0.1-1,0.2-1.5c0.1-0.4,0.4-0.8,0.7-1.1c0.3-0.3,0.7-0.6,1.1-0.8c0.5-0.2,0.9-0.3,1.4-0.3c0.3,0,0.6,0,0.8,0.1
				c0.3,0,0.6,0.1,0.9,0.2c0,0.2-0.1,0.4-0.1,0.6c-0.1,0.2-0.1,0.4-0.2,0.6c-0.2-0.1-0.4-0.1-0.6-0.2c-0.2,0-0.4,0-0.6,0
				c-0.6,0-1.1,0.2-1.5,0.6c-0.4,0.5-0.6,1.2-0.5,1.8c0,1.6,0.7,2.4,2.1,2.4c0.2,0,0.4-0.1,0.7-0.1C73.2,16,73.5,15.9,73.7,15.8z"/>
			<path class="st2" d="M74.8,10c0.2,0,0.5-0.1,0.7-0.1c0.2,0,0.5,0,0.7,0.1v7.1c-0.2,0-0.5,0.1-0.7,0.1c-0.2,0-0.5,0-0.7-0.1V10z"
				/>
			<path class="st2" d="M80.2,17.3c-0.5,0-1-0.1-1.4-0.3c-0.4-0.2-0.7-0.4-1-0.8c-0.3-0.3-0.5-0.7-0.6-1.2c-0.1-0.5-0.2-1-0.2-1.5
				c0-0.5,0.1-1,0.2-1.5c0.1-0.4,0.3-0.8,0.6-1.1c0.3-0.3,0.6-0.6,1-0.8c0.9-0.4,1.9-0.4,2.8,0c0.4,0.2,0.7,0.4,1,0.8
				c0.3,0.4,0.5,0.8,0.6,1.2c0.1,0.5,0.2,1,0.2,1.5c0,0.5-0.1,1-0.2,1.5c-0.1,0.4-0.3,0.8-0.6,1.2c-0.3,0.3-0.6,0.6-1,0.8
				C81.2,17.2,80.7,17.3,80.2,17.3z M80.2,16.1c1,0,1.5-0.8,1.5-2.5c0-0.6-0.1-1.3-0.4-1.9c-0.2-0.4-0.7-0.6-1.2-0.6
				c-1,0-1.6,0.8-1.6,2.5S79.2,16.1,80.2,16.1z"/>
			<path class="st2" d="M84.2,10c0.2,0,0.4-0.1,0.6-0.1c0.2,0,0.4,0,0.6,0.1l2.8,4.6V10c0.2,0,0.5-0.1,0.7-0.1c0.2,0,0.4,0,0.6,0.1
				v7.1c-0.2,0-0.4,0.1-0.6,0.1c-0.2,0-0.4,0-0.6-0.1l-2.8-4.5v4.5c-0.2,0-0.4,0.1-0.7,0.1c-0.2,0-0.4,0-0.6-0.1L84.2,10z"/>
			<path class="st2" d="M90.6,10h4c0,0.2,0.1,0.4,0.1,0.6c0,0.2,0,0.4-0.1,0.6H92v1.6h2.1c0,0.2,0.1,0.4,0.1,0.6
				c0,0.2,0,0.4-0.1,0.6H92v2h2.7c0,0.2,0.1,0.4,0.1,0.6c0,0.2,0,0.4-0.1,0.6h-4.1V10z"/>
			<path class="st2" d="M96.8,13.9c-0.2-0.1-0.4-0.2-0.6-0.3c-0.2-0.1-0.3-0.2-0.5-0.4c-0.1-0.1-0.2-0.3-0.3-0.5
				c-0.2-0.5-0.1-1.1,0.1-1.6c0.1-0.3,0.3-0.5,0.5-0.6c0.2-0.2,0.5-0.3,0.8-0.4c0.3-0.1,0.7-0.1,1-0.1c0.3,0,0.6,0,0.9,0.1
				c0.3,0.1,0.6,0.2,0.9,0.3c0,0.4-0.2,0.8-0.3,1.1l-0.3-0.1l-0.3-0.1l-0.4-0.1h-0.5h-0.3c-0.1,0-0.2,0.1-0.3,0.1
				c-0.1,0.1-0.2,0.1-0.2,0.2c-0.1,0.1-0.1,0.3-0.1,0.4c0,0.1,0,0.2,0.1,0.3c0,0.1,0.1,0.2,0.2,0.2c0.1,0.1,0.2,0.1,0.3,0.2l0.3,0.1
				l0.6,0.2c0.3,0.1,0.5,0.2,0.7,0.3c0.2,0.1,0.4,0.2,0.5,0.4c0.1,0.2,0.3,0.4,0.3,0.6c0.1,0.3,0.2,0.5,0.2,0.8
				c0,0.3-0.1,0.6-0.2,0.9c-0.1,0.3-0.3,0.5-0.5,0.7c-0.3,0.2-0.5,0.4-0.9,0.5c-0.4,0.1-0.8,0.2-1.2,0.2h-0.6l-0.5-0.1l-0.5-0.1
				l-0.5-0.2c0-0.2,0.1-0.4,0.1-0.6c0.1-0.2,0.1-0.4,0.2-0.6c0.3,0.1,0.5,0.2,0.8,0.2c0.3,0.1,0.5,0.1,0.8,0.1c0.3,0,0.7-0.1,1-0.2
				c0.2-0.2,0.4-0.4,0.4-0.7c0-0.1,0-0.3-0.1-0.4c-0.1-0.1-0.1-0.2-0.2-0.3c-0.1-0.1-0.2-0.1-0.3-0.2l-0.3-0.1L96.8,13.9z"/>
		</g>
	</g>
	<path class="st3" d="M12.3,3.5c0,0-1.5-3.4-6.9-2.9v11.9c0,0,3.9-0.6,6.9,0.8V3.5z"/>
	<path class="st4" d="M4.9,2c0,0-0.6-0.6-1.1-0.6v13c0,0,3.6-1.4,7.1,0"/>
	<path class="st5" d="M2.6,2.7H2c-0.4,0-0.7,0.3-0.7,0.6v12.2c0,0.4,0.3,0.6,0.7,0.6h8.8c0,0,0.5,1.3,1.5,1.3s1.5-1.2,1.5-1.2h8.6
		c0.4,0,0.7-0.3,0.7-0.6V3.3c0-0.4-0.3-0.6-0.7-0.6h-0.5v11.7c0,0.3-0.3,0.6-0.6,0.6h-6.9c-0.3,0-0.6,0.2-0.8,0.5
		c-0.2,0.4-0.6,0.9-1.3,0.9c-0.7,0-1.1-0.5-1.3-1c-0.1-0.3-0.4-0.5-0.8-0.5H3.2c-0.3,0-0.6-0.3-0.6-0.6L2.6,2.7z"/>
	<path class="st3" d="M12.3,3.5c0,0,1.5-3.4,6.9-2.9v11.9c0,0-3.9-0.6-6.9,0.8V3.5z"/>
	<path class="st4" d="M19.7,2c0,0,0.6-0.6,1.1-0.6v13c0,0-3.6-1.4-7.1,0"/>
	<g class="st1">
		<path class="st6" d="M27.8,5.9h2.7v1.2h-4.2V0.7h1.5V5.9z"/>
		<path class="st6" d="M32.8,7.1h-1.5V0.7h1.5V7.1z"/>
		<path class="st6" d="M33.9,7.1V0.7h2.3c0.8,0,1.5,0.2,1.9,0.5c0.4,0.3,0.6,0.7,0.6,1.3c0,0.3-0.1,0.6-0.2,0.8
			c-0.2,0.2-0.4,0.4-0.7,0.5c0.3,0.1,0.6,0.3,0.8,0.5s0.3,0.5,0.3,0.9c0,0.6-0.2,1.1-0.6,1.4c-0.4,0.3-1,0.5-1.8,0.5H33.9z
			 M35.4,3.4h0.8c0.3,0,0.6-0.1,0.7-0.2s0.2-0.3,0.2-0.5c0-0.3-0.1-0.5-0.2-0.6c-0.2-0.1-0.4-0.2-0.8-0.2h-0.8V3.4z M35.4,4.4v1.5h1
			c0.3,0,0.5-0.1,0.6-0.2c0.2-0.1,0.2-0.3,0.2-0.5c0-0.5-0.3-0.8-0.8-0.8H35.4z"/>
		<path class="st6" d="M42,4.9h-0.8v2.3h-1.5V0.7h2.5c0.8,0,1.4,0.2,1.8,0.5s0.6,0.8,0.6,1.4c0,0.4-0.1,0.8-0.3,1.1
			c-0.2,0.3-0.5,0.5-0.8,0.7l1.3,2.6v0.1h-1.7L42,4.9z M41.2,3.7h1c0.3,0,0.5-0.1,0.7-0.2c0.1-0.2,0.2-0.4,0.2-0.6
			c0-0.3-0.1-0.5-0.2-0.6c-0.1-0.2-0.4-0.2-0.7-0.2h-1V3.7z"/>
		<path class="st6" d="M51,4.1c0,0.6-0.1,1.2-0.3,1.7s-0.6,0.9-1,1.1c-0.4,0.3-0.9,0.4-1.5,0.4s-1-0.1-1.5-0.4
			c-0.4-0.2-0.8-0.6-1-1.1c-0.2-0.5-0.4-1-0.4-1.6V3.8c0-0.6,0.1-1.2,0.3-1.7c0.2-0.5,0.6-0.8,1-1.1c0.4-0.3,0.9-0.4,1.5-0.4
			c0.5,0,1,0.1,1.5,0.4s0.8,0.6,1,1.1c0.2,0.5,0.4,1,0.4,1.6V4.1z M49.4,3.8c0-0.6-0.1-1.1-0.3-1.4c-0.2-0.3-0.5-0.5-0.9-0.5
			c-0.8,0-1.2,0.6-1.2,1.7l0,0.5c0,0.6,0.1,1.1,0.3,1.4S47.8,6,48.2,6c0.4,0,0.7-0.2,0.9-0.5s0.3-0.8,0.3-1.4V3.8z"/>
		<path class="st6" d="M54,7.1V0.7H56c0.6,0,1.1,0.1,1.5,0.4s0.8,0.6,1.1,1.1c0.3,0.5,0.4,1,0.4,1.6v0.3c0,0.6-0.1,1.1-0.4,1.6
			c-0.2,0.5-0.6,0.8-1,1.1c-0.5,0.3-1,0.4-1.5,0.4H54z M55.5,1.9v4h0.5c0.4,0,0.8-0.2,1-0.5c0.2-0.3,0.4-0.8,0.4-1.4V3.8
			c0-0.6-0.1-1.1-0.4-1.4c-0.2-0.3-0.6-0.5-1-0.5H55.5z"/>
		<path class="st6" d="M63.8,4.4h-2.4v1.5h2.9v1.2h-4.4V0.7h4.4v1.2h-2.9v1.3h2.4V4.4z"/>
	</g>
	<g class="st1">
		<path class="st6" d="M28.6,14.9h-0.8v2.3h-1.5v-6.4h2.5c0.8,0,1.4,0.2,1.8,0.5c0.4,0.3,0.6,0.8,0.6,1.4c0,0.4-0.1,0.8-0.3,1.1
			c-0.2,0.3-0.5,0.5-0.8,0.7l1.3,2.6v0.1h-1.7L28.6,14.9z M27.8,13.7h1c0.3,0,0.5-0.1,0.7-0.2c0.1-0.2,0.2-0.4,0.2-0.6
			s-0.1-0.5-0.2-0.6c-0.1-0.2-0.4-0.2-0.7-0.2h-1V13.7z"/>
		<path class="st6" d="M36.1,14.4h-2.4v1.5h2.9v1.2h-4.4v-6.4h4.4v1.2h-2.9v1.3h2.4V14.4z"/>
		<path class="st6" d="M42.3,15c0,0.4-0.1,0.8-0.4,1.2c-0.2,0.3-0.5,0.6-0.9,0.8c-0.4,0.2-0.9,0.3-1.4,0.3c-0.8,0-1.5-0.3-2-0.8
			s-0.7-1.3-0.7-2.3v-0.3c0-0.6,0.1-1.2,0.3-1.6c0.2-0.5,0.5-0.8,0.9-1.1c0.4-0.3,0.9-0.4,1.4-0.4c0.8,0,1.4,0.2,1.9,0.6
			c0.5,0.4,0.7,1,0.8,1.7h-1.5c0-0.4-0.1-0.7-0.3-0.8s-0.5-0.3-0.8-0.3c-0.4,0-0.7,0.1-0.8,0.4s-0.3,0.7-0.3,1.4v0.5
			c0,0.7,0.1,1.2,0.3,1.5c0.2,0.3,0.5,0.4,0.9,0.4c0.4,0,0.6-0.1,0.8-0.3c0.2-0.2,0.3-0.4,0.3-0.8H42.3z"/>
		<path class="st6" d="M44.6,15.9h2.7v1.2H43v-6.4h1.5V15.9z"/>
		<path class="st6" d="M51.6,15.9h-2.1l-0.4,1.2h-1.6l2.3-6.4h1.4l2.4,6.4H52L51.6,15.9z M49.9,14.7h1.4l-0.7-2.2L49.9,14.7z"/>
		<path class="st6" d="M56.1,10.7l1.4,4.5l1.4-4.5h2v6.4h-1.5v-1.5l0.1-3.1l-1.5,4.6h-1l-1.6-4.6l0.1,3.1v1.5h-1.5v-6.4H56.1z"/>
		<path class="st6" d="M65.6,15.9h-2.1l-0.4,1.2h-1.6l2.3-6.4h1.4l2.4,6.4H66L65.6,15.9z M63.9,14.7h1.4l-0.7-2.2L63.9,14.7z"/>
		<path class="st6" d="M73.3,15c0,0.4-0.1,0.8-0.4,1.2c-0.2,0.3-0.5,0.6-0.9,0.8c-0.4,0.2-0.9,0.3-1.4,0.3c-0.8,0-1.5-0.3-2-0.8
			S68,15.1,68,14.1v-0.3c0-0.6,0.1-1.2,0.3-1.6c0.2-0.5,0.5-0.8,0.9-1.1c0.4-0.3,0.9-0.4,1.4-0.4c0.8,0,1.4,0.2,1.9,0.6
			c0.5,0.4,0.7,1,0.8,1.7h-1.5c0-0.4-0.1-0.7-0.3-0.8s-0.5-0.3-0.8-0.3c-0.4,0-0.7,0.1-0.8,0.4s-0.3,0.7-0.3,1.4v0.5
			c0,0.7,0.1,1.2,0.3,1.5c0.2,0.3,0.5,0.4,0.9,0.4c0.4,0,0.6-0.1,0.8-0.3c0.2-0.2,0.3-0.4,0.3-0.8H73.3z"/>
		<path class="st6" d="M75.7,17.1h-1.5v-6.4h1.5V17.1z"/>
		<path class="st6" d="M82.2,14.1c0,0.6-0.1,1.2-0.3,1.7s-0.6,0.8-1,1.1c-0.4,0.3-0.9,0.4-1.5,0.4s-1-0.1-1.5-0.4
			c-0.4-0.2-0.8-0.6-1-1.1c-0.2-0.5-0.4-1-0.4-1.6v-0.4c0-0.6,0.1-1.2,0.3-1.7c0.2-0.5,0.6-0.8,1-1.1c0.4-0.3,0.9-0.4,1.5-0.4
			c0.5,0,1,0.1,1.5,0.4s0.8,0.6,1,1.1c0.2,0.5,0.4,1,0.4,1.6V14.1z M80.6,13.8c0-0.6-0.1-1.1-0.3-1.4c-0.2-0.3-0.5-0.5-0.9-0.5
			c-0.8,0-1.2,0.6-1.2,1.7l0,0.5c0,0.6,0.1,1.1,0.3,1.4S79,16,79.4,16c0.4,0,0.7-0.2,0.9-0.5s0.3-0.8,0.3-1.4V13.8z"/>
		<path class="st6" d="M88.3,17.1h-1.5l-2.3-4v4H83v-6.4h1.5l2.3,4v-4h1.5V17.1z"/>
		<path class="st6" d="M93.3,14.4h-2.4v1.5h2.9v1.2h-4.4v-6.4h4.4v1.2h-2.9v1.3h2.4V14.4z"/>
		<path class="st6" d="M97.6,15.4c0-0.2-0.1-0.4-0.2-0.5c-0.2-0.1-0.4-0.3-0.8-0.4c-0.4-0.1-0.7-0.3-1-0.4c-0.8-0.4-1.2-1-1.2-1.7
			c0-0.4,0.1-0.7,0.3-0.9c0.2-0.3,0.5-0.5,0.9-0.6c0.4-0.2,0.8-0.2,1.3-0.2c0.5,0,0.9,0.1,1.2,0.2c0.4,0.2,0.6,0.4,0.9,0.7
			c0.2,0.3,0.3,0.6,0.3,1h-1.5c0-0.3-0.1-0.5-0.2-0.6c-0.2-0.1-0.4-0.2-0.6-0.2c-0.3,0-0.5,0.1-0.7,0.2c-0.2,0.1-0.2,0.3-0.2,0.5
			c0,0.2,0.1,0.3,0.3,0.4c0.2,0.1,0.5,0.3,0.9,0.4c0.4,0.1,0.8,0.3,1.1,0.5c0.7,0.4,1,0.9,1,1.6c0,0.6-0.2,1-0.6,1.3s-1,0.5-1.7,0.5
			c-0.5,0-1-0.1-1.4-0.3c-0.4-0.2-0.7-0.4-0.9-0.8c-0.2-0.3-0.3-0.7-0.3-1.1h1.5c0,0.3,0.1,0.6,0.3,0.8c0.2,0.2,0.5,0.2,0.9,0.2
			c0.3,0,0.5-0.1,0.6-0.2C97.6,15.8,97.6,15.6,97.6,15.4z"/>
	</g>
</g>
<g id="Capa_2" class="st0">
	<g class="st1">
		<path class="st6" d="M27.8,5.9h2.7v1.2h-4.2V0.7h1.5V5.9z"/>
		<path class="st6" d="M32.8,7.1h-1.5V0.7h1.5V7.1z"/>
		<path class="st6" d="M33.9,7.1V0.7h2.3c0.8,0,1.5,0.2,1.9,0.5c0.4,0.3,0.6,0.7,0.6,1.3c0,0.3-0.1,0.6-0.2,0.8
			c-0.2,0.2-0.4,0.4-0.7,0.5c0.3,0.1,0.6,0.3,0.8,0.5s0.3,0.5,0.3,0.9c0,0.6-0.2,1.1-0.6,1.4c-0.4,0.3-1,0.5-1.8,0.5H33.9z
			 M35.4,3.4h0.8c0.3,0,0.6-0.1,0.7-0.2s0.2-0.3,0.2-0.5c0-0.3-0.1-0.5-0.2-0.6c-0.2-0.1-0.4-0.2-0.8-0.2h-0.8V3.4z M35.4,4.4v1.5h1
			c0.3,0,0.5-0.1,0.6-0.2c0.2-0.1,0.2-0.3,0.2-0.5c0-0.5-0.3-0.8-0.8-0.8H35.4z"/>
		<path class="st6" d="M42,4.9h-0.8v2.3h-1.5V0.7h2.5c0.8,0,1.4,0.2,1.8,0.5s0.6,0.8,0.6,1.4c0,0.4-0.1,0.8-0.3,1.1
			c-0.2,0.3-0.5,0.5-0.8,0.7l1.3,2.6v0.1h-1.7L42,4.9z M41.2,3.7h1c0.3,0,0.5-0.1,0.7-0.2c0.1-0.2,0.2-0.4,0.2-0.6
			c0-0.3-0.1-0.5-0.2-0.6c-0.1-0.2-0.4-0.2-0.7-0.2h-1V3.7z"/>
		<path class="st6" d="M51,4.1c0,0.6-0.1,1.2-0.3,1.7s-0.6,0.9-1,1.1c-0.4,0.3-0.9,0.4-1.5,0.4s-1-0.1-1.5-0.4
			c-0.4-0.2-0.8-0.6-1-1.1c-0.2-0.5-0.4-1-0.4-1.6V3.8c0-0.6,0.1-1.2,0.3-1.7c0.2-0.5,0.6-0.8,1-1.1c0.4-0.3,0.9-0.4,1.5-0.4
			c0.5,0,1,0.1,1.5,0.4s0.8,0.6,1,1.1c0.2,0.5,0.4,1,0.4,1.6V4.1z M49.4,3.8c0-0.6-0.1-1.1-0.3-1.4c-0.2-0.3-0.5-0.5-0.9-0.5
			c-0.8,0-1.2,0.6-1.2,1.7l0,0.5c0,0.6,0.1,1.1,0.3,1.4S47.8,6,48.2,6c0.4,0,0.7-0.2,0.9-0.5s0.3-0.8,0.3-1.4V3.8z"/>
		<path class="st6" d="M54,7.1V0.7H56c0.6,0,1.1,0.1,1.5,0.4s0.8,0.6,1.1,1.1c0.3,0.5,0.4,1,0.4,1.6v0.3c0,0.6-0.1,1.1-0.4,1.6
			c-0.2,0.5-0.6,0.8-1,1.1c-0.5,0.3-1,0.4-1.5,0.4H54z M55.5,1.9v4h0.5c0.4,0,0.8-0.2,1-0.5c0.2-0.3,0.4-0.8,0.4-1.4V3.8
			c0-0.6-0.1-1.1-0.4-1.4c-0.2-0.3-0.6-0.5-1-0.5H55.5z"/>
		<path class="st6" d="M63.8,4.4h-2.4v1.5h2.9v1.2h-4.4V0.7h4.4v1.2h-2.9v1.3h2.4V4.4z"/>
	</g>
	<g class="st1">
		<path class="st6" d="M28.6,14.9h-0.8v2.3h-1.5v-6.4h2.5c0.8,0,1.4,0.2,1.8,0.5c0.4,0.3,0.6,0.8,0.6,1.4c0,0.4-0.1,0.8-0.3,1.1
			c-0.2,0.3-0.5,0.5-0.8,0.7l1.3,2.6v0.1h-1.7L28.6,14.9z M27.8,13.7h1c0.3,0,0.5-0.1,0.7-0.2c0.1-0.2,0.2-0.4,0.2-0.6
			s-0.1-0.5-0.2-0.6c-0.1-0.2-0.4-0.2-0.7-0.2h-1V13.7z"/>
		<path class="st6" d="M36.1,14.4h-2.4v1.5h2.9v1.2h-4.4v-6.4h4.4v1.2h-2.9v1.3h2.4V14.4z"/>
		<path class="st6" d="M42.3,15c0,0.4-0.1,0.8-0.4,1.2c-0.2,0.3-0.5,0.6-0.9,0.8c-0.4,0.2-0.9,0.3-1.4,0.3c-0.8,0-1.5-0.3-2-0.8
			s-0.7-1.3-0.7-2.3v-0.3c0-0.6,0.1-1.2,0.3-1.6c0.2-0.5,0.5-0.8,0.9-1.1c0.4-0.3,0.9-0.4,1.4-0.4c0.8,0,1.4,0.2,1.9,0.6
			c0.5,0.4,0.7,1,0.8,1.7h-1.5c0-0.4-0.1-0.7-0.3-0.8s-0.5-0.3-0.8-0.3c-0.4,0-0.7,0.1-0.8,0.4s-0.3,0.7-0.3,1.4v0.5
			c0,0.7,0.1,1.2,0.3,1.5c0.2,0.3,0.5,0.4,0.9,0.4c0.4,0,0.6-0.1,0.8-0.3c0.2-0.2,0.3-0.4,0.3-0.8H42.3z"/>
		<path class="st6" d="M44.6,15.9h2.7v1.2H43v-6.4h1.5V15.9z"/>
		<path class="st6" d="M51.6,15.9h-2.1l-0.4,1.2h-1.6l2.3-6.4h1.4l2.4,6.4H52L51.6,15.9z M49.9,14.7h1.4l-0.7-2.2L49.9,14.7z"/>
		<path class="st6" d="M56.1,10.7l1.4,4.5l1.4-4.5h2v6.4h-1.5v-1.5l0.1-3.1l-1.5,4.6h-1l-1.6-4.6l0.1,3.1v1.5h-1.5v-6.4H56.1z"/>
		<path class="st6" d="M65.6,15.9h-2.1l-0.4,1.2h-1.6l2.3-6.4h1.4l2.4,6.4H66L65.6,15.9z M63.9,14.7h1.4l-0.7-2.2L63.9,14.7z"/>
		<path class="st6" d="M73.3,15c0,0.4-0.1,0.8-0.4,1.2c-0.2,0.3-0.5,0.6-0.9,0.8c-0.4,0.2-0.9,0.3-1.4,0.3c-0.8,0-1.5-0.3-2-0.8
			S68,15.1,68,14.1v-0.3c0-0.6,0.1-1.2,0.3-1.6c0.2-0.5,0.5-0.8,0.9-1.1c0.4-0.3,0.9-0.4,1.4-0.4c0.8,0,1.4,0.2,1.9,0.6
			c0.5,0.4,0.7,1,0.8,1.7h-1.5c0-0.4-0.1-0.7-0.3-0.8s-0.5-0.3-0.8-0.3c-0.4,0-0.7,0.1-0.8,0.4s-0.3,0.7-0.3,1.4v0.5
			c0,0.7,0.1,1.2,0.3,1.5c0.2,0.3,0.5,0.4,0.9,0.4c0.4,0,0.6-0.1,0.8-0.3c0.2-0.2,0.3-0.4,0.3-0.8H73.3z"/>
		<path class="st6" d="M75.7,17.1h-1.5v-6.4h1.5V17.1z"/>
		<path class="st6" d="M82.2,14.1c0,0.6-0.1,1.2-0.3,1.7s-0.6,0.8-1,1.1c-0.4,0.3-0.9,0.4-1.5,0.4s-1-0.1-1.5-0.4
			c-0.4-0.2-0.8-0.6-1-1.1c-0.2-0.5-0.4-1-0.4-1.6v-0.4c0-0.6,0.1-1.2,0.3-1.7c0.2-0.5,0.6-0.8,1-1.1c0.4-0.3,0.9-0.4,1.5-0.4
			c0.5,0,1,0.1,1.5,0.4s0.8,0.6,1,1.1c0.2,0.5,0.4,1,0.4,1.6V14.1z M80.6,13.8c0-0.6-0.1-1.1-0.3-1.4c-0.2-0.3-0.5-0.5-0.9-0.5
			c-0.8,0-1.2,0.6-1.2,1.7l0,0.5c0,0.6,0.1,1.1,0.3,1.4S79,16,79.4,16c0.4,0,0.7-0.2,0.9-0.5s0.3-0.8,0.3-1.4V13.8z"/>
		<path class="st6" d="M88.3,17.1h-1.5l-2.3-4v4H83v-6.4h1.5l2.3,4v-4h1.5V17.1z"/>
		<path class="st6" d="M93.3,14.4h-2.4v1.5h2.9v1.2h-4.4v-6.4h4.4v1.2h-2.9v1.3h2.4V14.4z"/>
		<path class="st6" d="M97.6,15.4c0-0.2-0.1-0.4-0.2-0.5c-0.2-0.1-0.4-0.3-0.8-0.4c-0.4-0.1-0.7-0.3-1-0.4c-0.8-0.4-1.2-1-1.2-1.7
			c0-0.4,0.1-0.7,0.3-0.9c0.2-0.3,0.5-0.5,0.9-0.6c0.4-0.2,0.8-0.2,1.3-0.2c0.5,0,0.9,0.1,1.2,0.2c0.4,0.2,0.6,0.4,0.9,0.7
			c0.2,0.3,0.3,0.6,0.3,1h-1.5c0-0.3-0.1-0.5-0.2-0.6c-0.2-0.1-0.4-0.2-0.6-0.2c-0.3,0-0.5,0.1-0.7,0.2c-0.2,0.1-0.2,0.3-0.2,0.5
			c0,0.2,0.1,0.3,0.3,0.4c0.2,0.1,0.5,0.3,0.9,0.4c0.4,0.1,0.8,0.3,1.1,0.5c0.7,0.4,1,0.9,1,1.6c0,0.6-0.2,1-0.6,1.3s-1,0.5-1.7,0.5
			c-0.5,0-1-0.1-1.4-0.3c-0.4-0.2-0.7-0.4-0.9-0.8c-0.2-0.3-0.3-0.7-0.3-1.1h1.5c0,0.3,0.1,0.6,0.3,0.8c0.2,0.2,0.5,0.2,0.9,0.2
			c0.3,0,0.5-0.1,0.6-0.2C97.6,15.8,97.6,15.6,97.6,15.4z"/>
	</g>
	<polyline class="st7" points="4.8,2.7 2.4,2.7 2.4,15.5 10.5,15.5 12.3,16.8 15,15.5 22.3,15.5 22.3,2.7 20.7,2.7 	"/>
	<path class="st8" d="M5.4,1.9c0,0-1.1-0.6-1.6-0.6v13c0,0,3.6-1.4,7.1,0"/>
	<path class="st8" d="M19.2,1.9c0,0,1.1-0.6,1.6-0.6v13c0,0-3.6-1.4-7.1,0"/>
	<path class="st8" d="M12.3,3.5c0,0-1.5-3.4-6.9-2.9v11.9c0,0,3.9-0.6,6.9,0.8V3.5z"/>
	<path class="st9" d="M2.6,2.7H2c-0.4,0-0.7,0.3-0.7,0.6v12.2c0,0.4,0.3,0.6,0.7,0.6h8.8c0,0,0.5,1.3,1.5,1.3s1.5-1.2,1.5-1.2h8.6
		c0.4,0,0.7-0.3,0.7-0.6V3.3c0-0.4-0.3-0.6-0.7-0.6h-0.5v11.7c0,0.3-0.3,0.6-0.6,0.6h-6.9c-0.3,0-0.6,0.2-0.8,0.5
		c-0.2,0.4-0.6,0.9-1.3,0.9c-0.7,0-1.1-0.5-1.3-1c-0.1-0.3-0.4-0.5-0.8-0.5H3.2c-0.3,0-0.6-0.3-0.6-0.6L2.6,2.7z"/>
	<path class="st8" d="M12.3,3.5c0,0,1.5-3.4,6.9-2.9v11.9c0,0-3.9-0.6-6.9,0.8V3.5z"/>
	<g id="Capa_3" class="st1">
	</g>
</g>
<g id="Capa_4" class="st0">
	<g class="st1">
		<path class="st6" d="M27.8,6h2.7v1.2h-4.2V0.8h1.5V6z"/>
		<path class="st6" d="M32.8,7.2h-1.5V0.8h1.5V7.2z"/>
		<path class="st6" d="M33.9,7.2V0.8h2.3c0.8,0,1.5,0.2,1.9,0.5c0.4,0.3,0.6,0.7,0.6,1.3c0,0.3-0.1,0.6-0.2,0.8
			c-0.2,0.2-0.4,0.4-0.7,0.5c0.3,0.1,0.6,0.3,0.8,0.5s0.3,0.5,0.3,0.9c0,0.6-0.2,1.1-0.6,1.4c-0.4,0.3-1,0.5-1.8,0.5H33.9z
			 M35.4,3.4h0.8c0.3,0,0.6-0.1,0.7-0.2s0.2-0.3,0.2-0.5c0-0.3-0.1-0.5-0.2-0.6c-0.2-0.1-0.4-0.2-0.8-0.2h-0.8V3.4z M35.4,4.4V6h1
			c0.3,0,0.5-0.1,0.6-0.2c0.2-0.1,0.2-0.3,0.2-0.5c0-0.5-0.3-0.8-0.8-0.8H35.4z"/>
		<path class="st6" d="M42,4.9h-0.8v2.3h-1.5V0.8h2.5c0.8,0,1.4,0.2,1.8,0.5s0.6,0.8,0.6,1.4c0,0.4-0.1,0.8-0.3,1.1
			c-0.2,0.3-0.5,0.5-0.8,0.7l1.3,2.6v0.1h-1.7L42,4.9z M41.2,3.7h1c0.3,0,0.5-0.1,0.7-0.2c0.1-0.2,0.2-0.4,0.2-0.6
			c0-0.3-0.1-0.5-0.2-0.6c-0.1-0.2-0.4-0.2-0.7-0.2h-1V3.7z"/>
		<path class="st6" d="M51,4.1c0,0.6-0.1,1.2-0.3,1.7s-0.6,0.9-1,1.1c-0.4,0.3-0.9,0.4-1.5,0.4s-1-0.1-1.5-0.4
			c-0.4-0.2-0.8-0.6-1-1.1c-0.2-0.5-0.4-1-0.4-1.6V3.8c0-0.6,0.1-1.2,0.3-1.7c0.2-0.5,0.6-0.8,1-1.1c0.4-0.3,0.9-0.4,1.5-0.4
			c0.5,0,1,0.1,1.5,0.4s0.8,0.6,1,1.1c0.2,0.5,0.4,1,0.4,1.6V4.1z M49.4,3.8c0-0.6-0.1-1.1-0.3-1.4c-0.2-0.3-0.5-0.5-0.9-0.5
			c-0.8,0-1.2,0.6-1.2,1.7l0,0.5c0,0.6,0.1,1.1,0.3,1.4S47.8,6,48.2,6c0.4,0,0.7-0.2,0.9-0.5s0.3-0.8,0.3-1.4V3.8z"/>
		<path class="st6" d="M54,7.2V0.8h2.1c0.6,0,1.1,0.1,1.5,0.4s0.8,0.6,1.1,1.1c0.3,0.5,0.4,1,0.4,1.6v0.3c0,0.6-0.1,1.1-0.4,1.6
			c-0.2,0.5-0.6,0.8-1,1.1c-0.5,0.3-1,0.4-1.5,0.4H54z M55.5,1.9v4h0.5c0.4,0,0.8-0.2,1-0.5c0.2-0.3,0.4-0.8,0.4-1.4V3.8
			c0-0.6-0.1-1.1-0.4-1.4c-0.2-0.3-0.6-0.5-1-0.5H55.5z"/>
		<path class="st6" d="M63.8,4.4h-2.4V6h2.9v1.2h-4.4V0.8h4.4v1.2h-2.9v1.3h2.4V4.4z"/>
	</g>
	<g class="st1">
		<path class="st6" d="M28.6,14.9h-0.8v2.3h-1.5v-6.4h2.5c0.8,0,1.4,0.2,1.8,0.5c0.4,0.3,0.6,0.8,0.6,1.4c0,0.4-0.1,0.8-0.3,1.1
			c-0.2,0.3-0.5,0.5-0.8,0.7l1.3,2.6v0.1h-1.7L28.6,14.9z M27.8,13.7h1c0.3,0,0.5-0.1,0.7-0.2c0.1-0.2,0.2-0.4,0.2-0.6
			c0-0.3-0.1-0.5-0.2-0.7c-0.1-0.2-0.4-0.2-0.7-0.2h-1V13.7z"/>
		<path class="st6" d="M36.1,14.4h-2.4V16h2.9v1.2h-4.4v-6.4h4.4v1.2h-2.9v1.3h2.4V14.4z"/>
		<path class="st6" d="M42.3,15c0,0.4-0.1,0.8-0.4,1.2c-0.2,0.3-0.5,0.6-0.9,0.8c-0.4,0.2-0.9,0.3-1.4,0.3c-0.8,0-1.5-0.3-2-0.8
			s-0.7-1.3-0.7-2.3v-0.3c0-0.6,0.1-1.2,0.3-1.6c0.2-0.5,0.5-0.8,0.9-1.1c0.4-0.3,0.9-0.4,1.4-0.4c0.8,0,1.4,0.2,1.9,0.6
			c0.5,0.4,0.7,1,0.8,1.7h-1.5c0-0.4-0.1-0.7-0.3-0.8s-0.5-0.3-0.8-0.3c-0.4,0-0.7,0.1-0.8,0.4s-0.3,0.7-0.3,1.4v0.5
			c0,0.7,0.1,1.2,0.3,1.5c0.2,0.3,0.5,0.4,0.9,0.4c0.4,0,0.6-0.1,0.8-0.2c0.2-0.2,0.3-0.4,0.3-0.8H42.3z"/>
		<path class="st6" d="M44.6,16h2.7v1.2H43v-6.4h1.5V16z"/>
		<path class="st6" d="M51.6,16h-2.1l-0.4,1.2h-1.6l2.3-6.4h1.4l2.4,6.4H52L51.6,16z M49.9,14.8h1.4l-0.7-2.2L49.9,14.8z"/>
		<path class="st6" d="M56.2,10.8l1.4,4.5l1.4-4.5h2v6.4h-1.5v-1.5l0.1-3.1l-1.5,4.6h-1l-1.6-4.6l0.1,3.1v1.5h-1.5v-6.4H56.2z"/>
		<path class="st6" d="M65.6,16h-2.1l-0.4,1.2h-1.6l2.3-6.4h1.4l2.4,6.4H66L65.6,16z M63.9,14.8h1.4l-0.7-2.2L63.9,14.8z"/>
		<path class="st6" d="M73.3,15c0,0.4-0.1,0.8-0.4,1.2c-0.2,0.3-0.5,0.6-0.9,0.8c-0.4,0.2-0.9,0.3-1.4,0.3c-0.8,0-1.5-0.3-2-0.8
			S68,15.1,68,14.1v-0.3c0-0.6,0.1-1.2,0.3-1.6c0.2-0.5,0.5-0.8,0.9-1.1c0.4-0.3,0.9-0.4,1.4-0.4c0.8,0,1.4,0.2,1.9,0.6
			c0.5,0.4,0.7,1,0.8,1.7h-1.5c0-0.4-0.1-0.7-0.3-0.8s-0.5-0.3-0.8-0.3c-0.4,0-0.7,0.1-0.8,0.4s-0.3,0.7-0.3,1.4v0.5
			c0,0.7,0.1,1.2,0.3,1.5c0.2,0.3,0.5,0.4,0.9,0.4c0.4,0,0.6-0.1,0.8-0.2c0.2-0.2,0.3-0.4,0.3-0.8H73.3z"/>
		<path class="st6" d="M75.7,17.2h-1.5v-6.4h1.5V17.2z"/>
		<path class="st6" d="M82.2,14.1c0,0.6-0.1,1.2-0.3,1.7s-0.6,0.9-1,1.1c-0.4,0.3-0.9,0.4-1.5,0.4s-1-0.1-1.5-0.4
			c-0.4-0.2-0.8-0.6-1-1.1c-0.2-0.5-0.4-1-0.4-1.6v-0.4c0-0.6,0.1-1.2,0.3-1.7c0.2-0.5,0.6-0.8,1-1.1c0.4-0.3,0.9-0.4,1.5-0.4
			c0.5,0,1,0.1,1.5,0.4s0.8,0.6,1,1.1c0.2,0.5,0.4,1,0.4,1.6V14.1z M80.6,13.8c0-0.6-0.1-1.1-0.3-1.4c-0.2-0.3-0.5-0.5-0.9-0.5
			c-0.8,0-1.2,0.6-1.2,1.7l0,0.5c0,0.6,0.1,1.1,0.3,1.4S79,16,79.4,16c0.4,0,0.7-0.2,0.9-0.5s0.3-0.8,0.3-1.4V13.8z"/>
		<path class="st6" d="M88.3,17.2h-1.5l-2.3-4v4H83v-6.4h1.5l2.3,4v-4h1.5V17.2z"/>
		<path class="st6" d="M93.3,14.4h-2.4V16h2.9v1.2h-4.4v-6.4h4.4v1.2h-2.9v1.3h2.4V14.4z"/>
		<path class="st6" d="M97.6,15.5c0-0.2-0.1-0.4-0.2-0.5c-0.2-0.1-0.4-0.3-0.8-0.4c-0.4-0.1-0.7-0.3-1-0.4c-0.8-0.4-1.2-1-1.2-1.7
			c0-0.4,0.1-0.7,0.3-0.9c0.2-0.3,0.5-0.5,0.9-0.6c0.4-0.2,0.8-0.2,1.3-0.2c0.5,0,0.9,0.1,1.2,0.2c0.4,0.2,0.6,0.4,0.9,0.7
			c0.2,0.3,0.3,0.6,0.3,1h-1.5c0-0.3-0.1-0.5-0.2-0.6c-0.2-0.1-0.4-0.2-0.6-0.2c-0.3,0-0.5,0.1-0.7,0.2c-0.2,0.1-0.2,0.3-0.2,0.5
			c0,0.2,0.1,0.3,0.3,0.4c0.2,0.1,0.5,0.3,0.9,0.4c0.4,0.1,0.8,0.3,1.1,0.5c0.7,0.4,1,0.9,1,1.6c0,0.6-0.2,1-0.6,1.3s-1,0.5-1.7,0.5
			c-0.5,0-1-0.1-1.4-0.3c-0.4-0.2-0.7-0.4-0.9-0.8c-0.2-0.3-0.3-0.7-0.3-1.1h1.5c0,0.3,0.1,0.6,0.3,0.8c0.2,0.2,0.5,0.2,0.9,0.2
			c0.3,0,0.5-0.1,0.6-0.2C97.6,15.8,97.6,15.7,97.6,15.5z"/>
	</g>
	<polyline class="st10" points="4.8,2.7 2.4,2.7 2.4,15.5 10.5,15.5 12.3,16.8 15,15.5 22.3,15.5 22.3,2.7 20.7,2.7 	"/>
	<path class="st11" d="M5.4,2c0,0-1.1-0.6-1.6-0.6v13c0,0,3.6-1.4,7.1,0"/>
	<path class="st11" d="M19.2,2c0,0,1.1-0.6,1.6-0.6v13c0,0-3.6-1.4-7.1,0"/>
	<path class="st11" d="M12.3,3.6c0,0-1.5-3.4-6.9-2.9v11.9c0,0,3.9-0.6,6.9,0.8V3.6z"/>
	<path class="st9" d="M2.6,2.7H2C1.7,2.7,1.4,3,1.4,3.3v12.2c0,0.4,0.3,0.6,0.7,0.6h8.8c0,0,0.5,1.3,1.5,1.3s1.5-1.2,1.5-1.2h8.6
		c0.4,0,0.7-0.3,0.7-0.6V3.3c0-0.4-0.3-0.6-0.7-0.6h-0.5v11.7c0,0.3-0.3,0.6-0.6,0.6h-6.9c-0.3,0-0.6,0.2-0.8,0.5
		c-0.2,0.4-0.6,0.9-1.3,0.9c-0.7,0-1.1-0.5-1.3-1c-0.1-0.3-0.4-0.5-0.8-0.5H3.2c-0.3,0-0.6-0.3-0.6-0.6L2.6,2.7z"/>
	<path class="st11" d="M12.3,3.6c0,0,1.5-3.4,6.9-2.9v11.9c0,0-3.9-0.6-6.9,0.8V3.6z"/>
</g>
<g id="Capa_5">
	<g>
		<path class="st6" d="M28.3,5.9H31v1.2h-4.2V0.7h1.5V5.9z"/>
		<path class="st6" d="M33.3,7.1h-1.5V0.7h1.5V7.1z"/>
		<path class="st6" d="M34.4,7.1V0.7h2.3c0.8,0,1.5,0.2,1.9,0.5c0.4,0.3,0.6,0.7,0.6,1.3c0,0.3-0.1,0.6-0.2,0.8
			c-0.2,0.2-0.4,0.4-0.7,0.5c0.3,0.1,0.6,0.3,0.8,0.5s0.3,0.5,0.3,0.9c0,0.6-0.2,1.1-0.6,1.4c-0.4,0.3-1,0.5-1.8,0.5H34.4z
			 M35.9,3.4h0.8c0.3,0,0.6-0.1,0.7-0.2s0.2-0.3,0.2-0.5c0-0.3-0.1-0.5-0.2-0.6c-0.2-0.1-0.4-0.2-0.8-0.2h-0.8V3.4z M35.9,4.4v1.5h1
			c0.3,0,0.5-0.1,0.6-0.2c0.2-0.1,0.2-0.3,0.2-0.5c0-0.5-0.3-0.8-0.8-0.8H35.9z"/>
		<path class="st6" d="M42.6,4.8h-0.8v2.3h-1.5V0.7h2.5c0.8,0,1.4,0.2,1.8,0.5s0.6,0.8,0.6,1.4c0,0.4-0.1,0.8-0.3,1.1
			C44.7,4,44.4,4.3,44,4.4L45.3,7v0.1h-1.7L42.6,4.8z M41.7,3.6h1c0.3,0,0.5-0.1,0.7-0.2c0.1-0.2,0.2-0.4,0.2-0.6
			c0-0.3-0.1-0.5-0.2-0.6C43.2,2,43,1.9,42.7,1.9h-1V3.6z"/>
		<path class="st6" d="M51.5,4c0,0.6-0.1,1.2-0.3,1.7c-0.2,0.5-0.6,0.9-1,1.1c-0.4,0.3-0.9,0.4-1.5,0.4s-1-0.1-1.5-0.4
			c-0.4-0.2-0.8-0.6-1-1.1c-0.2-0.5-0.4-1-0.4-1.6V3.8c0-0.6,0.1-1.2,0.3-1.7c0.2-0.5,0.6-0.8,1-1.1c0.4-0.3,0.9-0.4,1.5-0.4
			c0.5,0,1,0.1,1.5,0.4s0.8,0.6,1,1.1c0.2,0.5,0.4,1,0.4,1.6V4z M49.9,3.7c0-0.6-0.1-1.1-0.3-1.4c-0.2-0.3-0.5-0.5-0.9-0.5
			c-0.8,0-1.2,0.6-1.2,1.7l0,0.5c0,0.6,0.1,1.1,0.3,1.4S48.3,6,48.7,6c0.4,0,0.7-0.2,0.9-0.5s0.3-0.8,0.3-1.4V3.7z"/>
		<path class="st6" d="M54.5,7.1V0.7h2.1c0.6,0,1.1,0.1,1.5,0.4s0.8,0.6,1.1,1.1c0.3,0.5,0.4,1,0.4,1.6V4c0,0.6-0.1,1.1-0.4,1.6
			c-0.2,0.5-0.6,0.8-1,1.1c-0.5,0.3-1,0.4-1.5,0.4H54.5z M56.1,1.9v4h0.5c0.4,0,0.8-0.2,1-0.5C57.8,5.1,58,4.6,58,4V3.7
			c0-0.6-0.1-1.1-0.4-1.4c-0.2-0.3-0.6-0.5-1-0.5H56.1z"/>
		<path class="st6" d="M64.3,4.4h-2.4v1.5h2.9v1.2h-4.4V0.7h4.4v1.2h-2.9v1.3h2.4V4.4z"/>
	</g>
	<g>
		<path class="st6" d="M29.1,14.8h-0.8v2.3h-1.5v-6.4h2.5c0.8,0,1.4,0.2,1.8,0.5c0.4,0.3,0.6,0.8,0.6,1.4c0,0.4-0.1,0.8-0.3,1.1
			c-0.2,0.3-0.5,0.5-0.8,0.7l1.3,2.6v0.1h-1.7L29.1,14.8z M28.3,13.6h1c0.3,0,0.5-0.1,0.7-0.2c0.1-0.2,0.2-0.4,0.2-0.6
			s-0.1-0.5-0.2-0.6c-0.1-0.2-0.4-0.2-0.7-0.2h-1V13.6z"/>
		<path class="st6" d="M36.6,14.4h-2.4v1.5H37v1.2h-4.4v-6.4H37v1.2h-2.9v1.3h2.4V14.4z"/>
		<path class="st6" d="M42.8,14.9c0,0.4-0.1,0.8-0.4,1.2c-0.2,0.3-0.5,0.6-0.9,0.8c-0.4,0.2-0.9,0.3-1.4,0.3c-0.8,0-1.5-0.3-2-0.8
			S37.5,15,37.5,14v-0.3c0-0.6,0.1-1.2,0.3-1.6c0.2-0.5,0.5-0.8,0.9-1.1c0.4-0.3,0.9-0.4,1.4-0.4c0.8,0,1.4,0.2,1.9,0.6
			c0.5,0.4,0.7,1,0.8,1.7h-1.5c0-0.4-0.1-0.7-0.3-0.8s-0.5-0.3-0.8-0.3c-0.4,0-0.7,0.1-0.8,0.4S39,13,39,13.6v0.5
			c0,0.7,0.1,1.2,0.3,1.5c0.2,0.3,0.5,0.4,0.9,0.4c0.4,0,0.6-0.1,0.8-0.3c0.2-0.2,0.3-0.4,0.3-0.8H42.8z"/>
		<path class="st6" d="M45.1,15.9h2.7v1.2h-4.2v-6.4h1.5V15.9z"/>
		<path class="st6" d="M52.1,15.9H50l-0.4,1.2H48l2.3-6.4h1.4l2.4,6.4h-1.7L52.1,15.9z M50.4,14.7h1.4l-0.7-2.2L50.4,14.7z"/>
		<path class="st6" d="M56.7,10.7l1.4,4.5l1.4-4.5h2v6.4H60v-1.5l0.1-3.1l-1.5,4.6h-1L56,12.5l0.1,3.1v1.5h-1.5v-6.4H56.7z"/>
		<path class="st6" d="M66.2,15.9h-2.1l-0.4,1.2H62l2.3-6.4h1.4l2.4,6.4h-1.7L66.2,15.9z M64.4,14.7h1.4l-0.7-2.2L64.4,14.7z"/>
		<path class="st6" d="M73.8,14.9c0,0.4-0.1,0.8-0.4,1.2c-0.2,0.3-0.5,0.6-0.9,0.8c-0.4,0.2-0.9,0.3-1.4,0.3c-0.8,0-1.5-0.3-2-0.8
			S68.5,15,68.5,14v-0.3c0-0.6,0.1-1.2,0.3-1.6c0.2-0.5,0.5-0.8,0.9-1.1c0.4-0.3,0.9-0.4,1.4-0.4c0.8,0,1.4,0.2,1.9,0.6
			c0.5,0.4,0.7,1,0.8,1.7h-1.5c0-0.4-0.1-0.7-0.3-0.8s-0.5-0.3-0.8-0.3c-0.4,0-0.7,0.1-0.8,0.4s-0.3,0.7-0.3,1.4v0.5
			c0,0.7,0.1,1.2,0.3,1.5c0.2,0.3,0.5,0.4,0.9,0.4c0.4,0,0.6-0.1,0.8-0.3c0.2-0.2,0.3-0.4,0.3-0.8H73.8z"/>
		<path class="st6" d="M76.2,17.1h-1.5v-6.4h1.5V17.1z"/>
		<path class="st6" d="M82.7,14c0,0.6-0.1,1.2-0.3,1.7s-0.6,0.8-1,1.1c-0.4,0.3-0.9,0.4-1.5,0.4s-1-0.1-1.5-0.4
			c-0.4-0.2-0.8-0.6-1-1.1c-0.2-0.5-0.4-1-0.4-1.6v-0.4c0-0.6,0.1-1.2,0.3-1.7c0.2-0.5,0.6-0.8,1-1.1c0.4-0.3,0.9-0.4,1.5-0.4
			c0.5,0,1,0.1,1.5,0.4s0.8,0.6,1,1.1c0.2,0.5,0.4,1,0.4,1.6V14z M81.1,13.8c0-0.6-0.1-1.1-0.3-1.4c-0.2-0.3-0.5-0.5-0.9-0.5
			c-0.8,0-1.2,0.6-1.2,1.7l0,0.5c0,0.6,0.1,1.1,0.3,1.4s0.5,0.5,0.9,0.5c0.4,0,0.7-0.2,0.9-0.5s0.3-0.8,0.3-1.4V13.8z"/>
		<path class="st6" d="M88.8,17.1h-1.5l-2.3-4v4h-1.5v-6.4H85l2.3,4v-4h1.5V17.1z"/>
		<path class="st6" d="M93.8,14.4h-2.4v1.5h2.9v1.2h-4.4v-6.4h4.4v1.2h-2.9v1.3h2.4V14.4z"/>
		<path class="st6" d="M98.2,15.4c0-0.2-0.1-0.4-0.2-0.5c-0.2-0.1-0.4-0.3-0.8-0.4c-0.4-0.1-0.7-0.3-1-0.4c-0.8-0.4-1.2-1-1.2-1.7
			c0-0.4,0.1-0.7,0.3-0.9c0.2-0.3,0.5-0.5,0.9-0.6c0.4-0.2,0.8-0.2,1.3-0.2c0.5,0,0.9,0.1,1.2,0.2c0.4,0.2,0.6,0.4,0.9,0.7
			c0.2,0.3,0.3,0.6,0.3,1h-1.5c0-0.3-0.1-0.5-0.2-0.6c-0.2-0.1-0.4-0.2-0.6-0.2c-0.3,0-0.5,0.1-0.7,0.2c-0.2,0.1-0.2,0.3-0.2,0.5
			c0,0.2,0.1,0.3,0.3,0.4c0.2,0.1,0.5,0.3,0.9,0.4c0.4,0.1,0.8,0.3,1.1,0.5c0.7,0.4,1,0.9,1,1.6c0,0.6-0.2,1-0.6,1.3s-1,0.5-1.7,0.5
			c-0.5,0-1-0.1-1.4-0.3c-0.4-0.2-0.7-0.4-0.9-0.8c-0.2-0.3-0.3-0.7-0.3-1.1h1.5c0,0.3,0.1,0.6,0.3,0.8c0.2,0.2,0.5,0.2,0.9,0.2
			c0.3,0,0.5-0.1,0.6-0.2C98.1,15.7,98.2,15.6,98.2,15.4z"/>
	</g>
	<polyline class="st12" points="5.3,2.6 2.9,2.6 2.9,15.5 11,15.5 12.9,16.7 15.6,15.5 22.8,15.5 22.8,2.6 21.3,2.6 	"/>
	<path class="st13" d="M5.9,1.9c0,0-1.1-0.6-1.6-0.6v13c0,0,3.6-1.4,7.1,0"/>
	<path class="st13" d="M19.7,1.9c0,0,1.1-0.6,1.6-0.6v13c0,0-3.6-1.4-7.1,0"/>
	<path class="st13" d="M12.8,3.5c0,0-1.5-3.4-6.9-2.9v11.9c0,0,3.9-0.6,6.9,0.8V3.5z"/>
	<path class="st6" d="M3.2,2.6H2.5c-0.4,0-0.7,0.3-0.7,0.6v12.2c0,0.4,0.3,0.6,0.7,0.6h8.8c0,0,0.5,1.3,1.5,1.3s1.5-1.2,1.5-1.2H23
		c0.4,0,0.7-0.3,0.7-0.6V3.3c0-0.4-0.3-0.6-0.7-0.6h-0.5v11.7c0,0.3-0.3,0.6-0.6,0.6H15c-0.3,0-0.6,0.2-0.8,0.5
		c-0.2,0.4-0.6,0.9-1.3,0.9c-0.7,0-1.1-0.5-1.3-1c-0.1-0.3-0.4-0.5-0.8-0.5H3.7c-0.3,0-0.6-0.3-0.6-0.6L3.2,2.6z"/>
	<path class="st13" d="M12.8,3.5c0,0,1.5-3.4,6.9-2.9v11.9c0,0-3.9-0.6-6.9,0.8V3.5z"/>
</g>
</svg>
