<svg xmlns="http://www.w3.org/2000/svg" xmlns:xlink="http://www.w3.org/1999/xlink" viewBox="0 0 277.62 69.34"><defs><style>.cls-1{fill:#fdd900;}.cls-2{fill:#e13127;}.cls-3{fill:url(#radial-gradient);}.cls-4{fill:#c5c6c6;}.cls-5{fill:#8c8e8d;}.cls-6{fill:url(#radial-gradient-2);}.cls-7{fill:url(#radial-gradient-3);}.cls-8{fill:url(#radial-gradient-4);}.cls-9{fill:url(#radial-gradient-5);}.cls-10{fill:url(#radial-gradient-6);}.cls-11{fill:url(#radial-gradient-7);}.cls-12{fill:url(#radial-gradient-8);}.cls-13{fill:url(#radial-gradient-9);}.cls-14{fill:url(#radial-gradient-10);}.cls-15{fill:url(#radial-gradient-11);}.cls-16{fill:url(#radial-gradient-12);}.cls-17{fill:url(#radial-gradient-13);}.cls-18{fill:#080a0b;}.cls-19{fill:url(#radial-gradient-14);}.cls-20{fill:url(#radial-gradient-15);}.cls-21{fill:url(#radial-gradient-16);}.cls-22{fill:url(#radial-gradient-17);}.cls-23{fill:url(#radial-gradient-18);}.cls-24{fill:url(#radial-gradient-19);}.cls-25{fill:url(#radial-gradient-20);}.cls-26{fill:url(#radial-gradient-21);}.cls-27{fill:url(#radial-gradient-22);}.cls-28{fill:url(#radial-gradient-23);}.cls-29{fill:url(#radial-gradient-24);}.cls-30{fill:url(#radial-gradient-25);}.cls-31{fill:url(#radial-gradient-26);}.cls-32{fill:url(#radial-gradient-27);}.cls-33{fill:url(#radial-gradient-28);}.cls-34{fill:url(#radial-gradient-29);}.cls-35{fill:url(#radial-gradient-30);}.cls-36{fill:url(#radial-gradient-31);}.cls-37{fill:url(#radial-gradient-32);}.cls-38{fill:#fff;}.cls-39{fill:url(#radial-gradient-33);}.cls-40{fill:#bec1c1;}.cls-41{fill:#c7c9c7;}.cls-42{fill:#f4f6f7;}.cls-43{fill:#e3e5e5;}.cls-44{fill:#e9e9eb;}.cls-45{fill:#e7e9ea;}.cls-46{fill:#a7abac;}.cls-47{fill:#adb0b1;}.cls-48{fill:#c7cac8;}.cls-49{fill:#f1f1f1;}.cls-50{fill:#aeb0b2;}.cls-51{fill:#ced1d3;}.cls-52{fill:#a2a4a5;}.cls-53{fill:#cbcdcd;}.cls-54{fill:#4a4b4b;}.cls-55{fill:#b8b9b8;}</style><radialGradient id="radial-gradient" cx="-541.32" cy="667.89" r="1.67" gradientTransform="matrix(7.97, 0, 0, -7.97, 4509.83, 5335.02)" gradientUnits="userSpaceOnUse"><stop offset="0" stop-color="#999b9b"/><stop offset="0.67" stop-color="#d4d5d5"/><stop offset="0.82" stop-color="#e2e3e5"/><stop offset="1" stop-color="#f9fcff"/></radialGradient><radialGradient id="radial-gradient-2" cx="-547.13" cy="664.14" r="1.67" gradientTransform="matrix(8.91, 0, 0, -8.91, 5077.09, 5974.9)" gradientUnits="userSpaceOnUse"><stop offset="0" stop-color="#616463"/><stop offset="0.67" stop-color="#e5e8e8"/><stop offset="0.91" stop-color="#f2f5f7"/><stop offset="1" stop-color="#f9fcff"/></radialGradient><radialGradient id="radial-gradient-3" cx="-541.35" cy="666.55" r="1.67" gradientTransform="matrix(8.14, 0, 0, -8.14, 4623.54, 5455.78)" gradientUnits="userSpaceOnUse"><stop offset="0" stop-color="#f9fcff"/><stop offset="0.06" stop-color="#f6f9fb"/><stop offset="0.3" stop-color="#eeeff0"/><stop offset="0.55" stop-color="#ebecec"/><stop offset="0.69" stop-color="#e5e6e6"/><stop offset="0.88" stop-color="#d4d6d6"/><stop offset="1" stop-color="#c6c8c8"/></radialGradient><radialGradient id="radial-gradient-4" cx="-542.49" cy="666.1" r="1.67" gradientTransform="matrix(8.28, 0, 0, -8.28, 4706.06, 5549.93)" gradientUnits="userSpaceOnUse"><stop offset="0" stop-color="#f9fcff"/><stop offset="0.49" stop-color="#f2f3f4"/><stop offset="0.64" stop-color="#efefef"/><stop offset="0.84" stop-color="#e2e3e3"/><stop offset="1" stop-color="#d4d5d5"/></radialGradient><radialGradient id="radial-gradient-5" cx="-557.06" cy="662.31" r="1.67" gradientTransform="matrix(11.13, 0, 0, -11.13, 6406.47, 7403.08)" gradientUnits="userSpaceOnUse"><stop offset="0" stop-color="#f9fcff"/><stop offset="0.07" stop-color="#f9fcff"/><stop offset="0.2" stop-color="#f1f4f5"/><stop offset="0.41" stop-color="#e8ebeb"/><stop offset="0.67" stop-color="#e5e8e8"/><stop offset="0.78" stop-color="#d7dada"/><stop offset="1" stop-color="#b4b7b7"/></radialGradient><radialGradient id="radial-gradient-6" cx="-542.78" cy="666.02" r="1.67" gradientTransform="matrix(8.37, 0, 0, -8.37, 4765.92, 5609.56)" gradientUnits="userSpaceOnUse"><stop offset="0" stop-color="#f9fcff"/><stop offset="0.21" stop-color="#f9fcff"/><stop offset="0.26" stop-color="#f6f9fc"/><stop offset="0.55" stop-color="#e9eced"/><stop offset="0.79" stop-color="#e5e8e8"/><stop offset="0.86" stop-color="#d8dbda"/><stop offset="1" stop-color="#b9bbb9"/></radialGradient><radialGradient id="radial-gradient-7" cx="-519.84" cy="671.5" r="1.67" gradientTransform="matrix(6.02, 0, 0, -6.02, 3370.96, 4083.45)" gradientUnits="userSpaceOnUse"><stop offset="0" stop-color="#898a89"/><stop offset="0.67" stop-color="#d4d6d6"/><stop offset="0.82" stop-color="#e2e4e5"/><stop offset="1" stop-color="#f9fcff"/></radialGradient><radialGradient id="radial-gradient-8" cx="-563.08" cy="660.67" r="1.67" gradientTransform="matrix(12.78, 0, 0, -12.78, 7382.49, 8482.1)" gradientUnits="userSpaceOnUse"><stop offset="0" stop-color="#535453"/><stop offset="0.67" stop-color="#c7cac8"/><stop offset="0.79" stop-color="#d6d9d8"/><stop offset="1" stop-color="#f9fcff"/></radialGradient><radialGradient id="radial-gradient-9" cx="-540.96" cy="665.34" r="1.67" gradientTransform="matrix(8.03, 0, 0, -8.03, 4553.08, 5401.15)" gradientUnits="userSpaceOnUse"><stop offset="0" stop-color="#898a89"/><stop offset="0.67" stop-color="#ced1d2"/><stop offset="0.81" stop-color="#dde0e2"/><stop offset="1" stop-color="#f9fcff"/></radialGradient><radialGradient id="radial-gradient-10" cx="-546.02" cy="665.5" r="1.67" gradientTransform="matrix(8.61, 0, 0, -8.61, 4889.07, 5768.17)" gradientUnits="userSpaceOnUse"><stop offset="0" stop-color="#646666"/><stop offset="0.67" stop-color="#a5a8a8"/><stop offset="0.75" stop-color="#b4b7b8"/><stop offset="0.9" stop-color="#dcdfe1"/><stop offset="1" stop-color="#f9fcff"/></radialGradient><radialGradient id="radial-gradient-11" cx="-529.91" cy="670.59" r="1.67" gradientTransform="matrix(6.67, 0, 0, -6.67, 3732.71, 4492.86)" xlink:href="#radial-gradient"/><radialGradient id="radial-gradient-12" cx="-512.6" cy="675.71" r="1.67" gradientTransform="matrix(5.45, 0, 0, -5.45, 3022.08, 3695.75)" gradientUnits="userSpaceOnUse"><stop offset="0" stop-color="#919595"/><stop offset="0.67" stop-color="#e5e8e8"/><stop offset="0.91" stop-color="#f2f5f7"/><stop offset="1" stop-color="#f9fcff"/></radialGradient><radialGradient id="radial-gradient-13" cx="-546.09" cy="665.07" r="1.67" gradientTransform="matrix(8.87, 0, 0, -8.87, 5063.57, 5936.98)" gradientUnits="userSpaceOnUse"><stop offset="0" stop-color="#f9fcff"/><stop offset="0.21" stop-color="#f9fcff"/><stop offset="0.26" stop-color="#f6f9fc"/><stop offset="0.55" stop-color="#e9eced"/><stop offset="0.79" stop-color="#e5e8e8"/><stop offset="0.89" stop-color="#d9dcdb"/><stop offset="1" stop-color="#c7cac8"/></radialGradient><radialGradient id="radial-gradient-14" cx="3865.04" cy="1092.93" r="1.68" gradientTransform="matrix(0.1, 0, 0, -0.3, -196.18, 346.66)" gradientUnits="userSpaceOnUse"><stop offset="0" stop-color="#fff"/><stop offset="1" stop-color="#08090b"/></radialGradient><radialGradient id="radial-gradient-15" cx="2199.91" cy="1756.79" r="1.68" gradientTransform="matrix(0.16, 0.02, 0.02, -0.16, -172.41, 269.5)" xlink:href="#radial-gradient-14"/><radialGradient id="radial-gradient-16" cx="-215.5" cy="749.58" r="1.67" gradientTransform="matrix(1.2, 0, 0, -1.2, 469.06, 954.54)" xlink:href="#radial-gradient-14"/><radialGradient id="radial-gradient-17" cx="-479.97" cy="685.33" r="1.67" gradientTransform="matrix(3.89, 0, 0, -3.89, 2077.26, 2681.09)" gradientUnits="userSpaceOnUse"><stop offset="0" stop-color="#606162"/><stop offset="0.24" stop-color="#5d5e5f"/><stop offset="0.44" stop-color="#525354"/><stop offset="0.64" stop-color="#404142"/><stop offset="0.83" stop-color="#272829"/><stop offset="1" stop-color="#08090b"/></radialGradient><radialGradient id="radial-gradient-18" cx="2014.35" cy="1371.87" r="1.67" gradientTransform="matrix(0.18, 0, 0, -0.18, -129.42, 272.95)" xlink:href="#radial-gradient-14"/><radialGradient id="radial-gradient-19" cx="-522.15" cy="669.69" r="1.67" gradientTransform="matrix(6.06, 0, 0, -6.57, 3380.99, 4444.26)" xlink:href="#radial-gradient-17"/><radialGradient id="radial-gradient-20" cx="-522.15" cy="669.69" r="1.67" gradientTransform="matrix(6.06, 0, 0, -6.57, 3380.99, 4444.26)" gradientUnits="userSpaceOnUse"><stop offset="0" stop-color="#6f7170"/><stop offset="0.25" stop-color="#6c6e6d"/><stop offset="0.46" stop-color="#616362"/><stop offset="0.67" stop-color="#4f5151"/><stop offset="0.87" stop-color="#363738"/><stop offset="1" stop-color="#212223"/></radialGradient><radialGradient id="radial-gradient-21" cx="-416.09" cy="3608.89" r="1.67" gradientTransform="matrix(0.27, 0.51, 0.14, -0.07, -181.34, 524.46)" xlink:href="#radial-gradient-14"/><radialGradient id="radial-gradient-22" cx="-895.25" cy="2239.95" r="1.67" gradientTransform="matrix(-0.84, 1.01, 0.13, 0.11, -845.84, 691.26)" xlink:href="#radial-gradient-14"/><radialGradient id="radial-gradient-23" cx="1344.62" cy="1253.96" r="1.67" gradientTransform="matrix(0, 0.23, 0.23, 0, -85.35, -264.23)" xlink:href="#radial-gradient-14"/><radialGradient id="radial-gradient-24" cx="2009.76" cy="1402.66" r="1.67" gradientTransform="matrix(0.17, 0, 0, -0.17, -152.58, 267.02)" xlink:href="#radial-gradient-14"/><radialGradient id="radial-gradient-25" cx="-502.13" cy="862.89" r="1.67" gradientTransform="matrix(2.22, 1.87, 1.19, -1.42, 313.36, 2213.6)" xlink:href="#radial-gradient-14"/><radialGradient id="radial-gradient-26" cx="-439.56" cy="562.21" r="1.67" gradientTransform="matrix(2.59, -1.47, -0.67, -1.18, 1747.93, 45.26)" xlink:href="#radial-gradient-14"/><radialGradient id="radial-gradient-27" cx="-599.72" cy="293.02" r="1.67" gradientTransform="matrix(-1.1, -3.65, -1.29, 0.39, -64.1, -2290.77)" xlink:href="#radial-gradient-14"/><radialGradient id="radial-gradient-28" cx="-501.46" cy="559.47" r="1.67" gradientTransform="matrix(3.56, -2.86, -1.3, -1.62, 2736.24, -498.27)" xlink:href="#radial-gradient-14"/><radialGradient id="radial-gradient-29" cx="768.91" cy="3803.88" r="1.67" gradientTransform="matrix(0.21, 0.13, 0.06, -0.1, -152.65, 295.64)" xlink:href="#radial-gradient-14"/><radialGradient id="radial-gradient-30" cx="459.93" cy="3218.11" r="1.67" gradientTransform="matrix(0.21, 0.17, 0.1, -0.12, -178.66, 335.98)" xlink:href="#radial-gradient-14"/><radialGradient id="radial-gradient-31" cx="1558.27" cy="1275.04" r="1.67" gradientTransform="matrix(0.21, 0, 0, -0.21, -118.74, 289.15)" xlink:href="#radial-gradient-14"/><radialGradient id="radial-gradient-32" cx="-524.94" cy="672.45" r="1.67" gradientTransform="matrix(6.26, 0, 0, -6.26, 3496.21, 4224.38)" gradientUnits="userSpaceOnUse"><stop offset="0" stop-color="#fff"/><stop offset="0.97" stop-color="#bec3c3"/><stop offset="1" stop-color="#e9e9eb"/></radialGradient><radialGradient id="radial-gradient-33" cx="-391.8" cy="710.35" r="1.67" gradientTransform="matrix(2.26, 0, 0, -2.26, 1109.46, 1618.28)" gradientUnits="userSpaceOnUse"><stop offset="0" stop-color="#f9fcff"/><stop offset="0.21" stop-color="#f9fcff"/><stop offset="0.26" stop-color="#f6f9fc"/><stop offset="0.55" stop-color="#e9eced"/><stop offset="0.79" stop-color="#e5e8e8"/><stop offset="0.92" stop-color="#f4f5f5"/><stop offset="1" stop-color="#fff"/></radialGradient></defs><title>lohgotipo ganagol</title><g id="Capa_2" data-name="Capa 2"><g id="Capa_1-2" data-name="Capa 1"><path class="cls-1" d="M245.43,34.73A30.67,30.67,0,0,1,236,57.22a32.13,32.13,0,0,1-45.2,0,30.61,30.61,0,0,1-9.37-22.49,30.63,30.63,0,0,1,9.37-22.5,31.85,31.85,0,0,1,45.2,0A30.68,30.68,0,0,1,245.43,34.73Zm-12,0a19.12,19.12,0,0,0-5.91-14,19.79,19.79,0,0,0-28.17,0,19.05,19.05,0,0,0-5.85,14,19.11,19.11,0,0,0,5.85,14,19.92,19.92,0,0,0,28.17,0A19.16,19.16,0,0,0,233.4,34.75Z"/><path class="cls-1" d="M213.4,69.34a33.79,33.79,0,0,1-24.59-10.11,33.5,33.5,0,0,1-10.2-24.5,33.49,33.49,0,0,1,10.2-24.5,34.67,34.67,0,0,1,49.19,0,33.54,33.54,0,0,1,10.26,24.5A33.53,33.53,0,0,1,238,59.22,33.92,33.92,0,0,1,213.4,69.34Zm0-63.69a27.89,27.89,0,0,0-20.6,8.58,27.67,27.67,0,0,0-8.54,20.5,27.67,27.67,0,0,0,8.54,20.49,29.3,29.3,0,0,0,41.22,0,27.69,27.69,0,0,0,8.58-20.48,27.7,27.7,0,0,0-8.6-20.5,27.89,27.89,0,0,0-20.6-8.58Zm0,51.8a22,22,0,0,1-16.08-6.66,21.93,21.93,0,0,1-6.68-16.05,21.88,21.88,0,0,1,6.68-16,22.61,22.61,0,0,1,32.16,0,21.92,21.92,0,0,1,6.74,16,22,22,0,0,1-6.74,16.05,22,22,0,0,1-16.08,6.66Zm0-39.77a16.39,16.39,0,0,0-12.09,5.06,16.21,16.21,0,0,0-5,12,16.26,16.26,0,0,0,5,12,17.09,17.09,0,0,0,24.18,0,16.27,16.27,0,0,0,5.08-12,16.23,16.23,0,0,0-5.08-12,16.37,16.37,0,0,0-12.09-5.06Z"/><path class="cls-2" d="M245.43,34.73A30.67,30.67,0,0,1,236,57.22a32.13,32.13,0,0,1-45.2,0,30.61,30.61,0,0,1-9.37-22.49,30.63,30.63,0,0,1,9.37-22.5,31.85,31.85,0,0,1,45.2,0A30.68,30.68,0,0,1,245.43,34.73Zm-12,0a19.12,19.12,0,0,0-5.91-14,19.79,19.79,0,0,0-28.17,0,19.05,19.05,0,0,0-5.85,14,19.11,19.11,0,0,0,5.85,14,19.92,19.92,0,0,0,28.17,0A19.16,19.16,0,0,0,233.4,34.75Z"/><path class="cls-3" d="M193.12,25.25a6.62,6.62,0,0,1-.69-4s.26-2,5.93-6.79A23.65,23.65,0,0,1,211.61,9.7l-5.3,4.91s-5.31,1.46-8.48,9.5Z"/><path class="cls-4" d="M192.7,23.91l0,.25c.26.79.73,2-.13.09l-.07-.3C190.61,23.57,195,14,204.3,11.13a24.83,24.83,0,0,1,6.56-1.43c1.1.56-2.29,2.56-3,3.53-2.53,2.39-4.82,2.91-4.64,3.21-.28-.32-4,4.47-6,7.84-6.86,1.64-4.13.94.11-.12-.28.77,5.28-9,6.19-8.14-.18-.33,2.22-.69,4.54-3.19.43-.7,4.49-3.48,2.42-2.92a24.7,24.7,0,0,0-6.42,1.46C195.06,14.35,190.81,23.56,192.7,23.91Z"/><path class="cls-5" d="M236.63,34.49c0,12.42-10.49,22.48-23.42,22.48s-23.43-10.06-23.43-22.48S200.28,12,213.21,12s23.42,10.07,23.42,22.48"/><path class="cls-6" d="M195.45,51.38a23,23,0,0,0,12.81,7.22,3.63,3.63,0,0,1-1-3.78l-7.31-4.13A4.29,4.29,0,0,1,195.45,51.38Z"/><path class="cls-4" d="M196.17,52.29l-.1-.11c-.34-.4-.8-1,.09-.13l.13.13a24.11,24.11,0,0,0,9.48,5.66c1.38.14,3.14,1.46,1.6-.33-1-1.12.68-2.79-.88-3l-3-1.68c0,.79-3.09-3.54-5.25-1.24-4.19-.24-2.47.12.05-.1-.19-1.41,5.55.82,5.54,1.35l2.93,1.66c0,1.45,2.8,5.62-1.22,3.47A24.32,24.32,0,0,1,196.17,52.29Z"/><path class="cls-7" d="M225.54,30.72s6-3.41,7.57-4.7c0,0-1.08-6.52-2.82-7.17,0,0-4-7.18-10.08-5.72,0,0-4.3,1.55-4.38,3.7A31.25,31.25,0,0,1,218,26.54Z"/><path class="cls-4" d="M226.83,30.07l-.22.13c-.77.42-1.9,1-.12-.1l.27-.16c.09-.08,2.23-1.24,5.2-3.18,2.38-2.41-1.18-7.68-4-10.74-3.16-3.83-8.88-3.53-11.23-.71-1.63,2.81,1.06,5.39.4,5.3.82-.36-.8,7.1,4.62,8,6.29,3.51,3.75,2.15-.17,0,.55-.14-2.91-.59-3.76-3.06a31.63,31.63,0,0,0-1-5.41c.93.05-2.62-2.35.11-5.24,2.47-2.79,8.28-2.67,11.32,1.2,2.58,3.09,6.44,8.28,3.72,10.85C229,28.85,226.94,30,226.83,30.07Z"/><path class="cls-8" d="M208.09,49.07a23.19,23.19,0,0,0,6.87-9.2l-3.78-7.73a20.43,20.43,0,0,0-10.4-1.72s-5.33,3.78-5.5,7.31a14.13,14.13,0,0,0,4.58,9.3l6.94,2.47Z"/><path class="cls-4" d="M209.33,48.11l-.22.19c-.75.63-1.87,1.46-.14-.07l.25-.24a23.14,23.14,0,0,0,4.19-5.27,27.05,27.05,0,0,0,1.44-2.82c-.33-.88-1-2-1.47-3.1-1.32-2-1.51-5.26-4.53-5.47a20.14,20.14,0,0,0-7.49-.87c-2.1.76-3.65,2.81-4.78,4.25-2.37,3.33-.28,6.15-.62,6-.1-.3,2,7.34,7.63,7.55,3.75,1.87,4.89.43,4.5.76-.39.55-2.36.36-4.68-.73.44-.25-3-.14-5-2.66a14.37,14.37,0,0,1-2.79-5.43,5.91,5.91,0,0,1,1.08-6c1.25-1.31,2.59-3.59,5-3.94a20.82,20.82,0,0,1,7.43,1c3,.23,3.09,3.86,4.44,5.64a4.3,4.3,0,0,1-.11,6A23.08,23.08,0,0,1,209.33,48.11Z"/><path class="cls-9" d="M198.38,22.07s2.83-5.85,8.34-7.74c0,0,8.42-.21,8.77,1s3.1,8.94,2.32,12.63l-6,4.21A29.1,29.1,0,0,0,200.45,30S197.35,23.28,198.38,22.07Z"/><path class="cls-4" d="M199.25,20.75l-.16.24c-.53.83-1.28,2.07-.17,0l.19-.3a16.66,16.66,0,0,1,4.79-5c1.61-1.43,4-1.72,6.54-1.41,2.34-.07,5.89.18,5.87,3.51,1.54,4.76,3.25,11.37-1.88,12.66-3.06,3.46-6,0-5.89.72a34,34,0,0,0-3.93-.88,25.25,25.25,0,0,0-3.76-.25c-1.13-.53-1.21-2.25-1.75-3.24-1.61-3.9-.56-5.2-.72-4.72-.41.37-.09,2.5.86,4.84.36-.84-.18,4.18,3.77,3.06a30.36,30.36,0,0,1,6.14,1.21c-.89,2.67,13.67-1.62,6.92-13.63,0-3.38-3.56-2.94-5.82-3.12-2.5-.33-4.76,0-6.34,1.44A16.56,16.56,0,0,0,199.25,20.75Z"/><path class="cls-10" d="M236.86,32.39s1.22,6.79-2.47,11.78c0,0-3.35,2.58-5.42,2.58,0,0-4.73-6.81-6.1-7.84l2.42-8s7.6-4.71,9-5.17a49.43,49.43,0,0,1,2.89,4.43C237.14,30.5,236.86,32.39,236.86,32.39Z"/><path class="cls-4" d="M236.93,33.81v-.26c-.06-.88-.18-2.18.14-.07l0,.31a18.9,18.9,0,0,1-.61,6.17c-.1,2.78-5.86,9.54-8.95,4.87a56.63,56.63,0,0,0-4.29-5.48c-.58-2,.9-4.08,1.14-5.74.34-3.91,3.86-4.13,3.46-4.38,0,0,1.32-.8,3.12-1.84.91-.51,1.91-1.12,3-1.61,1,.29,1.45,1.76,2.12,2.51,2.28,3.1.13,4.58.77,4.07-.08-.35.86-2.37-.92-4.14-.14,1.09-.78-4.28-3.63-1.45-2.41,1.37-4.82,2.86-4.82,2.86a5,5,0,0,0-3.06,4.44c-.09,1.53-2,4-.8,5.41,1.45,1.66,2.83,3.55,4.2,5.46,3,4,8.46-2.31,8.53-5.11A19.2,19.2,0,0,0,236.93,33.81Z"/><path class="cls-11" d="M237.57,31.53a15.69,15.69,0,0,1-.09,7.82,17.62,17.62,0,0,1-3,6.79l-.86-1.2s4.81-3.52,3.09-14.27Z"/><path class="cls-4" d="M237.68,32.39l0-.16c-.09-.53-.23-1.31.14-.06l0,.19c.18.07.93,6.21-1.84,11.51-.61,1.17-1.77,3.28-2.4,1a9.2,9.2,0,0,0,2.09-3,14.48,14.48,0,0,0,1-3.43,21.44,21.44,0,0,0,.13-6.33c-.62-3.13,1.41.52.75-.58-.29-.23-1.16-1.5-.65.66.19-.3.27,6.63-.13,6.6a12.18,12.18,0,0,1-1.07,3.39A14.63,14.63,0,0,1,233.79,45c.81,2.13,1.32-.48,2.13-1.38A19.14,19.14,0,0,0,237.68,32.39Z"/><path class="cls-12" d="M190.9,33.85a3.64,3.64,0,0,0-2.32,3.7s.94,8.25,6.87,13.84a4,4,0,0,0,4.13-.34c0-.17.34-3.78.34-3.78a14.4,14.4,0,0,1-4.38-12.72Z"/><path class="cls-4" d="M189.81,34.43l.2-.13c.65-.48,1.66-.84.13.09l-.21.16c-1.94-.62-1.56,8.66,4,15,1.12,1.8,3.18,2.79,5,1.68,1-.78,1.21-3.7.44-4.44a14.5,14.5,0,0,1-2.82-4.26c-.66.47-.89-6-1.88-8.09-6.26-1-3.75-.63.13-.07.57-.62.94,1.31.77,3.9a13,13,0,0,0,1.31,4.6A14.09,14.09,0,0,0,199.72,47c.09,1.16.77,3.79-1.06,4.54-1.95,1.08-3.94-.3-5-2C188.21,43.16,187.81,33.92,189.81,34.43Z"/><path class="cls-13" d="M207.4,56.2a2.33,2.33,0,0,0,.86,2.41s9.54,2.15,17.62-3.18A4.93,4.93,0,0,1,223.22,54s-4.47,3.26-11.6.51Z"/><path class="cls-4" d="M207.36,57.29l-.05-.19c0-.71.13-1.59.13-.06l.08.22c-1.2,1.69,6.73,2.58,13.36.43a22.51,22.51,0,0,0,4.68-2.17c-.6.39-2.29-2.46-3.26-1a11.75,11.75,0,0,1-4.27,1c0,.59-4.69-1-7.55-.62-5.06,2-3.06,1.17.06-.12-.47-1.28,7.85,1.56,7.87.58a13,13,0,0,0,4.12-1.16c.82-.7,3.29,1.1,2.88,1.5a21,21,0,0,1-4.66,2.12C214.2,60,206.23,59.09,207.36,57.29Z"/><path class="cls-14" d="M192.45,21.22a8.67,8.67,0,0,0,.43,3.44l-1.81,8.68s-2.49,2-2.49,3.61c0,0-1-.95.51-8.85C189.09,28.09,190.82,21.64,192.45,21.22Z"/><path class="cls-4" d="M192.35,22.2V22c0-.56.1-1.33.15,0v.19c.35.12.43,6-1.74,11.5-1.19.77-1.73,2.58-2.38,3.07a11.14,11.14,0,0,1-.13-3.72c.22-2.16.51-3.58.51-3.58a24.42,24.42,0,0,1,2-6.09c2.67-3.54,1.43-2.23,0,.11-.09-.33-2.2,6.25-1.91,6.32,0,0-.27,1.4-.47,3.52a8.59,8.59,0,0,0,.22,3.55c0-1.22,1.17-2.48,2.17-3.41C192.66,28.09,192.76,22.36,192.35,22.2Z"/><path class="cls-15" d="M193.13,25.25a6.64,6.64,0,0,1-.69-4s.26-2,5.93-6.79c0,0,6-4.79,12.3-3l-4.36,3.23s-5.31,1.46-8.48,9.5Z"/><path class="cls-4" d="M192.73,24l0,.23c.25.74.69,1.86-.12.09l-.08-.28c-1.81-.32,2-9.49,10.78-12.29a12.28,12.28,0,0,1,6.27-.6c2.29.54-2.05,2.14-2.48,3A19.11,19.11,0,0,0,202.68,17c-.44-.46-3.38,4.61-5.62,7.35-6.47,1.55-3.9.89.1-.12.12,1.16,4.87-8.46,5.77-7.68-.12-.13,1.78-1.23,4.45-2.82l2.06-1.53,1.13-.84c-.19.15-.88-.09-1.3-.11a12.17,12.17,0,0,0-6.09.73C194.63,14.86,191,23.69,192.73,24Z"/><path class="cls-16" d="M219.53,12.28l.69.6s5-1.46,10,5.67l1.81-.09s-4.47-7.31-16.16-8.77l1.46,2.23Z"/><path class="cls-4" d="M220.32,12.93l-.23-.06c-.46-.44-1.11-1.08.07-.14l.12,0a7.27,7.27,0,0,1,4.33.67c2.75.32,4.08,5.18,7.26,4.95-3.71-5.25-10.82-7.46-10.63-7.34a12.59,12.59,0,0,0-2.45-.7c-1.53-.25-3.84-1.2-1.92.86,4.5,1.64,2.46,1.52-.13,0-3.38-2.06,4.85-.68,4.91-.15-.35-.11,7.24,2.08,10,7.53-3.28-.18-4.5-4.6-7.2-5A7.08,7.08,0,0,0,220.32,12.93Z"/><path class="cls-17" d="M208.7,51.62l.13.11h0s0,0-.13-.11m-1.77-2.12-.46.26.66.55h0c-.34-.3-.5-.59-.21-.81h0m21.13-3.95a4.84,4.84,0,0,1,.23,3.08,6.66,6.66,0,0,0,.35-2.14s-.22-.37-.58-.94m-15-2-.1.15a.52.52,0,0,0,.1-.15m10.75-3.42a1.23,1.23,0,0,1-.68.23h0c-1,.33-7.86.71-7.86.71a1,1,0,0,1-.56-.14c-1.14,1.77-1.89,3.35-2,3.35l0,0a18.72,18.72,0,0,1-2.62,3,16.11,16.11,0,0,1-3,2.24l-.1.06a1.06,1.06,0,0,0,.21.81h0l.19.15a9.59,9.59,0,0,1,1.58,1.25c2.3,1.93,3.39,2.85,3.65,3.08a11.77,11.77,0,0,1,1.2.26l.33.06h0c.07,0,.41.09,1,.18a12.73,12.73,0,0,0,2.11.18,13.58,13.58,0,0,0,3.61-.5c3.07-.92,9.87-5.19,6.76-10.16-1.2-1.53-2.23-3.69-3.74-4.74m.12-.1h0l0,0,0,0"/><path class="cls-4" d="M214,55.28l-.27-.06c-1-.25-2.29-.69,0-.15l.33.06s.38.08,1,.18a13.17,13.17,0,0,0,5.72-.32c3.07-.92,9.87-5.19,6.76-10.16-1.5-1.93-2.76-4.83-5-5.31-2.42-.15-4.7-.29-6.64-.39-1.89,2.43-3.19,5.36-3.28,5.09a18.72,18.72,0,0,1-2.62,3,16.11,16.11,0,0,1-3,2.24c-1,.56,1.43,1.6,1.88,2.29,6.14,5.15,3.66,3.13-.18,0,1,.3-4.54-2,0-3.54a21,21,0,0,0,4.08-4.5c.33.45.8-3.07,3.6-4.67l6.53.39c2.18,1.07,3.4,3.58,4.88,5.61,2.71,5.21-4,9.23-7.09,10.18a13.1,13.1,0,0,1-5.68.29c-.6-.11-1-.2-1-.18"/><path class="cls-18" d="M217.39,25s-5.48,4.38-6.7,6a.77.77,0,0,0-.13,1s3.36,8,3.93,8.77c0,0,.13.32.72.32,0,0,6.89-.38,7.86-.71a1.47,1.47,0,0,0,1.3-.91s2.26-3.22,2-9a18.86,18.86,0,0,0-8.13-5.67,1.2,1.2,0,0,0-.84.25"/><path class="cls-18" d="M230.29,18.85A11.42,11.42,0,0,1,231.71,27a2.28,2.28,0,0,1,1.8.84s3.16,2.77,3.35,4.51c0,0,.19.39.84-.9A22.55,22.55,0,0,0,232,18.21a5.41,5.41,0,0,0-1.8.2A.38.38,0,0,0,230.29,18.85Z"/><path class="cls-18" d="M228.74,46.38a10.94,10.94,0,0,0,5.73-2.51s.39-.45.59-.07a3.9,3.9,0,0,1,.19,1.48,23.41,23.41,0,0,1-9,10,1.89,1.89,0,0,1-1.42-.26l-1.23-.77s-.38-.26.19-.45c0,0,4.78-3.09,4.9-6.7C228.68,47.09,228.49,46.51,228.74,46.38Z"/><path class="cls-18" d="M209.15,49.21s1.87,4.19,3.42,5.42c0,0,.64.26.06.71,0,0-2.45,3.35-8.31,1.09,0,0-5.22-2-6.25-5.09a2,2,0,0,1-.07-1s.58-2.58,1.16-3.16a.4.4,0,0,1,.71-.2,16.18,16.18,0,0,0,8.7,1.35s.56-.17.39.43Z"/><path class="cls-18" d="M195.42,37.29a16,16,0,0,1,5.35-6.9s.44-.13,0-.71a16.41,16.41,0,0,1-1.87-8s-5.74.39-6.32,2.45A10,10,0,0,0,190.38,34a9.15,9.15,0,0,0,4.51,3.35A2.1,2.1,0,0,0,195.42,37.29Z"/><path class="cls-18" d="M206.18,14.71s5.6-1.21,9.38,1.6c0,0,.31.19.43-.35a8.56,8.56,0,0,1,5.41-3.08s.35-.5-1.95-2.21c0,0-4-2.34-10.2-.43a6.83,6.83,0,0,0-2.45,1s-.35.31-.39.5a4.52,4.52,0,0,0-.39,1.95A2.27,2.27,0,0,0,206.18,14.71Z"/><path class="cls-19" d="M198.54,22.95c.06.38-.07.78-.16.78s-.22-.38-.16-.78.07-.77.16-.77S198.46,22.54,198.54,22.95Z"/><path class="cls-20" d="M200.18,30.24a.27.27,0,0,1-.31.22l-.25-.28.3-.22Z"/><path class="cls-21" d="M210.44,56.11A4,4,0,0,0,212,55.3s.39-.34-.2-.73a16.14,16.14,0,0,1-2-2.83A22.52,22.52,0,0,0,211.79,55a1.08,1.08,0,0,1-.64.69Z"/><path class="cls-22" d="M206.89,12.92a2.19,2.19,0,0,0,1.93.51s3.63-.11,5,1c1.17,1,3.41-2.34,5.19-2.33s-1-1.65-1-1.65l-3.6-.64s-4.78-.11-7.19,1.78A1.93,1.93,0,0,0,206.89,12.92Z"/><ellipse class="cls-23" cx="232.2" cy="26.65" rx="0.29" ry="0.31"/><path class="cls-24" d="M216.65,39.24c-1.18,0-1.72-1.37-1.72-1.37a2.56,2.56,0,0,0,2.19,1.23,2.22,2.22,0,0,0,.52-.06c.57.13-.69.17-.69.17l-.29,0m1.13-10c-1.34,0-5.18,1.05-5.59,4.42,0,0,2.06,5.54,3.61,5.72a15.74,15.74,0,0,0,3.47.38c.33,0,.68,0,1,0,0,0,4.26-.53,3-6.46-.16-1,0-2.18-1.31-3.33,0,0-2.77-.54-4-.69h-.22"/><path class="cls-25" d="M214.92,37.88s.54,1.37,1.72,1.37l.29,0s1.27,0,.69-.17a2.22,2.22,0,0,1-.52.06,2.56,2.56,0,0,1-2.19-1.23"/><path class="cls-26" d="M209.65,51.57c-.26.13-.35-.48-.59-.92s-.83-.86-.44-1.05.25.37.57,1S210,51.39,209.65,51.57Z"/><path class="cls-27" d="M196,34.46c-.24-.21.8-1.09,1.51-2s1.4-2.24,1.74-1.91-.61.82-1.59,2S196.36,34.73,196,34.46Z"/><ellipse class="cls-28" cx="208.37" cy="49.08" rx="0.4" ry="0.38" transform="translate(149.61 254.93) rotate(-87.32)"/><ellipse class="cls-29" cx="198.31" cy="22.13" rx="0.29" ry="0.3"/><path class="cls-30" d="M229,46.82s.49,4.09-5,7.23a11.24,11.24,0,0,0,4-3.28A5.52,5.52,0,0,0,229,46.82Z"/><path class="cls-31" d="M232.93,27.07a9.68,9.68,0,0,1,4.09,5.1s.21-.73-1.31-2.71A8.29,8.29,0,0,0,232.93,27.07Z"/><path class="cls-32" d="M215.41,15.8a9.52,9.52,0,0,1,5.7-3.3s-.64-.47-2.65.55A10,10,0,0,0,215.41,15.8Z"/><path class="cls-33" d="M217.69,25.08S224.22,27.66,226,31a20.82,20.82,0,0,0-3-2.58A25.08,25.08,0,0,0,217.69,25.08Z"/><path class="cls-34" d="M232.67,26.87l.2.32c.14.17.25.28.37,0s0-.25-.2-.32S232.71,26.79,232.67,26.87Z"/><path class="cls-35" d="M225.74,30.51c-.08.1-.31.06-.52-.11s-.3-.38-.21-.48.31-.06.52.11S225.82,30.4,225.74,30.51Z"/><ellipse class="cls-36" cx="215.41" cy="15.69" rx="0.39" ry="0.32"/><path class="cls-37" d="M200.51,19.2s2.4-3.67,5.72-4.55c0,0,5.15-1.24,9.33,1.65C215.56,16.3,207.92,10.92,200.51,19.2Z"/><path class="cls-38" d="M201.53,29.86a31.38,31.38,0,0,1,8.92,1.65,1,1,0,0,1,.41-.74,57.27,57.27,0,0,1,6-5.31,18.69,18.69,0,0,0-6.29,4.47s-.79.86-1.5.54C209.06,30.46,202.68,29.25,201.53,29.86Z"/><path class="cls-39" d="M216.17,15.88s3.7-4.52,8.21-2.22c0,0-3.91-2.13-8.13,2.52C216.25,16.18,216,16.71,216.17,15.88Z"/><path class="cls-40" d="M225.35,14.13c8.28,5.63,4.54,13.18,6.48,12.42C231.83,26.55,233.46,19.09,225.35,14.13Z"/><path class="cls-38" d="M218.27,24.75a20.28,20.28,0,0,1,7.83,5.3S227.62,28,218.27,24.75Z"/><path class="cls-41" d="M202.83,17.08a10.51,10.51,0,0,0-3.92,4.7,15.11,15.11,0,0,0,.87,5.56A10.37,10.37,0,0,1,202.83,17.08Z"/><path class="cls-38" d="M225.11,28.67c2.54.54,4.26-.59,6.6-1.62-1.14.7-5.4,3.26-5.4,3.26Z"/><polygon class="cls-38" points="218.47 24.27 218.34 24.41 218.21 24.27 218.34 24.13 218.47 24.27"/><ellipse class="cls-38" cx="212.78" cy="27.37" rx="1.16" ry="0.07" transform="translate(32.85 144.21) rotate(-40.33)"/><ellipse class="cls-38" cx="211.11" cy="36.95" rx="0.07" ry="1.16" transform="translate(-2.53 53.95) rotate(-14.48)"/><path class="cls-42" d="M221.94,12.83s3.72-.45,8.13,5.39l.21.18a4.07,4.07,0,0,1,1.68-.18l-.1-.07a4.6,4.6,0,0,0-1.44-.06,18.55,18.55,0,0,0-6-4.87,7.93,7.93,0,0,0-2.6-.59,5.85,5.85,0,0,0-3.37-2.39,5.53,5.53,0,0,1,3,2.51Z"/><path class="cls-43" d="M215.48,17.14a21.94,21.94,0,0,1,1.72,7.07A40.08,40.08,0,0,0,215.48,17.14Z"/><path class="cls-44" d="M193.22,23.24s1.11-1.52,5.62-2.48c0,0,3-4.31,5.78-5.45a13.25,13.25,0,0,0-5.71,6.4S195.31,21.82,193.22,23.24Z"/><path class="cls-45" d="M192.59,21.9s3.92-9,13.76-10.59c0,0-5.62,1.29-7.94,3.54A25.16,25.16,0,0,0,192.59,21.9Z"/><path class="cls-38" d="M206.44,11.36a5.67,5.67,0,0,0-.53,3.14,15.87,15.87,0,0,0-2.24,1,6.32,6.32,0,0,0,1.94-3.23A8,8,0,0,1,206.44,11.36Z"/><path class="cls-46" d="M189.61,33.68a6.42,6.42,0,0,0-1.16,2.76,4.65,4.65,0,0,1,1.69-2.59v-.07a9.37,9.37,0,0,1-.43-3.22A8.27,8.27,0,0,0,189.61,33.68Z"/><path class="cls-45" d="M192.21,21.52a9.1,9.1,0,0,0,.24,2.51,8.47,8.47,0,0,0-2.08,3.55,14.23,14.23,0,0,1,1.6-3.44s0-2.06-.9-1.25A4.23,4.23,0,0,1,192.21,21.52Z"/><path class="cls-38" d="M210.43,32.43s3,6.64,3.42,8.21c.08,1.47-3.42,5.58-3.42,5.58s2.72-4.26,2.3-5.5A81,81,0,0,0,210.43,32.43Z"/><path class="cls-38" d="M199.75,46.66a14.58,14.58,0,0,0,8.59,1.63S202.16,48,199.75,46.66Z"/><path class="cls-40" d="M196.83,34.68a13.2,13.2,0,0,1,4-4.31,14.33,14.33,0,0,1,6.7.63,12.61,12.61,0,0,0-6.1-.09A11.71,11.71,0,0,0,196.83,34.68Z"/><path class="cls-47" d="M195.95,37.32a8.61,8.61,0,0,1,1.48-3.43s-.72.37-2,3.4a14.56,14.56,0,0,0,1.44,5.54A11.55,11.55,0,0,1,195.95,37.32Z"/><path class="cls-48" d="M190.55,34.61A9.76,9.76,0,0,0,195,37.78s.47,5.75,4,9a13.41,13.41,0,0,1-4.24-8.68S191.72,37,190.55,34.61Z"/><path class="cls-38" d="M197.54,51.39a5.54,5.54,0,0,1,1.17-4.3l-.35.26S196.8,49.79,197.54,51.39Z"/><path class="cls-38" d="M212.22,45.63s3-4,5-4c0,0,2.14-.09,3.26-.09,0,0,.26.43-.09.52A15.18,15.18,0,0,0,213,45.37S212.31,46.14,212.22,45.63Z"/><path class="cls-38" d="M226.55,30.67a14.22,14.22,0,0,1-2.13,9.22A10,10,0,0,0,226.55,30.67Z"/><path class="cls-49" d="M224.59,40.38a32,32,0,0,1,4.13,5.68,9.52,9.52,0,0,0,5.76-2.5s-3.87,2.41-5.41,1.89C229.06,45.46,225.2,40.47,224.59,40.38Z"/><path class="cls-50" d="M236.8,32.82s.69,6-2,10.31A32.48,32.48,0,0,0,236.8,32.82Z"/><path class="cls-51" d="M228.38,29.38l3.35-2a11.59,11.59,0,0,1,2.84,1.89C232.93,28.35,232,27.23,228.38,29.38Z"/><path class="cls-38" d="M223,53.88s5-2.58,5.5-7C228.46,46.91,227.78,50.61,223,53.88Z"/><path class="cls-4" d="M207.83,57.49"/><path class="cls-45" d="M208,57.57a6.22,6.22,0,0,0,5.08-2.15s5.84,2,10.23-1c0,0-3.78,3-10.06,1.46C213.25,55.85,210.67,58.18,208,57.57Z"/><path class="cls-52" d="M211.62,58.69s6.79.43,11.43-2A38.71,38.71,0,0,1,211.62,58.69Z"/><path class="cls-53" d="M196.57,52.16s1.29.17,1.46-.08A14.84,14.84,0,0,0,207,57.4a2.55,2.55,0,0,0,.6.95,18.37,18.37,0,0,1-2.32-.95s-6-2.92-7.13-4.81A9,9,0,0,1,196.57,52.16Z"/><path class="cls-54" d="M190,34.8s-1.72,1.29-.95,4.47c0,0-.09-3,1.38-3.61Z"/><path class="cls-43" d="M237.14,32.82a22.51,22.51,0,0,1-1.89,10.66,1.54,1.54,0,0,1,.08,1.12,3.55,3.55,0,0,0,.52-1.63S238.26,36,237.14,32.82Z"/><path class="cls-55" d="M237.57,32a16,16,0,0,1-.52,8.68,19.17,19.17,0,0,0,.43-8.25Z"/><polygon class="cls-1" points="249.85 47.77 249.85 8.38 255.56 8.38 255.56 42.06 274.79 42.06 274.79 47.77 249.85 47.77"/><path class="cls-1" d="M36.93,19.45a16.89,16.89,0,0,0-5.58-5.34A14.7,14.7,0,0,0,13.3,16.49,14.51,14.51,0,0,0,8.84,27.13,14.51,14.51,0,0,0,13.3,37.76,14.57,14.57,0,0,0,24,42.21,14.57,14.57,0,0,0,35.74,36.5V30.18H23.46v-6H41.76V47.77h-6V44Q31.29,48.23,24,48.23A20.37,20.37,0,0,1,9.08,42,20.33,20.33,0,0,1,2.82,27.14,20.33,20.33,0,0,1,9.06,12.28,20.3,20.3,0,0,1,23.95,6,21,21,0,0,1,34.27,8.77,23.28,23.28,0,0,1,42,16.17Z"/><path class="cls-1" d="M24,51.06A23.19,23.19,0,0,1,7.08,44,23.15,23.15,0,0,1,0,27.14,23.13,23.13,0,0,1,7.07,10.28,23.11,23.11,0,0,1,23.95,3.2a23.84,23.84,0,0,1,11.7,3.1,26.23,26.23,0,0,1,8.75,8.32L46,17l-6.74,4.33h5.36V50.6H32.91V49.27A21.4,21.4,0,0,1,24,51.06Zm0-42.21a17.43,17.43,0,0,0-12.88,5.43A17.45,17.45,0,0,0,5.65,27.14,17.45,17.45,0,0,0,11.07,40,17.48,17.48,0,0,0,24,45.41,13.92,13.92,0,0,0,33,42.6,17.25,17.25,0,0,1,24,45,17.36,17.36,0,0,1,11.3,39.77,17.32,17.32,0,0,1,6,27.13,17.31,17.31,0,0,1,11.3,14.49a17.53,17.53,0,0,1,21.49-2.82,19.71,19.71,0,0,1,4.81,4l.35-.22a20.28,20.28,0,0,0-5.1-4.24,18.17,18.17,0,0,0-8.9-2.36Zm14.62,36.1h.37V27H26.29v.37H38.56v17.6ZM23.95,14.87a11.72,11.72,0,0,0-8.65,3.62,11.69,11.69,0,0,0-3.62,8.64,11.69,11.69,0,0,0,3.63,8.64A11.74,11.74,0,0,0,24,39.39a11.63,11.63,0,0,0,9-3.94V33H20.64V21.33H34.78L34.57,21a14,14,0,0,0-4.65-4.46,11.49,11.49,0,0,0-6-1.67Z"/><path class="cls-1" d="M71.52,47.77V44.05A15,15,0,0,1,61,48.23a14.75,14.75,0,0,1-11-4.75,15.74,15.74,0,0,1-4.53-11.29,15.49,15.49,0,0,1,4.71-11.36,15.94,15.94,0,0,1,22.7,0,15.55,15.55,0,0,1,4.74,11.37V47.77Zm0-15.62a10,10,0,0,0-17.17-7.08,10,10,0,0,0,0,14.19,10.07,10.07,0,0,0,17.17-7.11Z"/><path class="cls-1" d="M61,51.06a17.53,17.53,0,0,1-13.07-5.62,18.55,18.55,0,0,1-5.32-13.25A18.3,18.3,0,0,1,48.1,18.83a18.77,18.77,0,0,1,26.71,0,18.36,18.36,0,0,1,5.56,13.37V50.6H68.69V49.38A17.94,17.94,0,0,1,61,51.06Zm.49-32.15a12.62,12.62,0,0,0-9.35,3.92,12.67,12.67,0,0,0-3.88,9.36A12.89,12.89,0,0,0,52,41.52a12.5,12.5,0,0,0,16.1,1.71A12.89,12.89,0,0,1,48.58,32.15a12.84,12.84,0,0,1,22-9.08,12.77,12.77,0,0,1,1,17.14l2.85-2.66v7.4h.37V32.21a12.72,12.72,0,0,0-3.91-9.38,12.62,12.62,0,0,0-9.35-3.92Zm0,6a7.29,7.29,0,0,0-7.21,7.23,7.23,7.23,0,0,0,14.46,0,7.35,7.35,0,0,0-7.25-7.23Z"/><path class="cls-1" d="M102.27,47.77V29.67a7.58,7.58,0,0,0-15.16,0v18.1h-6V29.7a13.07,13.07,0,0,1,4.1-9.51,13,13,0,0,1,19,0,13.08,13.08,0,0,1,4.13,9.51V47.77Z"/><path class="cls-1" d="M111.11,50.6H99.44V29.67a4.76,4.76,0,0,0-9.51,0V50.6H78.26V29.7a15.85,15.85,0,0,1,4.92-11.51,15.83,15.83,0,0,1,23,0,15.86,15.86,0,0,1,5,11.51V50.6Zm-6-5.65h.37V29.7a10.28,10.28,0,0,0-3.3-7.51,10.2,10.2,0,0,0-15,0,10.27,10.27,0,0,0-3.27,7.51V44.95h.37V29.67a10.41,10.41,0,0,1,20.81,0V44.95Z"/><path class="cls-1" d="M136.7,47.77V44.05a15,15,0,0,1-10.56,4.18,14.75,14.75,0,0,1-11-4.75,15.74,15.74,0,0,1-4.53-11.29,15.51,15.51,0,0,1,4.71-11.36,15.94,15.94,0,0,1,22.71,0,15.56,15.56,0,0,1,4.74,11.37V47.77Zm0-15.62a10.06,10.06,0,1,0-17.17,7.11,10.07,10.07,0,0,0,17.17-7.11Z"/><path class="cls-1" d="M126.14,51.06a17.52,17.52,0,0,1-13.07-5.62,18.54,18.54,0,0,1-5.32-13.25,18.32,18.32,0,0,1,5.53-13.35,18.77,18.77,0,0,1,26.71,0,18.35,18.35,0,0,1,5.56,13.37V50.6H133.87V49.38a17.93,17.93,0,0,1-7.74,1.68Zm.49-32.15a12.64,12.64,0,0,0-9.35,3.92,12.68,12.68,0,0,0-3.88,9.36,12.89,12.89,0,0,0,3.74,9.34,12.5,12.5,0,0,0,16.07,1.73,12.89,12.89,0,0,1-19.45-11.1,12.88,12.88,0,1,1,22.92,8l2.84-2.65v7.4h.37V32.21A12.72,12.72,0,0,0,136,22.83a12.63,12.63,0,0,0-9.35-3.92Zm0,6a7.3,7.3,0,0,0-7.22,7.23,7.23,7.23,0,1,0,12.31-5.08,6.9,6.9,0,0,0-5.09-2.15Z"/><path class="cls-1" d="M172.43,55.56a15.69,15.69,0,0,1-19.09,2.7,16.57,16.57,0,0,1-3.29-2.42,18,18,0,0,1-2.65-3.16l5.09-3.33q3.29,5,8.62,5a9.16,9.16,0,0,0,7.15-3,12,12,0,0,0,2.85-7.28,14.92,14.92,0,0,1-10.5,4.16,14.73,14.73,0,0,1-11-4.75A15.73,15.73,0,0,1,145,32.19a15.51,15.51,0,0,1,4.74-11.36,15.88,15.88,0,0,1,22.65,0,15.5,15.5,0,0,1,4.76,11.36v12.1A15.32,15.32,0,0,1,172.43,55.56Zm-1.25-23.41A10.06,10.06,0,1,0,154,39.26a10.07,10.07,0,0,0,17.17-7.11Z"/><path class="cls-1" d="M161.11,63.17a18.38,18.38,0,0,1-9.16-2.45,19.34,19.34,0,0,1-3.84-2.83A20.78,20.78,0,0,1,145,54.23l-1.57-2.37L150,47.6a19.21,19.21,0,0,1-2.44-2.17,18.53,18.53,0,0,1-5.32-13.25,18.32,18.32,0,0,1,5.56-13.35,18.7,18.7,0,0,1,26.65,0A18.29,18.29,0,0,1,180,32.19v12.1a18.1,18.1,0,0,1-5.6,13.28,18.16,18.16,0,0,1-13.31,5.6Zm-9.57-9.83.45.44a13.83,13.83,0,0,0,2.74,2,12.86,12.86,0,0,0,15.69-2.22,12.5,12.5,0,0,0,3.95-9.28V38.6l-.44,5.69a14.8,14.8,0,0,1-3.56,8.95,11.91,11.91,0,0,1-9.25,3.91,12.35,12.35,0,0,1-9.23-4l-.34.22Zm6.72-2.42a6.83,6.83,0,0,0,2.85.58,7,7,0,0,0,3.69-.91,19.35,19.35,0,0,1-6.54.33Zm2.85-32a12.72,12.72,0,0,0-9.33,3.93,12.66,12.66,0,0,0-3.9,9.35,12.9,12.9,0,0,0,3.74,9.34,12.46,12.46,0,0,0,15.72,1.94,12.9,12.9,0,0,1-19.09-11.3A12.88,12.88,0,1,1,171.31,40l3.07-2.86v-5a12.65,12.65,0,0,0-3.94-9.36,12.6,12.6,0,0,0-9.32-3.92Zm0,6a7.29,7.29,0,0,0-7.22,7.23A6.92,6.92,0,0,0,156,37.27a6.8,6.8,0,0,0,5.1,2.12,7.29,7.29,0,0,0,7.24-7.23,7.34,7.34,0,0,0-7.24-7.23Z"/><path class="cls-1" d="M277.62,50.6H247v-45h11.37V39.23h19.23V50.6Zm-24.94-5.65L272,44.89H252.74l-.06-33.67V44.95Z"/><path class="cls-2" d="M36.93,19.45a16.89,16.89,0,0,0-5.58-5.34A14.7,14.7,0,0,0,13.3,16.49,14.51,14.51,0,0,0,8.84,27.13,14.51,14.51,0,0,0,13.3,37.76,14.57,14.57,0,0,0,24,42.21,14.57,14.57,0,0,0,35.74,36.5V30.18H23.46v-6H41.76V47.77h-6V44Q31.29,48.23,24,48.23A20.37,20.37,0,0,1,9.08,42,20.33,20.33,0,0,1,2.82,27.14,20.33,20.33,0,0,1,9.06,12.28,20.3,20.3,0,0,1,23.95,6,21,21,0,0,1,34.27,8.77,23.28,23.28,0,0,1,42,16.17Z"/><path class="cls-2" d="M71.52,47.77V44.05A15,15,0,0,1,61,48.23a14.75,14.75,0,0,1-11-4.75,15.74,15.74,0,0,1-4.53-11.29,15.49,15.49,0,0,1,4.71-11.36,15.94,15.94,0,0,1,22.7,0,15.55,15.55,0,0,1,4.74,11.37V47.77Zm0-15.62a10,10,0,0,0-17.17-7.08,10,10,0,0,0,0,14.19,10.07,10.07,0,0,0,17.17-7.11Z"/><path class="cls-2" d="M102.27,47.77V29.67a7.58,7.58,0,0,0-15.16,0v18.1h-6V29.7a13.07,13.07,0,0,1,4.1-9.51,13,13,0,0,1,19,0,13.08,13.08,0,0,1,4.13,9.51V47.77Z"/><path class="cls-2" d="M136.7,47.77V44.05a15,15,0,0,1-10.56,4.18,14.75,14.75,0,0,1-11-4.75,15.74,15.74,0,0,1-4.53-11.29,15.51,15.51,0,0,1,4.71-11.36,15.94,15.94,0,0,1,22.71,0,15.56,15.56,0,0,1,4.74,11.37V47.77Zm0-15.62a10.06,10.06,0,1,0-17.17,7.11,10.07,10.07,0,0,0,17.17-7.11Z"/><path class="cls-2" d="M172.43,55.56a15.69,15.69,0,0,1-19.09,2.7,16.57,16.57,0,0,1-3.29-2.42,18,18,0,0,1-2.65-3.16l5.09-3.33q3.29,5,8.62,5a9.16,9.16,0,0,0,7.15-3,12,12,0,0,0,2.85-7.28,14.92,14.92,0,0,1-10.5,4.16,14.73,14.73,0,0,1-11-4.75A15.73,15.73,0,0,1,145,32.19a15.51,15.51,0,0,1,4.74-11.36,15.88,15.88,0,0,1,22.65,0,15.5,15.5,0,0,1,4.76,11.36v12.1A15.32,15.32,0,0,1,172.43,55.56Zm-1.25-23.41A10.06,10.06,0,1,0,154,39.26a10.07,10.07,0,0,0,17.17-7.11Z"/><polygon class="cls-2" points="249.85 47.77 249.85 8.38 255.56 8.38 255.56 42.06 274.79 42.06 274.79 47.77 249.85 47.77"/></g></g></svg>