<svg xmlns="http://www.w3.org/2000/svg" xmlns:xlink="http://www.w3.org/1999/xlink" viewBox="0 0 45.66 28.17"><defs><style>.cls-1{fill:#2e5f2f;}.cls-2{fill:url(#radial-gradient);}.cls-3{fill:#014e2a;stroke:#014e2a;}.cls-4{fill:#74b844;stroke:#74b844;}.cls-5{fill:#fff;stroke:#231f20;}</style><radialGradient id="radial-gradient" cx="1124.85" cy="-1256.38" r="13" gradientTransform="matrix(1, 0, 0, 1, -1101.69, 1269.5)" gradientUnits="userSpaceOnUse"><stop offset="0.97" stop-color="#bbd035"/><stop offset="1" stop-color="#b9d031"/></radialGradient></defs><title>si o si</title><g id="Capa_2" data-name="Capa 2"><g id="Capa_2-2" data-name="Capa 2"><ellipse class="cls-1" cx="23.34" cy="14.08" rx="19.06" ry="13.92" transform="translate(-2 4.04) rotate(-9.49)"/><ellipse class="cls-2" cx="23.19" cy="12.99" rx="14.68" ry="11.08" transform="translate(-1.82 4) rotate(-9.48)"/><path class="cls-3" d="M17.09,18.06l-.33-2c-.37-2.23-.77-5.17-.8-5.49v0L18.16,6l-.56.09-4.76.8-.25,3.94L10,11.24l.07.3c0,.16.18.93.36,1.85l-1-2.53-.25.06C3.05,12.4.17,15.36.53,17.53c.28,1.67,2.12,2.37,3.88,2.85,1.41.37,2.26.62,2.3.83a.31.31,0,0,1-.08.22C6.2,22,4.37,22.7,2.48,23L2.12,23l1.37,3.64.26-.07c4.51-1.19,7-2.87,8.23-4.48.17,1.09.32,2.13.35,2.49l0,.31,5.86-1-.07-.3C18,23.21,17.41,19.93,17.09,18.06Z"/><path class="cls-4" d="M17.89,17.41l-.33-2c-.37-2.23-.77-5.17-.8-5.49v0L19,5.33l-.56.09-4.76.8-.25,3.94-2.55.43.08.3c0,.16.19.93.36,1.84l-1-2.53-.25.06C3.85,11.75,1,14.71,1.33,16.88c.28,1.66,2.12,2.38,3.88,2.85,1.4.38,2.26.62,2.29.83a.31.31,0,0,1-.08.22C7,21.37,5.17,22,3.28,22.31l-.36.05L4.29,26l.25-.07c4.51-1.18,7-2.87,8.23-4.48.17,1.09.32,2.13.35,2.49l0,.31,5.86-1-.07-.3C18.84,22.55,18.2,19.27,17.89,17.41Z"/><polygon class="cls-5" points="13.68 10.18 13.92 6.46 18.45 5.71 16.26 10.24 13.68 10.18"/><path class="cls-5" d="M13.42,23.92c-.08-.82-.77-5.17-.86-5.65l-.33-2c-.05-.31-.93-5-1-5.43l5.27-.88c0,.34.43,3.29.8,5.51l.34,2c.31,1.86,1,5.16,1.05,5.58Z"/><path class="cls-5" d="M3.32,22.6c2.25-.32,4.62-1.23,4.48-2.1-.06-.37-.49-.52-2.51-1.06C3.72,19,1.87,18.38,1.62,16.83c-.35-2.07,2.72-4.9,8.51-6.28l1.14,3C8.37,14,7,14.64,7.1,15.4c.08.44.86.6,2.47.94,1.3.28,3.43.77,3.71,2.44.34,2-1.89,5.06-8.81,6.88Z"/><path class="cls-3" d="M43.73,13.87l-.34-2c-.37-2.23-.77-5.17-.8-5.49v0l2.2-4.56-.56.09-4.76.8-.25,3.95L36.68,7l.07.31c0,.16.19.93.36,1.84l-1-2.53-.25.06c-6.21,1.49-9.09,4.45-8.73,6.61.28,1.67,2.12,2.37,3.88,2.85,1.4.37,2.26.62,2.29.83a.31.31,0,0,1-.08.22c-.44.59-2.26,1.27-4.15,1.54l-.36.05,1.37,3.64.25-.07c4.51-1.18,7-2.87,8.23-4.48.17,1.09.32,2.13.36,2.49l0,.31,5.86-1-.07-.31C44.68,19,44,15.74,43.73,13.87Z"/><path class="cls-4" d="M42.7,13.27l-.34-2C42,9,41.59,6.09,41.57,5.77v0l2.2-4.56-.56.09-4.76.8L38.2,6l-2.55.43.07.3c0,.16.19.93.36,1.84l-1-2.53-.25.06c-6.21,1.49-9.09,4.45-8.73,6.62.28,1.66,2.12,2.37,3.88,2.85,1.4.37,2.26.62,2.3.83a.31.31,0,0,1-.08.22c-.44.59-2.26,1.27-4.15,1.54l-.36.05,1.37,3.64.26-.07c4.51-1.19,7-2.87,8.23-4.48.17,1.09.32,2.13.35,2.49l0,.31,5.86-1-.07-.31C43.65,18.41,43,15.13,42.7,13.27Z"/><polygon class="cls-5" points="38.49 6.04 38.72 2.32 43.26 1.56 41.07 6.1 38.49 6.04"/><path class="cls-5" d="M38.22,19.77c-.08-.83-.77-5.17-.85-5.66l-.33-2c-.05-.31-.93-5-1-5.44l5.27-.88c0,.34.42,3.29.8,5.51l.33,2c.31,1.86,1,5.16,1.06,5.59Z"/><path class="cls-5" d="M28.12,18.46c2.26-.32,4.62-1.23,4.48-2.09-.06-.37-.49-.53-2.51-1.06-1.57-.42-3.41-1.06-3.67-2.62-.35-2.07,2.72-4.9,8.51-6.28l1.14,3c-2.89.48-4.29,1.11-4.16,1.87.07.45.86.6,2.46.94,1.31.28,3.43.78,3.71,2.44.34,2-1.89,5.06-8.81,6.89Z"/><path class="cls-5" d="M18.91,16.08a3.29,3.29,0,0,1,2.84-3.91,2.79,2.79,0,0,1,3.51,2.43,3.22,3.22,0,0,1-2.85,3.83A2.87,2.87,0,0,1,18.91,16.08ZM23.28,15c-.15-.91-.65-1.34-1.36-1.22a1.42,1.42,0,0,0-1,1.81c.16.94.74,1.31,1.34,1.21C23,16.69,23.46,16.07,23.28,15Z"/></g></g></svg>