<svg xmlns="http://www.w3.org/2000/svg" viewBox="0 0 74.54 74.79"><defs><style>.cls-1{fill:#fbc563;}.cls-2{fill:#f49b00;}.cls-3{fill:#1d1d1b;}.cls-4{fill:#c7d300;}</style></defs><title>logotipo kabala</title><g id="Capa_2" data-name="Capa 2"><g id="Capa_6" data-name="Capa 6"><g id="_Grupo_" data-name="&lt;Grupo&gt;"><path id="_Trazado_" data-name="&lt;Trazado&gt;" class="cls-1" d="M74.54,37.41A37.27,37.27,0,1,1,37.29,0,37.31,37.31,0,0,1,74.54,37.41Z"/><path id="_Trazado_2" data-name="&lt;Trazado&gt;" class="cls-2" d="M72.64,37.41A35.36,35.36,0,1,1,37.29,1.93,35.43,35.43,0,0,1,72.64,37.41Z"/><g id="_Grupo_2" data-name="&lt;Grupo&gt;"><path id="_Trazado_3" data-name="&lt;Trazado&gt;" class="cls-3" d="M44.49,19a23.75,23.75,0,0,0,2.31-4.13l3.25,2.63S46.43,19.65,44.49,19Z"/><path class="cls-3" d="M52.39,17.48l-6.18-5-.77,2,0,.1A20.46,20.46,0,0,1,43.6,17.7l-1.13,1.66,1.9.7a3.84,3.84,0,0,0,1.29.21,10.72,10.72,0,0,0,4.8-1.64h0Z"/></g><path id="_Trazado_4" data-name="&lt;Trazado&gt;" class="cls-3" d="M15.29,14a79.92,79.92,0,0,0,12-1.55,2.48,2.48,0,0,0,.45.36l.63-.73S39,11.58,41.53,10.81a45.71,45.71,0,0,0-7.82,12.08,7.16,7.16,0,0,1,3.21,3.21,8.15,8.15,0,0,0,.82-.34c-.68-.53-2.18-3.83.54-7.34,3.95-3.94,14.19-2.74,13.79,5.52-.39,1.9-1.22,9-1.22,9l3.49.58-1.43,1.77s4.74-.46,9.26,4.37c6.32,7.12-3.8,22.07-8.12,23.09-1.68-1.61-4.36-2.23-6-2.49-1.07.69-3.34,2.15-3.34,2.2A24.51,24.51,0,0,0,30.53,62c1.3-2,2.56-3.74,2.56-3.74a8.75,8.75,0,0,0-.83-.38,5.25,5.25,0,0,1-5.15-.16c-1.09,1.54-4,3.4-7.49.71-1.12.77-5.24,1.15-5.85,1.29A26.86,26.86,0,0,0,15,48.16c-.54-7.52-1.89-9.88-3.82-12.41,0,0,7.67-.1,9.18-1.58C20.17,30.41,19.92,17.12,15.29,14Z"/><path id="_Trazado_5" data-name="&lt;Trazado&gt;" class="cls-4" d="M60.53,41.44A10.4,10.4,0,0,0,45,40.88c-4.64,5-.33,16.46.11,18.31a28.56,28.56,0,0,1,3.72-2.12c-3-10.53,2.93-11.88,5-10.93,1.9.87,1.73,3.06.89,5.4-.62-.15-2.16-.52-2.93-.67-1,0-1.65,1.76-1.65,1.76l3.08,2.07c-1,1.82-2,3.3-2.21,3.72A7.89,7.89,0,0,1,54.57,60C55.41,59.7,65.4,47.54,60.53,41.44Z"/><path id="_Trazado_6" data-name="&lt;Trazado&gt;" class="cls-4" d="M19.07,16.08s6.28-.67,8.24-1.26c-.76,1.31-1.71,2.79-1,10.71C27.18,24,30.43,18.67,29.17,14c2.42-.11,7.09-.34,7.77-.5a35.22,35.22,0,0,0-6.7,11.57c1.72-.47,5-.3,5.35,5.18.44,3.49,2.16,5.95,3.93,5.22,0,1-3.26,3.71-6.14,3.2-2.55-.4-2.55-5.74-2.63-6.79-.11-1.47-.12-4.57-4-3.33.22,2.38.58,8.93,2.58,10.1a29.37,29.37,0,0,0-7.49.47c.49-1.06,1.34-1.88.81-8.5C22.06,24.52,21.33,16.55,19.07,16.08Z"/><path id="_Trazado_compuesto_" data-name="&lt;Trazado compuesto&gt;" class="cls-4" d="M48.5,32.38c.32-2.25.85-6.86,1.19-8.5a4.67,4.67,0,0,0-3.85-5.08c-3.35-.43-6.67.19-6.74,4.06.08,2.6,3.56,2.58,4,1.51-.66-.44-.66-2.49,1.4-2.36,2,.3,1.33,2.9-.36,3.55a40.33,40.33,0,0,0-4.88,2.1c-2.72,1.42-3.37,7,.46,8.82,2.26,1,4.65-1,4.94-1.63.43,1,2.34,3.64,5.16.37-.95-.15-1.63-.6-1.27-2.84m-5.06.45c-1.65,1.33-3.33-1.16-1.65-2.94.63-.55,3.09-1.81,3.38-2.15C45,29,45.1,31.44,43.44,32.83Z"/><path id="_Trazado_compuesto_2" data-name="&lt;Trazado compuesto&gt;" class="cls-4" d="M35.58,52.2c.14-2,.3-6.2.5-7.67a4.23,4.23,0,0,0-3.37-4.4c-2.75-.28-5.43.3-5.32,3.71.22,2.28,3,2.28,3.31,1.29a1.23,1.23,0,0,1,1-2.11c1.68.22,1.21,2.57-.13,3.16s-2.78,1.3-3.83,1.89c-2.14,1.24-2.38,6.06.85,7.78,1.88.89,3.7-.85,3.93-1.4.39.9,2.08,3.26,4.22.29-.8-.12-1.34-.5-1.19-2.54m-4.09.42c-1.29,1.23-2.8-1-1.5-2.58.48-.49,2.39-1.6,2.62-1.94C32.56,49.26,32.75,51.43,31.49,52.62Z"/><path id="_Trazado_compuesto_3" data-name="&lt;Trazado compuesto&gt;" class="cls-4" d="M25.09,43.55a2.82,2.82,0,0,0-5,.42C20,43.33,20,40.08,20,37c-1.32.64-5.16.92-5.16.92,1.17,1.08,1.48,1.81,2,5.73,1.1,6.85.62,11.28.2,13A4.36,4.36,0,0,0,20,55.05s1.42,3.13,4.09,2.14c4.17-2,2.25-11.83,1-13.64m-3,10.86c-1-.1-1.48-3.08-1.53-5.34-.06-2.06.22-3.8,1-4,1.32,0,1.58,3.78,1.63,4.7S23.48,54.44,22.06,54.41Z"/><path id="_Trazado_7" data-name="&lt;Trazado&gt;" class="cls-4" d="M43.34,55.51c-1,.19-2,.38-3,.52,0-6.42,1.57-16.38,1.85-18.44-.9.5-5.44-.32-5.44-.32,1.74,1,1,10.65.61,15.08s-.5,4.69-1.57,6.31a28.86,28.86,0,0,1,7.76,1C44,56.74,43.34,55.51,43.34,55.51Z"/><path id="_Trazado_8" data-name="&lt;Trazado&gt;" class="cls-3" d="M52.79,42.09a1.08,1.08,0,1,1-1.05-1A1,1,0,0,1,52.79,42.09Z"/><path id="_Trazado_9" data-name="&lt;Trazado&gt;" class="cls-3" d="M57.15,43.71a.79.79,0,1,1-.74-.91A.86.86,0,0,1,57.15,43.71Z"/><path id="_Trazado_10" data-name="&lt;Trazado&gt;" class="cls-3" d="M58.7,48.07a.78.78,0,1,1-1.55,0,.76.76,0,0,1,.76-.8A.77.77,0,0,1,58.7,48.07Z"/><path id="_Trazado_11" data-name="&lt;Trazado&gt;" class="cls-3" d="M57.91,52.62a.74.74,0,0,1-.78.72.77.77,0,0,1-.8-.72.73.73,0,0,1,.8-.68A.7.7,0,0,1,57.91,52.62Z"/><path id="_Trazado_12" data-name="&lt;Trazado&gt;" class="cls-3" d="M48,44.9a.93.93,0,0,1-.86.94.91.91,0,0,1-.91-.94A.89.89,0,0,1,47.1,44,.9.9,0,0,1,48,44.9Z"/><path id="_Trazado_13" data-name="&lt;Trazado&gt;" class="cls-3" d="M46,49.46a.79.79,0,1,1-1.57,0,.79.79,0,0,1,.8-.78A.78.78,0,0,1,46,49.46Z"/><path id="_Trazado_14" data-name="&lt;Trazado&gt;" class="cls-4" d="M44.33,19.1A21.75,21.75,0,0,0,46.63,15l3.25,2.66S46.27,19.81,44.33,19.1Z"/></g></g></g></svg>