<svg xmlns="http://www.w3.org/2000/svg" viewBox="0 0 24.24 24.24"><defs><style>.cls-1{fill:#fff;}.cls-2{fill:#e98631;}</style></defs><title>Recurso 17</title><g id="Capa_2" data-name="Capa 2"><g id="Capa_2-2" data-name="Capa 2"><rect class="cls-1" width="24.24" height="24.24" rx="12.12" ry="12.12"/><path class="cls-2" d="M15.44,11.14V6.29A.42.42,0,0,0,15,5.87H7.49a.43.43,0,0,0-.42.42V17.58a.43.43,0,0,0,.42.42h6.16a3.62,3.62,0,1,0,1.79-6.87ZM7.91,6.72h6.67v4.47a3.61,3.61,0,0,0-2.07,6H7.91Zm7.3,10.8A2.77,2.77,0,1,1,18,14.75,2.77,2.77,0,0,1,15.22,17.51Z"/><path class="cls-2" d="M17,14.75a.43.43,0,0,0-.42-.42H13.89a.42.42,0,0,0,0,.85h2.66A.42.42,0,0,0,17,14.75Z"/><path class="cls-2" d="M15.22,13a.43.43,0,0,0-.42.42v2.66a.42.42,0,0,0,.85,0V13.42A.42.42,0,0,0,15.22,13Z"/><path class="cls-2" d="M9.74,9h3a.42.42,0,1,0,0-.85h-3a.42.42,0,1,0,0,.85Z"/><path class="cls-2" d="M9.74,11.23h3a.42.42,0,1,0,0-.85h-3a.42.42,0,1,0,0,.85Z"/><path class="cls-2" d="M10.5,12.64H9.74a.42.42,0,0,0,0,.85h.75a.42.42,0,0,0,0-.85Z"/></g></g></svg>