<svg xmlns="http://www.w3.org/2000/svg" viewBox="0 0 45.68 16.95"><defs><style>.cls-1{fill:#babbba;}.cls-2{fill:#272727;}.cls-3{fill:#191919;}</style></defs><title>pago</title><g id="Capa_2" data-name="Capa 2"><g id="Capa_1-2" data-name="Capa 1"><path class="cls-1" d="M14.64,10A32.88,32.88,0,0,1,4,16.22c-.24.1-.46.23-.7.31C1.72,17,.72,16.42.46,14.79A36.12,36.12,0,0,1,.58,2.66c0-.06.08-.1.12-.16A2.6,2.6,0,0,1,1,1,1.69,1.69,0,0,1,3.19.11,29.25,29.25,0,0,1,9.39,3,37.76,37.76,0,0,1,14,6.44c.06,0,.08.14.12.22s.34.27.5.41A1.83,1.83,0,0,1,14.64,10Z"/><path class="cls-1" d="M1,3a2.49,2.49,0,0,1,.3-1.34,1.59,1.59,0,0,1,2-.86,27.92,27.92,0,0,1,5.78,2.7,35.31,35.31,0,0,1,4.34,3.12c.05,0,.07.13.11.2l-.33,0A30.25,30.25,0,0,0,5.71,3.29,8.31,8.31,0,0,0,1.17,3Z"/><path class="cls-1" d="M1,3l.13,0a34,34,0,0,0,.3,4.66,5.66,5.66,0,0,0,.37,2,1,1,0,0,0,.14.75,9,9,0,0,0,.84,3.35c.31.59.56,1.27,1.29,1.52v.26c-.22.09-.44.2-.66.28a1.79,1.79,0,0,1-2.63-1.6A32.75,32.75,0,0,1,.94,3.11C.95,3.06,1,3,1,3Z"/><path class="cls-1" d="M4.11,15.58v-.26a26.68,26.68,0,0,0,3.64-2.25c1.08-.74,2-1.7,3-2.54,1-1,.9-.76,1.31-1.25l.23-.34a4.9,4.9,0,0,0,1-2.19l.33,0c.16.13.32.24.47.38a1.66,1.66,0,0,1,0,2.69A30.69,30.69,0,0,1,4.11,15.58Z"/><path class="cls-1" d="M12,9.26a5.56,5.56,0,0,0,.75-1.13,3.29,3.29,0,0,0,.5-1.38A30.25,30.25,0,0,0,5.71,3.29,8.31,8.31,0,0,0,1.17,3c0,.63,0,2.22,0,2.85A27.06,27.06,0,0,0,2,11.9H2a9.83,9.83,0,0,0,.76,1.89c.31.59.56,1.27,1.29,1.52a26.68,26.68,0,0,0,3.64-2.25c.74-.51,2.38-1.84,2.69-2.13.12-.1,1.18-1.18,1.57-1.66h0Z"/><path class="cls-2" d="M10.51,6.37A6.21,6.21,0,0,1,10,8.74a3.54,3.54,0,0,1-3.33,1.47,10.11,10.11,0,0,0-1.84,0L4.24,13.1H2.09l1-4.76H6.24l-.14,1L8.54,7.27,6.71,5l-.11.76h-3l.18-.85S3.69,4.45,5,4.4s2.47,0,2.47,0S10.6,4.08,10.51,6.37Z"/><path class="cls-3" d="M21.06,4.79c.75-.63,1.24-1.07,1.75-1.49.21-.17.13-.29,0-.44a4.54,4.54,0,0,0-.6-.7C22,2,22,1.28,21.47,2c-.28.38-1.26.12-1.93.07-.15,0-.12-.21-.07-.32s0-.61.42-.66a8.15,8.15,0,0,1,3.37.06,1.44,1.44,0,0,1,1,1.93,2.51,2.51,0,0,1-2.78,2.22c-1.31,0-1.36,0-1.6,1.35-.13.76-.54.81-1.13.77-.34,0-.44-.13-.36-.48.19-.85.37-1.71.51-2.57.06-.34.23-.41.52-.41s.83,0,1.24,0S21.42,4,21.06,4.79Z"/><path class="cls-3" d="M30.56,7.65c-2.3,0-2.77-.59-2.3-2.85a2.73,2.73,0,0,1,4-1.79c.24.14.2.34.17.53-.26,1.49-.51,3-.82,4.47a1.46,1.46,0,0,1-1.41,1.22,4.61,4.61,0,0,1-2-.21c-.31-.11-.35-.31-.3-.6s.3-.25.52-.21a8.59,8.59,0,0,0,1.07.15C30,8.38,30.43,8.3,30.56,7.65Zm-.43-.92c.41.07.66-.13.72-.65s.21-1.21.3-1.82c0-.18.13-.39-.18-.5a1.14,1.14,0,0,0-1.49.72,9,9,0,0,0-.25,1.28C29.13,6.46,29.37,6.73,30.14,6.73Z"/><path class="cls-3" d="M34.32,7.66a1.54,1.54,0,0,1-1.71-1.58,4.52,4.52,0,0,1,.49-2.16,2.31,2.31,0,0,1,2.82-1,1.24,1.24,0,0,1,.68.6,3.56,3.56,0,0,1-.3,3A2,2,0,0,1,34.32,7.66Zm1.35-3c0-.39,0-.74-.46-.86a.89.89,0,0,0-1.06.42,3.54,3.54,0,0,0-.38,1.39c-.07.44-.06.85.44,1a.9.9,0,0,0,1.13-.54A4.65,4.65,0,0,0,35.67,4.69Z"/><path class="cls-3" d="M25.63,7.64a5.76,5.76,0,0,1-.62,0c-.65-.07-1.22-.25-1.28-1a1.47,1.47,0,0,1,1.09-1.71A5.34,5.34,0,0,1,26,4.77c.34,0,.53-.07.55-.44s-.18-.58-.55-.56-.66.11-1,.12-.49.29-.56-.11-.05-.62.29-.73A3.33,3.33,0,0,1,27.13,3a1.07,1.07,0,0,1,.62,1.28q-.2,1.41-.48,2.81c-.13.67-.74.48-1.19.58a3,3,0,0,1-.46,0Zm-.15-.84c.95.11.77-.57.87-1s-.26-.28-.45-.29c-.52,0-1,.06-1,.73S25.28,6.75,25.47,6.79Z"/><path class="cls-3" d="M19.39,15.58a5.1,5.1,0,0,1-.77,0,1.28,1.28,0,0,1-1.2-1.64q.25-1.56.56-3.11a1.66,1.66,0,0,1,1.79-1.56c.54,0,1.08,0,1.62,0,.24,0,.53,0,.49.42s-.13.59-.55.57-.77,0-1.16,0A1.1,1.1,0,0,0,19,11.64c0,.28.21.25.38.25.49,0,1,0,1.47,0,.19,0,.54-.13.47.27s0,.67-.45.67H19.66a1,1,0,0,0-1.05,1.35c.06.3.25.36.5.37H20.5c.19,0,.47-.07.46.25s.08.61-.34.67l-1.22.15Z"/><path class="cls-3" d="M25,11.6a3,3,0,0,1,2.25-.85,1.83,1.83,0,0,1,1.34,2.64c-.14.24-.34.19-.53.19-.59,0-1.18,0-1.77,0-.23,0-.57-.13-.62.26a.62.62,0,0,0,.53.73,3.78,3.78,0,0,0,1.45-.1c.19,0,.47-.3.55.05a.7.7,0,0,1-.28.75,3.19,3.19,0,0,1-2.68,0,1.8,1.8,0,0,1-.62-2.13c.12-.54.26-1.07.39-1.61Zm1.71,1.22c.28-.21.86.28.88-.41,0-.46-.29-.68-.75-.66a.83.83,0,0,0-.9.77C25.9,13.07,26.43,12.62,26.68,12.82Z"/><path class="cls-3" d="M45.68,12.7a5.62,5.62,0,0,1-.35,1.55,2.24,2.24,0,0,1-2.88,1.23,1.27,1.27,0,0,1-.7-.58,3.33,3.33,0,0,1,.23-3,2,2,0,0,1,2-1.11C45.12,10.74,45.7,11.34,45.68,12.7Zm-1.91-1a.88.88,0,0,0-.84.62,6.55,6.55,0,0,0-.29,1.19c-.07.42-.07.85.43,1a.89.89,0,0,0,1.14-.52,3.72,3.72,0,0,0,.34-1.64C44.56,12,44.28,11.72,43.77,11.75Z"/><path class="cls-3" d="M25,11.59c-.92-.09-1.3.34-1.37,1.25a23.33,23.33,0,0,1-.48,2.81,1.44,1.44,0,0,1-1.93,1.23c-.22,0-.42-.09-.34-.38s0-.49.39-.45c.58.07.74-.25.82-.77.15-1,.37-2,.55-3,.06-.33.16-.7-.41-.67-.26,0-.36-.14-.33-.4s.13-.42.38-.38c.51.08.63-.17.73-.63A1.42,1.42,0,0,1,24.87,9.1c.22,0,.42.08.36.37s-.06.48-.4.46-.69,0-.77.45c0,.16-.13.46.15.4.77-.15.62.44.75.82Z"/><path class="cls-3" d="M42,10.91c-.64,1.4-1.25,2.8-1.94,4.17a1.11,1.11,0,0,1-1.36.47c-.48-.12-.57-.52-.61-1-.09-1.08-.2-2.15-.32-3.23,0-.36,0-.6.44-.58s.69,0,.69.54c0,1.07.1,2.13.17,3.38a6.87,6.87,0,0,0,.89-1.82,8.47,8.47,0,0,0,.48-1.22C40.65,10.88,41.11,10.6,42,10.91Z"/><path class="cls-3" d="M35,10.33c-.17.4,0,.49.34.48s.45-.06.42.28-.05.64-.45.58c-.56-.08-.62.26-.68.66-.1.63-.22,1.27-.34,1.9-.06.31,0,.5.36.47s.48,0,.43.34-.09.47-.42.55c-1.06.24-1.66-.26-1.51-1.34.09-.69.21-1.37.34-2.05.06-.34.09-.61-.39-.6-.25,0-.46-.08-.41-.41a.4.4,0,0,1,.48-.38c.39,0,.6,0,.66-.51s.6-.41.94-.44S34.93,10.18,35,10.33Z"/><path class="cls-3" d="M30.65,15.6A1.51,1.51,0,0,1,29,13.86a7,7,0,0,1,.27-1.51,2.14,2.14,0,0,1,2.84-1.5c.38.12.55.31.46.73s-.37.28-.64.22c-1.07-.22-1.45,0-1.66,1.13,0,.15-.05.3-.08.46-.2,1.09.07,1.34,1.18,1.18.19,0,.53-.37.61.07a.63.63,0,0,1-.41.81A2.34,2.34,0,0,1,30.65,15.6Z"/><path class="cls-3" d="M36,15.54c-.5.09-.57-.17-.5-.58.23-1.24.45-2.48.65-3.72.1-.61.55-.43.9-.42.52,0,.26.4.22.63-.2,1.19-.43,2.38-.62,3.57C36.56,15.43,36.39,15.62,36,15.54Z"/><path class="cls-3" d="M37,10.23c-.36,0-.69.11-.64-.4s.17-.79.74-.7c.25,0,.62-.11.53.39S37.5,10.36,37,10.23Z"/></g></g></svg>