<svg xmlns="http://www.w3.org/2000/svg" xmlns:xlink="http://www.w3.org/1999/xlink" viewBox="0 0 24.24 24.24"><defs><style>.ico-body-white{fill:#07663a;}.ico-line-white{fill:#fff;}</style><symbol id="Nuevo_símbolo" data-name="Nuevo símbolo" viewBox="0 0 24.24 24.24"><rect class="ico-body-white" width="24.24" height="24.24" rx="12.12" ry="12.12"/><path class="ico-line-white" d="M14,8a.3.3,0,1,0,0-.61H9.87a.3.3,0,0,0,0,.61Z"/><path class="ico-line-white" d="M18.24,7.35H16.16a.3.3,0,1,0,0,.61h1.77V18.24H6.31V8H8a.3.3,0,1,0,0-.61H6a.3.3,0,0,0-.3.3V18.54a.3.3,0,0,0,.3.3H18.24a.3.3,0,0,0,.3-.3V7.65A.3.3,0,0,0,18.24,7.35Z"/><path class="ico-line-white" d="M15.07,8.64a.3.3,0,0,0,.3-.3V6.12c0-1.39-1.5-2.52-3.36-2.52S8.68,4.72,8.68,6.12V8.33a.3.3,0,0,0,.61,0V6.12C9.28,5.06,10.51,4.2,12,4.2s2.74.86,2.74,1.91V8.33A.3.3,0,0,0,15.07,8.64Z"/><path class="ico-line-white" d="M8.2,9.12a.78.78,0,0,0,1.57,0,.3.3,0,0,0-.61,0,.17.17,0,0,1-.35,0,.3.3,0,1,0-.61,0Z"/><path class="ico-line-white" d="M15.07,9.9a.78.78,0,0,0,.78-.78.3.3,0,0,0-.61,0,.17.17,0,0,1-.35,0,.3.3,0,0,0-.61,0A.78.78,0,0,0,15.07,9.9Z"/><path class="ico-line-white" d="M10.81,16.08a2,2,0,0,1-2-1.15l.74-.38a1.34,1.34,0,0,0,1.32.74c.56,0,1.08-.19,1.08-.7s-.46-.62-1.09-.69c-1-.11-1.85-.37-1.85-1.42s1-1.36,1.82-1.37a1.9,1.9,0,0,1,1.85.93l-.7.36a1.35,1.35,0,0,0-1.11-.52c-.66,0-1,.28-1,.62s.48.52,1,.59c1,.12,1.89.38,1.89,1.5S11.85,16.08,10.81,16.08Zm2.88.34H13l1.79-4.57h.69Z"/></symbol></defs><title>premios</title><g id="Layer_2" data-name="Layer 2"><g id="Capa_2" data-name="Capa 2"><use width="24.24" height="24.24" xlink:href="#Nuevo_símbolo"/></g></g></svg>