<svg xmlns="http://www.w3.org/2000/svg" viewBox="0 0 24.24 24.24"><defs><style>.cls-1{fill:#e98631;}.cls-2{fill:#fff;}</style></defs><title>Recurso 11</title><g id="Capa_2" data-name="Capa 2"><g id="Capa_2-2" data-name="Capa 2"><rect class="cls-1" width="24.24" height="24.24" rx="12.12" ry="12.12"/><path class="cls-2" d="M9.5,16.72c-1.79,0-3.18-.55-3.83-2.16l1.38-.72a2.5,2.5,0,0,0,2.47,1.39c1,0,2-.36,2-1.32s-.87-1.17-2-1.29c-1.79-.21-3.45-.69-3.45-2.66,0-1.81,1.78-2.55,3.4-2.56a3.55,3.55,0,0,1,3.45,1.74l-1.32.68a2.52,2.52,0,0,0-2.08-1c-1.23,0-1.82.51-1.82,1.17s.9,1,2,1.1c1.83.23,3.54.7,3.54,2.8S11.46,16.72,9.5,16.72Zm5.38.65H13.6L17,8.81h1.29Z"/></g></g></svg>