<svg xmlns="http://www.w3.org/2000/svg" viewBox="0 0 24.24 24.24"><defs><style>.cls-1{fill:#e98631;}.cls-2{fill:#fff;}</style></defs><title>Recurso 9</title><g id="Capa_2" data-name="Capa 2"><g id="Capa_2-2" data-name="Capa 2"><rect class="cls-1" width="24.24" height="24.24" rx="12.12" ry="12.12"/><path class="cls-2" d="M18.35,10.85a.49.49,0,0,0-.27-.84l-3.55-.52a.49.49,0,0,1-.37-.27L12.56,6a.49.49,0,0,0-.89,0L10.09,9.22a.49.49,0,0,1-.37.27L6.17,10a.49.49,0,0,0-.27.84l2.57,2.51a.49.49,0,0,1,.14.44L8,17.33a.49.49,0,0,0,.72.52l3.18-1.67a.49.49,0,0,1,.46,0l3.18,1.67a.49.49,0,0,0,.72-.52l-.61-3.54a.49.49,0,0,1,.14-.44Zm-3.28,3,.58,3.38-3-1.59a1.07,1.07,0,0,0-1,0l-3,1.59.58-3.38a1.07,1.07,0,0,0-.31-.95L6.41,10.55l3.39-.49a1.07,1.07,0,0,0,.81-.59L12.12,6.4l1.52,3.07a1.07,1.07,0,0,0,.81.58l3.39.49-2.45,2.39A1.07,1.07,0,0,0,15.07,13.89Z"/></g></g></svg>