<svg xmlns="http://www.w3.org/2000/svg" viewBox="0 0 24.24 24.24"><defs><style>.cls-1{fill:#fff;}.cls-2{fill:#d88020;}</style></defs><title>Recurso 2</title><g id="Capa_2" data-name="Capa 2"><g id="Capa_1-2" data-name="Capa 1"><rect class="cls-1" width="24.24" height="24.24" rx="12.12" ry="12.12"/><path class="cls-2" d="M12.08,12.59h.08a2.29,2.29,0,0,0,1.75-.76,4.54,4.54,0,0,0,.78-3.1,2.53,2.53,0,0,0-1.2-2.25,2.76,2.76,0,0,0-1.33-.35h0a2.76,2.76,0,0,0-1.33.34A2.53,2.53,0,0,0,9.55,8.73a4.54,4.54,0,0,0,.78,3.1,2.28,2.28,0,0,0,1.75.76ZM10.21,8.79h0a1.81,1.81,0,0,1,1.89-2h0a1.81,1.81,0,0,1,1.89,2,0,0,0,0,0,0,0,3.93,3.93,0,0,1-.61,2.59,1.63,1.63,0,0,1-1.28.53h0a1.62,1.62,0,0,1-1.28-.53,4,4,0,0,1-.62-2.59Zm0,0"/><path class="cls-2" d="M17.22,15.65h0s0,0,0-.06a2,2,0,0,0-1.12-2h0A7.16,7.16,0,0,1,14,12.63a.33.33,0,0,0-.38.55,7.73,7.73,0,0,0,2.27,1c.58.21.64.82.66,1.39a.49.49,0,0,0,0,.06,4.52,4.52,0,0,1-.05.77,9.13,9.13,0,0,1-4.37,1,9.18,9.18,0,0,1-4.38-1,4.26,4.26,0,0,1-.05-.77s0,0,0-.06c0-.57.08-1.18.66-1.39a7.79,7.79,0,0,0,2.27-1,.33.33,0,1,0-.38-.55,7.08,7.08,0,0,1-2.06.94h0a2,2,0,0,0-1.12,2,.5.5,0,0,1,0,.06H7a3.8,3.8,0,0,0,.13,1.12.32.32,0,0,0,.13.16,9.38,9.38,0,0,0,4.84,1.19A9.41,9.41,0,0,0,17,16.93a.33.33,0,0,0,.13-.16,4,4,0,0,0,.12-1.12Zm0,0"/></g></g></svg>