<svg xmlns="http://www.w3.org/2000/svg" viewBox="0 0 47.24 19.76"><defs><style>.cls-1{fill:gray;}</style></defs><title>youtube</title><g id="Layer_2" data-name="Layer 2"><g id="Capa_1" data-name="Capa 1"><path class="cls-1" d="M33.63,19.76c-3.24-.11-6.57-.2-9.89-.36a8.3,8.3,0,0,1-2.28-.49,2.8,2.8,0,0,1-1.6-1.63,11.52,11.52,0,0,1-.72-4.05,48.16,48.16,0,0,1,.19-8.79,7.84,7.84,0,0,1,.6-2.16A3.3,3.3,0,0,1,23,.29C25.75.15,28.49,0,31.24,0c3.62,0,7.25.11,10.87.19a9.9,9.9,0,0,1,1.82.19,3.35,3.35,0,0,1,2.54,2.09,9.82,9.82,0,0,1,.62,3.17,50.79,50.79,0,0,1-.16,9.77,7.08,7.08,0,0,1-.51,1.85A3.55,3.55,0,0,1,43,19.4C39.89,19.53,36.81,19.64,33.63,19.76ZM35.16,3.33H33.48V15.9h1.67l0-.76a9.05,9.05,0,0,0,.89.67,1.5,1.5,0,0,0,2.35-1.09,6.55,6.55,0,0,0,.11-1.12c0-1.55,0-3.11,0-4.66a5.93,5.93,0,0,0-.21-1.48,1.4,1.4,0,0,0-2.11-.93,8.57,8.57,0,0,0-1,.74ZM30.25,6.52V7c0,2,0,4,0,6.07a1.23,1.23,0,0,1-.51,1.09c-.18.14-.48.28-.65.21s-.25-.4-.25-.62c0-2.26,0-4.52,0-6.78V6.54H27c0,2.66,0,5.28,0,7.9a2.61,2.61,0,0,0,.08.56,1.23,1.23,0,0,0,1.86.93,5.72,5.72,0,0,0,.92-.64c.1-.08.19-.17.35-.32v.94H32V6.52Zm14.71,5a30.81,30.81,0,0,0-.3-3.38,2.23,2.23,0,0,0-2.37-1.75,2.37,2.37,0,0,0-2.43,1.76,5.1,5.1,0,0,0-.18,1.25c0,1.24,0,2.48,0,3.72a4.8,4.8,0,0,0,.1.93,2.45,2.45,0,0,0,2.42,2,2.29,2.29,0,0,0,2.48-1.6,11.1,11.1,0,0,0,.23-1.79H43c0,.39,0,.76,0,1.11a.72.72,0,0,1-.69.71.67.67,0,0,1-.78-.6c-.08-.78-.1-1.58-.14-2.4ZM27.3,5.08V3.33H21.42V5.09h2V15.88h1.9V5.08Z"/><path class="cls-1" d="M12.65,6.41h1.77v.5c0,2.29,0,4.58,0,6.87,0,.22.12.6.24.62a1,1,0,0,0,.7-.23,1.2,1.2,0,0,0,.48-1.05c0-2.06,0-4.11,0-6.17V6.43h1.75v9.46H15.85V15c-.19.17-.3.29-.42.38a5.17,5.17,0,0,1-.89.6A1.23,1.23,0,0,1,12.72,15a3.27,3.27,0,0,1-.09-.7q0-3.81,0-7.63C12.63,6.6,12.64,6.53,12.65,6.41Z"/><path class="cls-1" d="M0,3.2c.6,0,1.13,0,1.66,0,.28,0,.37.11.43.36.33,1.29.68,2.57,1,3.86a1,1,0,0,0,.24.46L4.15,5c.13-.48.24-1,.4-1.45a.51.51,0,0,1,.36-.29c.55,0,1.1,0,1.69,0,0,.18-.08.32-.12.47-.7,2.23-1.4,4.45-2.09,6.68a3.11,3.11,0,0,0-.13.87c0,1.4,0,2.79,0,4.19v.48H2.4c0-.11,0-.23,0-.34a10.4,10.4,0,0,1,0-1.18A17.41,17.41,0,0,0,1.11,6.71C.71,5.57.38,4.41,0,3.2Z"/><path class="cls-1" d="M6.18,11.22c0-1,0-1.88.14-2.8a2.25,2.25,0,0,1,2.44-2.1A2.23,2.23,0,0,1,11.2,8.43c.14,1.56.09,3.13.1,4.69a5,5,0,0,1-.09.93,2.41,2.41,0,0,1-2.45,2,2.37,2.37,0,0,1-2.44-2C6.2,13.11,6.23,12.15,6.18,11.22Zm3.34,0c0-.75,0-1.5,0-2.26a1.13,1.13,0,0,0-.12-.63A1,1,0,0,0,8.77,8a1.08,1.08,0,0,0-.63.37A.76.76,0,0,0,8,8.86q0,2.37,0,4.75a.78.78,0,0,0,.13.49c.16.17.39.38.59.37a1,1,0,0,0,.64-.37,1.08,1.08,0,0,0,.14-.63C9.53,12.73,9.52,12,9.52,11.26Z"/><path class="cls-1" d="M35.15,11.19c0-.83,0-1.66,0-2.5A.82.82,0,0,1,36,7.93a.62.62,0,0,1,.7.6,2.77,2.77,0,0,1,0,.42q0,2.19,0,4.38a3.06,3.06,0,0,1-.07.56.63.63,0,0,1-.72.59.8.8,0,0,1-.8-.79C35.15,12.86,35.15,12,35.15,11.19Z"/><path class="cls-1" d="M41.44,10.05c0-.53,0-1,.09-1.55s.34-.57.73-.58.69.16.73.57.06,1,.1,1.56Z"/></g></g></svg>