<?xml version="1.0" encoding="utf-8"?>
<!-- Generator: Adobe Illustrator 16.0.0, SVG Export Plug-In . SVG Version: 6.00 Build 0)  -->
<!DOCTYPE svg PUBLIC "-//W3C//DTD SVG 1.1//EN" "http://www.w3.org/Graphics/SVG/1.1/DTD/svg11.dtd">
<svg version="1.1" id="gana_diario" xmlns="http://www.w3.org/2000/svg" xmlns:xlink="http://www.w3.org/1999/xlink" x="0px"
	 y="0px" width="300px" height="300px" viewBox="0 0 300 300" enable-background="new 0 0 300 300" xml:space="preserve">
<g>
	<g id="borde">
		<path fill="#FFFFFF" d="M262.3,125.5c-5.5-10.1-13.6-19.4-24.2-27.6c-10.4-8-22.7-14.7-36.6-19.6c-14.2-5.2-29.5-8.4-45.4-9.5
			c-4.5-0.3-9.1-0.5-13.5-0.5c-28.8,0-56,7-76.6,19.9c-21.5,13.4-34.2,32.1-35.8,52.8c-0.8,11.4,1.7,22.6,7.5,33.4
			c4.9,9.1,11.9,17.4,20.9,24.9l0.6,12.1c0.1,3.4,1.6,6.6,4.2,8.9l0.1,0.1c2.4,2.1,5.4,3.3,8.5,3.3c0.3,0,0.6,0,0.8-0.1
			c3-0.2,9.1-1.1,16.6-2.9c1.3-0.3,2.5-0.6,3.7-1c1.8,0.7,3.6,1.4,5.5,2.1c14.2,5.2,29.5,8.4,45.4,9.5c4.5,0.3,9.1,0.5,13.5,0.5
			c28.8,0,56-7,76.6-19.9c21.5-13.4,34.2-32.2,35.8-52.8C270.7,147.5,268.1,136.3,262.3,125.5z"/>
	</g>
	<path fill="#0092D7" d="M263.2,158.3c-3.1,41.2-56.3,70.7-118.8,66.1c-62.5-4.7-110.7-41.9-107.6-83.1s56.3-70.7,118.8-66.1
		C218.1,80,266.3,117.1,263.2,158.3"/>
	<path fill="#552988" d="M258.5,135.3c-3.3-14.1-16.8-21.5-31.9-17.8c-8.4,2.2-15.5,6.8-20.3,13.3c-3-2.6-7.2-3.6-11.8-2.4
		c-3.8,1-7.1,3.3-9.1,6.5c-1,1.6-1.6,3.3-1.8,5.2c-1.8,0.6-3.4,1.5-4.9,2.8c-1-0.3-2.2-0.3-3.2-0.1l-5.7,1.5c0-0.3,0-0.6,0-0.6
		c-0.1-1.9-1-3.6-2.5-4.7c0.8,0.1,1.5,0.1,2.2-0.1l9.3-2.4c1.7-0.4,3.1-1.5,4-3c0.8-1.5,1.1-3.3,0.6-4.9c-1-3.5-1.7-9.3-1.9-12.8
		c0,0.1-0.7-16.4-0.7-16.4c-0.1-3.1-2.6-5.6-5.8-5.9c-3.1-0.2-8.2,0-13.1,1.3c-11.1,2.8-16.9,8.9-19.7,13.5
		c-0.8,1.4-1.5,2.8-2.1,4.3c-2.3-0.8-5-0.9-7.7-0.2c-2.2,0.6-4,1.5-5.8,2.6c-0.8-0.1-1.6-0.1-2.4,0.1l-3.4,0.8
		c-0.2-3.1-2.6-5.5-5.7-5.7c-2.6-0.1-6.8,0.1-10.7,1c-6.1,1.5-10.2,4.3-13,7.1l0.4-4.3c0.1-0.3,0.1-0.6,0.1-0.8
		c-0.1-2.9-2-5.3-4.9-5.9c-3.5-0.8-9.5-0.3-15.1,1.1c-8.9,2.2-16.2,6.7-21,12.8c-5.6,7.2-7.6,16.1-5.5,25.1
		c1.7,7.3,6.1,12.9,12.2,15.6c2,0.9,4,1.5,6.3,1.8l2,46.8c0.1,1.7,0.8,3.2,2,4.3s2.9,1.7,4.5,1.5c2.9-0.1,8.9-1.1,15.4-2.8
		c12.2-3.1,20.3-7.5,25.9-14.4c0.3,1.5,1.1,2.8,2.4,3.7c1.5,1.1,3.4,1.5,5.2,1l9.8-2.4c2.9-0.8,5-3.5,4.8-6.5l-0.4-8.3
		c3.5,1.9,7.6,2.4,11.9,1.3c2.8-0.7,5.3-2,7.4-3.7c1.1,0.3,2.3,0.4,3.5,0.1l6.4-1.6c0.2,1.6,1.1,3,2.4,4c1.5,1.1,3.4,1.5,5.2,1
		l9.8-2.4c2.9-0.7,5-3.4,4.8-6.5l1.1,1.4c0.1,1.9,1,3.6,2.4,4.7c1.5,1.1,3.4,1.5,5.2,1l9.8-2.4c2.9-0.7,5-3.5,4.8-6.6l-0.2-4.3
		c5.9,4.4,13.9,5.9,22.6,3.6h0.1c9.6-2.4,17.5-8,22.2-15.6C259.4,153.5,260.7,144.5,258.5,135.3 M95.7,177.2
		c0.3,1.2,0.4,2.4,0.5,3.4c0.1,2.3-0.4,4.4-1.5,6.1c-1.1,1.9-3.2,3.5-6,4.6c-0.3-6.6-0.6-13-0.8-17.8C93.9,172,94.9,174,95.7,177.2
		 M232,145.6c0.1,2.4-0.4,5-1.3,6.6c-0.6,1-1.1,1.2-1.4,1.2l-0.1,0.1c-0.4,0.1-0.6,0.1-0.6,0.1c-0.1-0.1-0.6-0.6-0.9-1.8
		c-0.2-0.9-0.3-2-0.3-3.1c-0.1-2.4,0.3-4.9,1.3-6.6c0.6-0.9,1-1.1,1.5-1.3c0.3-0.1,0.5-0.1,0.6-0.1c0.1,0.1,0.6,0.6,0.9,2
		C231.8,143.5,231.9,144.5,232,145.6"/>
	<path fill="#44196F" d="M87.5,153.5c-3.1,2-8.3,4.7-13.9,6.1c-5.6,1.4-10.9,1.3-15.3-0.7c-4.2-1.9-7.5-5.9-8.8-11.5
		c-1.8-7.4-0.1-14.3,4.2-19.6c4-5,10.1-8.6,17.6-10.6c5.7-1.4,10.4-1.5,12.3-1l-0.9,8.5c-2.2-0.4-5.9-0.4-9.9,0.6
		c-4.1,1-7.6,3.1-9.9,5.7c-2.9,3.4-4.2,8.2-3.1,13.1c1.7,6.9,7,9,13.6,7.3c2.2-0.6,3.6-1.2,4.4-1.9l-0.3-7.8l-6.6,1.7l-0.3-7.8
		l15.8-4L87.5,153.5z"/>
	<path fill="#44196F" d="M107.6,144.8c-0.3-1.4-0.6-3.1-0.8-4.7h-0.1c-1.3,4.5-4.3,6.6-7.1,7.3c-4.5,1.1-8.6-1.4-9.8-6.6
		c-2-8.1,1.7-17.7,14.1-20.8c3.1-0.8,6.5-1,8.7-0.8l0.6,12.8c0.1,3.1,0.8,7.9,1.6,11L107.6,144.8z M105,126
		c-0.6,0.1-1.2,0.1-1.9,0.3c-4.4,1.1-6.6,6.8-5.6,11c0.6,2.4,2,3.6,3.8,3.1c2-0.6,4.2-3.1,3.8-9.5L105,126z"/>
	<path fill="#44196F" d="M118.2,150.3l-0.8-16.6c-0.1-3.3-0.3-6-0.6-8.2l6.8-1.7l0.5,4.1l0.1-0.1c1.6-3.8,4.4-5.9,7.6-6.8
		c4.2-1,7.1,0.9,8.1,5.1c0.2,1,0.5,2.9,0.6,4l0.6,14.3l-7.7,2l-0.6-13.2c-0.1-0.8-0.1-1.9-0.3-2.7c-0.4-1.7-1.2-2.7-3.1-2.2
		c-2.4,0.6-4.3,4.2-4,9.8l0.5,10.4L118.2,150.3z"/>
	<path fill="#44196F" d="M166.2,135.3c-0.3-1.8-0.6-3.9-1-6l-0.1,0.1c-1.7,5.8-5.5,8.4-9.1,9.3c-5.7,1.4-11-1.8-12.6-8.5
		c-2.4-10.4,2.3-22.6,18.1-26.6c3.9-1,8.3-1.3,11.2-1.1l0.7,16.4c0.1,3.9,1,10.1,2.1,14.1L166.2,135.3z M162.9,111.3
		c-0.7,0.1-1.5,0.1-2.4,0.3c-5.6,1.4-8.4,8.6-7.1,14.1c0.7,3.1,2.6,4.5,4.9,3.9c2.6-0.6,5.4-4,4.9-12.1L162.9,111.3z"/>
	<path fill="#FFE600" d="M89.5,150c-3.1,2-8.3,4.7-13.9,6.1c-5.6,1.4-10.9,1.3-15.3-0.6c-4.2-1.9-7.5-5.9-8.8-11.5
		c-1.7-7.4,0-14.3,4.3-19.6c3.9-5,10.1-8.7,17.6-10.6c5.6-1.4,10.4-1.5,12.3-1.1l-0.9,8.5c-2.2-0.3-5.9-0.3-9.9,0.6
		c-4.1,1-7.7,3.1-10,5.6c-2.9,3.3-4.3,8.2-3.1,13.1c1.7,6.9,7,9,13.6,7.3c2.2-0.6,3.6-1.2,4.4-1.9l-0.3-7.8l-6.6,1.7l-0.3-7.8
		l15.8-4L89.5,150z"/>
	<path fill="#FFE600" d="M109.6,141.3c-0.2-1.4-0.6-3.1-0.8-4.7h-0.1c-1.4,4.5-4.3,6.6-7.1,7.3c-4.5,1.1-8.6-1.4-9.8-6.6
		c-2-8.1,1.7-17.7,14.1-20.8c3.1-0.8,6.5-1,8.8-0.8l0.6,12.8c0.1,3.1,0.8,7.9,1.6,11L109.6,141.3z M107,122.5
		c-0.6,0.1-1.2,0.1-1.9,0.2c-4.4,1.1-6.5,6.8-5.5,11c0.6,2.4,2,3.6,3.8,3.1c2-0.5,4.2-3.1,3.8-9.5L107,122.5z"/>
	<path fill="#FFE600" d="M120.1,146.8l-0.8-16.6c-0.1-3.3-0.3-6.1-0.6-8.2l6.9-1.7l0.5,4.1l0.1-0.1c1.7-3.8,4.4-5.9,7.6-6.8
		c4.2-1,7.1,0.9,8.1,5.1c0.2,1,0.5,2.9,0.6,4l0.6,14.3l-7.7,2l-0.6-13.2c-0.1-0.8-0.2-1.9-0.3-2.7c-0.4-1.7-1.3-2.6-3.1-2.2
		c-2.4,0.6-4.3,4.2-4,9.8l0.5,10.4L120.1,146.8z"/>
	<path fill="#FFE600" d="M168.2,131.9c-0.3-1.8-0.6-3.9-1-6l-0.1,0.1c-1.7,5.8-5.5,8.4-9.1,9.3c-5.7,1.4-11-1.8-12.5-8.5
		c-2.5-10.4,2.2-22.6,18-26.7c3.9-1,8.3-1.3,11.2-1l0.7,16.4c0.1,3.9,1,10.2,2.1,14.1L168.2,131.9z M164.9,107.9
		c-0.8,0.1-1.6,0.1-2.4,0.3c-5.6,1.4-8.4,8.6-7.1,14.1c0.7,3,2.6,4.5,4.9,3.9c2.5-0.6,5.4-4,4.9-12.1L164.9,107.9z"/>
	<path fill="#44196F" d="M68.2,165.8c4.3-1.9,8.7-3.3,13.4-4.5c7.9-2,14.4-2.4,19.5-0.3c5.3,2,9.3,6.1,11,13.5
		c2,8.2,0.3,16.9-4.5,23c-4.8,6-11.8,9.9-23,12.8c-6.5,1.7-12,2.4-14.3,2.6L68.2,165.8z M81,201.7c1.2-0.1,2.6-0.4,4.6-0.9
		c5.6-1.4,10.3-4.4,12.7-8.4s3-8.9,1.7-14.3c-2-8.1-7.5-10.2-15.7-8.2c-2.2,0.6-3.6,1-4.6,1.5L81,201.7z"/>
	<polygon fill="#44196F" points="118.1,200.5 127.7,198 126.5,171.3 116.7,173.8 	"/>
	<path fill="#44196F" d="M119.7,154.8c-4,1-7,4.7-5.9,9.3c0.9,3.9,4.4,5.6,7.9,4.7l0.1-0.1c4.3-1.1,7.3-4.7,6.2-9.3
		C127,155.5,123.5,154,119.7,154.8"/>
	<polygon fill="#44196F" points="192.5,182.7 202.2,180.2 200.9,153.5 191.2,155.8 	"/>
	<path fill="#44196F" d="M194.1,137c-4,1-7,4.7-5.9,9.3c0.9,3.9,4.4,5.5,7.9,4.7l0.1-0.1c4.3-1.1,7.3-4.7,6.2-9.3
		C201.5,137.5,197.9,136,194.1,137"/>
	<path fill="#44196F" d="M155,181.2c-0.3-1.9-0.7-4.1-1.1-6.3l-0.1,0.1c-1.8,6.1-5.8,8.9-9.6,9.8c-6.1,1.5-11.6-1.9-13.2-8.9
		c-2.6-10.9,2.4-23.8,19-28c4.1-1,8.7-1.3,11.8-1.1l0.8,17.3c0.2,4.1,1,10.7,2.2,14.8L155,181.2z M151.4,155.8
		c-0.8,0.1-1.6,0.1-2.6,0.3c-5.9,1.5-8.8,9.1-7.5,14.8c0.8,3.1,2.8,4.7,5.2,4.1c2.6-0.6,5.6-4.3,5.2-12.8L151.4,155.8z"/>
	<path fill="#44196F" d="M169.1,184.5l-0.8-17.7c-0.2-5.1-1.2-10.8-1.5-13.3l8.4-2.1c0.3,2.1,0.7,4.3,1,6.4l0.2-0.1
		c1.2-4.5,3.9-8.4,8.5-9.5c0.6-0.1,1.2-0.3,1.8-0.4l0.3,9.8c-0.4,0.1-0.9,0.1-1.3,0.3c-6.4,1.6-7.5,7.5-7.2,13.5L179,182
		L169.1,184.5z"/>
	<path fill="#44196F" d="M229.5,173c-11,2.8-21.5-1.5-24.3-13.5c-3.6-15,4.8-29.4,21-33.5c11.8-2.9,21.8,2.4,24.4,13.2
		c3.9,16.5-5.6,29.8-21,33.7L229.5,173L229.5,173z M228.9,162c7.1-1.8,8.6-11.8,7-18.5c-1-4.1-3.8-7.7-9-6.4
		c-7.7,2-8.6,12.7-7.2,18.6C221,160.8,224.6,163,228.9,162L228.9,162L228.9,162z"/>
	<path fill="#FFE600" d="M70.2,162.3c4.3-1.9,8.7-3.3,13.4-4.5c7.8-2,14.4-2.4,19.5-0.3c5.2,2,9.2,6.1,11,13.5
		c2,8.2,0.3,16.9-4.5,23c-4.8,5.9-11.8,9.9-23,12.8c-6.6,1.6-12,2.4-14.3,2.6L70.2,162.3z M83,198.3c1.2-0.1,2.6-0.4,4.6-0.9
		c5.6-1.4,10.3-4.4,12.7-8.4s3.1-8.9,1.8-14.3c-2-8-7.5-10.2-15.7-8.2c-2.2,0.6-3.6,1-4.6,1.5L83,198.3z"/>
	<polygon fill="#FFE600" points="120,197.2 129.8,194.7 128.4,168 118.7,170.3 	"/>
	<path fill="#FFE600" d="M121.7,151.3c-4,1-7,4.7-6,9.3c0.9,3.9,4.5,5.6,7.9,4.7l0.1-0.1c4.3-1,7.3-4.7,6.2-9.3
		C129,152,125.4,150.5,121.7,151.3"/>
	<polygon fill="#FFE600" points="194.4,179.2 204.2,176.7 202.9,150 193.2,152.3 	"/>
	<path fill="#FFE600" d="M196.1,133.5c-4,1-7,4.7-5.9,9.3c0.9,3.9,4.4,5.6,7.9,4.7h0.1c4.3-1,7.2-4.6,6.2-9.3
		C203.4,134.1,199.9,132.5,196.1,133.5"/>
	<path fill="#FFE600" d="M156.9,177.7c-0.3-1.9-0.7-4.1-1.1-6.3l-0.1,0.1c-1.8,6.1-5.8,8.8-9.6,9.8c-6.1,1.5-11.6-1.9-13.2-8.9
		c-2.6-10.9,2.4-23.8,19-28c4.1-1,8.8-1.3,11.8-1.1l0.8,17.3c0.2,4.1,1,10.7,2.2,14.8L156.9,177.7z M153.5,152.5
		c-0.8,0.1-1.6,0.1-2.6,0.3c-5.9,1.5-8.9,9.1-7.5,14.8c0.8,3.1,2.8,4.7,5.2,4.1c2.6-0.6,5.6-4.3,5.2-12.8L153.5,152.5z"/>
	<path fill="#FFE600" d="M171,181l-0.8-17.7c-0.3-5.1-1.3-10.8-1.5-13.3l8.4-2.1c0.3,2.1,0.7,4.3,1,6.4l0.2-0.1
		c1.2-4.5,4-8.4,8.5-9.5c0.6-0.1,1.2-0.3,1.8-0.4l0.3,9.8c-0.4,0.1-0.9,0.1-1.4,0.3c-6.4,1.6-7.5,7.4-7.2,13.5l0.5,10.6L171,181z"/>
	<path fill="#FFE600" d="M231.4,169.5c-11,2.8-21.4-1.5-24.2-13.5c-3.6-15,4.8-29.4,21-33.5c11.8-2.9,21.8,2.4,24.4,13.2
		c4,16.6-5.6,29.9-21,33.7L231.4,169.5z M230.9,158.5c7-1.8,8.6-11.8,7-18.5c-1-4.1-3.8-7.7-9.1-6.4c-7.7,2-8.6,12.7-7.2,18.6
		c1.2,5.2,4.8,7.4,9.1,6.3H230.9L230.9,158.5z"/>
</g>
</svg>
