<?xml version="1.0" encoding="utf-8"?>
<!-- Generator: Adobe Illustrator 21.0.0, SVG Export Plug-In . SVG Version: 6.00 Build 0)  -->
<svg version="1.1" id="Capa_1" xmlns="http://www.w3.org/2000/svg" xmlns:xlink="http://www.w3.org/1999/xlink" x="0px" y="0px"
	 viewBox="0 0 82 82" style="enable-background:new 0 0 82 82;" xml:space="preserve">
<style type="text/css">
	.st0{fill:#FDD900;}
	.st1{fill:#E13127;}
	.st2{fill:url(#SVGID_1_);}
	.st3{fill:#C5C6C6;}
	.st4{fill:#8C8E8D;}
	.st5{fill:url(#SVGID_2_);}
	.st6{fill:url(#SVGID_3_);}
	.st7{fill:url(#SVGID_4_);}
	.st8{fill:url(#SVGID_5_);}
	.st9{fill:url(#SVGID_6_);}
	.st10{fill:url(#SVGID_7_);}
	.st11{fill:url(#SVGID_8_);}
	.st12{fill:url(#SVGID_9_);}
	.st13{fill:url(#SVGID_10_);}
	.st14{fill:url(#SVGID_11_);}
	.st15{fill:url(#SVGID_12_);}
	.st16{fill:url(#SVGID_13_);}
	.st17{fill:#080A0B;}
	.st18{fill:url(#SVGID_14_);}
	.st19{fill:url(#SVGID_15_);}
	.st20{fill:url(#SVGID_16_);}
	.st21{fill:url(#SVGID_17_);}
	.st22{fill:url(#SVGID_18_);}
	.st23{fill:url(#SVGID_19_);}
	.st24{fill:url(#SVGID_20_);}
	.st25{fill:url(#SVGID_21_);}
	.st26{fill:url(#SVGID_22_);}
	.st27{fill:url(#SVGID_23_);}
	.st28{fill:url(#SVGID_24_);}
	.st29{fill:url(#SVGID_25_);}
	.st30{fill:url(#SVGID_26_);}
	.st31{fill:url(#SVGID_27_);}
	.st32{fill:url(#SVGID_28_);}
	.st33{fill:url(#SVGID_29_);}
	.st34{fill:url(#SVGID_30_);}
	.st35{fill:url(#SVGID_31_);}
	.st36{fill:url(#SVGID_32_);}
	.st37{fill:#FFFFFF;}
	.st38{fill:url(#SVGID_33_);}
	.st39{fill:#BEC1C1;}
	.st40{fill:#C7C9C7;}
	.st41{fill:#F4F6F7;}
	.st42{fill:#E3E5E5;}
	.st43{fill:#E9E9EB;}
	.st44{fill:#E7E9EA;}
	.st45{fill:#A7ABAC;}
	.st46{fill:#ADB0B1;}
	.st47{fill:#C7CAC8;}
	.st48{fill:#F1F1F1;}
	.st49{fill:#AEB0B2;}
	.st50{fill:#CED1D3;}
	.st51{fill:#A2A4A5;}
	.st52{fill:#CBCDCD;}
	.st53{fill:#4A4B4B;}
	.st54{fill:#B8B9B8;}
</style>
<g>
	<path class="st0" d="M72.1,41c0,2.5-0.9,4.7-2.8,6.6c-1.8,1.8-4,2.7-6.6,2.7s-4.8-0.9-6.6-2.7c-1.8-1.8-2.7-4-2.7-6.6
		c0-2.6,0.9-4.7,2.7-6.6c1.8-1.8,4-2.7,6.6-2.7s4.8,0.9,6.6,2.7C71.2,36.3,72.1,38.5,72.1,41z M68.6,41c0-1.6-0.6-2.9-1.7-4.1
		c-1.1-1.1-2.5-1.7-4.1-1.7s-3,0.6-4.1,1.7C57.6,38,57,39.5,57,41c0,1.6,0.6,3,1.7,4.1c1.1,1.1,2.5,1.7,4.1,1.7s3-0.6,4.1-1.7
		C68,44,68.6,42.6,68.6,41z"/>
	<path class="st0" d="M62.8,51.2c-2.8,0-5.2-1-7.2-3s-3-4.4-3-7.1c0-2.8,1-5.2,3-7.2s4.4-3,7.2-3s5.2,1,7.2,3s3,4.4,3,7.1
		c0,2.8-1,5.2-3,7.1C68,50.2,65.6,51.2,62.8,51.2L62.8,51.2z M62.8,32.5c-2.4,0-4.3,0.8-6,2.5s-2.5,3.6-2.5,6s0.8,4.3,2.5,6
		s3.6,2.5,6,2.5c2.4,0,4.3-0.8,6-2.5c1.7-1.7,2.5-3.6,2.5-6c0-2.3-0.8-4.3-2.5-6C67.1,33.5,65.1,32.5,62.8,32.5L62.8,32.5z
		 M62.8,47.8c-1.8,0-3.4-0.7-4.7-1.9c-1.3-1.3-1.9-2.9-1.9-4.7c0-1.8,0.7-3.4,1.9-4.7c1.3-1.3,2.9-2,4.7-2s3.4,0.7,4.7,2
		c1.3,1.3,2,2.9,2,4.7c0,1.8-0.7,3.4-2,4.7C66.2,47,64.6,47.8,62.8,47.8L62.8,47.8z M62.8,36.1c-1.4,0-2.5,0.5-3.5,1.5
		s-1.5,2.1-1.5,3.5c0,1.4,0.5,2.5,1.5,3.5s2.1,1.5,3.5,1.5c1.4,0,2.5-0.5,3.5-1.5s1.5-2.1,1.5-3.5c0-1.4-0.5-2.5-1.5-3.5
		C65.3,36.5,64.2,36.1,62.8,36.1L62.8,36.1z"/>
	<path class="st1" d="M72.1,41c0,2.5-0.9,4.7-2.8,6.6c-1.8,1.8-4,2.7-6.6,2.7s-4.8-0.9-6.6-2.7c-1.8-1.8-2.7-4-2.7-6.6
		c0-2.6,0.9-4.7,2.7-6.6c1.8-1.8,4-2.7,6.6-2.7s4.8,0.9,6.6,2.7C71.2,36.3,72.1,38.5,72.1,41z M68.6,41c0-1.6-0.6-2.9-1.7-4.1
		c-1.1-1.1-2.5-1.7-4.1-1.7s-3,0.6-4.1,1.7C57.6,38,57,39.5,57,41c0,1.6,0.6,3,1.7,4.1c1.1,1.1,2.5,1.7,4.1,1.7s3-0.6,4.1-1.7
		C68,44,68.6,42.6,68.6,41z"/>
	<g>
		
			<radialGradient id="SVGID_1_" cx="-741.6223" cy="188.0085" r="0.4884" gradientTransform="matrix(7.9692 0 0 7.9692 5967.8193 -1463.6929)" gradientUnits="userSpaceOnUse">
			<stop  offset="0" style="stop-color:#999B9B"/>
			<stop  offset="0.6742" style="stop-color:#D4D5D5"/>
			<stop  offset="0.8157" style="stop-color:#E2E3E5"/>
			<stop  offset="1" style="stop-color:#F9FCFF"/>
		</radialGradient>
		<path class="st2" d="M56.9,38.3c0,0-0.3-0.4-0.2-1.2c0,0,0.1-0.6,1.7-2c0,0,1.5-1.2,3.9-1.4l-1.5,1.4c0,0-1.5,0.4-2.5,2.8
			L56.9,38.3z"/>
		<path class="st3" d="M56.7,38L56.7,38C56.8,38.2,57,38.5,56.7,38L56.7,38c-0.6-0.1,0.7-2.9,3.4-3.7c0.6-0.2,1.3-0.4,1.9-0.4
			c0.3,0.2-0.7,0.7-0.9,1c-0.7,0.7-1.4,0.8-1.4,0.9C59.6,35.6,58.5,37,58,38c-2,0.5-1.2,0.3,0,0c-0.1,0.2,1.5-2.6,1.8-2.4
			c-0.1-0.1,0.6-0.2,1.3-0.9c0.1-0.2,1.3-1,0.7-0.9c-0.6,0-1.3,0.2-1.9,0.4C57.4,35.1,56.2,37.8,56.7,38z"/>
		<path class="st4" d="M69.6,41c0,3.6-3.1,6.6-6.8,6.6C59,47.7,56,44.8,56,41c0-3.6,3.1-6.6,6.8-6.6S69.6,37.3,69.6,41"/>
		
			<radialGradient id="SVGID_2_" cx="-748.7679" cy="178.546" r="0.4881" gradientTransform="matrix(8.9123 0 0 8.9123 6732.3784 -1543.9866)" gradientUnits="userSpaceOnUse">
			<stop  offset="0" style="stop-color:#616463"/>
			<stop  offset="0.6742" style="stop-color:#E5E8E8"/>
			<stop  offset="0.9062" style="stop-color:#F2F5F7"/>
			<stop  offset="1" style="stop-color:#F9FCFF"/>
		</radialGradient>
		<path class="st5" d="M57.5,46c0,0,1.2,1.6,3.7,2.1c0,0-0.5-0.4-0.3-1.1l-2.1-1.2C58.8,45.8,58.3,46.2,57.5,46z"/>
		<path class="st3" d="M57.8,46.2L57.8,46.2C57.6,46,57.5,45.8,57.8,46.2L57.8,46.2c0,0,1.2,1.2,2.8,1.6c0.4,0,0.9,0.4,0.5-0.1
			c-0.3-0.3,0.2-0.8-0.3-0.9c-0.5-0.3-0.9-0.5-0.9-0.5c0,0.2-0.9-1-1.5-0.4c-1.2-0.1-0.7,0,0,0c-0.1-0.4,1.6,0.2,1.6,0.4
			c0,0,0.3,0.2,0.9,0.5c0,0.4,0.8,1.6-0.4,1C59,47.3,57.8,46.2,57.8,46.2z"/>
		
			<radialGradient id="SVGID_3_" cx="-743.839" cy="185.7072" r="0.4879" gradientTransform="matrix(8.1363 0 0 8.1363 6116.4932 -1470.5355)" gradientUnits="userSpaceOnUse">
			<stop  offset="0" style="stop-color:#F9FCFF"/>
			<stop  offset="5.760757e-02" style="stop-color:#F6F9FB"/>
			<stop  offset="0.2962" style="stop-color:#EEEFF0"/>
			<stop  offset="0.5506" style="stop-color:#EBECEC"/>
			<stop  offset="0.6925" style="stop-color:#E5E6E6"/>
			<stop  offset="0.8807" style="stop-color:#D4D6D6"/>
			<stop  offset="1" style="stop-color:#C6C8C8"/>
		</radialGradient>
		<path class="st6" d="M66.3,40c0,0,1.8-1,2.2-1.4c0,0-0.3-1.9-0.8-2.1c0,0-1.2-2.1-2.9-1.7c0,0-1.3,0.5-1.3,1.1
			c0,0,0.6,1.3,0.6,2.8L66.3,40z"/>
		<path class="st3" d="M66.7,39.8L66.7,39.8C66.4,40,66.1,40,66.7,39.8L66.7,39.8c0-0.1,0.6-0.4,1.5-1c0.7-0.7-0.3-2.2-1.2-3.1
			c-0.9-1.1-2.6-1-3.3-0.2c-0.4,0.8,0.4,1.5,0.2,1.5c0.2-0.1-0.2,2.1,1.3,2.3c1.8,1,1.1,0.6,0,0c0.2,0-0.8-0.2-1.1-0.9
			c-0.1-0.8-0.3-1.6-0.3-1.6c0.3,0-0.8-0.7,0-1.5c0.7-0.8,2.4-0.8,3.3,0.3c0.8,0.9,1.9,2.4,1.1,3.2C67.3,39.3,66.7,39.8,66.7,39.8z"
			/>
		
			<radialGradient id="SVGID_4_" cx="-744.8041" cy="184.3234" r="0.488" gradientTransform="matrix(8.2775 0 0 8.2775 6228.5498 -1484.2043)" gradientUnits="userSpaceOnUse">
			<stop  offset="0" style="stop-color:#F9FCFF"/>
			<stop  offset="0.4888" style="stop-color:#F2F3F4"/>
			<stop  offset="0.6404" style="stop-color:#EFEFEF"/>
			<stop  offset="0.8381" style="stop-color:#E2E3E3"/>
			<stop  offset="1" style="stop-color:#D4D5D5"/>
		</radialGradient>
		<path class="st7" d="M61.2,45.2c0,0,1.3-0.9,2-2.7l-1.1-2.3c0,0-1.3-0.7-3-0.5c0,0-1.6,1.1-1.6,2.1c0,0,0.1,1.6,1.3,2.7l2,0.7
			H61.2z"/>
		<path class="st3" d="M61.6,45L61.6,45C61.3,45.1,61,45.5,61.6,45L61.6,45c0-0.1,0.6-0.6,1.2-1.6c0.2-0.2,0.3-0.5,0.4-0.8
			c-0.1-0.3-0.3-0.6-0.4-0.9c-0.4-0.6-0.4-1.5-1.3-1.6c-0.7-0.2-1.5-0.3-2.2-0.3c-0.6,0.2-1.1,0.8-1.4,1.2c-0.7,1-0.1,1.8-0.2,1.8
			c0-0.1,0.6,2.1,2.2,2.2c1.1,0.5,1.4,0.1,1.3,0.2c-0.1,0.2-0.7,0.1-1.4-0.2c0.1-0.1-0.9,0-1.4-0.8c-0.6-0.7-0.8-1.6-0.8-1.6
			c0.1,0-0.5-0.8,0.3-1.8c0.4-0.4,0.8-1,1.5-1.2c0.7,0,1.5,0.1,2.2,0.3c0.9,0.1,0.9,1.1,1.3,1.6c0.5,0.6,0.4,1.3,0,1.7
			C62.2,44.5,61.6,45,61.6,45z"/>
		
			<radialGradient id="SVGID_5_" cx="-760.6691" cy="166.051" r="0.488" gradientTransform="matrix(11.1267 0 0 11.1267 8525.0225 -1806.7958)" gradientUnits="userSpaceOnUse">
			<stop  offset="0" style="stop-color:#F9FCFF"/>
			<stop  offset="7.303400e-02" style="stop-color:#F9FCFF"/>
			<stop  offset="0.1955" style="stop-color:#F1F4F5"/>
			<stop  offset="0.4066" style="stop-color:#E8EBEB"/>
			<stop  offset="0.6685" style="stop-color:#E5E8E8"/>
			<stop  offset="0.7842" style="stop-color:#D7DADA"/>
			<stop  offset="1" style="stop-color:#B4B7B7"/>
		</radialGradient>
		<path class="st8" d="M58.4,37.3c0,0,0.8-1.7,2.4-2.3c0,0,2.5-0.1,2.6,0.3c0.1,0.4,0.9,2.6,0.7,3.7l-1.8,1.2c0,0-1.7-0.7-3.3-0.7
			C59,39.8,58.1,37.8,58.4,37.3z"/>
		<path class="st3" d="M58.7,37L58.7,37C58.5,37.3,58.2,37.6,58.7,37L58.7,37c0,0,0.4-0.8,1.4-1.5c0.5-0.4,1.2-0.5,1.9-0.4
			c0.7,0,1.7,0.1,1.7,1c0.4,1.4,0.9,3.3-0.5,3.7c-0.9,1-1.8,0-1.7,0.2c0,0-0.5-0.1-1.1-0.3c-0.3,0-0.7-0.1-1.1-0.1
			c-0.3-0.2-0.4-0.7-0.5-0.9c-0.5-1.1-0.2-1.5-0.2-1.4c-0.1,0.1,0,0.7,0.2,1.4c0.1-0.2-0.1,1.2,1.1,0.9c0.8,0.1,1.6,0.4,1.6,0.4
			c-0.3,0.8,4-0.5,2-4c0-1-1-0.9-1.7-0.9c-0.7-0.1-1.4,0-1.9,0.4C59.1,36.2,58.7,37,58.7,37z"/>
		
			<radialGradient id="SVGID_6_" cx="-745.7505" cy="183.5935" r="0.4882" gradientTransform="matrix(8.3708 0 0 8.3708 6307.9316 -1495.823)" gradientUnits="userSpaceOnUse">
			<stop  offset="0" style="stop-color:#F9FCFF"/>
			<stop  offset="0.2135" style="stop-color:#F9FCFF"/>
			<stop  offset="0.261" style="stop-color:#F6F9FC"/>
			<stop  offset="0.5483" style="stop-color:#E9ECED"/>
			<stop  offset="0.7865" style="stop-color:#E5E8E8"/>
			<stop  offset="0.8647" style="stop-color:#D8DBDA"/>
			<stop  offset="1" style="stop-color:#B9BBB9"/>
		</radialGradient>
		<path class="st9" d="M69.6,40.5c0,0,0.4,2-0.7,3.4c0,0-1,0.8-1.6,0.8c0,0-1.4-2-1.8-2.3l0.8-2.4c0,0,2.2-1.4,2.6-1.5
			c0,0,0.8,1.2,0.8,1.3C69.7,39.8,69.6,40.5,69.6,40.5z"/>
		<path class="st3" d="M69.7,40.8L69.7,40.8C69.6,40.5,69.6,40.1,69.7,40.8L69.7,40.8c0,0,0.1,0.8-0.1,1.8c0,0.8-1.7,2.8-2.6,1.4
			c-0.4-0.6-0.8-1.1-1.3-1.6c-0.2-0.6,0.3-1.2,0.3-1.7c0.1-1.1,1.1-1.2,1-1.3c0,0,0.4-0.2,0.9-0.5c0.3-0.1,0.6-0.3,0.9-0.5
			c0.3,0.1,0.4,0.5,0.6,0.7c0.7,0.9,0,1.3,0.2,1.2c0-0.1,0.3-0.7-0.3-1.2c0,0.3-0.2-1.2-1.1-0.4c-0.7,0.4-1.4,0.8-1.4,0.8
			s-0.8,0.2-0.9,1.3c0,0.4-0.6,1.2-0.2,1.6c0.4,0.5,0.8,1,1.2,1.6c0.9,1.2,2.5-0.7,2.5-1.5C69.7,41.5,69.6,40.8,69.7,40.8z"/>
		
			<radialGradient id="SVGID_7_" cx="-722.5846" cy="210.9519" r="0.4882" gradientTransform="matrix(6.0206 0 0 6.0206 4421.2939 -1227.2488)" gradientUnits="userSpaceOnUse">
			<stop  offset="0" style="stop-color:#898A89"/>
			<stop  offset="0.6742" style="stop-color:#D4D6D6"/>
			<stop  offset="0.8181" style="stop-color:#E2E4E5"/>
			<stop  offset="1" style="stop-color:#F9FCFF"/>
		</radialGradient>
		<path class="st10" d="M69.8,40.1c0,0,0.3,1,0,2.3c0,0-0.2,1.2-0.9,2L68.6,44c0,0,1.4-1,0.9-4.2L69.8,40.1z"/>
		<path class="st3" d="M69.9,40.5L69.9,40.5C69.8,40.2,69.8,40,69.9,40.5L69.9,40.5c0.1,0,0.3,1.8-0.5,3.3c-0.2,0.3-0.5,1-0.7,0.3
			c0.3-0.3,0.5-0.6,0.6-0.9c0.2-0.6,0.3-1,0.3-1s0.2-1.1,0-1.8c-0.2-0.9,0.4,0.2,0.2-0.2c-0.1-0.1-0.3-0.4-0.2,0.2
			c0.1-0.1,0.1,1.9,0,1.9c0,0,0,0.4-0.3,1c-0.1,0.3-0.4,0.6-0.6,0.8c0.2,0.6,0.4-0.1,0.6-0.4C70.1,42.1,69.9,40.5,69.9,40.5z"/>
		
			<radialGradient id="SVGID_8_" cx="-766.2115" cy="159.0266" r="0.4877" gradientTransform="matrix(12.7796 0 0 12.7796 9846.8359 -1989.9802)" gradientUnits="userSpaceOnUse">
			<stop  offset="0" style="stop-color:#535453"/>
			<stop  offset="0.6742" style="stop-color:#C7CAC8"/>
			<stop  offset="0.79" style="stop-color:#D6D9D8"/>
			<stop  offset="1" style="stop-color:#F9FCFF"/>
		</radialGradient>
		<path class="st11" d="M56.2,40.8c0,0-0.7,0.2-0.7,1.1c0,0,0.3,2.4,2,4c0,0,0.5,0.3,1.2-0.1l0.1-1.1c0,0-1.7-1.4-1.3-3.7L56.2,40.8
			z"/>
		<path class="st3" d="M55.9,41L55.9,41C56.1,40.8,56.4,40.8,55.9,41L55.9,41c-0.5-0.1-0.4,2.6,1.2,4.4c0.3,0.5,0.9,0.8,1.5,0.5
			c0.3-0.2,0.4-1.1,0.1-1.3c-0.6-0.7-0.8-1.3-0.8-1.2c-0.2,0.1-0.3-1.7-0.5-2.4c-1.8-0.3-1.1-0.2,0,0c0.2-0.2,0.3,0.4,0.2,1.1
			c0,0.7,0.4,1.3,0.4,1.3s0.2,0.6,0.8,1.2c0,0.3,0.2,1.1-0.3,1.3c-0.6,0.3-1.2-0.1-1.5-0.6C55.4,43.5,55.3,40.8,55.9,41z"/>
		
			<radialGradient id="SVGID_9_" cx="-742.6735" cy="185.6217" r="0.4877" gradientTransform="matrix(8.0262 0 0 8.0262 6022.9995 -1441.0835)" gradientUnits="userSpaceOnUse">
			<stop  offset="0" style="stop-color:#898A89"/>
			<stop  offset="0.6742" style="stop-color:#CED1D2"/>
			<stop  offset="0.8081" style="stop-color:#DDE0E2"/>
			<stop  offset="1" style="stop-color:#F9FCFF"/>
		</radialGradient>
		<path class="st12" d="M61,47.3c0,0-0.1,0.4,0.3,0.7c0,0,2.8,0.6,5.1-0.9c0,0-0.5-0.1-0.8-0.4c0,0-1.3,1-3.4,0.1L61,47.3z"/>
		<path class="st3" d="M61,47.7L61,47.7C61,47.5,61,47.2,61,47.7L61,47.7c-0.3,0.5,2,0.7,3.9,0.1c0.5-0.1,0.9-0.4,1.4-0.6
			c-0.2,0.1-0.7-0.7-1-0.3c-0.7,0.3-1.3,0.3-1.2,0.3c0,0.2-1.4-0.3-2.2-0.2c-1.5,0.6-0.9,0.3,0,0c-0.1-0.4,2.3,0.5,2.3,0.2
			c0,0,0.5,0,1.2-0.3c0.2-0.2,1,0.3,0.8,0.4c-0.4,0.2-0.9,0.5-1.4,0.6C63,48.5,60.7,48.2,61,47.7z"/>
		
			<radialGradient id="SVGID_10_" cx="-746.2086" cy="181.5277" r="0.4885" gradientTransform="matrix(8.6125 0 0 8.6125 6481.6401 -1521.7792)" gradientUnits="userSpaceOnUse">
			<stop  offset="0" style="stop-color:#646666"/>
			<stop  offset="0.6742" style="stop-color:#A5A8A8"/>
			<stop  offset="0.7522" style="stop-color:#B4B7B8"/>
			<stop  offset="0.9038" style="stop-color:#DCDFE1"/>
			<stop  offset="1" style="stop-color:#F9FCFF"/>
		</radialGradient>
		<path class="st13" d="M56.7,37.1c0,0-0.1,0.6,0.1,1l-0.5,2.5c0,0-0.7,0.6-0.7,1.1c0,0-0.3-0.3,0.1-2.6
			C55.7,39.1,56.2,37.2,56.7,37.1z"/>
		<path class="st3" d="M56.6,37.5L56.6,37.5C56.6,37.2,56.7,37,56.6,37.5L56.6,37.5c0.1,0,0.2,1.8-0.5,3.4c-0.3,0.2-0.5,0.8-0.7,0.9
			c-0.1-0.4-0.1-0.8,0-1.1c0.1-0.6,0.1-1,0.1-1s0.2-1.1,0.6-1.8c0.8-1,0.4-0.7,0,0c0-0.1-0.6,1.8-0.6,1.8s-0.1,0.4-0.1,1
			c0,0.3-0.1,0.7,0.1,1c0-0.4,0.3-0.7,0.6-1C56.7,39.1,56.8,37.5,56.6,37.5z"/>
		
			<radialGradient id="SVGID_11_" cx="-728.9323" cy="202.2648" r="0.4882" gradientTransform="matrix(6.6661 0 0 6.6661 4918.0811 -1310.7672)" gradientUnits="userSpaceOnUse">
			<stop  offset="0" style="stop-color:#999B9B"/>
			<stop  offset="0.6742" style="stop-color:#D4D5D5"/>
			<stop  offset="0.8157" style="stop-color:#E2E3E5"/>
			<stop  offset="1" style="stop-color:#F9FCFF"/>
		</radialGradient>
		<path class="st14" d="M56.9,38.3c0,0-0.3-0.4-0.2-1.2c0,0,0.1-0.6,1.7-2c0,0,1.8-1.4,3.6-0.9l-1.3,0.9c0,0-1.6,0.4-2.5,2.8
			L56.9,38.3z"/>
		<path class="st3" d="M56.8,38L56.8,38C56.8,38.2,57,38.5,56.8,38L56.8,38c-0.6-0.1,0.5-2.8,3.1-3.6c0.6-0.2,1.2-0.3,1.8-0.2
			c0.7,0.2-0.6,0.6-0.7,0.9c-0.8,0.4-1.3,0.8-1.3,0.8c-0.1-0.1-1,1.3-1.6,2.1c-1.9,0.5-1.1,0.3,0,0c0,0.3,1.4-2.5,1.7-2.2
			c0,0,0.5-0.4,1.3-0.8l0.6-0.4l0.3-0.2c-0.1,0-0.3,0-0.4,0c-0.6-0.1-1.2,0-1.8,0.2C57.3,35.2,56.2,37.8,56.8,38z"/>
		
			<radialGradient id="SVGID_12_" cx="-712.9653" cy="222.7924" r="0.4882" gradientTransform="matrix(5.4506 0 0 5.4506 3953.1636 -1179.6832)" gradientUnits="userSpaceOnUse">
			<stop  offset="0" style="stop-color:#919595"/>
			<stop  offset="0.6742" style="stop-color:#E5E8E8"/>
			<stop  offset="0.9062" style="stop-color:#F2F5F7"/>
			<stop  offset="1" style="stop-color:#F9FCFF"/>
		</radialGradient>
		<path class="st15" d="M64.6,34.5l0.2,0.2c0,0,1.5-0.4,2.9,1.7h0.5c0,0-1.3-2.1-4.7-2.6l0.4,0.7H64.6z"/>
		<path class="st3" d="M64.8,34.8L64.8,34.8C64.6,34.5,64.4,34.3,64.8,34.8L64.8,34.8c0-0.1,0.6-0.2,1.3,0.1
			c0.8,0.1,1.2,1.5,2.1,1.4c-1.1-1.5-3.2-2.2-3.1-2.1c0,0-0.3-0.1-0.7-0.2c-0.4-0.1-1.1-0.3-0.6,0.3c1.3,0.5,0.7,0.4,0,0
			c-1-0.6,1.4-0.2,1.4,0c-0.1,0,2.1,0.6,2.9,2.2c-1-0.1-1.3-1.3-2.1-1.5C65.3,34.6,64.8,34.8,64.8,34.8z"/>
		
			<radialGradient id="SVGID_13_" cx="-749.1152" cy="179.5177" r="0.4882" gradientTransform="matrix(8.8719 0 0 8.8719 6710.4106 -1551.0602)" gradientUnits="userSpaceOnUse">
			<stop  offset="0" style="stop-color:#F9FCFF"/>
			<stop  offset="0.2135" style="stop-color:#F9FCFF"/>
			<stop  offset="0.261" style="stop-color:#F6F9FC"/>
			<stop  offset="0.5483" style="stop-color:#E9ECED"/>
			<stop  offset="0.7865" style="stop-color:#E5E8E8"/>
			<stop  offset="0.887" style="stop-color:#D9DCDB"/>
			<stop  offset="1" style="stop-color:#C7CAC8"/>
		</radialGradient>
		<path class="st16" d="M61.4,46L61.4,46L61.4,46C61.5,46,61.4,46,61.4,46 M60.9,45.3l-0.1,0.1l0.2,0.2l0,0
			C60.9,45.5,60.8,45.5,60.9,45.3L60.9,45.3 M67.1,44.2c0.1,0.3,0.1,0.6,0.1,0.9c0.1-0.2,0.1-0.4,0.1-0.6
			C67.2,44.5,67.2,44.5,67.1,44.2 M62.7,43.6L62.7,43.6L62.7,43.6 M65.8,42.6c-0.1,0.1-0.2,0.1-0.2,0.1l0,0
			c-0.3,0.1-2.3,0.2-2.3,0.2c-0.1,0-0.1,0-0.2,0c-0.3,0.5-0.6,1-0.6,1l0,0c0,0-0.3,0.4-0.8,0.9c-0.2,0.2-0.5,0.5-0.9,0.7l0,0
			c0,0.1,0,0.2,0.1,0.2l0,0H61c0.2,0.1,0.4,0.3,0.5,0.4c0.7,0.6,1,0.8,1.1,0.9c0,0,0.1,0,0.3,0.1H63l0,0c0,0,0.1,0,0.3,0.1
			c0.2,0,0.4,0.1,0.6,0.1c0.3,0,0.7,0,1.1-0.1c0.9-0.3,2.9-1.5,2-3C66.6,43.5,66.3,43,65.8,42.6 M65.8,42.6L65.8,42.6
			C65.9,42.6,65.9,42.6,65.8,42.6C65.9,42.6,65.9,42.6,65.8,42.6"/>
		<path class="st3" d="M63,47L63,47C62.6,47,62.2,46.8,63,47L63,47c0,0,0.1,0,0.3,0c0.3,0.1,0.9,0.1,1.7-0.1c0.9-0.3,2.9-1.5,2-3
			c-0.4-0.6-0.8-1.4-1.5-1.6c-0.7,0-1.4-0.1-1.9-0.1c-0.6,0.7-0.9,1.6-1,1.5c0,0-0.3,0.4-0.8,0.9c-0.2,0.2-0.5,0.5-0.9,0.7
			c-0.3,0.2,0.4,0.5,0.5,0.7c1.8,1.5,1.1,0.9-0.1,0c0.3,0.1-1.3-0.6,0-1c0.7-0.5,1.2-1.3,1.2-1.3c0.1,0.1,0.2-0.9,1-1.4
			c0.6,0,1.2,0.1,1.9,0.1c0.6,0.3,1,1,1.4,1.6c0.8,1.5-1.2,2.7-2.1,3C64,47.2,63.4,47.1,63,47C63.1,47.2,63,47,63,47"/>
		<path class="st17" d="M63.9,38.2c0,0-1.6,1.3-2,1.7c0,0-0.1,0.1,0,0.3c0,0,1,2.3,1.1,2.6c0,0,0,0.1,0.2,0.1c0,0,2-0.1,2.3-0.2
			c0,0,0.2,0,0.4-0.3c0,0,0.7-0.9,0.6-2.6c0,0-0.8-1.1-2.4-1.7C64.2,38.1,64.1,38.1,63.9,38.2"/>
		<path class="st17" d="M67.7,36.5c0,0,0.7,1.1,0.4,2.4c0,0,0.2,0,0.5,0.2c0,0,0.9,0.8,1,1.3c0,0,0.1,0.1,0.2-0.3c0,0,0-2.1-1.7-3.9
			c0,0-0.3,0-0.5,0.1C67.7,36.3,67.7,36.3,67.7,36.5z"/>
		<path class="st17" d="M67.3,44.5c0,0,0.9-0.1,1.7-0.7c0,0,0.1-0.1,0.2,0c0,0,0.1,0.3,0.1,0.4c0,0-0.8,1.9-2.6,2.9
			c0,0-0.2,0.1-0.4-0.1l-0.4-0.2c0,0-0.1-0.1,0.1-0.1c0,0,1.4-0.9,1.4-2C67.2,44.6,67.2,44.5,67.3,44.5z"/>
		<path class="st17" d="M61.5,45.3c0,0,0.5,1.2,1,1.6c0,0,0.2,0.1,0,0.2c0,0-0.7,1-2.4,0.3c0,0-1.5-0.6-1.8-1.5c0,0,0-0.1,0-0.3
			c0,0,0.2-0.8,0.3-0.9c0,0,0.1-0.2,0.2-0.1c0,0,1.3,0.6,2.5,0.4c0,0,0.2-0.1,0.1,0.1L61.5,45.3z"/>
		<path class="st17" d="M57.5,41.8c0,0,0.5-1.2,1.6-2c0,0,0.1,0,0-0.2c0,0-0.6-1-0.5-2.3c0,0-1.7,0.1-1.8,0.7c0,0-1.2,1.2-0.6,2.9
			c0,0,0.5,0.8,1.3,1C57.4,41.8,57.5,41.8,57.5,41.8z"/>
		<path class="st17" d="M60.7,35.2c0,0,1.6-0.4,2.7,0.5c0,0,0.1,0.1,0.1-0.1c0,0,0.5-0.7,1.6-0.9c0,0,0.1-0.1-0.6-0.6
			c0,0-1.2-0.7-3-0.1c0,0-0.6,0.1-0.7,0.3l-0.1,0.1c0,0-0.1,0.2-0.1,0.6C60.6,35,60.6,35.1,60.7,35.2z"/>
		
			<radialGradient id="SVGID_14_" cx="4336.7354" cy="2126.9937" r="0.4897" gradientTransform="matrix(0.102 0 0 0.2964 -384.0428 -592.86)" gradientUnits="userSpaceOnUse">
			<stop  offset="0" style="stop-color:#FFFFFF"/>
			<stop  offset="1" style="stop-color:#08090B"/>
		</radialGradient>
		<path class="st18" d="M58.4,37.6c0,0.1,0,0.2,0,0.2S58.3,37.8,58.4,37.6c-0.1-0.1-0.1-0.2,0-0.2C58.4,37.5,58.4,37.5,58.4,37.6z"
			/>
		
			<radialGradient id="SVGID_15_" cx="2887.1228" cy="3529.645" r="0.4898" gradientTransform="matrix(0.1567 1.610000e-02 -1.610000e-02 0.1567 -336.5385 -559.9815)" gradientUnits="userSpaceOnUse">
			<stop  offset="0" style="stop-color:#FFFFFF"/>
			<stop  offset="1" style="stop-color:#08090B"/>
		</radialGradient>
		<path class="st19" d="M58.9,39.8C58.9,39.8,58.9,39.8,58.9,39.8h-0.2H58.9L58.9,39.8z"/>
		
			<radialGradient id="SVGID_16_" cx="-373.9969" cy="601.5953" r="0.4885" gradientTransform="matrix(1.2018 0 0 1.2018 511.2804 -676.3769)" gradientUnits="userSpaceOnUse">
			<stop  offset="0" style="stop-color:#FFFFFF"/>
			<stop  offset="1" style="stop-color:#08090B"/>
		</radialGradient>
		<path class="st20" d="M61.9,47.3c0,0,0.3-0.1,0.5-0.2c0,0,0.1-0.1-0.1-0.2c0,0-0.4-0.4-0.6-0.8c0,0,0.3,0.7,0.6,0.9
			c0,0,0,0.1-0.2,0.2L61.9,47.3z"/>
		
			<radialGradient id="SVGID_17_" cx="-673.6113" cy="266.7592" r="0.4884" gradientTransform="matrix(3.889 0 0 3.889 2681.6545 -1001.8549)" gradientUnits="userSpaceOnUse">
			<stop  offset="0" style="stop-color:#606162"/>
			<stop  offset="0.2355" style="stop-color:#5D5E5F"/>
			<stop  offset="0.4419" style="stop-color:#525354"/>
			<stop  offset="0.6375" style="stop-color:#404142"/>
			<stop  offset="0.8252" style="stop-color:#272829"/>
			<stop  offset="1" style="stop-color:#08090B"/>
		</radialGradient>
		<path class="st21" d="M60.9,34.8c0,0,0.2,0.2,0.6,0.2c0,0,1.1,0,1.5,0.3c0.3,0.3,1-0.7,1.5-0.7S64.2,34,64.2,34l-1.1-0.2
			c0,0-1.4,0-2.1,0.5C61,34.3,60.8,34.5,60.9,34.8z"/>
		
			<radialGradient id="SVGID_18_" cx="2057.5259" cy="3432.0244" r="0.4882" gradientTransform="matrix(0.1795 0 0 0.1795 -301.0683 -577.306)" gradientUnits="userSpaceOnUse">
			<stop  offset="0" style="stop-color:#FFFFFF"/>
			<stop  offset="1" style="stop-color:#08090B"/>
		</radialGradient>
		<ellipse class="st22" cx="68.3" cy="38.8" rx="0.1" ry="0.1"/>
		
			<radialGradient id="SVGID_19_" cx="-721.859" cy="202.6245" r="0.488" gradientTransform="matrix(6.0637 0 0 6.5737 4440.3379 -1288.8044)" gradientUnits="userSpaceOnUse">
			<stop  offset="0" style="stop-color:#606162"/>
			<stop  offset="0.2355" style="stop-color:#5D5E5F"/>
			<stop  offset="0.4419" style="stop-color:#525354"/>
			<stop  offset="0.6375" style="stop-color:#404142"/>
			<stop  offset="0.8252" style="stop-color:#272829"/>
			<stop  offset="1" style="stop-color:#08090B"/>
		</radialGradient>
		<path class="st23" d="M63.7,42.5c-0.3,0-0.5-0.4-0.5-0.4C63.4,42.3,63.7,42.5,63.7,42.5c0.2,0,0.3,0,0.3,0
			C64.2,42.3,63.8,42.3,63.7,42.5C63.8,42.5,63.8,42.5,63.7,42.5 M64.1,39.5c-0.4,0-1.5,0.3-1.6,1.3c0,0,0.6,1.6,1.1,1.7
			c0,0,0.4,0.1,1,0.1c0.1,0,0.2,0,0.3,0c0,0,1.2-0.2,0.9-1.9c0-0.3,0-0.6-0.4-1C65.3,39.6,64.5,39.5,64.1,39.5L64.1,39.5"/>
		
			<radialGradient id="SVGID_20_" cx="-721.8589" cy="202.6249" r="0.4877" gradientTransform="matrix(6.0637 0 0 6.5737 4440.3379 -1288.8044)" gradientUnits="userSpaceOnUse">
			<stop  offset="0" style="stop-color:#6F7170"/>
			<stop  offset="0.2462" style="stop-color:#6C6E6D"/>
			<stop  offset="0.4632" style="stop-color:#616362"/>
			<stop  offset="0.669" style="stop-color:#4F5151"/>
			<stop  offset="0.867" style="stop-color:#363738"/>
			<stop  offset="1" style="stop-color:#212223"/>
		</radialGradient>
		<path class="st24" d="M63.2,42c0,0,0.2,0.4,0.5,0.4h0.1c0,0,0.4,0,0.2,0c0,0-0.1,0-0.2,0C63.7,42.3,63.4,42.3,63.2,42"/>
		
			<radialGradient id="SVGID_21_" cx="510.1746" cy="-1108.2611" r="0.4882" gradientTransform="matrix(0.2668 0.5136 -0.139 7.220000e-02 -228.5818 -136.4095)" gradientUnits="userSpaceOnUse">
			<stop  offset="0" style="stop-color:#FFFFFF"/>
			<stop  offset="1" style="stop-color:#08090B"/>
		</radialGradient>
		<path class="st25" d="M61.7,46c-0.1,0-0.1-0.1-0.2-0.3c-0.1-0.1-0.2-0.3-0.1-0.3c0.1,0,0.1,0.1,0.2,0.3C61.7,45.8,61.8,46,61.7,46
			z"/>
		
			<radialGradient id="SVGID_22_" cx="-717.3444" cy="-4548.0586" r="0.4878" gradientTransform="matrix(-0.8437 1.0064 -0.1289 -0.108 -1133.1179 271.0902)" gradientUnits="userSpaceOnUse">
			<stop  offset="0" style="stop-color:#FFFFFF"/>
			<stop  offset="1" style="stop-color:#08090B"/>
		</radialGradient>
		<path class="st26" d="M57.7,41c-0.1-0.1,0.2-0.3,0.4-0.6c0.2-0.2,0.4-0.7,0.5-0.6c0.1,0.1-0.1,0.3-0.4,0.6
			C57.9,40.8,57.8,41,57.7,41z"/>
		
			<radialGradient id="SVGID_23_" cx="1537.8751" cy="2532.0764" r="0.4864" gradientTransform="matrix(0.2332 1.050000e-02 -1.050000e-02 0.2332 -270.7188 -561.2188)" gradientUnits="userSpaceOnUse">
			<stop  offset="0" style="stop-color:#FFFFFF"/>
			<stop  offset="1" style="stop-color:#08090B"/>
		</radialGradient>
		<path class="st27" d="M61.4,45.2C61.4,45.3,61.3,45.3,61.4,45.2c-0.2,0.1-0.2,0-0.2,0c0-0.1,0.1-0.1,0.1-0.1
			C61.4,45.1,61.4,45.2,61.4,45.2z"/>
		
			<radialGradient id="SVGID_24_" cx="2197.2483" cy="3533.2048" r="0.4869" gradientTransform="matrix(0.1746 0 0 0.1746 -325.2575 -579.4924)" gradientUnits="userSpaceOnUse">
			<stop  offset="0" style="stop-color:#FFFFFF"/>
			<stop  offset="1" style="stop-color:#08090B"/>
		</radialGradient>
		<ellipse class="st28" cx="58.4" cy="37.5" rx="0.1" ry="0.1"/>
		
			<radialGradient id="SVGID_25_" cx="-541.4547" cy="176.2515" r="0.4881" gradientTransform="matrix(2.2235 1.8739 -1.1942 1.4169 1481.2538 810.4526)" gradientUnits="userSpaceOnUse">
			<stop  offset="0" style="stop-color:#FFFFFF"/>
			<stop  offset="1" style="stop-color:#08090B"/>
		</radialGradient>
		<path class="st29" d="M67.3,44.6c0,0,0.1,1.2-1.5,2.1c0,0,0.7-0.3,1.2-1C67,45.8,67.4,45.3,67.3,44.6z"/>
		
			<radialGradient id="SVGID_26_" cx="-756.2705" cy="681.7325" r="0.488" gradientTransform="matrix(2.5863 -1.4691 0.6693 1.1785 1568.693 -1875.2041)" gradientUnits="userSpaceOnUse">
			<stop  offset="0" style="stop-color:#FFFFFF"/>
			<stop  offset="1" style="stop-color:#08090B"/>
		</radialGradient>
		<path class="st30" d="M68.5,38.8c0,0,0.9,0.5,1.2,1.5c0,0,0.1-0.2-0.4-0.8C69.3,39.5,69,39.1,68.5,38.8z"/>
		
			<radialGradient id="SVGID_27_" cx="-997.1207" cy="352.6355" r="0.4878" gradientTransform="matrix(-1.1016 -3.6544 1.2906 -0.389 -1489.3048 -3471.4253)" gradientUnits="userSpaceOnUse">
			<stop  offset="0" style="stop-color:#FFFFFF"/>
			<stop  offset="1" style="stop-color:#08090B"/>
		</radialGradient>
		<path class="st31" d="M63.4,35.5c0,0,0.6-0.8,1.7-1c0,0-0.2-0.1-0.8,0.2C64.3,34.8,63.7,35,63.4,35.5z"/>
		
			<radialGradient id="SVGID_28_" cx="-800.7769" cy="491.4206" r="0.4876" gradientTransform="matrix(3.5622 -2.861 1.3036 1.623 2276.7957 -3049.364)" gradientUnits="userSpaceOnUse">
			<stop  offset="0" style="stop-color:#FFFFFF"/>
			<stop  offset="1" style="stop-color:#08090B"/>
		</radialGradient>
		<path class="st32" d="M64,38.2c0,0,1.9,0.8,2.4,1.7c0,0-0.3-0.3-0.9-0.8C65.6,39.2,64.7,38.5,64,38.2z"/>
		
			<radialGradient id="SVGID_29_" cx="2298.5969" cy="2186.1458" r="0.4885" gradientTransform="matrix(0.2054 0.1275 -5.970000e-02 9.620000e-02 -273.2998 -464.3312)" gradientUnits="userSpaceOnUse">
			<stop  offset="0" style="stop-color:#FFFFFF"/>
			<stop  offset="1" style="stop-color:#08090B"/>
		</radialGradient>
		<path class="st33" d="M68.4,38.8L68.4,38.8c0.1,0.2,0.1,0.2,0.2,0.1C68.6,38.8,68.6,38.8,68.4,38.8L68.4,38.8z"/>
		
			<radialGradient id="SVGID_30_" cx="2094.6763" cy="1020.7584" r="0.4883" gradientTransform="matrix(0.2079 0.1677 -9.600000e-02 0.119 -271.0598 -432.9975)" gradientUnits="userSpaceOnUse">
			<stop  offset="0" style="stop-color:#FFFFFF"/>
			<stop  offset="1" style="stop-color:#08090B"/>
		</radialGradient>
		<path class="st34" d="M66.4,39.8c0,0-0.1,0-0.2,0s-0.1-0.1-0.1-0.1S66.2,39.8,66.4,39.8C66.4,39.8,66.4,39.8,66.4,39.8z"/>
		
			<radialGradient id="SVGID_31_" cx="1616.4984" cy="2908.4016" r="0.4861" gradientTransform="matrix(0.2143 0 0 0.2143 -283.1076 -587.6762)" gradientUnits="userSpaceOnUse">
			<stop  offset="0" style="stop-color:#FFFFFF"/>
			<stop  offset="1" style="stop-color:#08090B"/>
		</radialGradient>
		<ellipse class="st35" cx="63.4" cy="35.5" rx="0.1" ry="0.1"/>
		
			<radialGradient id="SVGID_32_" cx="-724.2888" cy="208.4922" r="0.4881" gradientTransform="matrix(6.2621 0 0 6.2621 4597.0713 -1270.7346)" gradientUnits="userSpaceOnUse">
			<stop  offset="0" style="stop-color:#FFFFFF"/>
			<stop  offset="0.9719" style="stop-color:#BEC3C3"/>
			<stop  offset="1" style="stop-color:#E9E9EB"/>
		</radialGradient>
		<path class="st36" d="M59,36.5c0,0,0.7-1.1,1.7-1.3c0,0,1.5-0.4,2.7,0.5C63.4,35.8,61.2,34.1,59,36.5z"/>
		<path class="st37" d="M59.3,39.6c0,0,1.2,0,2.6,0.5c0,0,0-0.1,0.1-0.2c0,0,0.7-0.7,1.8-1.6c0,0-0.8,0.3-1.8,1.3
			c0,0-0.2,0.3-0.4,0.2C61.5,39.8,59.7,39.5,59.3,39.6z"/>
		
			<radialGradient id="SVGID_33_" cx="-578.7388" cy="378.2666" r="0.4874" gradientTransform="matrix(2.257 0 0 2.257 1372.4331 -818.4144)" gradientUnits="userSpaceOnUse">
			<stop  offset="0" style="stop-color:#F9FCFF"/>
			<stop  offset="0.2135" style="stop-color:#F9FCFF"/>
			<stop  offset="0.261" style="stop-color:#F6F9FC"/>
			<stop  offset="0.5483" style="stop-color:#E9ECED"/>
			<stop  offset="0.7865" style="stop-color:#E5E8E8"/>
			<stop  offset="0.9215" style="stop-color:#F4F5F5"/>
			<stop  offset="1" style="stop-color:#FFFFFF"/>
		</radialGradient>
		<path class="st38" d="M63.6,35.5c0,0,1.1-1.3,2.4-0.6C66,35,64.8,34.3,63.6,35.5C63.6,35.6,63.5,35.8,63.6,35.5z"/>
		<path class="st39" d="M66.3,35c2.4,1.6,1.3,3.8,1.9,3.6C68.2,38.8,68.6,36.5,66.3,35z"/>
		<path class="st37" d="M64.2,38.1c0,0,1.4,0.5,2.3,1.5C66.5,39.8,66.9,39.1,64.2,38.1z"/>
		<path class="st40" d="M59.7,36c0,0-0.8,0.5-1.1,1.4c0,0-0.1,0.8,0.3,1.6C58.8,39,58.3,37.3,59.7,36z"/>
		<path class="st37" d="M66.2,39.3c0.7,0.2,1.2-0.2,1.9-0.5c-0.3,0.2-1.6,1-1.6,1L66.2,39.3z"/>
		<polygon class="st37" points="64.3,38 64.2,38 64.2,38 64.2,38 		"/>
		<ellipse class="st37" cx="62.6" cy="38.9" rx="0" ry="0.3"/>
		<ellipse transform="matrix(0.9682 -0.25 0.25 0.9682 -8.4665 16.852)" class="st37" cx="62.1" cy="41.8" rx="0" ry="0.3"/>
		<path class="st41" d="M65.3,34.6c0,0,1.1-0.1,2.4,1.6l0.1,0.1c0,0,0.2-0.1,0.5-0.1l0,0c0,0-0.3-0.1-0.4,0c0,0-0.8-1-1.7-1.4
			C66,34.8,65.6,34.6,65.3,34.6c0-0.1-0.3-0.5-1-0.8C64.3,33.8,64.8,34,65.3,34.6L65.3,34.6z"/>
		<path class="st42" d="M63.4,36c0,0.1,0.5,1,0.5,2.1C63.9,38,63.7,36.8,63.4,36z"/>
		<path class="st43" d="M56.9,37.8c0,0,0.3-0.4,1.6-0.7c0,0,0.9-1.3,1.7-1.6c0,0-1.1,0.5-1.7,1.9C58.6,37.2,57.5,37.3,56.9,37.8z"/>
		<path class="st44" d="M56.7,37.3c0,0,1.1-2.6,4-3.1c0,0-1.6,0.4-2.3,1C58.4,35.2,57.4,36,56.7,37.3z"/>
		<path class="st37" d="M60.8,34.2c0,0-0.2,0.5-0.2,0.9c0,0-0.6,0.2-0.7,0.3c0,0,0.5-0.4,0.6-0.9C60.5,34.5,60.7,34.2,60.8,34.2z"/>
		<path class="st45" d="M55.8,40.8c-0.2,0.3-0.3,0.5-0.3,0.8c0,0,0.1-0.4,0.5-0.8l0,0c0,0-0.2-0.6-0.1-0.9
			C55.9,39.8,55.8,40.1,55.8,40.8z"/>
		<path class="st44" d="M56.6,37.2c0,0,0,0.5,0.1,0.7c0,0-0.4,0.3-0.6,1c0,0,0.3-0.8,0.5-1c0,0,0-0.6-0.3-0.4
			C56.3,37.6,56.4,37.3,56.6,37.2z"/>
		<path class="st37" d="M61.9,40.5c0,0,0.9,1.9,1,2.4c0,0.4-1,1.6-1,1.6s0.8-1.2,0.7-1.6C62.6,42.8,62.2,41.2,61.9,40.5z"/>
		<path class="st37" d="M58.8,44.5c0,0,0.9,0.6,2.5,0.5C61.3,45,59.5,45,58.8,44.5z"/>
		<path class="st39" d="M57.9,41c0,0,0.6-0.9,1.2-1.3c0,0,1.1-0.2,2,0.2c0,0-1-0.3-1.8,0C59.3,40,58.5,40.2,57.9,41z"/>
		<path class="st46" d="M57.7,41.8c0.1-0.5,0.3-0.7,0.4-1c0,0-0.2,0.1-0.6,1c0,0,0.1,1,0.4,1.6C58,43.5,57.6,42.8,57.7,41.8z"/>
		<path class="st47" d="M56.1,41c0,0,0.5,0.7,1.3,0.9c0,0,0.1,1.7,1.2,2.6c0,0-1.1-0.9-1.2-2.5C57.3,42,56.5,41.8,56.1,41z"/>
		<path class="st37" d="M58.2,46c0,0-0.1-0.5,0.3-1.3l-0.1,0.1C58.4,44.8,57.9,45.5,58.2,46z"/>
		<path class="st37" d="M62.4,44.2c0,0,0.9-1.2,1.5-1.2c0,0,0.6,0,1,0c0,0,0.1,0.1,0,0.2c0,0-1.3,0.2-2.2,1
			C62.7,44.1,62.5,44.5,62.4,44.2z"/>
		<path class="st37" d="M66.6,40c0,0,0.2,1.4-0.6,2.7C66,42.5,67.1,41.5,66.6,40z"/>
		<path class="st48" d="M66,42.8c0,0,0.9,1,1.2,1.7c0,0,0.9,0,1.7-0.7c0,0-1.1,0.7-1.6,0.6C67.4,44.2,66.2,42.8,66,42.8z"/>
		<path class="st49" d="M69.6,40.5c0,0,0.2,1.8-0.6,3C69,43.5,69.6,42,69.6,40.5z"/>
		<path class="st50" d="M67.2,39.5l1-0.6c0,0,0.6,0.3,0.8,0.6C68.5,39.2,68.2,38.8,67.2,39.5z"/>
		<path class="st37" d="M65.6,46.6c0,0,1.5-0.8,1.6-2C67.2,44.6,67,45.8,65.6,46.6z"/>
		<path class="st44" d="M61.2,47.8c0,0,1,0.1,1.5-0.6c0,0,1.7,0.6,3-0.3c0,0-1.1,0.9-2.9,0.4C62.7,47.2,62,48,61.2,47.8z"/>
		<path class="st51" d="M62.3,48c0,0,2,0.1,3.3-0.6C65.6,47.5,64.2,48,62.3,48z"/>
		<path class="st52" d="M57.9,46.1c0,0,0.4,0.1,0.4,0c0,0,0.8,1.2,2.6,1.6c0,0,0.1,0.2,0.2,0.3c0,0-0.5-0.2-0.7-0.3
			c0,0-1.8-0.9-2.1-1.4C58.3,46.2,58,46.2,57.9,46.1z"/>
		<path class="st53" d="M56,41.1c0,0-0.5,0.4-0.3,1.3c0,0,0-0.9,0.4-1.1L56,41.1z"/>
		<path class="st42" d="M69.7,40.5c0,0,0.2,1.4-0.6,3.1c0,0,0.1,0.1,0,0.3c0,0,0.1-0.2,0.2-0.5C69.3,43.5,70,41.5,69.7,40.5z"/>
		<path class="st54" d="M69.8,40.3c0,0,0.3,1.3-0.2,2.5c0,0,0.4-1.1,0.1-2.4L69.8,40.3z"/>
	</g>
	<polygon class="st0" points="73.4,44.8 73.4,33.3 75.1,33.3 75.1,43.2 80.7,43.2 80.7,44.8 	"/>
	<g>
		<path class="st0" d="M11.3,36.6c-0.4-0.6-1-1.2-1.6-1.6c-0.7-0.4-1.5-0.6-2.2-0.6c-1.2,0-2.2,0.4-3.1,1.3
			c-0.9,0.9-1.3,1.9-1.3,3.1S3.5,41,4.4,42c0.9,0.9,1.9,1.3,3.1,1.3c1.4,0,2.5-0.6,3.4-1.7v-1.8H7.3V38h5.3V45h-1.8v-1.1
			c-0.9,0.8-2,1.2-3.4,1.2c-1.7,0-3.1-0.6-4.3-1.8c-1.2-1.2-1.8-2.7-1.8-4.3c0-1.7,0.6-3.1,1.8-4.3c1.3-1.3,2.7-1.9,4.4-1.9
			c1,0,2,0.2,3,0.8c0.9,0.5,1.7,1.3,2.3,2.2L11.3,36.6z"/>
		<path class="st0" d="M7.5,45.8c-1.9,0-3.6-0.7-4.9-2c-1.4-1.4-2.1-3.1-2.1-5c0-1.9,0.7-3.5,2.1-4.9c1.4-1.4,3-2.1,4.9-2.1
			c1.2,0,2.3,0.3,3.4,0.9c1,0.6,1.9,1.4,2.6,2.4l0.4,0.8l-2,1.3h1.6v8.5h-3.4v-0.4C9.3,45.6,8.5,45.8,7.5,45.8L7.5,45.8z M7.5,33.5
			c-1.5,0-2.7,0.5-3.8,1.6c-1,1-1.6,2.3-1.6,3.7c0,1.5,0.5,2.7,1.6,3.8c1.1,1.1,2.3,1.6,3.8,1.6c1.1,0,2-0.3,2.6-0.8
			C9.4,43.8,8.5,44,7.5,44c-1.4,0-2.7-0.5-3.7-1.5s-1.5-2.3-1.5-3.7c0-1.4,0.5-2.7,1.5-3.7s2.3-1.5,3.7-1.5c0.9,0,1.8,0.2,2.6,0.7
			c0.5,0.3,1,0.7,1.4,1.2l0.1-0.1c-0.5-0.5-1-0.9-1.5-1.2C9.3,33.8,8.4,33.5,7.5,33.5L7.5,33.5z M11.8,44h0.1v-5.2H8.2V39h3.6
			L11.8,44L11.8,44z M7.5,35.2c-1,0-1.8,0.3-2.5,1.1c-0.7,0.7-1.1,1.5-1.1,2.5s0.3,1.8,1.1,2.5c0.7,0.7,1.5,1.1,2.5,1.1
			s1.9-0.4,2.6-1.1v-0.8H6.5v-3.4h4.1L10.5,37c-0.4-0.5-0.8-1-1.4-1.3C8.7,35.5,8.1,35.2,7.5,35.2L7.5,35.2z"/>
		<path class="st0" d="M21.4,44.8v-1.1c-0.9,0.8-1.9,1.2-3.1,1.2c-1.3,0-2.3-0.5-3.2-1.4c-0.9-0.9-1.3-2-1.3-3.3
			c0-1.3,0.5-2.4,1.4-3.3c0.9-0.9,2-1.4,3.3-1.4s2.4,0.5,3.3,1.4c0.9,0.9,1.4,2,1.4,3.3v4.5L21.4,44.8L21.4,44.8z M21.4,40.3
			c0-0.8-0.3-1.5-0.9-2.1c-0.6-0.6-1.3-0.9-2.1-0.9c-0.8,0-1.5,0.3-2.1,0.9c-0.5,0.6-0.8,1.3-0.8,2.1s0.3,1.5,0.9,2.1
			c0.6,0.6,1.3,0.9,2.1,0.9c0.8,0,1.5-0.3,2.1-0.9C21.1,41.8,21.4,41.1,21.4,40.3z"/>
		<path class="st0" d="M18.3,45.8c-1.5,0-2.8-0.6-3.8-1.6c-1-1.1-1.6-2.4-1.6-3.9s0.5-2.8,1.6-3.9c1.1-1.1,2.4-1.6,3.9-1.6
			s2.8,0.5,3.9,1.6c1.1,1.1,1.6,2.4,1.6,3.9v5.4h-3.4v-0.4C19.9,45.6,19.1,45.8,18.3,45.8L18.3,45.8z M18.4,36.5
			c-1.1,0-2,0.4-2.7,1.1c-0.8,0.8-1.1,1.7-1.1,2.7c0,1.1,0.4,2,1.1,2.7c0.7,0.8,1.6,1.1,2.6,1.1c0.8,0,1.5-0.2,2.1-0.6
			c-0.6,0.3-1.2,0.5-1.9,0.5c-1,0-1.9-0.4-2.7-1.1c-0.7-0.7-1.1-1.6-1.1-2.7c0-1,0.4-1.9,1.1-2.6C16.5,37,17.4,36.5,18.4,36.5
			c1,0.1,1.9,0.5,2.7,1.2c0.7,0.7,1.1,1.6,1.1,2.6c0,0.9-0.3,1.7-0.8,2.4l0.8-0.8V44h0.1v-3.7c0-1.1-0.4-2-1.1-2.7
			C20.4,36.8,19.5,36.5,18.4,36.5L18.4,36.5z M18.4,38.2c-0.6,0-1.1,0.2-1.5,0.6c-0.4,0.4-0.6,0.9-0.6,1.5c0,0.6,0.2,1.1,0.6,1.5
			c0.4,0.4,0.9,0.6,1.5,0.6s1.1-0.2,1.5-0.6c0.4-0.4,0.6-0.9,0.6-1.5c0-0.6-0.2-1.1-0.6-1.5C19.5,38.5,19,38.2,18.4,38.2L18.4,38.2z
			"/>
		<path class="st0" d="M30.3,44.8v-5.2c0-0.6-0.2-1.1-0.7-1.6c-0.4-0.4-1-0.7-1.6-0.7s-1.1,0.2-1.6,0.7c-0.4,0.4-0.7,1-0.7,1.6V45
			h-1.8v-5.3c0-1.1,0.4-2,1.2-2.8c0.8-0.8,1.7-1.2,2.8-1.2c1,0,2,0.4,2.8,1.2s1.2,1.7,1.2,2.8V45h-1.6V44.8z"/>
		<path class="st0" d="M32.9,45.8h-3.4v-6.1c0-0.4-0.1-0.7-0.4-1c-0.3-0.3-0.6-0.4-1-0.4s-0.7,0.1-1,0.4c-0.3,0.3-0.4,0.6-0.4,1v6.1
			h-3.4v-6.1c0-1.3,0.5-2.4,1.4-3.4c1-1,2.1-1.4,3.4-1.4s2.4,0.5,3.3,1.4c1,1,1.4,2.1,1.4,3.4v6.1H32.9z M31.2,44h0.1v-4.4
			c0-0.8-0.3-1.5-1-2.2c-0.6-0.6-1.4-1-2.2-1c-0.8,0-1.5,0.3-2.2,1c-0.6,0.6-1,1.4-1,2.2v4.5H25v-4.5c0-0.8,0.3-1.5,0.9-2.1
			s1.3-0.9,2.1-0.9c0.8,0,1.5,0.3,2.1,0.9s0.9,1.3,0.9,2.1V44H31.2z"/>
		<path class="st0" d="M40.4,44.8v-1.1c-0.9,0.8-1.9,1.2-3.1,1.2c-1.3,0-2.3-0.5-3.2-1.4c-0.9-0.9-1.3-2-1.3-3.3
			c0-1.3,0.5-2.4,1.4-3.3c0.9-0.9,2-1.4,3.3-1.4s2.4,0.5,3.3,1.4c0.9,0.9,1.4,2,1.4,3.3v4.5L40.4,44.8L40.4,44.8z M40.4,40.3
			c0-0.8-0.3-1.5-0.9-2.1c-0.6-0.6-1.3-0.9-2.1-0.9s-1.5,0.3-2.1,0.9c-0.5,0.6-0.8,1.3-0.8,2.1s0.3,1.5,0.9,2.1
			c0.6,0.6,1.3,0.9,2.1,0.9s1.5-0.3,2.1-0.9C40.1,41.8,40.4,41.1,40.4,40.3z"/>
		<path class="st0" d="M37.3,45.8c-1.5,0-2.8-0.6-3.8-1.6c-1-1.1-1.6-2.4-1.6-3.9s0.5-2.8,1.6-3.9c1.1-1.1,2.4-1.6,3.9-1.6
			s2.8,0.5,3.9,1.6c1.1,1.1,1.6,2.4,1.6,3.9v5.4h-3.4v-0.4C38.9,45.6,38.1,45.8,37.3,45.8L37.3,45.8z M37.5,36.5
			c-1.1,0-2,0.4-2.7,1.1c-0.8,0.8-1.1,1.7-1.1,2.7c0,1.1,0.4,2,1.1,2.7c0.7,0.8,1.6,1.1,2.6,1.1c0.8,0,1.5-0.2,2.1-0.6
			c-0.6,0.3-1.2,0.5-1.9,0.5c-1,0-1.9-0.4-2.7-1.1c-0.7-0.7-1.1-1.6-1.1-2.7c0-1,0.4-1.9,1.1-2.6C35.5,37,36.4,36.5,37.5,36.5
			c1,0.1,1.9,0.5,2.7,1.2c0.7,0.7,1.1,1.6,1.1,2.6c0,0.9-0.3,1.7-0.8,2.3l0.8-0.8v2.2h0.1v-3.6c0-1.1-0.4-2-1.1-2.7
			C39.4,36.8,38.5,36.5,37.5,36.5L37.5,36.5z M37.5,38.2c-0.6,0-1.1,0.2-1.5,0.6c-0.4,0.4-0.6,0.9-0.6,1.5c0,0.6,0.2,1.1,0.6,1.5
			c0.4,0.4,0.9,0.6,1.5,0.6s1.1-0.2,1.5-0.6c0.4-0.4,0.6-0.9,0.6-1.5c0-0.6-0.2-1.1-0.6-1.5C38.5,38.5,38,38.2,37.5,38.2L37.5,38.2z
			"/>
		<path class="st0" d="M50.8,47.2c-0.9,0.9-2,1.4-3.3,1.4c-0.8,0-1.6-0.2-2.3-0.6c-0.4-0.2-0.7-0.4-1-0.7c-0.3-0.3-0.5-0.6-0.8-0.9
			l1.5-1c0.6,1,1.5,1.5,2.5,1.5c0.9,0,1.6-0.3,2.1-0.9c0.5-0.5,0.8-1.3,0.8-2.1c-0.9,0.8-1.9,1.2-3.1,1.2c-1.3,0-2.3-0.5-3.2-1.4
			c-0.9-0.9-1.3-2-1.3-3.3s0.5-2.4,1.4-3.3c0.9-0.9,2-1.4,3.3-1.4s2.4,0.5,3.3,1.4c0.9,0.9,1.4,2,1.4,3.3v3.5
			C52.2,45.1,51.8,46.2,50.8,47.2z M50.5,40.3c0-0.8-0.3-1.5-0.9-2.1c-0.6-0.6-1.3-0.9-2.1-0.9s-1.5,0.3-2.1,0.9
			c-0.6,0.6-0.9,1.3-0.9,2.1s0.3,1.5,0.9,2.1c0.6,0.6,1.3,0.9,2.1,0.9s1.5-0.3,2.1-0.9C50.2,41.8,50.5,41.1,50.5,40.3z"/>
		<path class="st0" d="M47.5,49.3c-0.9,0-1.8-0.2-2.7-0.7c-0.4-0.2-0.8-0.5-1.1-0.8s-0.6-0.7-0.9-1.1L42.3,46l1.9-1.2
			c-0.2-0.2-0.5-0.4-0.7-0.6c-1-1.1-1.6-2.4-1.6-3.9s0.5-2.8,1.6-3.9c1.1-1.1,2.4-1.6,3.9-1.6s2.8,0.5,3.9,1.6
			c1.1,1.1,1.6,2.4,1.6,3.9v3.5c0,1.5-0.6,2.8-1.6,3.9C50.3,48.8,49,49.3,47.5,49.3L47.5,49.3z M44.7,46.5l0.1,0.1
			c0.2,0.2,0.5,0.4,0.8,0.6c0.6,0.3,1.2,0.5,1.9,0.5c1.1,0,2-0.4,2.7-1.2c0.8-0.8,1.2-1.7,1.2-2.7v-1.7l-0.1,1.7
			c-0.1,1.1-0.4,1.9-1,2.6c-0.7,0.8-1.6,1.1-2.7,1.1C46.5,47.7,45.6,47.2,44.7,46.5L44.7,46.5L44.7,46.5z M46.7,45.8
			c0.2,0.1,0.5,0.1,0.8,0.1c0.4,0,0.8-0.1,1.1-0.3C48,45.8,47.3,45.8,46.7,45.8L46.7,45.8z M47.5,36.5c-1.1,0-1.9,0.4-2.7,1.1
			c-0.8,0.8-1.1,1.7-1.1,2.7c0,1.1,0.4,2,1.1,2.7c0.7,0.8,1.6,1.1,2.6,1.1c0.7,0,1.4-0.2,2-0.6c-0.5,0.3-1.2,0.5-1.8,0.5
			c-1,0-1.9-0.4-2.7-1.1c-0.7-0.7-1.1-1.6-1.1-2.7c0-1,0.4-1.9,1.1-2.6C45.6,37,46.5,36.5,47.5,36.5c1,0.1,1.9,0.5,2.7,1.2
			c0.7,0.7,1.1,1.6,1.1,2.6c0,0.9-0.3,1.6-0.8,2.3l0.9-0.8v-1.4c0-1.1-0.4-2-1.1-2.7C49.5,36.8,48.6,36.5,47.5,36.5L47.5,36.5z
			 M47.5,38.2c-0.6,0-1.1,0.2-1.5,0.6c-0.4,0.4-0.6,0.9-0.6,1.5c0,0.6,0.2,1.1,0.6,1.5c0.4,0.4,0.9,0.6,1.5,0.6s1.1-0.2,1.5-0.6
			c0.4-0.4,0.6-0.9,0.6-1.5c0-0.6-0.2-1.1-0.6-1.5C48.6,38.5,48.1,38.2,47.5,38.2L47.5,38.2z"/>
		<path class="st0" d="M81.5,45.8h-8.9V32.5h3.3v9.8h5.6V45.8L81.5,45.8z M74.2,44h5.6H74.2v-9.8V44L74.2,44z"/>
	</g>
	<path class="st1" d="M11.3,36.6c-0.4-0.6-1-1.2-1.6-1.6c-0.7-0.4-1.5-0.6-2.2-0.6c-1.2,0-2.2,0.4-3.1,1.3c-0.9,0.9-1.3,1.9-1.3,3.1
		S3.5,41,4.4,42c0.9,0.9,1.9,1.3,3.1,1.3c1.4,0,2.5-0.6,3.4-1.7v-1.8H7.3V38h5.3V45h-1.8v-1.1c-0.9,0.8-2,1.2-3.4,1.2
		c-1.7,0-3.1-0.6-4.3-1.8c-1.2-1.2-1.8-2.7-1.8-4.3c0-1.7,0.6-3.1,1.8-4.3c1.3-1.3,2.7-1.9,4.4-1.9c1,0,2,0.2,3,0.8
		c0.9,0.5,1.7,1.3,2.3,2.2L11.3,36.6z"/>
	<path class="st1" d="M21.4,44.8v-1.1c-0.9,0.8-1.9,1.2-3.1,1.2c-1.3,0-2.3-0.5-3.2-1.4c-0.9-0.9-1.3-2-1.3-3.3
		c0-1.3,0.5-2.4,1.4-3.3c0.9-0.9,2-1.4,3.3-1.4s2.4,0.5,3.3,1.4c0.9,0.9,1.4,2,1.4,3.3v4.5L21.4,44.8L21.4,44.8z M21.4,40.3
		c0-0.8-0.3-1.5-0.9-2.1c-0.6-0.6-1.3-0.9-2.1-0.9c-0.8,0-1.5,0.3-2.1,0.9c-0.5,0.6-0.8,1.3-0.8,2.1s0.3,1.5,0.9,2.1
		c0.6,0.6,1.3,0.9,2.1,0.9c0.8,0,1.5-0.3,2.1-0.9C21.1,41.8,21.4,41.1,21.4,40.3z"/>
	<path class="st1" d="M30.3,44.8v-5.2c0-0.6-0.2-1.1-0.7-1.6c-0.4-0.4-1-0.7-1.6-0.7s-1.1,0.2-1.6,0.7c-0.4,0.4-0.7,1-0.7,1.6V45
		h-1.8v-5.3c0-1.1,0.4-2,1.2-2.8c0.8-0.8,1.7-1.2,2.8-1.2c1,0,2,0.4,2.8,1.2s1.2,1.7,1.2,2.8V45h-1.6V44.8z"/>
	<path class="st1" d="M40.4,44.8v-1.1c-0.9,0.8-1.9,1.2-3.1,1.2c-1.3,0-2.3-0.5-3.2-1.4c-0.9-0.9-1.3-2-1.3-3.3
		c0-1.3,0.5-2.4,1.4-3.3c0.9-0.9,2-1.4,3.3-1.4s2.4,0.5,3.3,1.4c0.9,0.9,1.4,2,1.4,3.3v4.5L40.4,44.8L40.4,44.8z M40.4,40.3
		c0-0.8-0.3-1.5-0.9-2.1c-0.6-0.6-1.3-0.9-2.1-0.9s-1.5,0.3-2.1,0.9c-0.5,0.6-0.8,1.3-0.8,2.1s0.3,1.5,0.9,2.1
		c0.6,0.6,1.3,0.9,2.1,0.9s1.5-0.3,2.1-0.9C40.1,41.8,40.4,41.1,40.4,40.3z"/>
	<path class="st1" d="M50.8,47.2c-0.9,0.9-2,1.4-3.3,1.4c-0.8,0-1.6-0.2-2.3-0.6c-0.4-0.2-0.7-0.4-1-0.7c-0.3-0.3-0.5-0.6-0.8-0.9
		l1.5-1c0.6,1,1.5,1.5,2.5,1.5c0.9,0,1.6-0.3,2.1-0.9c0.5-0.5,0.8-1.3,0.8-2.1c-0.9,0.8-1.9,1.2-3.1,1.2c-1.3,0-2.3-0.5-3.2-1.4
		c-0.9-0.9-1.3-2-1.3-3.3s0.5-2.4,1.4-3.3c0.9-0.9,2-1.4,3.3-1.4s2.4,0.5,3.3,1.4c0.9,0.9,1.4,2,1.4,3.3v3.5
		C52.2,45.1,51.8,46.2,50.8,47.2z M50.5,40.3c0-0.8-0.3-1.5-0.9-2.1c-0.6-0.6-1.3-0.9-2.1-0.9s-1.5,0.3-2.1,0.9
		c-0.6,0.6-0.9,1.3-0.9,2.1s0.3,1.5,0.9,2.1c0.6,0.6,1.3,0.9,2.1,0.9s1.5-0.3,2.1-0.9C50.2,41.8,50.5,41.1,50.5,40.3z"/>
	<polygon class="st1" points="73.4,44.8 73.4,33.3 75.1,33.3 75.1,43.2 80.7,43.2 80.7,44.8 	"/>
</g>
</svg>
