<?xml version="1.0" encoding="utf-8"?>
<!-- Generator: Adobe Illustrator 21.0.0, SVG Export Plug-In . SVG Version: 6.00 Build 0)  -->
<svg version="1.1" id="Capa_1" xmlns="http://www.w3.org/2000/svg" xmlns:xlink="http://www.w3.org/1999/xlink" x="0px" y="0px"
	 viewBox="0 0 82 82" style="enable-background:new 0 0 82 82;" xml:space="preserve">
<style type="text/css">
	.st0{fill:#FBC563;}
	.st1{fill:#F49B00;}
	.st2{fill:#1D1D1B;}
	.st3{fill:#C7D300;}
</style>
<g id="XMLID_259_">
	<path id="XMLID_301_" class="st0" d="M66.1,44.6c0,13.9-11.2,25.2-25.1,25.2c-13.9-0.1-25.1-11.3-25.1-25.2
		c0-14,11.2-25.2,25.1-25.2S66.1,30.6,66.1,44.6z"/>
	<path id="XMLID_300_" class="st1" d="M64.8,44.6c0,13.2-10.7,23.9-23.8,23.9c-13.1-0.1-23.8-10.8-23.8-23.9
		c0-13.2,10.7-23.9,23.8-23.9C54.2,20.7,64.8,31.4,64.8,44.6z"/>
	<g id="XMLID_298_">
		<path id="XMLID_299_" class="st2" d="M45.9,32.1c1.1-1.6,1.6-2.8,1.6-2.8l2.2,1.8C49.6,31.1,47.2,32.6,45.9,32.1z"/>
		<path class="st2" d="M51.2,31.1L47,27.7L46.5,29c0,0,0,0,0,0.1c-0.3,0.7-0.7,1.4-1.2,2.1l-0.8,1.1l1.3,0.5
			c0.3,0.1,0.6,0.1,0.9,0.1c1.4,0,3-1,3.2-1.1l0,0L51.2,31.1z"/>
	</g>
	<path id="XMLID_297_" class="st2" d="M26.2,28.8c0,0,4.9-0.3,8.1-1c0.2,0.2,0.3,0.2,0.3,0.2l0.4-0.5c0,0,7.1-0.3,8.8-0.8
		c-1.1,1.3-3.5,3.9-5.3,8.1c0,0,1.6,0.7,2.2,2.2c0.2-0.1,0.4-0.1,0.6-0.2c-0.5-0.4-1.5-2.6,0.4-4.9c2.7-2.7,9.6-1.8,9.3,3.7
		c-0.3,1.3-0.8,6.1-0.8,6.1l2.4,0.4l-1,1.2c0,0,3.2-0.3,6.2,2.9c4.3,4.8-2.6,14.9-5.5,15.6c-1.1-1.1-2.9-1.5-4.1-1.7
		c-0.7,0.5-2.2,1.4-2.2,1.5c-2.5-0.8-5.5-1.3-9.5-0.3c0.9-1.4,1.7-2.5,1.7-2.5s-0.4-0.2-0.6-0.3c-0.4,0.2-2.1,0.9-3.5-0.1
		c-0.7,1-2.7,2.3-5,0.5c-0.8,0.5-3.5,0.8-3.9,0.9c0.5-1.6,1.2-3.4,0.9-7.8c-0.4-5.1-1.3-6.7-2.6-8.4c0,0,5.2-0.1,6.2-1.1
		C29.5,39.8,29.3,30.9,26.2,28.8z"/>
	<path id="XMLID_296_" class="st3" d="M56.7,47.3C54,44,48.9,44,46.3,46.9c-3.1,3.4-0.2,11.1,0.1,12.3c1-0.7,1.8-1.1,2.5-1.4
		c-2-7.1,2-8,3.4-7.4c1.3,0.6,1.2,2.1,0.6,3.6c-0.4-0.1-1.5-0.4-2-0.4c-0.7,0-1.1,1.2-1.1,1.2l2.1,1.4c-0.7,1.2-1.3,2.2-1.5,2.5
		c1.1,0.2,1.3,0.4,2.4,1.1C53.2,59.6,60,51.4,56.7,47.3z"/>
	<path id="XMLID_295_" class="st3" d="M28.7,30.2c0,0,4.2-0.4,5.6-0.8c-0.5,0.9-1.1,1.9-0.7,7.2c0.6-1,2.8-4.6,1.9-7.7
		c1.6-0.1,4.8-0.2,5.2-0.3c-1.1,1.1-3.3,4.2-4.5,7.8c1.2-0.3,3.4-0.2,3.6,3.5c0.3,2.4,1.5,4,2.6,3.5c0,0.7-2.2,2.5-4.1,2.2
		c-1.7-0.3-1.7-3.9-1.8-4.6c-0.1-1-0.1-3.1-2.7-2.2c0.1,1.6,0.4,6,1.7,6.8c-1.6,0-3.1-0.1-5,0.3c0.3-0.7,0.9-1.3,0.5-5.7
		C30.8,35.9,30.3,30.5,28.7,30.2z"/>
	<path id="XMLID_292_" class="st3" d="M48.6,41.2c0.2-1.5,0.6-4.6,0.8-5.7c0.2-1.1-0.6-3-2.6-3.4c-2.3-0.3-4.5,0.1-4.5,2.7
		c0.1,1.8,2.4,1.7,2.7,1c-0.4-0.3-0.4-1.7,0.9-1.6c1.4,0.2,0.9,2-0.2,2.4c-1.3,0.5-2.4,0.9-3.3,1.4c-1.8,1-2.3,4.7,0.3,5.9
		c1.5,0.6,3.1-0.7,3.3-1.1c0.3,0.7,1.6,2.4,3.5,0.2C48.8,43,48.3,42.7,48.6,41.2 M45.2,41.5c-1.1,0.9-2.2-0.8-1.1-2
		c0.4-0.4,2.1-1.2,2.3-1.4C46.2,38.9,46.3,40.5,45.2,41.5z"/>
	<path id="XMLID_289_" class="st3" d="M39.9,54.5c0.1-1.4,0.2-4.2,0.3-5.2c0.1-1-0.6-2.6-2.3-3c-1.9-0.2-3.7,0.2-3.6,2.5
		c0.1,1.5,2.1,1.5,2.2,0.9c-0.4-0.3-0.4-1.5,0.7-1.4s0.8,1.7-0.1,2.1c-1,0.4-1.9,0.9-2.6,1.3c-1.4,0.8-1.6,4.1,0.6,5.2
		c1.3,0.6,2.5-0.6,2.6-0.9c0.3,0.6,1.4,2.2,2.8,0.2C40.1,56.2,39.8,55.9,39.9,54.5 M37.1,54.8c-0.9,0.8-1.9-0.7-1-1.7
		c0.3-0.3,1.6-1.1,1.8-1.3C37.8,52.5,38,54,37.1,54.8z"/>
	<path id="XMLID_286_" class="st3" d="M32.8,48.7c-1.1-1.6-2.8-0.9-3.4,0.3c-0.1-0.4-0.1-2.6-0.1-4.7c-0.9,0.4-3.5,0.6-3.5,0.6
		c0.8,0.7,1,1.2,1.4,3.9c0.7,4.6,0.4,7.6,0.1,8.8c1-0.1,1.6-0.6,2-1.1c0,0,1,2.1,2.8,1.4C34.9,56.5,33.6,49.9,32.8,48.7 M30.8,56
		c-0.7-0.1-1-2.1-1-3.6c0-1.4,0.1-2.6,0.7-2.7c0.9,0,1.1,2.5,1.1,3.2C31.6,53.5,31.7,56,30.8,56z"/>
	<path id="XMLID_285_" class="st3" d="M45.1,56.7c-0.7,0.1-1.4,0.3-2,0.3c0-4.3,1.1-11,1.2-12.4c-0.6,0.3-3.7-0.2-3.7-0.2
		c1.2,0.7,0.7,7.2,0.4,10.2c-0.3,3-0.3,3.2-1.1,4.3c0.1,0,2.8,0,5.2,0.7C45.6,57.6,45.1,56.7,45.1,56.7z"/>
	<path id="XMLID_284_" class="st2" d="M51.5,47.7c0,0.4-0.3,0.7-0.7,0.7s-0.7-0.3-0.7-0.7s0.3-0.7,0.7-0.7
		C51.1,47,51.5,47.3,51.5,47.7z"/>
	<path id="XMLID_283_" class="st2" d="M54.4,48.8c0,0.3-0.2,0.6-0.5,0.6c-0.3,0-0.5-0.3-0.5-0.6c0-0.3,0.2-0.6,0.5-0.6
		C54.2,48.2,54.4,48.5,54.4,48.8z"/>
	<path id="XMLID_282_" class="st2" d="M55.4,51.7c0,0.3-0.2,0.6-0.5,0.6c-0.3,0-0.5-0.3-0.5-0.6c0-0.3,0.2-0.5,0.5-0.5
		C55.2,51.2,55.4,51.4,55.4,51.7z"/>
	<path id="XMLID_281_" class="st2" d="M54.9,54.8c0,0.3-0.2,0.5-0.5,0.5c-0.3,0-0.5-0.2-0.5-0.5c0-0.3,0.3-0.5,0.5-0.5
		C54.7,54.3,54.9,54.5,54.9,54.8z"/>
	<path id="XMLID_280_" class="st2" d="M48.2,49.6c0,0.4-0.3,0.6-0.6,0.6c-0.3,0-0.6-0.3-0.6-0.6c0-0.3,0.3-0.6,0.6-0.6
		S48.2,49.3,48.2,49.6z"/>
	<path id="XMLID_279_" class="st2" d="M46.9,52.7c0,0.3-0.2,0.6-0.5,0.6c-0.3,0-0.5-0.3-0.5-0.6c0-0.3,0.2-0.5,0.5-0.5
		C46.7,52.2,46.9,52.4,46.9,52.7z"/>
	<path id="XMLID_278_" class="st3" d="M45.8,32.2c1.1-1.6,1.6-2.8,1.6-2.8l2.2,1.8C49.5,31.2,47.1,32.7,45.8,32.2z"/>
	<path class="st2" d="M44.7,16.1L44.7,16.1L44.7,16.1c0-0.7-0.2-1.2-0.7-1.5c-0.4-0.4-0.9-0.4-1.5-0.5c-0.5,0-0.9-0.1-1.2,0
		c-0.2,0.1-0.3,0.2-0.4,0.3c0-0.1-0.1-0.1-0.1-0.2l-0.1-0.1l0.2-0.2c0,0,0,0,0-0.1c0.2-0.2,0.2-0.6,0-0.9l0,0l-0.4-0.5
		c-0.3-0.2-0.6-0.2-0.8-0.2c-0.2,0-0.3,0.1-0.4,0.3l0,0l-0.7,1l0,0c-0.1,0.2-0.1,0.3-0.1,0.5c0,0-0.1,0-0.1,0.1
		C38.3,14,38.1,14,38,14h-0.2c-0.1,0-0.3,0.1-0.4,0.1s-0.2-0.1-0.3,0l-1.5,0.2c-0.2,0-0.5,0.2-0.6,0.5c-0.4-0.2-0.8-0.2-1.2-0.1
		l-0.5,0.1c0,0,0,0-0.1,0c-0.4,0.1-0.9,0.4-1.2,0.8c-0.2-0.2-0.4-0.3-0.7-0.3l-0.2-0.6c-0.1-0.4-0.5-0.6-0.9-0.5l0,0l-0.5,0.2
		c-0.3,0.1-0.5,0.4-0.4,0.9c0.1,0.4,0.1,0.6,0.1,0.6L29.3,16c-0.3,0.2-0.4,0.4-0.5,0.6c-0.3-0.1-0.7,0-1,0c-0.1,0-0.2,0.1-0.3,0.1
		l-0.3,0.1c-0.7,0.3-1.3,1-1.3,2l-0.7,0.6c-0.3,0.2-0.5,0.6-0.2,1.1l0,0l-0.2,0.1l-0.5-0.7c0.2-0.2,0.4-0.6,0.1-1L24,18.2
		c-0.3-0.5-0.7-0.4-0.9-0.4c0,0-0.1,0-0.2,0.1l-2.1,1.4c-0.1,0.1-0.2,0.3-0.3,0.4c0,0.2,0,0.4,0.1,0.6l0.5,0.8
		c0.2,0.3,0.5,0.4,0.8,0.3c0,0,0.1,0,0.1-0.1l0.5,0.8c-0.2,0.2-0.3,0.4-0.3,0.6c0,0.1,0.1,0.2,0.1,0.3l0.5,0.7
		c0.2,0.3,0.5,0.4,0.8,0.3c0.1,0,0.1,0,0.2-0.1l3.8-2.5c0.3,0.1,0.4-0.1,0.5-0.2c0.2,0,0.5,0,0.7-0.1c0.1,0,0.2-0.1,0.3-0.1l0.4-0.2
		c0.2-0.1,0.6-0.3,0.9-0.8c0.1-0.1,0.1-0.2,0.2-0.3c0.4,0.3,0.8,0.4,1,0.3l0,0l0.7-0.2c0.2-0.1,0.5-0.3,0.7-0.7
		c0.4,0.1,0.9,0.1,1.5,0l0.3-0.1h0.1c0.2,0,0.4-0.1,0.6-0.3c0.1,0.1,0.3,0.1,0.4,0.1l2-0.2H38c0.1,0,0.2-0.1,0.3-0.1
		c0.1,0.1,0.2,0.1,0.4,0.1h2.1c0,0,0.1,0,0.2,0s0.1,0,0.1-0.1c0.2,0.1,0.4,0.1,0.7,0.1c0.1,0,0.3,0,0.4,0s0.2-0.1,0.3-0.1
		c0.2,0.2,0.3,0.2,0.6,0.3l0.7,0.1c0.1,0,0.3,0,0.4,0c0.3-0.1,1-0.4,1.1-1.9C45.3,16.4,45,16.1,44.7,16.1z"/>
	<path id="XMLID_276_" class="st3" d="M27.2,20.9c0.1,0.1,0,0.1,0,0.2l-3.8,2.5c0,0-0.1,0-0.1-0.1l-0.4-0.7v-0.1l0.5-0.3l-1.3-1.9
		l-0.5,0.4c0,0-0.1,0-0.1-0.1L21,20c0-0.1-0.1-0.1,0-0.1l2.1-1.4c0,0,0.1,0,0.1,0.1l0.5,0.7c0,0.1,0,0.1,0,0.1l-0.4,0.4l1.2,1.8
		l1.3-0.9l-0.4-0.5L25.3,20l0.8-0.5c0,0,0.1,0,0.2,0.1L27.2,20.9z"/>
	<path id="XMLID_273_" class="st3" d="M28.6,20.5c-0.8,0.4-1.7,0-2.1-0.8c-0.5-1.1,0.1-1.8,0.8-2.1l0.3-0.1c0.4-0.2,1.5-0.3,2,0.8
		c0.6,1.3-0.4,1.9-0.7,2.1L28.6,20.5z M27.7,19.2c0.2,0.4,0.5,0.6,0.7,0.5s0.3-0.4,0.1-0.9c-0.2-0.4-0.6-0.5-0.7-0.5
		C27.6,18.4,27.5,18.8,27.7,19.2z"/>
	<path id="XMLID_271_" class="st3" d="M30,17.5l-0.4,0.1h-0.1l-0.2-0.7c0-0.1,0-0.1,0-0.1l0.2-0.1c0.4-0.1,0.5-0.5,0.3-1.3
		c0-0.1,0-0.1,0-0.1l0.5-0.2c0,0,0,0,0.1,0.1l0.4,1.2l0.5-0.2c0,0,0.1,0,0.1,0.1l0.2,0.6V17l-0.5,0.2l0.3,0.8
		c0.1,0.2,0.2,0.4,0.4,0.4c0.1-0.2,0.1-0.4,0-0.8c0-0.1,0-0.1,0-0.2l0.3-0.1c0,0,0,0,0.1,0.1c0,0.3,0.3,1.6-0.3,1.8l-0.7,0.2
		c-0.1,0-0.5,0-0.8-0.7L30,17.5z"/>
	<path id="XMLID_268_" class="st3" d="M34.2,18.6c-0.5,0.1-1.7,0.3-2-1.2c-0.3-1.5,0.9-1.8,1-1.9l0.5-0.1c0.6-0.1,1.5,0.2,1.7,1.2
		v0.1c0,0,0,0.1-0.1,0.1l-2,0.4c0.1,0.4,0.4,0.5,0.7,0.5h0.3c0.2-0.1,0.4-0.2,0.5-0.5l0,0l0.6-0.1v0.1c0,0.3,0,1.2-1,1.5L34.2,18.6z
		 M34.2,16.5c-0.1-0.2-0.3-0.3-0.5-0.3c-0.3,0.1-0.4,0.3-0.4,0.5L34.2,16.5z"/>
	<path id="XMLID_266_" class="st3" d="M37.9,14.8c0.2,0,0.5,0.2,0.6,0.7c0,0.4-0.1,0.7-0.3,0.7s-0.3-0.2-0.4-0.3
		c-0.1-0.1-0.2-0.1-0.3-0.1s-0.3,0.3-0.3,0.7l0.1,0.7l0.4-0.1c0,0,0,0,0,0.1l0.1,0.8v0.1l-2,0.2c0,0,0,0,0-0.1l-0.1-0.8
		c0,0,0,0,0-0.1h0.5L36.1,16h-0.5c0,0,0,0,0-0.1l-0.2-0.7c0-0.1,0-0.1,0-0.1l1.6-0.2c0,0,0,0,0,0.1v0.5c0.1-0.3,0.3-0.6,0.6-0.7
		H37.9z"/>
	<path id="XMLID_263_" class="st3" d="M40.6,17C40.6,17,40.7,17,40.6,17l0.1,0.8v0.1h-2.1c0,0,0,0,0-0.1V17v-0.1h0.5v-1.3h-0.5
		c0,0-0.1,0,0-0.1v-0.7c0-0.1,0-0.1,0.1-0.1h1.5c0,0,0,0,0,0.1V17H40.6z M40.1,13.4v0.1l-0.8,0.8l0,0L39,13.9v-0.1l0.7-1
		c0,0,0.1,0,0,0L40.1,13.4z"/>
	<path id="XMLID_260_" class="st3" d="M43.7,16.9c0,0,0,0.3,0.2,0.3c0.2,0,0.3-0.4,0.3-0.5l0,0h0.3l0,0c-0.1,1.2-0.6,1.5-0.8,1.5
		l-0.8-0.1c-0.3,0-0.4-0.4-0.5-0.6c-0.2,0.4-0.7,0.5-0.8,0.5c-0.3,0-1.1-0.2-1-1c0.1-0.9,1-0.9,1.1-0.9l0.4,0.1c0.1,0,0.4,0,0.4-0.2
		s-0.1-0.3-0.2-0.3H42c-0.1,0-0.3,0.2-0.4,0.3c-0.1,0.1-0.4,0.2-0.5,0.2c-0.1,0-0.4-0.1-0.3-0.6c0.1-0.6,0.6-0.7,1.5-0.6
		c1,0.1,1.5,0.3,1.4,1.2L43.7,16.9z M42.5,16.3L42.5,16.3c0,0.1-0.1,0.3-0.3,0.3c-0.1,0.1-0.3,0.1-0.3,0.4c0,0.1,0.1,0.2,0.2,0.2
		c0.2,0,0.4-0.1,0.5-0.6L42.5,16.3z"/>
</g>
</svg>
