<svg xmlns="http://www.w3.org/2000/svg" viewBox="0 0 16.3 12.82"><defs><style>.cls-1{fill:#006b2d;}</style></defs><title>whistle</title><g id="Layer_2" data-name="Layer 2"><g id="bolillas"><polygon class="cls-1" points="8.12 3.29 8.81 4.16 10.67 3.04 9.83 2.25 8.12 3.29"/><path class="cls-1" d="M16.29,7.28h0A79.82,79.82,0,0,0,10.11.9C8.3-.49,5-.4,1.94,2.09l-.42.34-.07.05A4.4,4.4,0,0,0,1.1,8.66a4.4,4.4,0,0,0,6.1,1.11,5.24,5.24,0,0,0,1-1.31l3.67,4.35,4.41-2.91.06-2.61h0Zm-.94,2.27-2.14,1.31v-.61l2.14-1.31Zm-3-.05L7.57,3.64l0-.05-.1-.12-.11-.13h0A4.81,4.81,0,0,0,3.83,1.69C6.09.49,8.32.34,9.68,1.43a77.52,77.52,0,0,1,6,6.19Z"/></g></g></svg>