<?xml version="1.0" encoding="utf-8"?>
<!-- Generator: Adobe Illustrator 23.0.3, SVG Export Plug-In . SVG Version: 6.00 Build 0)  -->
<svg version="1.1" id="Capa_1" xmlns="http://www.w3.org/2000/svg" xmlns:xlink="http://www.w3.org/1999/xlink" x="0px" y="0px"
	 viewBox="0 0 100 89.6" style="enable-background:new 0 0 100 89.6;" xml:space="preserve">
<style type="text/css">
	.st0{fill:url(#SVGID_1_);}
	.st1{fill:url(#SVGID_2_);}
	.st2{fill:url(#SVGID_3_);}
</style>
<g>
	<linearGradient id="SVGID_1_" gradientUnits="userSpaceOnUse" x1="13.6807" y1="76.7397" x2="20.8731" y2="89.52">
		<stop  offset="0" style="stop-color:#CC8911"/>
		<stop  offset="0.2448" style="stop-color:#F5A200"/>
		<stop  offset="0.3936" style="stop-color:#F7AB00"/>
		<stop  offset="0.6344" style="stop-color:#FDC300"/>
		<stop  offset="0.6617" style="stop-color:#FEC600"/>
	</linearGradient>
	<polygon class="st0" points="5.3,80.6 20,69.2 20,89.2 	"/>
	<linearGradient id="SVGID_2_" gradientUnits="userSpaceOnUse" x1="94.9796" y1="14.4772" x2="81.6635" y2="34.574">
		<stop  offset="0" style="stop-color:#FFAB00"/>
		<stop  offset="0.2448" style="stop-color:#F5A200"/>
		<stop  offset="0.3936" style="stop-color:#F7AB00"/>
		<stop  offset="0.6344" style="stop-color:#FDC300"/>
		<stop  offset="0.6617" style="stop-color:#FEC600"/>
	</linearGradient>
	<polygon class="st1" points="77.7,24.2 94.9,10.6 99.4,24.2 	"/>
	<linearGradient id="SVGID_3_" gradientUnits="userSpaceOnUse" x1="0.52" y1="40.5569" x2="94.918" y2="40.5569">
		<stop  offset="0" style="stop-color:#F5A200"/>
		<stop  offset="1" style="stop-color:#FEC600"/>
	</linearGradient>
	<polygon class="st2" points="51.2,45 5.3,80.5 0.5,43.3 53.2,0.6 94.9,10.6 	"/>
</g>
<g>
	<path d="M30.3,48.5c0.9-0.2,2.1-0.6,3.2-1.4c1.1-0.9,1.3-1.8,0.8-2.4c-0.5-0.7-1.3-0.6-2.9-0.1c-2.2,0.8-4.1,0.7-5.3-0.9
		c-1.4-1.8-1-4.3,1.5-6.3c1.2-0.9,2.3-1.4,3.1-1.6l1,2.3C31,38.3,30,38.6,29,39.4c-1,0.8-1.2,1.7-0.7,2.2c0.5,0.7,1.3,0.5,3.1,0
		c2.4-0.8,4-0.5,5.2,1c1.4,1.8,1.2,4.3-1.7,6.6c-1.2,0.9-2.6,1.6-3.5,1.7L30.3,48.5z"/>
	<path d="M39.9,46L34.4,32l1.6-1.2l5.5,13.9L39.9,46z"/>
	<path d="M43.1,24.2L43.1,24.2l-1.8,3.5l-2.5-2.1l2.4-4.7l2.8-2.2l11.2,14.3l-3.2,2.5L43.1,24.2z"/>
</g>
</svg>
