<?xml version="1.0" encoding="utf-8"?>
<!-- Generator: Adobe Illustrator 23.0.3, SVG Export Plug-In . SVG Version: 6.00 Build 0)  -->
<svg version="1.1" id="Capa_1" xmlns="http://www.w3.org/2000/svg" xmlns:xlink="http://www.w3.org/1999/xlink" x="0px" y="0px"
	 viewBox="0 0 100 89.9" style="enable-background:new 0 0 100 89.9;" xml:space="preserve">
<style type="text/css">
	.st0{fill:url(#SVGID_1_);}
	.st1{fill:url(#SVGID_2_);}
	.st2{fill:url(#SVGID_3_);}
</style>
<g>
	<g>
		<linearGradient id="SVGID_1_" gradientUnits="userSpaceOnUse" x1="13.9527" y1="77.0917" x2="21.1629" y2="89.9035">
			<stop  offset="0" style="stop-color:#CC8911"/>
			<stop  offset="0.2448" style="stop-color:#F5A200"/>
			<stop  offset="0.3936" style="stop-color:#F7AB00"/>
			<stop  offset="0.6344" style="stop-color:#FDC300"/>
			<stop  offset="0.6617" style="stop-color:#FEC600"/>
		</linearGradient>
		<polygon class="st0" points="5.6,80.9 20.2,69.5 20.3,89.5 		"/>
		<linearGradient id="SVGID_2_" gradientUnits="userSpaceOnUse" x1="95.4523" y1="14.6756" x2="82.1033" y2="34.8219">
			<stop  offset="0" style="stop-color:#FFAB00"/>
			<stop  offset="0.2448" style="stop-color:#F5A200"/>
			<stop  offset="0.3936" style="stop-color:#F7AB00"/>
			<stop  offset="0.6344" style="stop-color:#FDC300"/>
			<stop  offset="0.6617" style="stop-color:#FEC600"/>
		</linearGradient>
		<polygon class="st1" points="78.1,24.4 95.4,10.8 99.9,24.4 		"/>
		<linearGradient id="SVGID_3_" gradientUnits="userSpaceOnUse" x1="0.7596" y1="40.8196" x2="95.3906" y2="40.8196">
			<stop  offset="0" style="stop-color:#F5A200"/>
			<stop  offset="1" style="stop-color:#FEC600"/>
		</linearGradient>
		<polygon class="st2" points="51.5,45.3 5.6,80.9 0.8,43.5 53.5,0.8 95.4,10.8 		"/>
	</g>
	<g>
		<path d="M23.7,55.2c0.9-0.2,2.1-0.6,3.2-1.4c1.1-0.9,1.3-1.8,0.8-2.4c-0.5-0.7-1.3-0.6-2.9-0.1c-2.2,0.8-4.1,0.7-5.3-0.9
			c-1.4-1.8-1-4.3,1.5-6.3c1.2-0.9,2.3-1.4,3.1-1.6l1,2.3c-0.6,0.1-1.6,0.4-2.6,1.2c-1,0.8-1.2,1.7-0.7,2.2c0.5,0.7,1.3,0.5,3.1,0
			c2.4-0.8,4-0.5,5.2,1c1.4,1.8,1.2,4.3-1.7,6.6c-1.2,0.9-2.6,1.6-3.5,1.7L23.7,55.2z"/>
		<path d="M32.6,53.3l-5.5-14l1.6-1.2l5.5,14L32.6,53.3z"/>
		<path d="M34.2,32.7L34.2,32.7l-1.8,3.5l-2.5-2.1l2.4-4.7l2.8-2.2l11.2,14.4L43,44.1L34.2,32.7z"/>
		<path d="M48.2,37.3c-0.9-1.2-0.8-2.7,0.4-3.6c1.2-0.9,2.6-0.7,3.6,0.5c0.9,1.2,0.8,2.7-0.4,3.6C50.6,38.7,49.1,38.4,48.2,37.3z"/>
		<path d="M54,16.9l-5.6,4.3l1.4,2.5c0.3-0.3,0.5-0.5,0.9-0.8c1.4-1.1,3-1.8,4.6-1.9c1.7-0.1,3.2,0.6,4.6,2.2
			c2.1,2.7,1.6,6.8-2.2,9.8c-1.7,1.4-3.5,2.1-4.6,2.3l-1.4-3c0.9-0.2,2.5-0.8,3.8-1.8c1.4-1.1,2.4-2.9,1.2-4.4
			c-1.2-1.5-3-1.5-5.9,0.8c-0.8,0.6-1.3,1.1-1.8,1.6l-4.9-8.3l7.9-6.2L54,16.9z"/>
	</g>
</g>
</svg>
