<?xml version="1.0" encoding="utf-8"?>
<!-- Generator: Adobe Illustrator 23.0.3, SVG Export Plug-In . SVG Version: 6.00 Build 0)  -->
<svg version="1.1" id="Capa_1" xmlns="http://www.w3.org/2000/svg" xmlns:xlink="http://www.w3.org/1999/xlink" x="0px" y="0px"
	 viewBox="0 0 100 89.6" style="enable-background:new 0 0 100 89.6;" xml:space="preserve">
<style type="text/css">
	.st0{fill:url(#SVGID_1_);}
	.st1{fill:url(#SVGID_2_);}
	.st2{fill:url(#SVGID_3_);}
</style>
<g>
	<g>
		<linearGradient id="SVGID_1_" gradientUnits="userSpaceOnUse" x1="13.3097" y1="77.0212" x2="20.5837" y2="89.9463">
			<stop  offset="0" style="stop-color:#CC8911"/>
			<stop  offset="0.2448" style="stop-color:#F5A200"/>
			<stop  offset="0.3936" style="stop-color:#F7AB00"/>
			<stop  offset="0.6344" style="stop-color:#FDC300"/>
			<stop  offset="0.6617" style="stop-color:#FEC600"/>
		</linearGradient>
		<polygon class="st0" points="4.9,80.9 19.7,69.4 19.7,89.6 		"/>
		<linearGradient id="SVGID_2_" gradientUnits="userSpaceOnUse" x1="95.5295" y1="14.0536" x2="82.0626" y2="34.378">
			<stop  offset="0" style="stop-color:#FFAB00"/>
			<stop  offset="0.2448" style="stop-color:#F5A200"/>
			<stop  offset="0.3936" style="stop-color:#F7AB00"/>
			<stop  offset="0.6344" style="stop-color:#FDC300"/>
			<stop  offset="0.6617" style="stop-color:#FEC600"/>
		</linearGradient>
		<polygon class="st1" points="78,23.9 95.5,10.2 100,23.9 		"/>
		<linearGradient id="SVGID_3_" gradientUnits="userSpaceOnUse" x1="0" y1="40.4286" x2="95.4672" y2="40.4286">
			<stop  offset="0" style="stop-color:#F5A200"/>
			<stop  offset="1" style="stop-color:#FEC600"/>
		</linearGradient>
		<polygon class="st2" points="51.2,44.9 4.9,80.8 0,43.2 53.2,0 95.5,10.1 		"/>
	</g>
	<g>
		<path d="M20.8,54.7c0.9-0.2,2.2-0.6,3.2-1.4c1.1-0.9,1.3-1.8,0.8-2.5c-0.5-0.7-1.3-0.7-3-0.1c-2.3,0.8-4.2,0.7-5.4-0.9
			c-1.4-1.8-1-4.4,1.5-6.4c1.2-0.9,2.3-1.4,3.1-1.6l1,2.4c-0.6,0.1-1.6,0.4-2.6,1.2c-1,0.8-1.2,1.7-0.7,2.2c0.5,0.7,1.4,0.5,3.2,0
			c2.4-0.8,4.1-0.5,5.3,1c1.4,1.8,1.2,4.4-1.7,6.7c-1.2,0.9-2.7,1.6-3.5,1.7L20.8,54.7z"/>
		<path d="M30.5,52.2L24.9,38l1.6-1.2l5.6,14.2L30.5,52.2z"/>
		<path d="M38.3,45L36.7,43l0.5-3.2c0.9-5.3,1.2-8.2-0.1-9.9c-0.9-1.2-2.4-1.6-4-0.3c-1.2,1-1.9,2.5-2.2,3.6l-2.9-1.7
			c0.4-1.7,1.6-3.7,3.6-5.2c3.3-2.6,6.6-2,8.7,0.6c1.9,2.4,1.7,5.8,1,9.3l-0.5,2.2l0,0l5.5-4.3l2.2,2.8L38.3,45z"/>
		<path d="M55.1,20.1c3.5,4.5,4.1,9,0.4,11.9c-3.7,2.9-8,0.8-11.3-3.3c-3.3-4.2-4.1-9-0.4-11.9C47.8,13.8,52,16.1,55.1,20.1z
			 M47.7,26.1c2.6,3.4,4.6,4.3,5.9,3.3c1.3-1,0.7-3.2-1.9-6.6c-2.5-3.2-4.5-4.4-5.9-3.3C44.6,20.5,45,22.7,47.7,26.1z"/>
	</g>
</g>
</svg>
