<?xml version="1.0" encoding="utf-8"?>
<!-- Generator: Adobe Illustrator 23.0.3, SVG Export Plug-In . SVG Version: 6.00 Build 0)  -->
<svg version="1.1" id="Capa_1" xmlns="http://www.w3.org/2000/svg" xmlns:xlink="http://www.w3.org/1999/xlink" x="0px" y="0px"
	 viewBox="0 0 100 90.5" style="enable-background:new 0 0 100 90.5;" xml:space="preserve">
<style type="text/css">
	.st0{fill:url(#SVGID_1_);}
	.st1{fill:url(#SVGID_2_);}
	.st2{fill:url(#SVGID_3_);}
</style>
<g>
	
		<linearGradient id="SVGID_1_" gradientUnits="userSpaceOnUse" x1="14.4418" y1="12.0389" x2="21.6105" y2="-0.6995" gradientTransform="matrix(1 0 0 -1 0 89.89)">
		<stop  offset="0" style="stop-color:#CC8911"/>
		<stop  offset="0.2448" style="stop-color:#F5A200"/>
		<stop  offset="0.3936" style="stop-color:#F7AB00"/>
		<stop  offset="0.6344" style="stop-color:#FDC300"/>
		<stop  offset="0.6617" style="stop-color:#FEC600"/>
	</linearGradient>
	<polygon class="st0" points="6.1,81.7 20.7,70.3 20.7,90.2 	"/>
	
		<linearGradient id="SVGID_2_" gradientUnits="userSpaceOnUse" x1="95.4645" y1="74.0708" x2="82.1922" y2="54.0402" gradientTransform="matrix(1 0 0 -1 0 89.89)">
		<stop  offset="0" style="stop-color:#FFAB00"/>
		<stop  offset="0.2448" style="stop-color:#F5A200"/>
		<stop  offset="0.3936" style="stop-color:#F7AB00"/>
		<stop  offset="0.6344" style="stop-color:#FDC300"/>
		<stop  offset="0.6617" style="stop-color:#FEC600"/>
	</linearGradient>
	<polygon class="st1" points="78.2,25.5 95.4,12 99.9,25.5 	"/>
	
		<linearGradient id="SVGID_3_" gradientUnits="userSpaceOnUse" x1="1.3" y1="48.09" x2="95.4" y2="48.09" gradientTransform="matrix(1 0 0 -1 0 89.89)">
		<stop  offset="0" style="stop-color:#F5A200"/>
		<stop  offset="1" style="stop-color:#FEC600"/>
	</linearGradient>
	<polygon class="st2" points="51.8,46.2 6.1,81.6 1.3,44.5 53.8,2 95.4,12 	"/>
</g>
<g>
	<path d="M30.3,49.9c0.9-0.2,2.2-0.6,3.2-1.4c1.1-0.9,1.3-1.8,0.8-2.5c-0.5-0.7-1.3-0.7-3-0.1c-2.2,0.8-4.2,0.7-5.4-0.9
		c-1.4-1.8-1-4.4,1.5-6.4c1.2-0.9,2.3-1.4,3.1-1.6l1,2.4c-0.6,0.1-1.6,0.4-2.6,1.2c-1,0.8-1.2,1.7-0.7,2.3c0.5,0.7,1.4,0.5,3.1,0
		c2.4-0.8,4.1-0.5,5.2,1c1.4,1.8,1.2,4.4-1.7,6.7c-1.2,1-2.7,1.6-3.5,1.7L30.3,49.9z"/>
	<path d="M39.9,47.4l-5.5-14.2l1.6-1.3l5.5,14.2L39.9,47.4z"/>
	<path d="M45.8,36.3c0.8-0.2,2.7-0.7,4.1-1.7c1.8-1.4,2-2.9,1.1-4c-1.1-1.4-3-1-4.5,0.2L45,31.8l-1.9-2.5l1.3-1
		c1.1-0.9,2.2-2.5,1.3-3.7c-0.7-0.9-1.9-1-3.3,0.2c-1.2,0.9-2,2.4-2.4,3.3l-2.6-1.9c0.4-1.2,1.8-3.2,3.6-4.6
		c3.1-2.4,6.1-2.1,7.6-0.1c1.2,1.6,1.3,3.5,0,5.5l0,0c2-1.1,4.4-0.8,5.9,1.1c2,2.6,1.2,6.3-2.5,9.2c-1.9,1.5-3.8,2.2-5.1,2.4
		L45.8,36.3z"/>
</g>
</svg>
