<?xml version="1.0" encoding="utf-8"?>
<!-- Generator: Adobe Illustrator 21.1.0, SVG Export Plug-In . SVG Version: 6.00 Build 0)  -->
<svg version="1.1" id="Capa_1" xmlns="http://www.w3.org/2000/svg" xmlns:xlink="http://www.w3.org/1999/xlink" x="0px" y="0px"
	 viewBox="0 0 302.5 260.6" style="enable-background:new 0 0 302.5 260.6;" xml:space="preserve">
<style type="text/css">
	.st0{enable-background:new    ;}
	.st1{fill:#EB872F;}
</style>
<g class="st0">
	<path class="st1" d="M63.7,230.4h8.6c5.7,0,9.1,1.9,9.1,7.2c0,3.5-1.5,5.5-4.4,6.4l4.7,8.5h-6.3l-4.3-7.7h-1.6v7.7h-5.9V230.4z
		 M72.1,240.3c2.4,0,3.5-0.7,3.5-2.5c0-1.9-1.1-2.5-3.5-2.5h-2.6v5H72.1z"/>
</g>
<g class="st0">
	<path class="st1" d="M85.2,230.4h15.8v5h-9.8v3.6h7v4.7h-7v4.1h10.3v4.8H85.2V230.4z"/>
</g>
<g class="st0">
	<path class="st1" d="M102.9,247.6l4.4-2.7c1.3,2.1,3.5,3.3,5.8,3.3c1.8,0,3.2-0.5,3.2-1.9c0-1.4-1.8-1.9-3.9-2.5
		c-3.6-0.9-8.4-1.9-8.4-6.9c0-4.5,3.4-7,8.4-7c4.7,0,7.5,2.2,9.3,4.3l-4,3.3c-1.2-1.5-3.4-2.8-5.3-2.8c-1.7,0-2.6,0.6-2.6,1.6
		c0,1.5,1.7,2,3.9,2.5c3.6,0.9,8.5,2,8.5,6.9c0,3.5-2.5,7-9.3,7C107.8,252.9,104.8,250.6,102.9,247.6z"/>
	<path class="st1" d="M125.3,230.4h8.3c4.7,0,9.6,1,9.6,7.5c0,6.5-5.2,7.5-9.6,7.5h-2.4v7h-5.9V230.4z M133.8,240.9
		c2.8,0,3.5-1.2,3.5-2.8c0-1.7-0.7-2.8-3.5-2.8h-2.6v5.7H133.8z"/>
	<path class="st1" d="M144.9,241.4c0-8.1,5.5-11.5,10.9-11.5c5.3,0,10.8,3.4,10.8,11.5s-5.5,11.5-10.8,11.5
		C150.4,252.9,144.9,249.5,144.9,241.4z M160.6,241.4c0-4.1-1.8-6.5-4.9-6.5c-3.1,0-4.9,2.5-4.9,6.5s1.8,6.7,4.9,6.7
		C158.8,248.1,160.6,245.5,160.6,241.4z"/>
	<path class="st1" d="M169.7,230.4h5.9l8.1,12.4h0.1v-12.4h5.5v22.1h-5.5l-8.5-12.4h-0.1v12.4h-5.5V230.4z"/>
</g>
<g class="st0">
	<path class="st1" d="M192,247.6l4.4-2.7c1.3,2.1,3.5,3.3,5.8,3.3c1.8,0,3.2-0.5,3.2-1.9c0-1.4-1.8-1.9-3.9-2.5
		c-3.6-0.9-8.4-1.9-8.4-6.9c0-4.5,3.4-7,8.4-7c4.7,0,7.5,2.2,9.3,4.3l-4,3.3c-1.2-1.5-3.4-2.8-5.3-2.8c-1.7,0-2.6,0.6-2.6,1.6
		c0,1.5,1.7,2,3.9,2.5c3.6,0.9,8.5,2,8.5,6.9c0,3.5-2.5,7-9.3,7C196.9,252.9,193.9,250.6,192,247.6z"/>
</g>
<g class="st0">
	<path class="st1" d="M219.6,230.3h5.6l7.8,22.2h-6l-1.3-4.1h-7l-1.4,4.1h-5.4L219.6,230.3z M224.3,244.1l-2-6.1h-0.1l-2.1,6.1
		H224.3z"/>
	<path class="st1" d="M235.4,230.4h9.3c3.7,0,8,0.6,8,5.4c0,3.2-2,4.6-4.2,5v0.1c2.7,0.5,4.7,1.8,4.7,5.4c0,4.8-4.5,6.1-8.2,6.1
		h-9.6V230.4z M244,239.2c2.2,0,3-0.8,3-2.1c0-1.3-0.8-2.1-2.9-2.1h-2.9v4.2H244z M244.2,248c2.2,0,3.2-0.9,3.2-2.4
		c0-1.5-1-2.3-3.3-2.3h-2.9v4.7H244.2z"/>
	<path class="st1" d="M257,230.4h6v17.3h9.3v4.8H257V230.4z"/>
	<path class="st1" d="M274.7,230.4h15.8v5h-9.8v3.6h7v4.7h-7v4.1H291v4.8h-16.3V230.4z"/>
</g>
<g class="st0">
	<path class="st1" d="M62.2,215.6l6.8-9.1c1.8,1.5,4.5,3.3,7.5,3.3c3.5,0,5.3-2.3,5.3-7.9v-32.5h13.5v34.9c0,9.3-4.6,16.2-18,16.2
		C69.7,220.4,65.7,218.3,62.2,215.6z"/>
	<path class="st1" d="M102.5,199.4v-30h13.5v29.9c0,6.9,2.2,10,7.7,10c5.4,0,7.6-3.1,7.6-10v-29.9h13.3v30c0,13.3-6.4,20.9-21,20.9
		C109,220.2,102.5,212.6,102.5,199.4z"/>
	<path class="st1" d="M152.9,169.4h35.8v11.2h-22.2v8.1h15.8v10.6h-15.8v9.3h23.4v10.9h-36.9V169.4z"/>
	<path class="st1" d="M192.9,194.2c0-15.7,8.7-25.8,23.6-25.8c9.5,0,17.6,3.2,21.1,16.3l-12.4,3.5c-2-6.4-4.9-8.6-8.8-8.6
		c-2.2,0-9.9,0.3-9.9,14.4c0,14,6.9,15.6,10.5,15.6c4.3,0,7.4-2.4,8.8-6h-7.3v-9.9h20.2v25.8h-10.6v-6.6h-0.1
		c-0.7,2.4-5.1,7.6-12.6,7.6C199.3,220.4,192.9,209.3,192.9,194.2z"/>
	<path class="st1" d="M245.5,194.4c0-18.4,12.5-26,24.7-26c12.1,0,24.6,7.7,24.6,26s-12.5,26-24.6,26
		C258,220.4,245.5,212.8,245.5,194.4z M281.2,194.4c0-9.2-4-14.8-11-14.8c-7.1,0-11.1,5.6-11.1,14.8s4,15.2,11.1,15.2
		C277.2,209.6,281.2,203.6,281.2,194.4z"/>
</g>
<path class="st1" d="M111.1,157.2c-0.4,1.6-1.4,2.3-3.2,2.4c-6.6,0.2-6.6,0.2-5.5-6.4c1.6-9,1.5-18.3-0.3-27.3
	c-4-22.1-8.3-44.1-12.2-66.2c-0.3-1.5-0.6-3.1-0.8-4.6c-0.8-4.1-1.5-8.2-2.4-12.2c-0.8-4.4-5.1-7.3-9.5-6.4c0,0-0.1,0-0.1,0
	c-5,1-7.5,4.8-6.7,9.8c0.6,4.2,1.2,8.3,1.8,12.5c2.1,14.1,4.1,28.2,6.2,42.3c0.8,5.5,1.5,11,2.3,16.5c0.2,1.6,0.3,3-1.7,3.3
	s-2.4-1.1-2.8-2.6c-2.2-8.4-4.3-16.9-6.6-25.3c-1.7-6.5-5.8-9.1-11.6-7.7c-4,0.9-6.8,4.4-7,8.4c-0.4,5.1,0.9,10.1,1.3,15.2
	c0.4,4.3,1,8.7,1.6,13c0.2,1.6,0,2.8-1.7,3.2s-2.4-0.9-2.8-2.3c-1.5-5.6-2.9-11.2-4.4-16.9c-0.3-1.1-0.7-2.3-1.2-3.3
	c-1.8-3.5-5.1-5.2-8.5-4.5c-4,0.8-6.5,3.5-6.8,7.5s0.6,8,0.9,12c0.2,3,0.5,6,0.8,9c0.1,1.4-0.3,2.6-1.9,2.8s-2.2-0.8-2.5-2.2
	c-0.2-1.9-0.8-3.7-1.6-5.5c-1.9-3.4-5.4-4.8-8.8-3.7c-3.6,1.1-5.9,4.8-5.1,8.6c2.6,15.6,5.3,31.2,7.9,46.8c0.7,4.2,3.3,7.9,7,9.9
	c4.2,2.4,5.8,5.6,5.5,10.5c-0.4,6,0,12-0.1,18c0,3.6-0.6,4.2-4.1,4.3c-6,0.2-6.7-0.4-6.7-6.6c0-2.6,0-5.1,0-7.6c0-0.9,0-1.8,0-2.7
	c0.3-4.6-0.3-8.4-4.5-11.8c-5.3-4.3-7.1-10.9-8.1-17.7c-2.3-14.3-4.9-28.5-7.3-42.7c-1.7-9,4.3-17.6,13.2-19.3
	c0.8-0.1,1.6-0.2,2.4-0.3c2.5-0.1,3.3-0.3,3.4-3.3c0.2-10.1,8.5-17.2,18.6-16.1c3,0.3,4.7,0.2,6.1-3.2c3-7,11.4-10.9,19.7-9.6
	c2.2,0.3,2.4-0.2,1.8-1.9c-0.1-0.4-0.2-0.9-0.2-1.4c-0.2-2.3-1.3-8.7-2.2-15.4C48.1,50,41.2,32.7,47.7,17.8S71.4-4,86.3,2.4
	s21.8,23.7,15.4,38.7c-1.2,2.9-3,5.6-5.1,7.9c1.3,5.5,2.3,10.2,2.3,10.7c4.6,23.8,9.1,47.7,13.5,71.5
	C114.2,140,112.9,148.6,111.1,157.2z"/>
</svg>
